<?xml version="1.0" encoding="UTF-8" standalone="no"?>
<!DOCTYPE svg PUBLIC "-//W3C//DTD SVG 1.1//EN"
 "http://www.w3.org/Graphics/SVG/1.1/DTD/svg11.dtd">
<!-- Generated by graphviz version 14.1.1 (20251213.1925)
 -->
<!-- Pages: 1 -->
<svg width="4848pt" height="1279pt"
 viewBox="0.00 0.00 4848.00 1279.00" xmlns="http://www.w3.org/2000/svg" xmlns:xlink="http://www.w3.org/1999/xlink">
<g id="graph0" class="graph" transform="scale(1 1) rotate(0) translate(4 1275)">
<polygon fill="white" stroke="none" points="-4,4 -4,-1275 4844.38,-1275 4844.38,4 -4,4"/>
<text xml:space="preserve" text-anchor="middle" x="2420.19" y="-7.2" font-family="Times,serif" font-size="14.00">char_trivial</text>
<g id="clust1" class="cluster">
<title>cluster_2</title>
<polygon fill="palegreen" stroke="palegreen" points="1613.38,-828.75 1613.38,-1197 1943.38,-1197 1943.38,-828.75 1613.38,-828.75"/>
<text xml:space="preserve" text-anchor="middle" x="1778.38" y="-1179.7" font-family="Times,serif" font-size="14.00">main</text>
</g>
<g id="clust2" class="cluster">
<title>cluster_4</title>
<polygon fill="lightgray" stroke="lightgray" points="532.38,-801.5 532.38,-1246.5 1367.38,-1246.5 1367.38,-801.5 532.38,-801.5"/>
<text xml:space="preserve" text-anchor="middle" x="949.88" y="-1229.2" font-family="Times,serif" font-size="14.00">std::rt::lang_start::&lt;()&gt;</text>
</g>
<g id="clust3" class="cluster">
<title>cluster_6</title>
<polygon fill="lightgray" stroke="lightgray" points="3096.38,-123.5 3096.38,-767 3710.38,-767 3710.38,-123.5 3096.38,-123.5"/>
<text xml:space="preserve" text-anchor="middle" x="3403.38" y="-749.7" font-family="Times,serif" font-size="14.00">std::rt::lang_start::&lt;()&gt;</text>
<text xml:space="preserve" text-anchor="middle" x="3403.38" y="-733.2" font-family="Times,serif" font-size="14.00">::{closure#0}</text>
</g>
<g id="clust4" class="cluster">
<title>cluster_8</title>
<polygon fill="lightgray" stroke="lightgray" points="4259.38,-32.5 4259.38,-535.5 4491.38,-535.5 4491.38,-32.5 4259.38,-32.5"/>
<text xml:space="preserve" text-anchor="middle" x="4375.38" y="-518.2" font-family="Times,serif" font-size="14.00">std::sys::backtrace::__ru</text>
<text xml:space="preserve" text-anchor="middle" x="4375.38" y="-501.7" font-family="Times,serif" font-size="14.00">st_begin_short_backtrace:</text>
<text xml:space="preserve" text-anchor="middle" x="4375.38" y="-485.2" font-family="Times,serif" font-size="14.00">:&lt;fn(), </text>
<text xml:space="preserve" text-anchor="middle" x="4375.38" y="-468.7" font-family="Times,serif" font-size="14.00">()&gt;</text>
</g>
<g id="clust5" class="cluster">
<title>cluster_10</title>
<polygon fill="lightgray" stroke="lightgray" points="2019.38,-828.75 2019.38,-1263 2531.38,-1263 2531.38,-828.75 2019.38,-828.75"/>
<text xml:space="preserve" text-anchor="middle" x="2275.38" y="-1245.7" font-family="Times,serif" font-size="14.00">&lt;{closure@std::rt::lang_s</text>
<text xml:space="preserve" text-anchor="middle" x="2275.38" y="-1229.2" font-family="Times,serif" font-size="14.00">tart&lt;()&gt;::{closure#0}} </text>
<text xml:space="preserve" text-anchor="middle" x="2275.38" y="-1212.7" font-family="Times,serif" font-size="14.00">as </text>
<text xml:space="preserve" text-anchor="middle" x="2275.38" y="-1196.2" font-family="Times,serif" font-size="14.00">std::ops::FnOnce&lt;()&gt;&gt;::ca</text>
<text xml:space="preserve" text-anchor="middle" x="2275.38" y="-1179.7" font-family="Times,serif" font-size="14.00">ll_once</text>
</g>
<g id="clust6" class="cluster">
<title>cluster_12</title>
<polygon fill="lightgray" stroke="lightgray" points="4582.38,-32.5 4582.38,-337 4832.38,-337 4832.38,-32.5 4582.38,-32.5"/>
<text xml:space="preserve" text-anchor="middle" x="4707.38" y="-319.7" font-family="Times,serif" font-size="14.00">&lt;fn() </text>
<text xml:space="preserve" text-anchor="middle" x="4707.38" y="-303.2" font-family="Times,serif" font-size="14.00">as </text>
<text xml:space="preserve" text-anchor="middle" x="4707.38" y="-286.7" font-family="Times,serif" font-size="14.00">std::ops::FnOnce&lt;()&gt;&gt;::ca</text>
<text xml:space="preserve" text-anchor="middle" x="4707.38" y="-270.2" font-family="Times,serif" font-size="14.00">ll_once</text>
</g>
<g id="clust7" class="cluster">
<title>cluster_14</title>
<polygon fill="lightgray" stroke="lightgray" points="2539.38,-390.5 2539.38,-998.5 3088.38,-998.5 3088.38,-390.5 2539.38,-390.5"/>
<text xml:space="preserve" text-anchor="middle" x="2813.88" y="-981.2" font-family="Times,serif" font-size="14.00">&lt;{closure@std::rt::lang_s</text>
<text xml:space="preserve" text-anchor="middle" x="2813.88" y="-964.7" font-family="Times,serif" font-size="14.00">tart&lt;()&gt;::{closure#0}} </text>
<text xml:space="preserve" text-anchor="middle" x="2813.88" y="-948.2" font-family="Times,serif" font-size="14.00">as </text>
<text xml:space="preserve" text-anchor="middle" x="2813.88" y="-931.7" font-family="Times,serif" font-size="14.00">std::ops::FnOnce&lt;()&gt;&gt;::ca</text>
<text xml:space="preserve" text-anchor="middle" x="2813.88" y="-915.2" font-family="Times,serif" font-size="14.00">ll_once</text>
</g>
<g id="clust8" class="cluster">
<title>cluster_16</title>
<polygon fill="lightgray" stroke="lightgray" points="3429.38,-1090.75 3429.38,-1221.75 3941.38,-1221.75 3941.38,-1090.75 3429.38,-1090.75"/>
<text xml:space="preserve" text-anchor="middle" x="3685.38" y="-1204.45" font-family="Times,serif" font-size="14.00">std::ptr::drop_in_place::</text>
<text xml:space="preserve" text-anchor="middle" x="3685.38" y="-1187.95" font-family="Times,serif" font-size="14.00">&lt;{closure@std::rt::lang_s</text>
<text xml:space="preserve" text-anchor="middle" x="3685.38" y="-1171.45" font-family="Times,serif" font-size="14.00">tart&lt;()&gt;::{closure#0}}&gt;</text>
</g>
<g id="clust9" class="cluster">
<title>cluster_18</title>
<polygon fill="lightgray" stroke="lightgray" points="3718.38,-181.25 3718.38,-328.75 4251.38,-328.75 4251.38,-181.25 3718.38,-181.25"/>
<text xml:space="preserve" text-anchor="middle" x="3984.88" y="-311.45" font-family="Times,serif" font-size="14.00">&lt;() </text>
<text xml:space="preserve" text-anchor="middle" x="3984.88" y="-294.95" font-family="Times,serif" font-size="14.00">as </text>
<text xml:space="preserve" text-anchor="middle" x="3984.88" y="-278.45" font-family="Times,serif" font-size="14.00">std::process::Termination</text>
<text xml:space="preserve" text-anchor="middle" x="3984.88" y="-261.95" font-family="Times,serif" font-size="14.00">&gt;::report</text>
</g>
<!-- node_0 -->
<g id="node1" class="node">
<title>node_0</title>
<polygon fill="lightyellow" stroke="lightyellow" points="130.75,-1148 0,-1148 0,-1107 130.75,-1107 130.75,-1148"/>
<text xml:space="preserve" text-anchor="start" x="8" y="-1130.7" font-family="Times,serif" font-size="14.00">ALLOCS</text>
<text xml:space="preserve" text-anchor="start" x="8" y="-1114.2" font-family="Times,serif" font-size="14.00">alloc1: Str (26 bytes)</text>
</g>
<!-- node_1 -->
<g id="node2" class="node">
<title>node_1</title>
<polygon fill="lavender" stroke="lavender" points="522.25,-1181 148.5,-1181 148.5,-1074 522.25,-1074 522.25,-1181"/>
<text xml:space="preserve" text-anchor="start" x="156.5" y="-1163.7" font-family="Times,serif" font-size="14.00">TYPES</text>
<text xml:space="preserve" text-anchor="start" x="156.5" y="-1147.2" font-family="Times,serif" font-size="14.00">() (0 bytes)</text>
<text xml:space="preserve" text-anchor="start" x="156.5" y="-1130.7" font-family="Times,serif" font-size="14.00">std::panic::Location&lt;&#39;_&gt; (24 bytes)</text>
<text xml:space="preserve" text-anchor="start" x="156.5" y="-1114.2" font-family="Times,serif" font-size="14.00">std::process::ExitCode (1 bytes)</text>
<text xml:space="preserve" text-anchor="start" x="156.5" y="-1097.7" font-family="Times,serif" font-size="14.00">std::result::Result&lt;isize, !&gt; (8 bytes)</text>
<text xml:space="preserve" text-anchor="start" x="156.5" y="-1081.2" font-family="Times,serif" font-size="14.00">std::sys::pal::unix::process::process_common::ExitCode (1 bytes)</text>
</g>
<!-- X5eb86185c1cf8f06_0 -->
<g id="node3" class="node">
<title>X5eb86185c1cf8f06_0</title>
<polygon fill="none" stroke="red" points="1543.12,-883.5 1375.62,-883.5 1375.62,-826 1543.12,-826 1543.12,-883.5"/>
<text xml:space="preserve" text-anchor="middle" x="1459.38" y="-866.2" font-family="Times,serif" font-size="14.00">_ZN3std2rt19lang_start_in</text>
<text xml:space="preserve" text-anchor="middle" x="1459.38" y="-849.7" font-family="Times,serif" font-size="14.00">ternal17h035df9ff6960926a</text>
<text xml:space="preserve" text-anchor="middle" x="1459.38" y="-833.2" font-family="Times,serif" font-size="14.00">E</text>
</g>
<!-- X210a8e5fe9313c81_0 -->
<g id="node4" class="node">
<title>X210a8e5fe9313c81_0</title>
<polygon fill="none" stroke="red" points="1975.12,-668.5 1801.62,-668.5 1801.62,-627.5 1975.12,-627.5 1975.12,-668.5"/>
<text xml:space="preserve" text-anchor="middle" x="1888.38" y="-651.2" font-family="Times,serif" font-size="14.00">_ZN4core9panicking5panic1</text>
<text xml:space="preserve" text-anchor="middle" x="1888.38" y="-634.7" font-family="Times,serif" font-size="14.00">7h37379bf3ce79a0d7E</text>
</g>
<!-- X8b0ac2e54b9a91_0 -->
<g id="node5" class="node">
<title>X8b0ac2e54b9a91_0</title>
<polygon fill="none" stroke="red" points="2009.62,-1145.5 1953.12,-1145.5 1953.12,-1109.5 2009.62,-1109.5 2009.62,-1145.5"/>
<text xml:space="preserve" text-anchor="middle" x="1981.38" y="-1122.45" font-family="Times,serif" font-size="14.00">NoOp: </text>
</g>
<!-- X3c6542d96320ad67_0 -->
<g id="node6" class="node">
<title>X3c6542d96320ad67_0</title>
<polygon fill="none" stroke="red" points="4571.5,-79 4499.25,-79 4499.25,-38 4571.5,-38 4571.5,-79"/>
<text xml:space="preserve" text-anchor="middle" x="4535.38" y="-61.7" font-family="Times,serif" font-size="14.00">Intr: </text>
<text xml:space="preserve" text-anchor="middle" x="4535.38" y="-45.2" font-family="Times,serif" font-size="14.00">black_box</text>
</g>
<!-- node_3 -->
<g id="node7" class="node">
<title>node_3</title>
<polygon fill="#7ccd7c" stroke="#7ccd7c" points="1765.5,-1164.5 1621.25,-1164.5 1621.25,-1090.5 1765.5,-1090.5 1765.5,-1164.5"/>
<text xml:space="preserve" text-anchor="start" x="1629.25" y="-1147.2" font-family="Times,serif" font-size="14.00">LOCALS</text>
<text xml:space="preserve" text-anchor="start" x="1629.25" y="-1130.7" font-family="Times,serif" font-size="14.00">0 = () (0 bytes, align 1)</text>
<text xml:space="preserve" text-anchor="start" x="1629.25" y="-1114.2" font-family="Times,serif" font-size="14.00">1 = Char</text>
<text xml:space="preserve" text-anchor="start" x="1629.25" y="-1097.7" font-family="Times,serif" font-size="14.00">2 = ()</text>
</g>
<!-- X4e58a5f02abb8a08_0 -->
<g id="node8" class="node">
<title>X4e58a5f02abb8a08_0</title>
<polygon fill="none" stroke="black" points="1935.25,-1148 1783.5,-1148 1783.5,-1107 1935.25,-1107 1935.25,-1148"/>
<text xml:space="preserve" text-anchor="start" x="1791.5" y="-1130.7" font-family="Times,serif" font-size="14.00">1 &lt;&#45; Use(const 97_Char)</text>
<text xml:space="preserve" text-anchor="start" x="1791.5" y="-1114.2" font-family="Times,serif" font-size="14.00">SwitchInt mv(1)</text>
</g>
<!-- X4e58a5f02abb8a08_1 -->
<g id="node9" class="node">
<title>X4e58a5f02abb8a08_1</title>
<polygon fill="none" stroke="black" points="1843.38,-872.75 1789.38,-872.75 1789.38,-836.75 1843.38,-836.75 1843.38,-872.75"/>
<text xml:space="preserve" text-anchor="start" x="1797.38" y="-849.7" font-family="Times,serif" font-size="14.00">Return</text>
</g>
<!-- X4e58a5f02abb8a08_0&#45;&gt;X4e58a5f02abb8a08_1 -->
<g id="edge1" class="edge">
<title>X4e58a5f02abb8a08_0&#45;&gt;X4e58a5f02abb8a08_1</title>
<path fill="none" stroke="black" d="M1856.21,-1106.59C1848.69,-1059.25 1829.72,-939.78 1820.95,-884.56"/>
<polygon fill="black" stroke="black" points="1824.41,-884.02 1819.38,-874.69 1817.49,-885.11 1824.41,-884.02"/>
<text xml:space="preserve" text-anchor="middle" x="1848.48" y="-1009.7" font-family="Times,serif" font-size="14.00">97</text>
</g>
<!-- X4e58a5f02abb8a08_2 -->
<g id="node10" class="node">
<title>X4e58a5f02abb8a08_2</title>
<polygon fill="none" stroke="black" points="1915.38,-872.75 1861.38,-872.75 1861.38,-836.75 1915.38,-836.75 1915.38,-872.75"/>
<text xml:space="preserve" text-anchor="start" x="1869.38" y="-849.7" font-family="Times,serif" font-size="14.00">Call</text>
</g>
<!-- X4e58a5f02abb8a08_0&#45;&gt;X4e58a5f02abb8a08_2 -->
<g id="edge2" class="edge">
<title>X4e58a5f02abb8a08_0&#45;&gt;X4e58a5f02abb8a08_2</title>
<path fill="none" stroke="black" d="M1861.51,-1106.59C1866.58,-1059.25 1879.37,-939.78 1885.29,-884.56"/>
<polygon fill="black" stroke="black" points="1888.76,-885.01 1886.35,-874.7 1881.8,-884.27 1888.76,-885.01"/>
<text xml:space="preserve" text-anchor="middle" x="1886.01" y="-1009.7" font-family="Times,serif" font-size="14.00">other</text>
</g>
<!-- X4e58a5f02abb8a08_2&#45;&gt;X210a8e5fe9313c81_0 -->
<g id="edge3" class="edge">
<title>X4e58a5f02abb8a08_2&#45;&gt;X210a8e5fe9313c81_0</title>
<path fill="none" stroke="black" d="M1888.38,-836.29C1888.38,-801.64 1888.38,-723.76 1888.38,-680.13"/>
<polygon fill="black" stroke="black" points="1891.88,-680.31 1888.38,-670.31 1884.88,-680.31 1891.88,-680.31"/>
<text xml:space="preserve" text-anchor="middle" x="1925.5" y="-778.2" font-family="Times,serif" font-size="14.00">const [alloc0]</text>
</g>
<!-- node_5 -->
<g id="node11" class="node">
<title>node_5</title>
<polygon fill="#7ccd7c" stroke="#7ccd7c" points="1102.75,-1214 540,-1214 540,-1041 1102.75,-1041 1102.75,-1214"/>
<text xml:space="preserve" text-anchor="start" x="548" y="-1196.7" font-family="Times,serif" font-size="14.00">LOCALS</text>
<text xml:space="preserve" text-anchor="start" x="548" y="-1180.2" font-family="Times,serif" font-size="14.00">0 = Int(Isize)</text>
<text xml:space="preserve" text-anchor="start" x="548" y="-1163.7" font-family="Times,serif" font-size="14.00">1 = fn()</text>
<text xml:space="preserve" text-anchor="start" x="548" y="-1147.2" font-family="Times,serif" font-size="14.00">2 = Int(Isize)</text>
<text xml:space="preserve" text-anchor="start" x="548" y="-1130.7" font-family="Times,serif" font-size="14.00">3 = *const *const u8 (8 bytes, align 8)</text>
<text xml:space="preserve" text-anchor="start" x="548" y="-1114.2" font-family="Times,serif" font-size="14.00">4 = Uint(U8)</text>
<text xml:space="preserve" text-anchor="start" x="548" y="-1097.7" font-family="Times,serif" font-size="14.00">5 = std::result::Result&lt;isize, !&gt; (8 bytes, align 8)</text>
<text xml:space="preserve" text-anchor="start" x="548" y="-1081.2" font-family="Times,serif" font-size="14.00">6 = &amp;dyn std::ops::Fn() &#45;&gt; i32 + std::marker::Sync + std::panic::RefUnwindSafe (16 bytes, align 8)</text>
<text xml:space="preserve" text-anchor="start" x="548" y="-1064.7" font-family="Times,serif" font-size="14.00">7 = &amp;{closure@std::rt::lang_start&lt;()&gt;::{closure#0}} (8 bytes, align 8)</text>
<text xml:space="preserve" text-anchor="start" x="548" y="-1048.2" font-family="Times,serif" font-size="14.00">8 = {closure@std::rt::lang_start&lt;()&gt;::{closure#0}}</text>
</g>
<!-- Xd271dae06cb02d56_0 -->
<g id="node12" class="node">
<title>Xd271dae06cb02d56_0</title>
<polygon fill="none" stroke="black" points="1359.75,-1189.25 1121,-1189.25 1121,-1065.75 1359.75,-1065.75 1359.75,-1189.25"/>
<text xml:space="preserve" text-anchor="start" x="1129" y="-1171.95" font-family="Times,serif" font-size="14.00">Storage Live _5</text>
<text xml:space="preserve" text-anchor="start" x="1129" y="-1155.45" font-family="Times,serif" font-size="14.00">Storage Live _6</text>
<text xml:space="preserve" text-anchor="start" x="1129" y="-1138.95" font-family="Times,serif" font-size="14.00">Storage Live _8</text>
<text xml:space="preserve" text-anchor="start" x="1129" y="-1122.45" font-family="Times,serif" font-size="14.00">8 &lt;&#45; Closure (cp(1))</text>
<text xml:space="preserve" text-anchor="start" x="1129" y="-1105.95" font-family="Times,serif" font-size="14.00">7 &lt;&#45; &amp; 8</text>
<text xml:space="preserve" text-anchor="start" x="1129" y="-1089.45" font-family="Times,serif" font-size="14.00">6 &lt;&#45; Cast&#45;PointerCoercion(Unsize) cp(7)</text>
<text xml:space="preserve" text-anchor="start" x="1129" y="-1072.95" font-family="Times,serif" font-size="14.00">Call</text>
</g>
<!-- Xd271dae06cb02d56_0&#45;&gt;X5eb86185c1cf8f06_0 -->
<g id="edge5" class="edge">
<title>Xd271dae06cb02d56_0&#45;&gt;X5eb86185c1cf8f06_0</title>
<path fill="none" stroke="black" d="M1309.27,-1065.31C1330.32,-1045.05 1352.8,-1021.72 1371.38,-998.5 1397.89,-965.35 1422.75,-923.65 1439.24,-893.9"/>
<polygon fill="black" stroke="black" points="1442.25,-895.69 1443.98,-885.24 1436.11,-892.33 1442.25,-895.69"/>
<text xml:space="preserve" text-anchor="middle" x="1435.05" y="-1009.7" font-family="Times,serif" font-size="14.00">mv(6),mv(2),mv(3),mv(4)</text>
</g>
<!-- Xd271dae06cb02d56_1 -->
<g id="node13" class="node">
<title>Xd271dae06cb02d56_1</title>
<polygon fill="none" stroke="black" points="1334.25,-900 1146.5,-900 1146.5,-809.5 1334.25,-809.5 1334.25,-900"/>
<text xml:space="preserve" text-anchor="start" x="1154.5" y="-882.7" font-family="Times,serif" font-size="14.00">Storage Dead _6</text>
<text xml:space="preserve" text-anchor="start" x="1154.5" y="-866.2" font-family="Times,serif" font-size="14.00">0 &lt;&#45; Use(cp((5 as variant 0).0))</text>
<text xml:space="preserve" text-anchor="start" x="1154.5" y="-849.7" font-family="Times,serif" font-size="14.00">Storage Dead _8</text>
<text xml:space="preserve" text-anchor="start" x="1154.5" y="-833.2" font-family="Times,serif" font-size="14.00">Storage Dead _5</text>
<text xml:space="preserve" text-anchor="start" x="1154.5" y="-816.7" font-family="Times,serif" font-size="14.00">Return</text>
</g>
<!-- Xd271dae06cb02d56_0&#45;&gt;Xd271dae06cb02d56_1 -->
<g id="edge4" class="edge">
<title>Xd271dae06cb02d56_0&#45;&gt;Xd271dae06cb02d56_1</title>
<path fill="none" stroke="black" d="M1240.38,-1065.4C1240.38,-1019.2 1240.38,-956.29 1240.38,-911.46"/>
<polygon fill="black" stroke="black" points="1243.88,-911.7 1240.38,-901.7 1236.88,-911.7 1243.88,-911.7"/>
<text xml:space="preserve" text-anchor="middle" x="1243.75" y="-1009.7" font-family="Times,serif" font-size="14.00">5</text>
</g>
<!-- node_7 -->
<g id="node14" class="node">
<title>node_7</title>
<polygon fill="#7ccd7c" stroke="#7ccd7c" points="3556.62,-718 3104.12,-718 3104.12,-578 3556.62,-578 3556.62,-718"/>
<text xml:space="preserve" text-anchor="start" x="3112.12" y="-700.7" font-family="Times,serif" font-size="14.00">LOCALS</text>
<text xml:space="preserve" text-anchor="start" x="3112.12" y="-684.2" font-family="Times,serif" font-size="14.00">0 = Int(I32)</text>
<text xml:space="preserve" text-anchor="start" x="3112.12" y="-667.7" font-family="Times,serif" font-size="14.00">1 = &amp;{closure@std::rt::lang_start&lt;()&gt;::{closure#0}} (8 bytes, align 8)</text>
<text xml:space="preserve" text-anchor="start" x="3112.12" y="-651.2" font-family="Times,serif" font-size="14.00">2 = std::process::ExitCode (1 bytes, align 1)</text>
<text xml:space="preserve" text-anchor="start" x="3112.12" y="-634.7" font-family="Times,serif" font-size="14.00">3 = () (0 bytes, align 1)</text>
<text xml:space="preserve" text-anchor="start" x="3112.12" y="-618.2" font-family="Times,serif" font-size="14.00">4 = fn()</text>
<text xml:space="preserve" text-anchor="start" x="3112.12" y="-601.7" font-family="Times,serif" font-size="14.00">5 = &amp;std::sys::pal::unix::process::process_common::ExitCode (8 bytes, align 8)</text>
<text xml:space="preserve" text-anchor="start" x="3112.12" y="-585.2" font-family="Times,serif" font-size="14.00">6 = Uint(U8)</text>
</g>
<!-- Xd6bdb8f9f916c377_0 -->
<g id="node15" class="node">
<title>Xd6bdb8f9f916c377_0</title>
<polygon fill="none" stroke="black" points="3702.25,-693.25 3574.5,-693.25 3574.5,-602.75 3702.25,-602.75 3702.25,-693.25"/>
<text xml:space="preserve" text-anchor="start" x="3582.5" y="-675.95" font-family="Times,serif" font-size="14.00">Storage Live _2</text>
<text xml:space="preserve" text-anchor="start" x="3582.5" y="-659.45" font-family="Times,serif" font-size="14.00">Storage Live _3</text>
<text xml:space="preserve" text-anchor="start" x="3582.5" y="-642.95" font-family="Times,serif" font-size="14.00">Storage Live _4</text>
<text xml:space="preserve" text-anchor="start" x="3582.5" y="-626.45" font-family="Times,serif" font-size="14.00">4 &lt;&#45; Use(cp((*1).0))</text>
<text xml:space="preserve" text-anchor="start" x="3582.5" y="-609.95" font-family="Times,serif" font-size="14.00">Call</text>
</g>
<!-- Xd6bdb8f9f916c377_1 -->
<g id="node16" class="node">
<title>Xd6bdb8f9f916c377_1</title>
<polygon fill="none" stroke="black" points="3691.75,-437 3585,-437 3585,-396 3691.75,-396 3691.75,-437"/>
<text xml:space="preserve" text-anchor="start" x="3593" y="-419.7" font-family="Times,serif" font-size="14.00">Storage Dead _4</text>
<text xml:space="preserve" text-anchor="start" x="3593" y="-403.2" font-family="Times,serif" font-size="14.00">Call</text>
</g>
<!-- Xd6bdb8f9f916c377_0&#45;&gt;Xd6bdb8f9f916c377_1 -->
<g id="edge6" class="edge">
<title>Xd6bdb8f9f916c377_0&#45;&gt;Xd6bdb8f9f916c377_1</title>
<path fill="none" stroke="black" d="M3638.38,-602.48C3638.38,-557.23 3638.38,-488.32 3638.38,-448.63"/>
<polygon fill="black" stroke="black" points="3641.88,-448.82 3638.38,-438.82 3634.88,-448.82 3641.88,-448.82"/>
<text xml:space="preserve" text-anchor="middle" x="3641.75" y="-546.7" font-family="Times,serif" font-size="14.00">3</text>
</g>
<!-- X76360b8370fbfec8_0 -->
<g id="node18" class="node">
<title>X76360b8370fbfec8_0</title>
<polygon fill="none" stroke="black" points="4321.38,-434.5 4267.38,-434.5 4267.38,-398.5 4321.38,-398.5 4321.38,-434.5"/>
<text xml:space="preserve" text-anchor="start" x="4275.38" y="-411.45" font-family="Times,serif" font-size="14.00">Call</text>
</g>
<!-- Xd6bdb8f9f916c377_0&#45;&gt;X76360b8370fbfec8_0 -->
<g id="edge8" class="edge">
<title>Xd6bdb8f9f916c377_0&#45;&gt;X76360b8370fbfec8_0</title>
<path fill="none" stroke="black" d="M3702.47,-624.58C3837.61,-577.3 4148.2,-468.64 4256.38,-430.79"/>
<polygon fill="black" stroke="black" points="4257.38,-434.15 4265.66,-427.55 4255.07,-427.54 4257.38,-434.15"/>
<text xml:space="preserve" text-anchor="middle" x="3943.97" y="-546.7" font-family="Times,serif" font-size="14.00">mv(4)</text>
</g>
<!-- Xd6bdb8f9f916c377_2 -->
<g id="node17" class="node">
<title>Xd6bdb8f9f916c377_2</title>
<polygon fill="none" stroke="black" points="3702.38,-304.5 3548.38,-304.5 3548.38,-131.5 3702.38,-131.5 3702.38,-304.5"/>
<text xml:space="preserve" text-anchor="start" x="3556.38" y="-287.2" font-family="Times,serif" font-size="14.00">Storage Dead _3</text>
<text xml:space="preserve" text-anchor="start" x="3556.38" y="-270.7" font-family="Times,serif" font-size="14.00">Storage Live _5</text>
<text xml:space="preserve" text-anchor="start" x="3556.38" y="-254.2" font-family="Times,serif" font-size="14.00">5 &lt;&#45; &amp; 2.0</text>
<text xml:space="preserve" text-anchor="start" x="3556.38" y="-237.7" font-family="Times,serif" font-size="14.00">Storage Live _6</text>
<text xml:space="preserve" text-anchor="start" x="3556.38" y="-221.2" font-family="Times,serif" font-size="14.00">6 &lt;&#45; Use(cp(2.0.0))</text>
<text xml:space="preserve" text-anchor="start" x="3556.38" y="-204.7" font-family="Times,serif" font-size="14.00">0 &lt;&#45; Cast&#45;IntToInt mv(6)</text>
<text xml:space="preserve" text-anchor="start" x="3556.38" y="-188.2" font-family="Times,serif" font-size="14.00">Storage Dead _6</text>
<text xml:space="preserve" text-anchor="start" x="3556.38" y="-171.7" font-family="Times,serif" font-size="14.00">Storage Dead _5</text>
<text xml:space="preserve" text-anchor="start" x="3556.38" y="-155.2" font-family="Times,serif" font-size="14.00">Storage Dead _2</text>
<text xml:space="preserve" text-anchor="start" x="3556.38" y="-138.7" font-family="Times,serif" font-size="14.00">Return</text>
</g>
<!-- Xd6bdb8f9f916c377_1&#45;&gt;Xd6bdb8f9f916c377_2 -->
<g id="edge7" class="edge">
<title>Xd6bdb8f9f916c377_1&#45;&gt;Xd6bdb8f9f916c377_2</title>
<path fill="none" stroke="black" d="M3637.06,-395.58C3635.8,-376.54 3633.8,-346.38 3631.81,-316.33"/>
<polygon fill="black" stroke="black" points="3635.31,-316.1 3631.15,-306.35 3628.32,-316.56 3635.31,-316.1"/>
<text xml:space="preserve" text-anchor="middle" x="3637.91" y="-348.2" font-family="Times,serif" font-size="14.00">2</text>
</g>
<!-- Xb01730a897bc8066_0 -->
<g id="node19" class="node">
<title>Xb01730a897bc8066_0</title>
<polygon fill="none" stroke="black" points="3967.88,-238.5 3726.88,-238.5 3726.88,-197.5 3967.88,-197.5 3967.88,-238.5"/>
<text xml:space="preserve" text-anchor="start" x="3734.88" y="-221.2" font-family="Times,serif" font-size="14.00">0 &lt;&#45; Use(const 0_std::process::ExitCode)</text>
<text xml:space="preserve" text-anchor="start" x="3734.88" y="-204.7" font-family="Times,serif" font-size="14.00">Return</text>
</g>
<!-- Xd6bdb8f9f916c377_1&#45;&gt;Xb01730a897bc8066_0 -->
<g id="edge9" class="edge">
<title>Xd6bdb8f9f916c377_1&#45;&gt;Xb01730a897bc8066_0</title>
<path fill="none" stroke="black" d="M3659.57,-395.58C3697.04,-360.34 3775.08,-286.97 3817.82,-246.78"/>
<polygon fill="black" stroke="black" points="3820.14,-249.41 3825.03,-240.01 3815.34,-244.31 3820.14,-249.41"/>
<text xml:space="preserve" text-anchor="middle" x="3728.82" y="-348.2" font-family="Times,serif" font-size="14.00">mv(3)</text>
</g>
<!-- X76360b8370fbfec8_1 -->
<g id="node21" class="node">
<title>X76360b8370fbfec8_1</title>
<polygon fill="none" stroke="black" points="4401.38,-236 4347.38,-236 4347.38,-200 4401.38,-200 4401.38,-236"/>
<text xml:space="preserve" text-anchor="start" x="4355.38" y="-212.95" font-family="Times,serif" font-size="14.00">Call</text>
</g>
<!-- X76360b8370fbfec8_0&#45;&gt;X76360b8370fbfec8_1 -->
<g id="edge10" class="edge">
<title>X76360b8370fbfec8_0&#45;&gt;X76360b8370fbfec8_1</title>
<path fill="none" stroke="black" d="M4301.47,-398.06C4315.35,-363.98 4346.18,-288.26 4362.96,-247.05"/>
<polygon fill="black" stroke="black" points="4366.19,-248.38 4366.72,-237.8 4359.71,-245.74 4366.19,-248.38"/>
<text xml:space="preserve" text-anchor="middle" x="4325.91" y="-348.2" font-family="Times,serif" font-size="14.00">0</text>
</g>
<!-- Xea018b0379393ed5_0 -->
<g id="node23" class="node">
<title>Xea018b0379393ed5_0</title>
<polygon fill="none" stroke="black" points="4644.38,-236 4590.38,-236 4590.38,-200 4644.38,-200 4644.38,-236"/>
<text xml:space="preserve" text-anchor="start" x="4598.38" y="-212.95" font-family="Times,serif" font-size="14.00">Call</text>
</g>
<!-- X76360b8370fbfec8_0&#45;&gt;Xea018b0379393ed5_0 -->
<g id="edge12" class="edge">
<title>X76360b8370fbfec8_0&#45;&gt;Xea018b0379393ed5_0</title>
<path fill="none" stroke="black" d="M4308.25,-398.06C4314.38,-391.38 4322.08,-384.23 4330.38,-379.5 4396.14,-341.96 4429.3,-374 4495.38,-337 4537.23,-313.56 4575.19,-272.21 4597.28,-245.21"/>
<polygon fill="black" stroke="black" points="4599.95,-247.48 4603.47,-237.49 4594.48,-243.11 4599.95,-247.48"/>
<text xml:space="preserve" text-anchor="middle" x="4515.85" y="-348.2" font-family="Times,serif" font-size="14.00">mv(1),const ()</text>
</g>
<!-- node_9 -->
<g id="node20" class="node">
<title>node_9</title>
<polygon fill="#7ccd7c" stroke="#7ccd7c" points="4483.5,-453.5 4339.25,-453.5 4339.25,-379.5 4483.5,-379.5 4483.5,-453.5"/>
<text xml:space="preserve" text-anchor="start" x="4347.25" y="-436.2" font-family="Times,serif" font-size="14.00">LOCALS</text>
<text xml:space="preserve" text-anchor="start" x="4347.25" y="-419.7" font-family="Times,serif" font-size="14.00">0 = () (0 bytes, align 1)</text>
<text xml:space="preserve" text-anchor="start" x="4347.25" y="-403.2" font-family="Times,serif" font-size="14.00">1 = fn()</text>
<text xml:space="preserve" text-anchor="start" x="4347.25" y="-386.7" font-family="Times,serif" font-size="14.00">2 = () (0 bytes, align 1)</text>
</g>
<!-- X76360b8370fbfec8_1&#45;&gt;X3c6542d96320ad67_0 -->
<g id="edge13" class="edge">
<title>X76360b8370fbfec8_1&#45;&gt;X3c6542d96320ad67_0</title>
<path fill="none" stroke="black" d="M4392.22,-199.54C4420.07,-172.3 4474.11,-119.44 4507.24,-87.03"/>
<polygon fill="black" stroke="black" points="4509.4,-89.81 4514.1,-80.31 4504.5,-84.8 4509.4,-89.81"/>
<text xml:space="preserve" text-anchor="middle" x="4517.09" y="-100.2" font-family="Times,serif" font-size="14.00">const ()</text>
</g>
<!-- X76360b8370fbfec8_2 -->
<g id="node22" class="node">
<title>X76360b8370fbfec8_2</title>
<polygon fill="none" stroke="black" points="4401.38,-76.5 4347.38,-76.5 4347.38,-40.5 4401.38,-40.5 4401.38,-76.5"/>
<text xml:space="preserve" text-anchor="start" x="4355.38" y="-53.45" font-family="Times,serif" font-size="14.00">Return</text>
</g>
<!-- X76360b8370fbfec8_1&#45;&gt;X76360b8370fbfec8_2 -->
<g id="edge11" class="edge">
<title>X76360b8370fbfec8_1&#45;&gt;X76360b8370fbfec8_2</title>
<path fill="none" stroke="black" d="M4374.38,-199.54C4374.38,-172.56 4374.38,-120.44 4374.38,-87.95"/>
<polygon fill="black" stroke="black" points="4377.88,-88.07 4374.38,-78.07 4370.88,-88.07 4377.88,-88.07"/>
<text xml:space="preserve" text-anchor="middle" x="4377.75" y="-100.2" font-family="Times,serif" font-size="14.00">2</text>
</g>
<!-- Xea018b0379393ed5_0&#45;&gt;Xea018b0379393ed5_0 -->
<g id="edge17" class="edge">
<title>Xea018b0379393ed5_0&#45;&gt;Xea018b0379393ed5_0:1</title>
<path fill="none" stroke="black" d="M4634.93,-236.41C4648.52,-243.3 4662.38,-237.16 4662.38,-218 4662.38,-204.08 4655.06,-197.03 4645.85,-196.86"/>
<polygon fill="black" stroke="black" points="4645.25,-193.4 4636.4,-199.22 4646.95,-200.2 4645.25,-193.4"/>
</g>
<!-- Xea018b0379393ed5_1 -->
<g id="node29" class="node">
<title>Xea018b0379393ed5_1</title>
<polygon fill="none" stroke="black" points="4644.38,-76.5 4590.38,-76.5 4590.38,-40.5 4644.38,-40.5 4644.38,-76.5"/>
<text xml:space="preserve" text-anchor="start" x="4598.38" y="-53.45" font-family="Times,serif" font-size="14.00">Return</text>
</g>
<!-- Xea018b0379393ed5_0&#45;&gt;Xea018b0379393ed5_1 -->
<g id="edge16" class="edge">
<title>Xea018b0379393ed5_0&#45;&gt;Xea018b0379393ed5_1</title>
<path fill="none" stroke="black" d="M4617.38,-199.54C4617.38,-172.56 4617.38,-120.44 4617.38,-87.95"/>
<polygon fill="black" stroke="black" points="4620.88,-88.07 4617.38,-78.07 4613.88,-88.07 4620.88,-88.07"/>
<text xml:space="preserve" text-anchor="middle" x="4620.75" y="-100.2" font-family="Times,serif" font-size="14.00">0</text>
</g>
<!-- node_11 -->
<g id="node24" class="node">
<title>node_11</title>
<polygon fill="#7ccd7c" stroke="#7ccd7c" points="2451.38,-1164.5 2027.38,-1164.5 2027.38,-1090.5 2451.38,-1090.5 2451.38,-1164.5"/>
<text xml:space="preserve" text-anchor="start" x="2035.38" y="-1147.2" font-family="Times,serif" font-size="14.00">LOCALS</text>
<text xml:space="preserve" text-anchor="start" x="2035.38" y="-1130.7" font-family="Times,serif" font-size="14.00">0 = Int(I32)</text>
<text xml:space="preserve" text-anchor="start" x="2035.38" y="-1114.2" font-family="Times,serif" font-size="14.00">1 = *mut {closure@std::rt::lang_start&lt;()&gt;::{closure#0}} (8 bytes, align 8)</text>
<text xml:space="preserve" text-anchor="start" x="2035.38" y="-1097.7" font-family="Times,serif" font-size="14.00">2 = () (0 bytes, align 1)</text>
</g>
<!-- X30ffccddb31b242d_0 -->
<g id="node25" class="node">
<title>X30ffccddb31b242d_0</title>
<polygon fill="none" stroke="black" points="2523.38,-1145.5 2469.38,-1145.5 2469.38,-1109.5 2523.38,-1109.5 2523.38,-1145.5"/>
<text xml:space="preserve" text-anchor="start" x="2477.38" y="-1122.45" font-family="Times,serif" font-size="14.00">Call</text>
</g>
<!-- X30ffccddb31b242d_1 -->
<g id="node26" class="node">
<title>X30ffccddb31b242d_1</title>
<polygon fill="none" stroke="black" points="2523.38,-872.75 2469.38,-872.75 2469.38,-836.75 2523.38,-836.75 2523.38,-872.75"/>
<text xml:space="preserve" text-anchor="start" x="2477.38" y="-849.7" font-family="Times,serif" font-size="14.00">Return</text>
</g>
<!-- X30ffccddb31b242d_0&#45;&gt;X30ffccddb31b242d_1 -->
<g id="edge14" class="edge">
<title>X30ffccddb31b242d_0&#45;&gt;X30ffccddb31b242d_1</title>
<path fill="none" stroke="black" d="M2496.38,-1109.15C2496.38,-1063.59 2496.38,-940.21 2496.38,-884.15"/>
<polygon fill="black" stroke="black" points="2499.88,-884.47 2496.38,-874.47 2492.88,-884.47 2499.88,-884.47"/>
<text xml:space="preserve" text-anchor="middle" x="2499.75" y="-1009.7" font-family="Times,serif" font-size="14.00">0</text>
</g>
<!-- X2eeb0b8cf8e3b702_0 -->
<g id="node27" class="node">
<title>X2eeb0b8cf8e3b702_0</title>
<polygon fill="none" stroke="black" points="2633.62,-875.25 2547.12,-875.25 2547.12,-834.25 2633.62,-834.25 2633.62,-875.25"/>
<text xml:space="preserve" text-anchor="start" x="2555.12" y="-857.95" font-family="Times,serif" font-size="14.00">3 &lt;&#45; &amp;mut 1</text>
<text xml:space="preserve" text-anchor="start" x="2555.12" y="-841.45" font-family="Times,serif" font-size="14.00">Call</text>
</g>
<!-- X30ffccddb31b242d_0&#45;&gt;X2eeb0b8cf8e3b702_0 -->
<g id="edge15" class="edge">
<title>X30ffccddb31b242d_0&#45;&gt;X2eeb0b8cf8e3b702_0</title>
<path fill="none" stroke="black" d="M2502.4,-1109.15C2518.02,-1064.16 2559.98,-943.3 2579.77,-886.3"/>
<polygon fill="black" stroke="black" points="2583.06,-887.5 2583.03,-876.9 2576.45,-885.2 2583.06,-887.5"/>
<text xml:space="preserve" text-anchor="middle" x="2581.25" y="-1009.7" font-family="Times,serif" font-size="14.00">mv((*1)),mv(2)</text>
</g>
<!-- X2eeb0b8cf8e3b702_0&#45;&gt;Xd6bdb8f9f916c377_0 -->
<g id="edge22" class="edge">
<title>X2eeb0b8cf8e3b702_0&#45;&gt;Xd6bdb8f9f916c377_0</title>
<path fill="none" stroke="black" d="M2604.4,-833.88C2613.91,-822.15 2627.6,-808.32 2643.38,-801.5 2737.48,-760.84 3476.77,-818.57 3565.38,-767 3589.41,-753.01 3606.61,-727.65 3618.25,-704.02"/>
<polygon fill="black" stroke="black" points="3621.38,-705.6 3622.42,-695.05 3615.03,-702.64 3621.38,-705.6"/>
<text xml:space="preserve" text-anchor="middle" x="3578.3" y="-778.2" font-family="Times,serif" font-size="14.00">mv(3),mv(2)</text>
</g>
<!-- X2eeb0b8cf8e3b702_3 -->
<g id="node31" class="node">
<title>X2eeb0b8cf8e3b702_3</title>
<polygon fill="none" stroke="black" points="2611.5,-666 2557.25,-666 2557.25,-630 2611.5,-630 2611.5,-666"/>
<text xml:space="preserve" text-anchor="start" x="2565.25" y="-642.95" font-family="Times,serif" font-size="14.00">Drop 1</text>
</g>
<!-- X2eeb0b8cf8e3b702_0&#45;&gt;X2eeb0b8cf8e3b702_3 -->
<g id="edge18" class="edge">
<title>X2eeb0b8cf8e3b702_0&#45;&gt;X2eeb0b8cf8e3b702_3</title>
<path fill="none" stroke="black" d="M2589.71,-833.85C2589.31,-821.63 2588.8,-805.66 2588.38,-791.5 2587.18,-751.89 2585.92,-706.08 2585.14,-677.32"/>
<polygon fill="black" stroke="black" points="2588.64,-677.52 2584.87,-667.62 2581.65,-677.71 2588.64,-677.52"/>
<text xml:space="preserve" text-anchor="middle" x="2610.88" y="-778.2" font-family="Times,serif" font-size="14.00">Cleanup</text>
</g>
<!-- X2eeb0b8cf8e3b702_1 -->
<g id="node32" class="node">
<title>X2eeb0b8cf8e3b702_1</title>
<polygon fill="none" stroke="black" points="2684.5,-666 2630.25,-666 2630.25,-630 2684.5,-630 2684.5,-666"/>
<text xml:space="preserve" text-anchor="start" x="2638.25" y="-642.95" font-family="Times,serif" font-size="14.00">Drop 1</text>
</g>
<!-- X2eeb0b8cf8e3b702_0&#45;&gt;X2eeb0b8cf8e3b702_1 -->
<g id="edge19" class="edge">
<title>X2eeb0b8cf8e3b702_0&#45;&gt;X2eeb0b8cf8e3b702_1</title>
<path fill="none" stroke="black" d="M2607.56,-833.76C2616.64,-822.15 2627.15,-806.83 2633.38,-791.5 2648.64,-753.91 2654.19,-706.94 2656.22,-677.45"/>
<polygon fill="black" stroke="black" points="2659.69,-678.02 2656.78,-667.84 2652.7,-677.62 2659.69,-678.02"/>
<text xml:space="preserve" text-anchor="middle" x="2642.09" y="-778.2" font-family="Times,serif" font-size="14.00">0</text>
</g>
<!-- node_13 -->
<g id="node28" class="node">
<title>node_13</title>
<polygon fill="#7ccd7c" stroke="#7ccd7c" points="4824.5,-255 4680.25,-255 4680.25,-181 4824.5,-181 4824.5,-255"/>
<text xml:space="preserve" text-anchor="start" x="4688.25" y="-237.7" font-family="Times,serif" font-size="14.00">LOCALS</text>
<text xml:space="preserve" text-anchor="start" x="4688.25" y="-221.2" font-family="Times,serif" font-size="14.00">0 = () (0 bytes, align 1)</text>
<text xml:space="preserve" text-anchor="start" x="4688.25" y="-204.7" font-family="Times,serif" font-size="14.00">1 = fn()</text>
<text xml:space="preserve" text-anchor="start" x="4688.25" y="-188.2" font-family="Times,serif" font-size="14.00">2 = () (0 bytes, align 1)</text>
</g>
<!-- node_15 -->
<g id="node30" class="node">
<title>node_15</title>
<polygon fill="#7ccd7c" stroke="#7ccd7c" points="3080.62,-900 2652.12,-900 2652.12,-809.5 3080.62,-809.5 3080.62,-900"/>
<text xml:space="preserve" text-anchor="start" x="2660.12" y="-882.7" font-family="Times,serif" font-size="14.00">LOCALS</text>
<text xml:space="preserve" text-anchor="start" x="2660.12" y="-866.2" font-family="Times,serif" font-size="14.00">0 = Int(I32)</text>
<text xml:space="preserve" text-anchor="start" x="2660.12" y="-849.7" font-family="Times,serif" font-size="14.00">1 = {closure@std::rt::lang_start&lt;()&gt;::{closure#0}}</text>
<text xml:space="preserve" text-anchor="start" x="2660.12" y="-833.2" font-family="Times,serif" font-size="14.00">2 = () (0 bytes, align 1)</text>
<text xml:space="preserve" text-anchor="start" x="2660.12" y="-816.7" font-family="Times,serif" font-size="14.00">3 = &amp;mut {closure@std::rt::lang_start&lt;()&gt;::{closure#0}} (8 bytes, align 8)</text>
</g>
<!-- X2eeb0b8cf8e3b702_4 -->
<g id="node34" class="node">
<title>X2eeb0b8cf8e3b702_4</title>
<polygon fill="none" stroke="black" points="2613.5,-434.5 2553.25,-434.5 2553.25,-398.5 2613.5,-398.5 2613.5,-434.5"/>
<text xml:space="preserve" text-anchor="start" x="2561.25" y="-411.45" font-family="Times,serif" font-size="14.00">Resume</text>
</g>
<!-- X2eeb0b8cf8e3b702_3&#45;&gt;X2eeb0b8cf8e3b702_4 -->
<g id="edge21" class="edge">
<title>X2eeb0b8cf8e3b702_3&#45;&gt;X2eeb0b8cf8e3b702_4</title>
<path fill="none" stroke="black" d="M2584.3,-629.75C2584.13,-590.62 2583.71,-494.8 2583.5,-446.43"/>
<polygon fill="black" stroke="black" points="2587,-446.45 2583.46,-436.46 2580,-446.48 2587,-446.45"/>
</g>
<!-- X2eeb0b8cf8e3b702_2 -->
<g id="node33" class="node">
<title>X2eeb0b8cf8e3b702_2</title>
<polygon fill="none" stroke="black" points="2685.38,-434.5 2631.38,-434.5 2631.38,-398.5 2685.38,-398.5 2685.38,-434.5"/>
<text xml:space="preserve" text-anchor="start" x="2639.38" y="-411.45" font-family="Times,serif" font-size="14.00">Return</text>
</g>
<!-- X2eeb0b8cf8e3b702_1&#45;&gt;X2eeb0b8cf8e3b702_2 -->
<g id="edge20" class="edge">
<title>X2eeb0b8cf8e3b702_1&#45;&gt;X2eeb0b8cf8e3b702_2</title>
<path fill="none" stroke="black" d="M2657.45,-629.75C2657.62,-590.62 2658.04,-494.8 2658.25,-446.43"/>
<polygon fill="black" stroke="black" points="2661.75,-446.48 2658.29,-436.46 2654.75,-446.45 2661.75,-446.48"/>
</g>
<!-- node_17 -->
<g id="node35" class="node">
<title>node_17</title>
<polygon fill="#7ccd7c" stroke="#7ccd7c" points="3861.38,-1156.25 3437.38,-1156.25 3437.38,-1098.75 3861.38,-1098.75 3861.38,-1156.25"/>
<text xml:space="preserve" text-anchor="start" x="3445.38" y="-1138.95" font-family="Times,serif" font-size="14.00">LOCALS</text>
<text xml:space="preserve" text-anchor="start" x="3445.38" y="-1122.45" font-family="Times,serif" font-size="14.00">0 = () (0 bytes, align 1)</text>
<text xml:space="preserve" text-anchor="start" x="3445.38" y="-1105.95" font-family="Times,serif" font-size="14.00">1 = *mut {closure@std::rt::lang_start&lt;()&gt;::{closure#0}} (8 bytes, align 8)</text>
</g>
<!-- Xd700609f4cf459d5_0 -->
<g id="node36" class="node">
<title>Xd700609f4cf459d5_0</title>
<polygon fill="none" stroke="black" points="3933.38,-1145.5 3879.38,-1145.5 3879.38,-1109.5 3933.38,-1109.5 3933.38,-1145.5"/>
<text xml:space="preserve" text-anchor="start" x="3887.38" y="-1122.45" font-family="Times,serif" font-size="14.00">Return</text>
</g>
<!-- node_19 -->
<g id="node37" class="node">
<title>node_19</title>
<polygon fill="#7ccd7c" stroke="#7ccd7c" points="4243.12,-246.75 3985.62,-246.75 3985.62,-189.25 4243.12,-189.25 4243.12,-246.75"/>
<text xml:space="preserve" text-anchor="start" x="3993.62" y="-229.45" font-family="Times,serif" font-size="14.00">LOCALS</text>
<text xml:space="preserve" text-anchor="start" x="3993.62" y="-212.95" font-family="Times,serif" font-size="14.00">0 = std::process::ExitCode (1 bytes, align 1)</text>
<text xml:space="preserve" text-anchor="start" x="3993.62" y="-196.45" font-family="Times,serif" font-size="14.00">1 = () (0 bytes, align 1)</text>
</g>
</g>
</svg>
