<?xml version="1.0" encoding="UTF-8" standalone="no"?>
<!DOCTYPE svg PUBLIC "-//W3C//DTD SVG 1.1//EN"
 "http://www.w3.org/Graphics/SVG/1.1/DTD/svg11.dtd">
<!-- Generated by graphviz version 14.1.1 (20251213.1925)
 -->
<!-- Pages: 1 -->
<svg width="5972pt" height="1287pt"
 viewBox="0.00 0.00 5972.00 1287.00" xmlns="http://www.w3.org/2000/svg" xmlns:xlink="http://www.w3.org/1999/xlink">
<g id="graph0" class="graph" transform="scale(1 1) rotate(0) translate(4 1283.25)">
<polygon fill="white" stroke="none" points="-4,4 -4,-1283.25 5968.38,-1283.25 5968.38,4 -4,4"/>
<text xml:space="preserve" text-anchor="middle" x="2982.19" y="-7.2" font-family="Times,serif" font-size="14.00">closure_args</text>
<g id="clust1" class="cluster">
<title>cluster_2</title>
<polygon fill="palegreen" stroke="palegreen" points="532.38,-622 532.38,-1230 1346.38,-1230 1346.38,-622 532.38,-622"/>
<text xml:space="preserve" text-anchor="middle" x="939.38" y="-1212.7" font-family="Times,serif" font-size="14.00">main</text>
</g>
<g id="clust2" class="cluster">
<title>cluster_4</title>
<polygon fill="lightgray" stroke="lightgray" points="1354.38,-619.5 1354.38,-949 2054.38,-949 2054.38,-619.5 1354.38,-619.5"/>
<text xml:space="preserve" text-anchor="middle" x="1704.38" y="-931.7" font-family="Times,serif" font-size="14.00">main::{closure#0}</text>
</g>
<g id="clust3" class="cluster">
<title>cluster_6</title>
<polygon fill="lightgray" stroke="lightgray" points="2062.38,-809.75 2062.38,-1254.75 2897.38,-1254.75 2897.38,-809.75 2062.38,-809.75"/>
<text xml:space="preserve" text-anchor="middle" x="2479.88" y="-1237.45" font-family="Times,serif" font-size="14.00">std::rt::lang_start::&lt;()&gt;</text>
</g>
<g id="clust4" class="cluster">
<title>cluster_8</title>
<polygon fill="lightgray" stroke="lightgray" points="4220.38,-123.5 4220.38,-767 4834.38,-767 4834.38,-123.5 4220.38,-123.5"/>
<text xml:space="preserve" text-anchor="middle" x="4527.38" y="-749.7" font-family="Times,serif" font-size="14.00">std::rt::lang_start::&lt;()&gt;</text>
<text xml:space="preserve" text-anchor="middle" x="4527.38" y="-733.2" font-family="Times,serif" font-size="14.00">::{closure#0}</text>
</g>
<g id="clust5" class="cluster">
<title>cluster_10</title>
<polygon fill="lightgray" stroke="lightgray" points="5383.38,-32.5 5383.38,-535.5 5615.38,-535.5 5615.38,-32.5 5383.38,-32.5"/>
<text xml:space="preserve" text-anchor="middle" x="5499.38" y="-518.2" font-family="Times,serif" font-size="14.00">std::sys::backtrace::__ru</text>
<text xml:space="preserve" text-anchor="middle" x="5499.38" y="-501.7" font-family="Times,serif" font-size="14.00">st_begin_short_backtrace:</text>
<text xml:space="preserve" text-anchor="middle" x="5499.38" y="-485.2" font-family="Times,serif" font-size="14.00">:&lt;fn(), </text>
<text xml:space="preserve" text-anchor="middle" x="5499.38" y="-468.7" font-family="Times,serif" font-size="14.00">()&gt;</text>
</g>
<g id="clust6" class="cluster">
<title>cluster_12</title>
<polygon fill="lightgray" stroke="lightgray" points="3143.38,-837 3143.38,-1271.25 3655.38,-1271.25 3655.38,-837 3143.38,-837"/>
<text xml:space="preserve" text-anchor="middle" x="3399.38" y="-1253.95" font-family="Times,serif" font-size="14.00">&lt;{closure@std::rt::lang_s</text>
<text xml:space="preserve" text-anchor="middle" x="3399.38" y="-1237.45" font-family="Times,serif" font-size="14.00">tart&lt;()&gt;::{closure#0}} </text>
<text xml:space="preserve" text-anchor="middle" x="3399.38" y="-1220.95" font-family="Times,serif" font-size="14.00">as </text>
<text xml:space="preserve" text-anchor="middle" x="3399.38" y="-1204.45" font-family="Times,serif" font-size="14.00">std::ops::FnOnce&lt;()&gt;&gt;::ca</text>
<text xml:space="preserve" text-anchor="middle" x="3399.38" y="-1187.95" font-family="Times,serif" font-size="14.00">ll_once</text>
</g>
<g id="clust7" class="cluster">
<title>cluster_14</title>
<polygon fill="lightgray" stroke="lightgray" points="5706.38,-32.5 5706.38,-337 5956.38,-337 5956.38,-32.5 5706.38,-32.5"/>
<text xml:space="preserve" text-anchor="middle" x="5831.38" y="-319.7" font-family="Times,serif" font-size="14.00">&lt;fn() </text>
<text xml:space="preserve" text-anchor="middle" x="5831.38" y="-303.2" font-family="Times,serif" font-size="14.00">as </text>
<text xml:space="preserve" text-anchor="middle" x="5831.38" y="-286.7" font-family="Times,serif" font-size="14.00">std::ops::FnOnce&lt;()&gt;&gt;::ca</text>
<text xml:space="preserve" text-anchor="middle" x="5831.38" y="-270.2" font-family="Times,serif" font-size="14.00">ll_once</text>
</g>
<g id="clust8" class="cluster">
<title>cluster_16</title>
<polygon fill="lightgray" stroke="lightgray" points="3663.38,-390.5 3663.38,-1006.75 4212.38,-1006.75 4212.38,-390.5 3663.38,-390.5"/>
<text xml:space="preserve" text-anchor="middle" x="3937.88" y="-989.45" font-family="Times,serif" font-size="14.00">&lt;{closure@std::rt::lang_s</text>
<text xml:space="preserve" text-anchor="middle" x="3937.88" y="-972.95" font-family="Times,serif" font-size="14.00">tart&lt;()&gt;::{closure#0}} </text>
<text xml:space="preserve" text-anchor="middle" x="3937.88" y="-956.45" font-family="Times,serif" font-size="14.00">as </text>
<text xml:space="preserve" text-anchor="middle" x="3937.88" y="-939.95" font-family="Times,serif" font-size="14.00">std::ops::FnOnce&lt;()&gt;&gt;::ca</text>
<text xml:space="preserve" text-anchor="middle" x="3937.88" y="-923.45" font-family="Times,serif" font-size="14.00">ll_once</text>
</g>
<g id="clust9" class="cluster">
<title>cluster_18</title>
<polygon fill="lightgray" stroke="lightgray" points="5015.38,-1099 5015.38,-1230 5527.38,-1230 5527.38,-1099 5015.38,-1099"/>
<text xml:space="preserve" text-anchor="middle" x="5271.38" y="-1212.7" font-family="Times,serif" font-size="14.00">std::ptr::drop_in_place::</text>
<text xml:space="preserve" text-anchor="middle" x="5271.38" y="-1196.2" font-family="Times,serif" font-size="14.00">&lt;{closure@std::rt::lang_s</text>
<text xml:space="preserve" text-anchor="middle" x="5271.38" y="-1179.7" font-family="Times,serif" font-size="14.00">tart&lt;()&gt;::{closure#0}}&gt;</text>
</g>
<g id="clust10" class="cluster">
<title>cluster_20</title>
<polygon fill="lightgray" stroke="lightgray" points="4842.38,-181.25 4842.38,-328.75 5375.38,-328.75 5375.38,-181.25 4842.38,-181.25"/>
<text xml:space="preserve" text-anchor="middle" x="5108.88" y="-311.45" font-family="Times,serif" font-size="14.00">&lt;() </text>
<text xml:space="preserve" text-anchor="middle" x="5108.88" y="-294.95" font-family="Times,serif" font-size="14.00">as </text>
<text xml:space="preserve" text-anchor="middle" x="5108.88" y="-278.45" font-family="Times,serif" font-size="14.00">std::process::Termination</text>
<text xml:space="preserve" text-anchor="middle" x="5108.88" y="-261.95" font-family="Times,serif" font-size="14.00">&gt;::report</text>
</g>
<!-- node_0 -->
<g id="node1" class="node">
<title>node_0</title>
<polygon fill="lightyellow" stroke="lightyellow" points="130.75,-1156.25 0,-1156.25 0,-1115.25 130.75,-1115.25 130.75,-1156.25"/>
<text xml:space="preserve" text-anchor="start" x="8" y="-1138.95" font-family="Times,serif" font-size="14.00">ALLOCS</text>
<text xml:space="preserve" text-anchor="start" x="8" y="-1122.45" font-family="Times,serif" font-size="14.00">alloc1: Str (35 bytes)</text>
</g>
<!-- node_1 -->
<g id="node2" class="node">
<title>node_1</title>
<polygon fill="lavender" stroke="lavender" points="522.25,-1205.75 148.5,-1205.75 148.5,-1065.75 522.25,-1065.75 522.25,-1205.75"/>
<text xml:space="preserve" text-anchor="start" x="156.5" y="-1188.45" font-family="Times,serif" font-size="14.00">TYPES</text>
<text xml:space="preserve" text-anchor="start" x="156.5" y="-1171.95" font-family="Times,serif" font-size="14.00">() (0 bytes)</text>
<text xml:space="preserve" text-anchor="start" x="156.5" y="-1155.45" font-family="Times,serif" font-size="14.00">(i32, bool) (8 bytes)</text>
<text xml:space="preserve" text-anchor="start" x="156.5" y="-1138.95" font-family="Times,serif" font-size="14.00">(i32, i32) (8 bytes)</text>
<text xml:space="preserve" text-anchor="start" x="156.5" y="-1122.45" font-family="Times,serif" font-size="14.00">std::panic::Location&lt;&#39;_&gt; (24 bytes)</text>
<text xml:space="preserve" text-anchor="start" x="156.5" y="-1105.95" font-family="Times,serif" font-size="14.00">std::process::ExitCode (1 bytes)</text>
<text xml:space="preserve" text-anchor="start" x="156.5" y="-1089.45" font-family="Times,serif" font-size="14.00">std::result::Result&lt;isize, !&gt; (8 bytes)</text>
<text xml:space="preserve" text-anchor="start" x="156.5" y="-1072.95" font-family="Times,serif" font-size="14.00">std::sys::pal::unix::process::process_common::ExitCode (1 bytes)</text>
</g>
<!-- X210a8e5fe9313c81_0 -->
<g id="node3" class="node">
<title>X210a8e5fe9313c81_0</title>
<polygon fill="none" stroke="red" points="1336.12,-437 1162.62,-437 1162.62,-396 1336.12,-396 1336.12,-437"/>
<text xml:space="preserve" text-anchor="middle" x="1249.38" y="-419.7" font-family="Times,serif" font-size="14.00">_ZN4core9panicking5panic1</text>
<text xml:space="preserve" text-anchor="middle" x="1249.38" y="-403.2" font-family="Times,serif" font-size="14.00">7h37379bf3ce79a0d7E</text>
</g>
<!-- X5eb86185c1cf8f06_0 -->
<g id="node4" class="node">
<title>X5eb86185c1cf8f06_0</title>
<polygon fill="none" stroke="red" points="3073.12,-891.75 2905.62,-891.75 2905.62,-834.25 3073.12,-834.25 3073.12,-891.75"/>
<text xml:space="preserve" text-anchor="middle" x="2989.38" y="-874.45" font-family="Times,serif" font-size="14.00">_ZN3std2rt19lang_start_in</text>
<text xml:space="preserve" text-anchor="middle" x="2989.38" y="-857.95" font-family="Times,serif" font-size="14.00">ternal17h035df9ff6960926a</text>
<text xml:space="preserve" text-anchor="middle" x="2989.38" y="-841.45" font-family="Times,serif" font-size="14.00">E</text>
</g>
<!-- X3c6542d96320ad67_0 -->
<g id="node5" class="node">
<title>X3c6542d96320ad67_0</title>
<polygon fill="none" stroke="red" points="5695.5,-79 5623.25,-79 5623.25,-38 5695.5,-38 5695.5,-79"/>
<text xml:space="preserve" text-anchor="middle" x="5659.38" y="-61.7" font-family="Times,serif" font-size="14.00">Intr: </text>
<text xml:space="preserve" text-anchor="middle" x="5659.38" y="-45.2" font-family="Times,serif" font-size="14.00">black_box</text>
</g>
<!-- X8b0ac2e54b9a91_0 -->
<g id="node6" class="node">
<title>X8b0ac2e54b9a91_0</title>
<polygon fill="none" stroke="red" points="4577.62,-1153.75 4521.12,-1153.75 4521.12,-1117.75 4577.62,-1117.75 4577.62,-1153.75"/>
<text xml:space="preserve" text-anchor="middle" x="4549.38" y="-1130.7" font-family="Times,serif" font-size="14.00">NoOp: </text>
</g>
<!-- node_3 -->
<g id="node7" class="node">
<title>node_3</title>
<polygon fill="#7ccd7c" stroke="#7ccd7c" points="1036.38,-1197.5 540.38,-1197.5 540.38,-1074 1036.38,-1074 1036.38,-1197.5"/>
<text xml:space="preserve" text-anchor="start" x="548.38" y="-1180.2" font-family="Times,serif" font-size="14.00">LOCALS</text>
<text xml:space="preserve" text-anchor="start" x="548.38" y="-1163.7" font-family="Times,serif" font-size="14.00">0 = () (0 bytes, align 1)</text>
<text xml:space="preserve" text-anchor="start" x="548.38" y="-1147.2" font-family="Times,serif" font-size="14.00">1 = {closure@tests/integration/programs/closure&#45;args.rs:2:15: 2:28}</text>
<text xml:space="preserve" text-anchor="start" x="548.38" y="-1130.7" font-family="Times,serif" font-size="14.00">2 = Int(I32)</text>
<text xml:space="preserve" text-anchor="start" x="548.38" y="-1114.2" font-family="Times,serif" font-size="14.00">3 = &amp;{closure@tests/integration/programs/closure&#45;args.rs:2:15: 2:28} (8 bytes, align 8)</text>
<text xml:space="preserve" text-anchor="start" x="548.38" y="-1097.7" font-family="Times,serif" font-size="14.00">4 = (i32, i32) (8 bytes, align 4)</text>
<text xml:space="preserve" text-anchor="start" x="548.38" y="-1081.2" font-family="Times,serif" font-size="14.00">5 = ()</text>
</g>
<!-- Xbd45d49df0723ee6_0 -->
<g id="node8" class="node">
<title>Xbd45d49df0723ee6_0</title>
<polygon fill="none" stroke="black" points="1337.88,-1164.5 1054.88,-1164.5 1054.88,-1107 1337.88,-1107 1337.88,-1164.5"/>
<text xml:space="preserve" text-anchor="start" x="1062.88" y="-1147.2" font-family="Times,serif" font-size="14.00">3 &lt;&#45; &amp; 1</text>
<text xml:space="preserve" text-anchor="start" x="1062.88" y="-1130.7" font-family="Times,serif" font-size="14.00">4 &lt;&#45; Tuple (const 20_Int(I32), const 22_Int(I32))</text>
<text xml:space="preserve" text-anchor="start" x="1062.88" y="-1114.2" font-family="Times,serif" font-size="14.00">Call</text>
</g>
<!-- Xbd45d49df0723ee6_1 -->
<g id="node9" class="node">
<title>Xbd45d49df0723ee6_1</title>
<polygon fill="none" stroke="black" points="1249.38,-881 1143.38,-881 1143.38,-845 1249.38,-845 1249.38,-881"/>
<text xml:space="preserve" text-anchor="start" x="1151.38" y="-857.95" font-family="Times,serif" font-size="14.00">SwitchInt mv(2)</text>
</g>
<!-- Xbd45d49df0723ee6_0&#45;&gt;Xbd45d49df0723ee6_1 -->
<g id="edge1" class="edge">
<title>Xbd45d49df0723ee6_0&#45;&gt;Xbd45d49df0723ee6_1</title>
<path fill="none" stroke="black" d="M1196.38,-1106.54C1196.38,-1054.76 1196.38,-945.06 1196.38,-892.82"/>
<polygon fill="black" stroke="black" points="1199.88,-892.94 1196.38,-882.94 1192.88,-892.94 1199.88,-892.94"/>
<text xml:space="preserve" text-anchor="middle" x="1199.75" y="-1017.95" font-family="Times,serif" font-size="14.00">2</text>
</g>
<!-- Xd44574237557fe66_0 -->
<g id="node12" class="node">
<title>Xd44574237557fe66_0</title>
<polygon fill="none" stroke="black" points="1532.62,-883.5 1362.12,-883.5 1362.12,-842.5 1532.62,-842.5 1532.62,-883.5"/>
<text xml:space="preserve" text-anchor="start" x="1370.12" y="-866.2" font-family="Times,serif" font-size="14.00">4 &lt;&#45; chkd&#45;Add(cp(2), cp(3))</text>
<text xml:space="preserve" text-anchor="start" x="1370.12" y="-849.7" font-family="Times,serif" font-size="14.00">Assert mv(4.1) == false</text>
</g>
<!-- Xbd45d49df0723ee6_0&#45;&gt;Xd44574237557fe66_0 -->
<g id="edge4" class="edge">
<title>Xbd45d49df0723ee6_0&#45;&gt;Xd44574237557fe66_0</title>
<path fill="none" stroke="black" d="M1236.02,-1106.7C1268.79,-1082.42 1315.44,-1045.23 1350.38,-1006.75 1382.8,-971.03 1412.81,-923.77 1430.62,-893.62"/>
<polygon fill="black" stroke="black" points="1433.61,-895.42 1435.63,-885.02 1427.57,-891.9 1433.61,-895.42"/>
<text xml:space="preserve" text-anchor="middle" x="1374.89" y="-1017.95" font-family="Times,serif" font-size="14.00">mv(3),mv(4)</text>
</g>
<!-- Xbd45d49df0723ee6_2 -->
<g id="node10" class="node">
<title>Xbd45d49df0723ee6_2</title>
<polygon fill="none" stroke="black" points="1204.38,-666 1150.38,-666 1150.38,-630 1204.38,-630 1204.38,-666"/>
<text xml:space="preserve" text-anchor="start" x="1158.38" y="-642.95" font-family="Times,serif" font-size="14.00">Return</text>
</g>
<!-- Xbd45d49df0723ee6_1&#45;&gt;Xbd45d49df0723ee6_2 -->
<g id="edge2" class="edge">
<title>Xbd45d49df0723ee6_1&#45;&gt;Xbd45d49df0723ee6_2</title>
<path fill="none" stroke="black" d="M1194.82,-844.57C1191.55,-807.89 1183.93,-722.44 1179.93,-677.61"/>
<polygon fill="black" stroke="black" points="1183.43,-677.53 1179.06,-667.88 1176.46,-678.15 1183.43,-677.53"/>
<text xml:space="preserve" text-anchor="middle" x="1196.44" y="-778.2" font-family="Times,serif" font-size="14.00">42</text>
</g>
<!-- Xbd45d49df0723ee6_3 -->
<g id="node11" class="node">
<title>Xbd45d49df0723ee6_3</title>
<polygon fill="none" stroke="black" points="1276.38,-666 1222.38,-666 1222.38,-630 1276.38,-630 1276.38,-666"/>
<text xml:space="preserve" text-anchor="start" x="1230.38" y="-642.95" font-family="Times,serif" font-size="14.00">Call</text>
</g>
<!-- Xbd45d49df0723ee6_1&#45;&gt;Xbd45d49df0723ee6_3 -->
<g id="edge3" class="edge">
<title>Xbd45d49df0723ee6_1&#45;&gt;Xbd45d49df0723ee6_3</title>
<path fill="none" stroke="black" d="M1200.71,-844.57C1209.86,-807.81 1231.19,-722.07 1242.33,-677.32"/>
<polygon fill="black" stroke="black" points="1245.67,-678.39 1244.69,-667.84 1238.88,-676.7 1245.67,-678.39"/>
<text xml:space="preserve" text-anchor="middle" x="1230.44" y="-778.2" font-family="Times,serif" font-size="14.00">other</text>
</g>
<!-- Xbd45d49df0723ee6_3&#45;&gt;X210a8e5fe9313c81_0 -->
<g id="edge5" class="edge">
<title>Xbd45d49df0723ee6_3&#45;&gt;X210a8e5fe9313c81_0</title>
<path fill="none" stroke="black" d="M1249.38,-629.75C1249.38,-591.21 1249.38,-497.68 1249.38,-448.65"/>
<polygon fill="black" stroke="black" points="1252.88,-448.72 1249.38,-438.72 1245.88,-448.72 1252.88,-448.72"/>
<text xml:space="preserve" text-anchor="middle" x="1286.5" y="-546.7" font-family="Times,serif" font-size="14.00">const [alloc0]</text>
</g>
<!-- Xd44574237557fe66_1 -->
<g id="node14" class="node">
<title>Xd44574237557fe66_1</title>
<polygon fill="none" stroke="black" points="1506,-668.5 1388.75,-668.5 1388.75,-627.5 1506,-627.5 1506,-668.5"/>
<text xml:space="preserve" text-anchor="start" x="1396.75" y="-651.2" font-family="Times,serif" font-size="14.00">0 &lt;&#45; Use(mv(4.0))</text>
<text xml:space="preserve" text-anchor="start" x="1396.75" y="-634.7" font-family="Times,serif" font-size="14.00">Return</text>
</g>
<!-- Xd44574237557fe66_0&#45;&gt;Xd44574237557fe66_1 -->
<g id="edge6" class="edge">
<title>Xd44574237557fe66_0&#45;&gt;Xd44574237557fe66_1</title>
<path fill="none" stroke="black" d="M1447.38,-842.34C1447.38,-805.27 1447.38,-724.75 1447.38,-680.2"/>
<polygon fill="black" stroke="black" points="1450.88,-680.43 1447.38,-670.43 1443.88,-680.43 1450.88,-680.43"/>
</g>
<!-- node_5 -->
<g id="node13" class="node">
<title>node_5</title>
<polygon fill="#7ccd7c" stroke="#7ccd7c" points="2046.38,-916.5 1550.38,-916.5 1550.38,-809.5 2046.38,-809.5 2046.38,-916.5"/>
<text xml:space="preserve" text-anchor="start" x="1558.38" y="-899.2" font-family="Times,serif" font-size="14.00">LOCALS</text>
<text xml:space="preserve" text-anchor="start" x="1558.38" y="-882.7" font-family="Times,serif" font-size="14.00">0 = Int(I32)</text>
<text xml:space="preserve" text-anchor="start" x="1558.38" y="-866.2" font-family="Times,serif" font-size="14.00">1 = &amp;{closure@tests/integration/programs/closure&#45;args.rs:2:15: 2:28} (8 bytes, align 8)</text>
<text xml:space="preserve" text-anchor="start" x="1558.38" y="-849.7" font-family="Times,serif" font-size="14.00">2 = Int(I32)</text>
<text xml:space="preserve" text-anchor="start" x="1558.38" y="-833.2" font-family="Times,serif" font-size="14.00">3 = Int(I32)</text>
<text xml:space="preserve" text-anchor="start" x="1558.38" y="-816.7" font-family="Times,serif" font-size="14.00">4 = (i32, bool) (8 bytes, align 4)</text>
</g>
<!-- node_7 -->
<g id="node15" class="node">
<title>node_7</title>
<polygon fill="#7ccd7c" stroke="#7ccd7c" points="2632.75,-1222.25 2070,-1222.25 2070,-1049.25 2632.75,-1049.25 2632.75,-1222.25"/>
<text xml:space="preserve" text-anchor="start" x="2078" y="-1204.95" font-family="Times,serif" font-size="14.00">LOCALS</text>
<text xml:space="preserve" text-anchor="start" x="2078" y="-1188.45" font-family="Times,serif" font-size="14.00">0 = Int(Isize)</text>
<text xml:space="preserve" text-anchor="start" x="2078" y="-1171.95" font-family="Times,serif" font-size="14.00">1 = fn()</text>
<text xml:space="preserve" text-anchor="start" x="2078" y="-1155.45" font-family="Times,serif" font-size="14.00">2 = Int(Isize)</text>
<text xml:space="preserve" text-anchor="start" x="2078" y="-1138.95" font-family="Times,serif" font-size="14.00">3 = *const *const u8 (8 bytes, align 8)</text>
<text xml:space="preserve" text-anchor="start" x="2078" y="-1122.45" font-family="Times,serif" font-size="14.00">4 = Uint(U8)</text>
<text xml:space="preserve" text-anchor="start" x="2078" y="-1105.95" font-family="Times,serif" font-size="14.00">5 = std::result::Result&lt;isize, !&gt; (8 bytes, align 8)</text>
<text xml:space="preserve" text-anchor="start" x="2078" y="-1089.45" font-family="Times,serif" font-size="14.00">6 = &amp;dyn std::ops::Fn() &#45;&gt; i32 + std::marker::Sync + std::panic::RefUnwindSafe (16 bytes, align 8)</text>
<text xml:space="preserve" text-anchor="start" x="2078" y="-1072.95" font-family="Times,serif" font-size="14.00">7 = &amp;{closure@std::rt::lang_start&lt;()&gt;::{closure#0}} (8 bytes, align 8)</text>
<text xml:space="preserve" text-anchor="start" x="2078" y="-1056.45" font-family="Times,serif" font-size="14.00">8 = {closure@std::rt::lang_start&lt;()&gt;::{closure#0}}</text>
</g>
<!-- X2702e05a46ca026d_0 -->
<g id="node16" class="node">
<title>X2702e05a46ca026d_0</title>
<polygon fill="none" stroke="black" points="2889.75,-1197.5 2651,-1197.5 2651,-1074 2889.75,-1074 2889.75,-1197.5"/>
<text xml:space="preserve" text-anchor="start" x="2659" y="-1180.2" font-family="Times,serif" font-size="14.00">Storage Live _5</text>
<text xml:space="preserve" text-anchor="start" x="2659" y="-1163.7" font-family="Times,serif" font-size="14.00">Storage Live _6</text>
<text xml:space="preserve" text-anchor="start" x="2659" y="-1147.2" font-family="Times,serif" font-size="14.00">Storage Live _8</text>
<text xml:space="preserve" text-anchor="start" x="2659" y="-1130.7" font-family="Times,serif" font-size="14.00">8 &lt;&#45; Closure (cp(1))</text>
<text xml:space="preserve" text-anchor="start" x="2659" y="-1114.2" font-family="Times,serif" font-size="14.00">7 &lt;&#45; &amp; 8</text>
<text xml:space="preserve" text-anchor="start" x="2659" y="-1097.7" font-family="Times,serif" font-size="14.00">6 &lt;&#45; Cast&#45;PointerCoercion(Unsize) cp(7)</text>
<text xml:space="preserve" text-anchor="start" x="2659" y="-1081.2" font-family="Times,serif" font-size="14.00">Call</text>
</g>
<!-- X2702e05a46ca026d_0&#45;&gt;X5eb86185c1cf8f06_0 -->
<g id="edge8" class="edge">
<title>X2702e05a46ca026d_0&#45;&gt;X5eb86185c1cf8f06_0</title>
<path fill="none" stroke="black" d="M2839.27,-1073.56C2860.32,-1053.3 2882.8,-1029.97 2901.38,-1006.75 2927.89,-973.6 2952.75,-931.9 2969.24,-902.15"/>
<polygon fill="black" stroke="black" points="2972.25,-903.94 2973.98,-893.49 2966.11,-900.58 2972.25,-903.94"/>
<text xml:space="preserve" text-anchor="middle" x="2965.05" y="-1017.95" font-family="Times,serif" font-size="14.00">mv(6),mv(2),mv(3),mv(4)</text>
</g>
<!-- X2702e05a46ca026d_1 -->
<g id="node17" class="node">
<title>X2702e05a46ca026d_1</title>
<polygon fill="none" stroke="black" points="2864.25,-908.25 2676.5,-908.25 2676.5,-817.75 2864.25,-817.75 2864.25,-908.25"/>
<text xml:space="preserve" text-anchor="start" x="2684.5" y="-890.95" font-family="Times,serif" font-size="14.00">Storage Dead _6</text>
<text xml:space="preserve" text-anchor="start" x="2684.5" y="-874.45" font-family="Times,serif" font-size="14.00">0 &lt;&#45; Use(cp((5 as variant 0).0))</text>
<text xml:space="preserve" text-anchor="start" x="2684.5" y="-857.95" font-family="Times,serif" font-size="14.00">Storage Dead _8</text>
<text xml:space="preserve" text-anchor="start" x="2684.5" y="-841.45" font-family="Times,serif" font-size="14.00">Storage Dead _5</text>
<text xml:space="preserve" text-anchor="start" x="2684.5" y="-824.95" font-family="Times,serif" font-size="14.00">Return</text>
</g>
<!-- X2702e05a46ca026d_0&#45;&gt;X2702e05a46ca026d_1 -->
<g id="edge7" class="edge">
<title>X2702e05a46ca026d_0&#45;&gt;X2702e05a46ca026d_1</title>
<path fill="none" stroke="black" d="M2770.38,-1073.65C2770.38,-1027.45 2770.38,-964.54 2770.38,-919.71"/>
<polygon fill="black" stroke="black" points="2773.88,-919.95 2770.38,-909.95 2766.88,-919.95 2773.88,-919.95"/>
<text xml:space="preserve" text-anchor="middle" x="2773.75" y="-1017.95" font-family="Times,serif" font-size="14.00">5</text>
</g>
<!-- node_9 -->
<g id="node18" class="node">
<title>node_9</title>
<polygon fill="#7ccd7c" stroke="#7ccd7c" points="4680.62,-718 4228.12,-718 4228.12,-578 4680.62,-578 4680.62,-718"/>
<text xml:space="preserve" text-anchor="start" x="4236.12" y="-700.7" font-family="Times,serif" font-size="14.00">LOCALS</text>
<text xml:space="preserve" text-anchor="start" x="4236.12" y="-684.2" font-family="Times,serif" font-size="14.00">0 = Int(I32)</text>
<text xml:space="preserve" text-anchor="start" x="4236.12" y="-667.7" font-family="Times,serif" font-size="14.00">1 = &amp;{closure@std::rt::lang_start&lt;()&gt;::{closure#0}} (8 bytes, align 8)</text>
<text xml:space="preserve" text-anchor="start" x="4236.12" y="-651.2" font-family="Times,serif" font-size="14.00">2 = std::process::ExitCode (1 bytes, align 1)</text>
<text xml:space="preserve" text-anchor="start" x="4236.12" y="-634.7" font-family="Times,serif" font-size="14.00">3 = () (0 bytes, align 1)</text>
<text xml:space="preserve" text-anchor="start" x="4236.12" y="-618.2" font-family="Times,serif" font-size="14.00">4 = fn()</text>
<text xml:space="preserve" text-anchor="start" x="4236.12" y="-601.7" font-family="Times,serif" font-size="14.00">5 = &amp;std::sys::pal::unix::process::process_common::ExitCode (8 bytes, align 8)</text>
<text xml:space="preserve" text-anchor="start" x="4236.12" y="-585.2" font-family="Times,serif" font-size="14.00">6 = Uint(U8)</text>
</g>
<!-- Xd0f4a67db7a78e1_0 -->
<g id="node19" class="node">
<title>Xd0f4a67db7a78e1_0</title>
<polygon fill="none" stroke="black" points="4826.25,-693.25 4698.5,-693.25 4698.5,-602.75 4826.25,-602.75 4826.25,-693.25"/>
<text xml:space="preserve" text-anchor="start" x="4706.5" y="-675.95" font-family="Times,serif" font-size="14.00">Storage Live _2</text>
<text xml:space="preserve" text-anchor="start" x="4706.5" y="-659.45" font-family="Times,serif" font-size="14.00">Storage Live _3</text>
<text xml:space="preserve" text-anchor="start" x="4706.5" y="-642.95" font-family="Times,serif" font-size="14.00">Storage Live _4</text>
<text xml:space="preserve" text-anchor="start" x="4706.5" y="-626.45" font-family="Times,serif" font-size="14.00">4 &lt;&#45; Use(cp((*1).0))</text>
<text xml:space="preserve" text-anchor="start" x="4706.5" y="-609.95" font-family="Times,serif" font-size="14.00">Call</text>
</g>
<!-- Xd0f4a67db7a78e1_1 -->
<g id="node20" class="node">
<title>Xd0f4a67db7a78e1_1</title>
<polygon fill="none" stroke="black" points="4815.75,-437 4709,-437 4709,-396 4815.75,-396 4815.75,-437"/>
<text xml:space="preserve" text-anchor="start" x="4717" y="-419.7" font-family="Times,serif" font-size="14.00">Storage Dead _4</text>
<text xml:space="preserve" text-anchor="start" x="4717" y="-403.2" font-family="Times,serif" font-size="14.00">Call</text>
</g>
<!-- Xd0f4a67db7a78e1_0&#45;&gt;Xd0f4a67db7a78e1_1 -->
<g id="edge9" class="edge">
<title>Xd0f4a67db7a78e1_0&#45;&gt;Xd0f4a67db7a78e1_1</title>
<path fill="none" stroke="black" d="M4762.38,-602.48C4762.38,-557.23 4762.38,-488.32 4762.38,-448.63"/>
<polygon fill="black" stroke="black" points="4765.88,-448.82 4762.38,-438.82 4758.88,-448.82 4765.88,-448.82"/>
<text xml:space="preserve" text-anchor="middle" x="4765.75" y="-546.7" font-family="Times,serif" font-size="14.00">3</text>
</g>
<!-- Xdd35aaf3a10d5d6_0 -->
<g id="node22" class="node">
<title>Xdd35aaf3a10d5d6_0</title>
<polygon fill="none" stroke="black" points="5445.38,-434.5 5391.38,-434.5 5391.38,-398.5 5445.38,-398.5 5445.38,-434.5"/>
<text xml:space="preserve" text-anchor="start" x="5399.38" y="-411.45" font-family="Times,serif" font-size="14.00">Call</text>
</g>
<!-- Xd0f4a67db7a78e1_0&#45;&gt;Xdd35aaf3a10d5d6_0 -->
<g id="edge11" class="edge">
<title>Xd0f4a67db7a78e1_0&#45;&gt;Xdd35aaf3a10d5d6_0</title>
<path fill="none" stroke="black" d="M4826.47,-624.58C4961.61,-577.3 5272.2,-468.64 5380.38,-430.79"/>
<polygon fill="black" stroke="black" points="5381.38,-434.15 5389.66,-427.55 5379.07,-427.54 5381.38,-434.15"/>
<text xml:space="preserve" text-anchor="middle" x="5067.97" y="-546.7" font-family="Times,serif" font-size="14.00">mv(4)</text>
</g>
<!-- Xd0f4a67db7a78e1_2 -->
<g id="node21" class="node">
<title>Xd0f4a67db7a78e1_2</title>
<polygon fill="none" stroke="black" points="4826.38,-304.5 4672.38,-304.5 4672.38,-131.5 4826.38,-131.5 4826.38,-304.5"/>
<text xml:space="preserve" text-anchor="start" x="4680.38" y="-287.2" font-family="Times,serif" font-size="14.00">Storage Dead _3</text>
<text xml:space="preserve" text-anchor="start" x="4680.38" y="-270.7" font-family="Times,serif" font-size="14.00">Storage Live _5</text>
<text xml:space="preserve" text-anchor="start" x="4680.38" y="-254.2" font-family="Times,serif" font-size="14.00">5 &lt;&#45; &amp; 2.0</text>
<text xml:space="preserve" text-anchor="start" x="4680.38" y="-237.7" font-family="Times,serif" font-size="14.00">Storage Live _6</text>
<text xml:space="preserve" text-anchor="start" x="4680.38" y="-221.2" font-family="Times,serif" font-size="14.00">6 &lt;&#45; Use(cp(2.0.0))</text>
<text xml:space="preserve" text-anchor="start" x="4680.38" y="-204.7" font-family="Times,serif" font-size="14.00">0 &lt;&#45; Cast&#45;IntToInt mv(6)</text>
<text xml:space="preserve" text-anchor="start" x="4680.38" y="-188.2" font-family="Times,serif" font-size="14.00">Storage Dead _6</text>
<text xml:space="preserve" text-anchor="start" x="4680.38" y="-171.7" font-family="Times,serif" font-size="14.00">Storage Dead _5</text>
<text xml:space="preserve" text-anchor="start" x="4680.38" y="-155.2" font-family="Times,serif" font-size="14.00">Storage Dead _2</text>
<text xml:space="preserve" text-anchor="start" x="4680.38" y="-138.7" font-family="Times,serif" font-size="14.00">Return</text>
</g>
<!-- Xd0f4a67db7a78e1_1&#45;&gt;Xd0f4a67db7a78e1_2 -->
<g id="edge10" class="edge">
<title>Xd0f4a67db7a78e1_1&#45;&gt;Xd0f4a67db7a78e1_2</title>
<path fill="none" stroke="black" d="M4761.06,-395.58C4759.8,-376.54 4757.8,-346.38 4755.81,-316.33"/>
<polygon fill="black" stroke="black" points="4759.31,-316.1 4755.15,-306.35 4752.32,-316.56 4759.31,-316.1"/>
<text xml:space="preserve" text-anchor="middle" x="4761.91" y="-348.2" font-family="Times,serif" font-size="14.00">2</text>
</g>
<!-- X2a09bebe7ea73160_0 -->
<g id="node23" class="node">
<title>X2a09bebe7ea73160_0</title>
<polygon fill="none" stroke="black" points="5091.88,-238.5 4850.88,-238.5 4850.88,-197.5 5091.88,-197.5 5091.88,-238.5"/>
<text xml:space="preserve" text-anchor="start" x="4858.88" y="-221.2" font-family="Times,serif" font-size="14.00">0 &lt;&#45; Use(const 0_std::process::ExitCode)</text>
<text xml:space="preserve" text-anchor="start" x="4858.88" y="-204.7" font-family="Times,serif" font-size="14.00">Return</text>
</g>
<!-- Xd0f4a67db7a78e1_1&#45;&gt;X2a09bebe7ea73160_0 -->
<g id="edge12" class="edge">
<title>Xd0f4a67db7a78e1_1&#45;&gt;X2a09bebe7ea73160_0</title>
<path fill="none" stroke="black" d="M4783.57,-395.58C4821.04,-360.34 4899.08,-286.97 4941.82,-246.78"/>
<polygon fill="black" stroke="black" points="4944.14,-249.41 4949.03,-240.01 4939.34,-244.31 4944.14,-249.41"/>
<text xml:space="preserve" text-anchor="middle" x="4852.82" y="-348.2" font-family="Times,serif" font-size="14.00">mv(3)</text>
</g>
<!-- Xdd35aaf3a10d5d6_1 -->
<g id="node25" class="node">
<title>Xdd35aaf3a10d5d6_1</title>
<polygon fill="none" stroke="black" points="5525.38,-236 5471.38,-236 5471.38,-200 5525.38,-200 5525.38,-236"/>
<text xml:space="preserve" text-anchor="start" x="5479.38" y="-212.95" font-family="Times,serif" font-size="14.00">Call</text>
</g>
<!-- Xdd35aaf3a10d5d6_0&#45;&gt;Xdd35aaf3a10d5d6_1 -->
<g id="edge13" class="edge">
<title>Xdd35aaf3a10d5d6_0&#45;&gt;Xdd35aaf3a10d5d6_1</title>
<path fill="none" stroke="black" d="M5425.47,-398.06C5439.35,-363.98 5470.18,-288.26 5486.96,-247.05"/>
<polygon fill="black" stroke="black" points="5490.19,-248.38 5490.72,-237.8 5483.71,-245.74 5490.19,-248.38"/>
<text xml:space="preserve" text-anchor="middle" x="5449.91" y="-348.2" font-family="Times,serif" font-size="14.00">0</text>
</g>
<!-- X618ec797ba4236e1_0 -->
<g id="node27" class="node">
<title>X618ec797ba4236e1_0</title>
<polygon fill="none" stroke="black" points="5768.38,-236 5714.38,-236 5714.38,-200 5768.38,-200 5768.38,-236"/>
<text xml:space="preserve" text-anchor="start" x="5722.38" y="-212.95" font-family="Times,serif" font-size="14.00">Call</text>
</g>
<!-- Xdd35aaf3a10d5d6_0&#45;&gt;X618ec797ba4236e1_0 -->
<g id="edge15" class="edge">
<title>Xdd35aaf3a10d5d6_0&#45;&gt;X618ec797ba4236e1_0</title>
<path fill="none" stroke="black" d="M5432.25,-398.06C5438.38,-391.38 5446.08,-384.23 5454.38,-379.5 5520.14,-341.96 5553.3,-374 5619.38,-337 5661.23,-313.56 5699.19,-272.21 5721.28,-245.21"/>
<polygon fill="black" stroke="black" points="5723.95,-247.48 5727.47,-237.49 5718.48,-243.11 5723.95,-247.48"/>
<text xml:space="preserve" text-anchor="middle" x="5639.85" y="-348.2" font-family="Times,serif" font-size="14.00">mv(1),const ()</text>
</g>
<!-- node_11 -->
<g id="node24" class="node">
<title>node_11</title>
<polygon fill="#7ccd7c" stroke="#7ccd7c" points="5607.5,-453.5 5463.25,-453.5 5463.25,-379.5 5607.5,-379.5 5607.5,-453.5"/>
<text xml:space="preserve" text-anchor="start" x="5471.25" y="-436.2" font-family="Times,serif" font-size="14.00">LOCALS</text>
<text xml:space="preserve" text-anchor="start" x="5471.25" y="-419.7" font-family="Times,serif" font-size="14.00">0 = () (0 bytes, align 1)</text>
<text xml:space="preserve" text-anchor="start" x="5471.25" y="-403.2" font-family="Times,serif" font-size="14.00">1 = fn()</text>
<text xml:space="preserve" text-anchor="start" x="5471.25" y="-386.7" font-family="Times,serif" font-size="14.00">2 = () (0 bytes, align 1)</text>
</g>
<!-- Xdd35aaf3a10d5d6_1&#45;&gt;X3c6542d96320ad67_0 -->
<g id="edge16" class="edge">
<title>Xdd35aaf3a10d5d6_1&#45;&gt;X3c6542d96320ad67_0</title>
<path fill="none" stroke="black" d="M5516.22,-199.54C5544.07,-172.3 5598.11,-119.44 5631.24,-87.03"/>
<polygon fill="black" stroke="black" points="5633.4,-89.81 5638.1,-80.31 5628.5,-84.8 5633.4,-89.81"/>
<text xml:space="preserve" text-anchor="middle" x="5641.09" y="-100.2" font-family="Times,serif" font-size="14.00">const ()</text>
</g>
<!-- Xdd35aaf3a10d5d6_2 -->
<g id="node26" class="node">
<title>Xdd35aaf3a10d5d6_2</title>
<polygon fill="none" stroke="black" points="5525.38,-76.5 5471.38,-76.5 5471.38,-40.5 5525.38,-40.5 5525.38,-76.5"/>
<text xml:space="preserve" text-anchor="start" x="5479.38" y="-53.45" font-family="Times,serif" font-size="14.00">Return</text>
</g>
<!-- Xdd35aaf3a10d5d6_1&#45;&gt;Xdd35aaf3a10d5d6_2 -->
<g id="edge14" class="edge">
<title>Xdd35aaf3a10d5d6_1&#45;&gt;Xdd35aaf3a10d5d6_2</title>
<path fill="none" stroke="black" d="M5498.38,-199.54C5498.38,-172.56 5498.38,-120.44 5498.38,-87.95"/>
<polygon fill="black" stroke="black" points="5501.88,-88.07 5498.38,-78.07 5494.88,-88.07 5501.88,-88.07"/>
<text xml:space="preserve" text-anchor="middle" x="5501.75" y="-100.2" font-family="Times,serif" font-size="14.00">2</text>
</g>
<!-- X618ec797ba4236e1_0&#45;&gt;X618ec797ba4236e1_0 -->
<g id="edge20" class="edge">
<title>X618ec797ba4236e1_0&#45;&gt;X618ec797ba4236e1_0:1</title>
<path fill="none" stroke="black" d="M5758.93,-236.41C5772.52,-243.3 5786.38,-237.16 5786.38,-218 5786.38,-204.08 5779.06,-197.03 5769.85,-196.86"/>
<polygon fill="black" stroke="black" points="5769.25,-193.4 5760.4,-199.22 5770.95,-200.2 5769.25,-193.4"/>
</g>
<!-- X618ec797ba4236e1_1 -->
<g id="node33" class="node">
<title>X618ec797ba4236e1_1</title>
<polygon fill="none" stroke="black" points="5768.38,-76.5 5714.38,-76.5 5714.38,-40.5 5768.38,-40.5 5768.38,-76.5"/>
<text xml:space="preserve" text-anchor="start" x="5722.38" y="-53.45" font-family="Times,serif" font-size="14.00">Return</text>
</g>
<!-- X618ec797ba4236e1_0&#45;&gt;X618ec797ba4236e1_1 -->
<g id="edge19" class="edge">
<title>X618ec797ba4236e1_0&#45;&gt;X618ec797ba4236e1_1</title>
<path fill="none" stroke="black" d="M5741.38,-199.54C5741.38,-172.56 5741.38,-120.44 5741.38,-87.95"/>
<polygon fill="black" stroke="black" points="5744.88,-88.07 5741.38,-78.07 5737.88,-88.07 5744.88,-88.07"/>
<text xml:space="preserve" text-anchor="middle" x="5744.75" y="-100.2" font-family="Times,serif" font-size="14.00">0</text>
</g>
<!-- node_13 -->
<g id="node28" class="node">
<title>node_13</title>
<polygon fill="#7ccd7c" stroke="#7ccd7c" points="3575.38,-1172.75 3151.38,-1172.75 3151.38,-1098.75 3575.38,-1098.75 3575.38,-1172.75"/>
<text xml:space="preserve" text-anchor="start" x="3159.38" y="-1155.45" font-family="Times,serif" font-size="14.00">LOCALS</text>
<text xml:space="preserve" text-anchor="start" x="3159.38" y="-1138.95" font-family="Times,serif" font-size="14.00">0 = Int(I32)</text>
<text xml:space="preserve" text-anchor="start" x="3159.38" y="-1122.45" font-family="Times,serif" font-size="14.00">1 = *mut {closure@std::rt::lang_start&lt;()&gt;::{closure#0}} (8 bytes, align 8)</text>
<text xml:space="preserve" text-anchor="start" x="3159.38" y="-1105.95" font-family="Times,serif" font-size="14.00">2 = () (0 bytes, align 1)</text>
</g>
<!-- X13b0f4f4e2342784_0 -->
<g id="node29" class="node">
<title>X13b0f4f4e2342784_0</title>
<polygon fill="none" stroke="black" points="3647.38,-1153.75 3593.38,-1153.75 3593.38,-1117.75 3647.38,-1117.75 3647.38,-1153.75"/>
<text xml:space="preserve" text-anchor="start" x="3601.38" y="-1130.7" font-family="Times,serif" font-size="14.00">Call</text>
</g>
<!-- X13b0f4f4e2342784_1 -->
<g id="node30" class="node">
<title>X13b0f4f4e2342784_1</title>
<polygon fill="none" stroke="black" points="3647.38,-881 3593.38,-881 3593.38,-845 3647.38,-845 3647.38,-881"/>
<text xml:space="preserve" text-anchor="start" x="3601.38" y="-857.95" font-family="Times,serif" font-size="14.00">Return</text>
</g>
<!-- X13b0f4f4e2342784_0&#45;&gt;X13b0f4f4e2342784_1 -->
<g id="edge17" class="edge">
<title>X13b0f4f4e2342784_0&#45;&gt;X13b0f4f4e2342784_1</title>
<path fill="none" stroke="black" d="M3620.38,-1117.4C3620.38,-1071.84 3620.38,-948.46 3620.38,-892.4"/>
<polygon fill="black" stroke="black" points="3623.88,-892.72 3620.38,-882.72 3616.88,-892.72 3623.88,-892.72"/>
<text xml:space="preserve" text-anchor="middle" x="3623.75" y="-1017.95" font-family="Times,serif" font-size="14.00">0</text>
</g>
<!-- X4f0cbfd4be7b1965_0 -->
<g id="node31" class="node">
<title>X4f0cbfd4be7b1965_0</title>
<polygon fill="none" stroke="black" points="3757.62,-883.5 3671.12,-883.5 3671.12,-842.5 3757.62,-842.5 3757.62,-883.5"/>
<text xml:space="preserve" text-anchor="start" x="3679.12" y="-866.2" font-family="Times,serif" font-size="14.00">3 &lt;&#45; &amp;mut 1</text>
<text xml:space="preserve" text-anchor="start" x="3679.12" y="-849.7" font-family="Times,serif" font-size="14.00">Call</text>
</g>
<!-- X13b0f4f4e2342784_0&#45;&gt;X4f0cbfd4be7b1965_0 -->
<g id="edge18" class="edge">
<title>X13b0f4f4e2342784_0&#45;&gt;X4f0cbfd4be7b1965_0</title>
<path fill="none" stroke="black" d="M3626.4,-1117.4C3642.02,-1072.41 3683.98,-951.55 3703.77,-894.55"/>
<polygon fill="black" stroke="black" points="3707.06,-895.75 3707.03,-885.15 3700.45,-893.45 3707.06,-895.75"/>
<text xml:space="preserve" text-anchor="middle" x="3705.25" y="-1017.95" font-family="Times,serif" font-size="14.00">mv((*1)),mv(2)</text>
</g>
<!-- X4f0cbfd4be7b1965_0&#45;&gt;Xd0f4a67db7a78e1_0 -->
<g id="edge25" class="edge">
<title>X4f0cbfd4be7b1965_0&#45;&gt;Xd0f4a67db7a78e1_0</title>
<path fill="none" stroke="black" d="M3728.4,-842.08C3737.91,-830.32 3751.6,-816.42 3767.38,-809.5 3955.21,-727.11 4512.56,-870.94 4689.38,-767 4713.34,-752.91 4730.54,-727.54 4742.2,-703.92"/>
<polygon fill="black" stroke="black" points="4745.32,-705.51 4746.37,-694.97 4738.97,-702.55 4745.32,-705.51"/>
<text xml:space="preserve" text-anchor="middle" x="4702" y="-778.2" font-family="Times,serif" font-size="14.00">mv(3),mv(2)</text>
</g>
<!-- X4f0cbfd4be7b1965_3 -->
<g id="node35" class="node">
<title>X4f0cbfd4be7b1965_3</title>
<polygon fill="none" stroke="black" points="3735.5,-666 3681.25,-666 3681.25,-630 3735.5,-630 3735.5,-666"/>
<text xml:space="preserve" text-anchor="start" x="3689.25" y="-642.95" font-family="Times,serif" font-size="14.00">Drop 1</text>
</g>
<!-- X4f0cbfd4be7b1965_0&#45;&gt;X4f0cbfd4be7b1965_3 -->
<g id="edge21" class="edge">
<title>X4f0cbfd4be7b1965_0&#45;&gt;X4f0cbfd4be7b1965_3</title>
<path fill="none" stroke="black" d="M3713.81,-842.25C3713.41,-828.11 3712.86,-808.64 3712.38,-791.5 3711.26,-751.89 3709.97,-706.08 3709.17,-677.32"/>
<polygon fill="black" stroke="black" points="3712.67,-677.52 3708.9,-667.62 3705.68,-677.72 3712.67,-677.52"/>
<text xml:space="preserve" text-anchor="middle" x="3734.88" y="-778.2" font-family="Times,serif" font-size="14.00">Cleanup</text>
</g>
<!-- X4f0cbfd4be7b1965_1 -->
<g id="node36" class="node">
<title>X4f0cbfd4be7b1965_1</title>
<polygon fill="none" stroke="black" points="3808.5,-666 3754.25,-666 3754.25,-630 3808.5,-630 3808.5,-666"/>
<text xml:space="preserve" text-anchor="start" x="3762.25" y="-642.95" font-family="Times,serif" font-size="14.00">Drop 1</text>
</g>
<!-- X4f0cbfd4be7b1965_0&#45;&gt;X4f0cbfd4be7b1965_1 -->
<g id="edge22" class="edge">
<title>X4f0cbfd4be7b1965_0&#45;&gt;X4f0cbfd4be7b1965_1</title>
<path fill="none" stroke="black" d="M3729.37,-842.09C3738.85,-828.52 3750.56,-809.77 3757.38,-791.5 3771.5,-753.66 3777.35,-707.05 3779.75,-677.67"/>
<polygon fill="black" stroke="black" points="3783.24,-677.95 3780.47,-667.72 3776.26,-677.44 3783.24,-677.95"/>
<text xml:space="preserve" text-anchor="middle" x="3765.75" y="-778.2" font-family="Times,serif" font-size="14.00">0</text>
</g>
<!-- node_15 -->
<g id="node32" class="node">
<title>node_15</title>
<polygon fill="#7ccd7c" stroke="#7ccd7c" points="5948.5,-255 5804.25,-255 5804.25,-181 5948.5,-181 5948.5,-255"/>
<text xml:space="preserve" text-anchor="start" x="5812.25" y="-237.7" font-family="Times,serif" font-size="14.00">LOCALS</text>
<text xml:space="preserve" text-anchor="start" x="5812.25" y="-221.2" font-family="Times,serif" font-size="14.00">0 = () (0 bytes, align 1)</text>
<text xml:space="preserve" text-anchor="start" x="5812.25" y="-204.7" font-family="Times,serif" font-size="14.00">1 = fn()</text>
<text xml:space="preserve" text-anchor="start" x="5812.25" y="-188.2" font-family="Times,serif" font-size="14.00">2 = () (0 bytes, align 1)</text>
</g>
<!-- node_17 -->
<g id="node34" class="node">
<title>node_17</title>
<polygon fill="#7ccd7c" stroke="#7ccd7c" points="4204.62,-908.25 3776.12,-908.25 3776.12,-817.75 4204.62,-817.75 4204.62,-908.25"/>
<text xml:space="preserve" text-anchor="start" x="3784.12" y="-890.95" font-family="Times,serif" font-size="14.00">LOCALS</text>
<text xml:space="preserve" text-anchor="start" x="3784.12" y="-874.45" font-family="Times,serif" font-size="14.00">0 = Int(I32)</text>
<text xml:space="preserve" text-anchor="start" x="3784.12" y="-857.95" font-family="Times,serif" font-size="14.00">1 = {closure@std::rt::lang_start&lt;()&gt;::{closure#0}}</text>
<text xml:space="preserve" text-anchor="start" x="3784.12" y="-841.45" font-family="Times,serif" font-size="14.00">2 = () (0 bytes, align 1)</text>
<text xml:space="preserve" text-anchor="start" x="3784.12" y="-824.95" font-family="Times,serif" font-size="14.00">3 = &amp;mut {closure@std::rt::lang_start&lt;()&gt;::{closure#0}} (8 bytes, align 8)</text>
</g>
<!-- X4f0cbfd4be7b1965_4 -->
<g id="node38" class="node">
<title>X4f0cbfd4be7b1965_4</title>
<polygon fill="none" stroke="black" points="3737.5,-434.5 3677.25,-434.5 3677.25,-398.5 3737.5,-398.5 3737.5,-434.5"/>
<text xml:space="preserve" text-anchor="start" x="3685.25" y="-411.45" font-family="Times,serif" font-size="14.00">Resume</text>
</g>
<!-- X4f0cbfd4be7b1965_3&#45;&gt;X4f0cbfd4be7b1965_4 -->
<g id="edge24" class="edge">
<title>X4f0cbfd4be7b1965_3&#45;&gt;X4f0cbfd4be7b1965_4</title>
<path fill="none" stroke="black" d="M3708.3,-629.75C3708.13,-590.62 3707.71,-494.8 3707.5,-446.43"/>
<polygon fill="black" stroke="black" points="3711,-446.45 3707.46,-436.46 3704,-446.48 3711,-446.45"/>
</g>
<!-- X4f0cbfd4be7b1965_2 -->
<g id="node37" class="node">
<title>X4f0cbfd4be7b1965_2</title>
<polygon fill="none" stroke="black" points="3809.38,-434.5 3755.38,-434.5 3755.38,-398.5 3809.38,-398.5 3809.38,-434.5"/>
<text xml:space="preserve" text-anchor="start" x="3763.38" y="-411.45" font-family="Times,serif" font-size="14.00">Return</text>
</g>
<!-- X4f0cbfd4be7b1965_1&#45;&gt;X4f0cbfd4be7b1965_2 -->
<g id="edge23" class="edge">
<title>X4f0cbfd4be7b1965_1&#45;&gt;X4f0cbfd4be7b1965_2</title>
<path fill="none" stroke="black" d="M3781.45,-629.75C3781.62,-590.62 3782.04,-494.8 3782.25,-446.43"/>
<polygon fill="black" stroke="black" points="3785.75,-446.48 3782.29,-436.46 3778.75,-446.45 3785.75,-446.48"/>
</g>
<!-- node_19 -->
<g id="node39" class="node">
<title>node_19</title>
<polygon fill="#7ccd7c" stroke="#7ccd7c" points="5447.38,-1164.5 5023.38,-1164.5 5023.38,-1107 5447.38,-1107 5447.38,-1164.5"/>
<text xml:space="preserve" text-anchor="start" x="5031.38" y="-1147.2" font-family="Times,serif" font-size="14.00">LOCALS</text>
<text xml:space="preserve" text-anchor="start" x="5031.38" y="-1130.7" font-family="Times,serif" font-size="14.00">0 = () (0 bytes, align 1)</text>
<text xml:space="preserve" text-anchor="start" x="5031.38" y="-1114.2" font-family="Times,serif" font-size="14.00">1 = *mut {closure@std::rt::lang_start&lt;()&gt;::{closure#0}} (8 bytes, align 8)</text>
</g>
<!-- X8e7f10cacdb250a8_0 -->
<g id="node40" class="node">
<title>X8e7f10cacdb250a8_0</title>
<polygon fill="none" stroke="black" points="5519.38,-1153.75 5465.38,-1153.75 5465.38,-1117.75 5519.38,-1117.75 5519.38,-1153.75"/>
<text xml:space="preserve" text-anchor="start" x="5473.38" y="-1130.7" font-family="Times,serif" font-size="14.00">Return</text>
</g>
<!-- node_21 -->
<g id="node41" class="node">
<title>node_21</title>
<polygon fill="#7ccd7c" stroke="#7ccd7c" points="5367.12,-246.75 5109.62,-246.75 5109.62,-189.25 5367.12,-189.25 5367.12,-246.75"/>
<text xml:space="preserve" text-anchor="start" x="5117.62" y="-229.45" font-family="Times,serif" font-size="14.00">LOCALS</text>
<text xml:space="preserve" text-anchor="start" x="5117.62" y="-212.95" font-family="Times,serif" font-size="14.00">0 = std::process::ExitCode (1 bytes, align 1)</text>
<text xml:space="preserve" text-anchor="start" x="5117.62" y="-196.45" font-family="Times,serif" font-size="14.00">1 = () (0 bytes, align 1)</text>
</g>
</g>
</svg>
