<?xml version="1.0" encoding="UTF-8" standalone="no"?>
<!DOCTYPE svg PUBLIC "-//W3C//DTD SVG 1.1//EN"
 "http://www.w3.org/Graphics/SVG/1.1/DTD/svg11.dtd">
<!-- Generated by graphviz version 14.1.1 (20251213.1925)
 -->
<!-- Pages: 1 -->
<svg width="4011pt" height="1279pt"
 viewBox="0.00 0.00 4011.00 1279.00" xmlns="http://www.w3.org/2000/svg" xmlns:xlink="http://www.w3.org/1999/xlink">
<g id="graph0" class="graph" transform="scale(1 1) rotate(0) translate(4 1275)">
<polygon fill="white" stroke="none" points="-4,4 -4,-1275 4007.38,-1275 4007.38,4 -4,4"/>
<text xml:space="preserve" text-anchor="middle" x="2001.69" y="-7.2" font-family="Times,serif" font-size="14.00">const_arithm_simple</text>
<g id="clust1" class="cluster">
<title>cluster_2</title>
<polygon fill="palegreen" stroke="palegreen" points="532.38,-622 532.38,-1213.5 900.38,-1213.5 900.38,-622 532.38,-622"/>
<text xml:space="preserve" text-anchor="middle" x="716.38" y="-1196.2" font-family="Times,serif" font-size="14.00">main</text>
</g>
<g id="clust2" class="cluster">
<title>cluster_4</title>
<polygon fill="palegreen" stroke="palegreen" points="908.38,-809.75 908.38,-924.25 1174.38,-924.25 1174.38,-809.75 908.38,-809.75"/>
<text xml:space="preserve" text-anchor="middle" x="1041.38" y="-906.95" font-family="Times,serif" font-size="14.00">test</text>
</g>
<g id="clust3" class="cluster">
<title>cluster_6</title>
<polygon fill="lightgray" stroke="lightgray" points="2449.38,-801.5 2449.38,-1246.5 3284.38,-1246.5 3284.38,-801.5 2449.38,-801.5"/>
<text xml:space="preserve" text-anchor="middle" x="2866.88" y="-1229.2" font-family="Times,serif" font-size="14.00">std::rt::lang_start::&lt;()&gt;</text>
</g>
<g id="clust4" class="cluster">
<title>cluster_8</title>
<polygon fill="lightgray" stroke="lightgray" points="2259.38,-123.5 2259.38,-767 2873.38,-767 2873.38,-123.5 2259.38,-123.5"/>
<text xml:space="preserve" text-anchor="middle" x="2566.38" y="-749.7" font-family="Times,serif" font-size="14.00">std::rt::lang_start::&lt;()&gt;</text>
<text xml:space="preserve" text-anchor="middle" x="2566.38" y="-733.2" font-family="Times,serif" font-size="14.00">::{closure#0}</text>
</g>
<g id="clust5" class="cluster">
<title>cluster_10</title>
<polygon fill="lightgray" stroke="lightgray" points="3422.38,-32.5 3422.38,-535.5 3654.38,-535.5 3654.38,-32.5 3422.38,-32.5"/>
<text xml:space="preserve" text-anchor="middle" x="3538.38" y="-518.2" font-family="Times,serif" font-size="14.00">std::sys::backtrace::__ru</text>
<text xml:space="preserve" text-anchor="middle" x="3538.38" y="-501.7" font-family="Times,serif" font-size="14.00">st_begin_short_backtrace:</text>
<text xml:space="preserve" text-anchor="middle" x="3538.38" y="-485.2" font-family="Times,serif" font-size="14.00">:&lt;fn(), </text>
<text xml:space="preserve" text-anchor="middle" x="3538.38" y="-468.7" font-family="Times,serif" font-size="14.00">()&gt;</text>
</g>
<g id="clust6" class="cluster">
<title>cluster_12</title>
<polygon fill="lightgray" stroke="lightgray" points="1182.38,-828.75 1182.38,-1263 1694.38,-1263 1694.38,-828.75 1182.38,-828.75"/>
<text xml:space="preserve" text-anchor="middle" x="1438.38" y="-1245.7" font-family="Times,serif" font-size="14.00">&lt;{closure@std::rt::lang_s</text>
<text xml:space="preserve" text-anchor="middle" x="1438.38" y="-1229.2" font-family="Times,serif" font-size="14.00">tart&lt;()&gt;::{closure#0}} </text>
<text xml:space="preserve" text-anchor="middle" x="1438.38" y="-1212.7" font-family="Times,serif" font-size="14.00">as </text>
<text xml:space="preserve" text-anchor="middle" x="1438.38" y="-1196.2" font-family="Times,serif" font-size="14.00">std::ops::FnOnce&lt;()&gt;&gt;::ca</text>
<text xml:space="preserve" text-anchor="middle" x="1438.38" y="-1179.7" font-family="Times,serif" font-size="14.00">ll_once</text>
</g>
<g id="clust7" class="cluster">
<title>cluster_14</title>
<polygon fill="lightgray" stroke="lightgray" points="3745.38,-32.5 3745.38,-337 3995.38,-337 3995.38,-32.5 3745.38,-32.5"/>
<text xml:space="preserve" text-anchor="middle" x="3870.38" y="-319.7" font-family="Times,serif" font-size="14.00">&lt;fn() </text>
<text xml:space="preserve" text-anchor="middle" x="3870.38" y="-303.2" font-family="Times,serif" font-size="14.00">as </text>
<text xml:space="preserve" text-anchor="middle" x="3870.38" y="-286.7" font-family="Times,serif" font-size="14.00">std::ops::FnOnce&lt;()&gt;&gt;::ca</text>
<text xml:space="preserve" text-anchor="middle" x="3870.38" y="-270.2" font-family="Times,serif" font-size="14.00">ll_once</text>
</g>
<g id="clust8" class="cluster">
<title>cluster_16</title>
<polygon fill="lightgray" stroke="lightgray" points="1702.38,-390.5 1702.38,-998.5 2251.38,-998.5 2251.38,-390.5 1702.38,-390.5"/>
<text xml:space="preserve" text-anchor="middle" x="1976.88" y="-981.2" font-family="Times,serif" font-size="14.00">&lt;{closure@std::rt::lang_s</text>
<text xml:space="preserve" text-anchor="middle" x="1976.88" y="-964.7" font-family="Times,serif" font-size="14.00">tart&lt;()&gt;::{closure#0}} </text>
<text xml:space="preserve" text-anchor="middle" x="1976.88" y="-948.2" font-family="Times,serif" font-size="14.00">as </text>
<text xml:space="preserve" text-anchor="middle" x="1976.88" y="-931.7" font-family="Times,serif" font-size="14.00">std::ops::FnOnce&lt;()&gt;&gt;::ca</text>
<text xml:space="preserve" text-anchor="middle" x="1976.88" y="-915.2" font-family="Times,serif" font-size="14.00">ll_once</text>
</g>
<g id="clust9" class="cluster">
<title>cluster_18</title>
<polygon fill="lightgray" stroke="lightgray" points="3387.38,-1090.75 3387.38,-1221.75 3899.38,-1221.75 3899.38,-1090.75 3387.38,-1090.75"/>
<text xml:space="preserve" text-anchor="middle" x="3643.38" y="-1204.45" font-family="Times,serif" font-size="14.00">std::ptr::drop_in_place::</text>
<text xml:space="preserve" text-anchor="middle" x="3643.38" y="-1187.95" font-family="Times,serif" font-size="14.00">&lt;{closure@std::rt::lang_s</text>
<text xml:space="preserve" text-anchor="middle" x="3643.38" y="-1171.45" font-family="Times,serif" font-size="14.00">tart&lt;()&gt;::{closure#0}}&gt;</text>
</g>
<g id="clust10" class="cluster">
<title>cluster_20</title>
<polygon fill="lightgray" stroke="lightgray" points="2881.38,-181.25 2881.38,-328.75 3414.38,-328.75 3414.38,-181.25 2881.38,-181.25"/>
<text xml:space="preserve" text-anchor="middle" x="3147.88" y="-311.45" font-family="Times,serif" font-size="14.00">&lt;() </text>
<text xml:space="preserve" text-anchor="middle" x="3147.88" y="-294.95" font-family="Times,serif" font-size="14.00">as </text>
<text xml:space="preserve" text-anchor="middle" x="3147.88" y="-278.45" font-family="Times,serif" font-size="14.00">std::process::Termination</text>
<text xml:space="preserve" text-anchor="middle" x="3147.88" y="-261.95" font-family="Times,serif" font-size="14.00">&gt;::report</text>
</g>
<!-- node_0 -->
<g id="node1" class="node">
<title>node_0</title>
<polygon fill="lightyellow" stroke="lightyellow" points="130.75,-1148 0,-1148 0,-1107 130.75,-1107 130.75,-1148"/>
<text xml:space="preserve" text-anchor="start" x="8" y="-1130.7" font-family="Times,serif" font-size="14.00">ALLOCS</text>
<text xml:space="preserve" text-anchor="start" x="8" y="-1114.2" font-family="Times,serif" font-size="14.00">alloc1: Str (19 bytes)</text>
</g>
<!-- node_1 -->
<g id="node2" class="node">
<title>node_1</title>
<polygon fill="lavender" stroke="lavender" points="522.25,-1181 148.5,-1181 148.5,-1074 522.25,-1074 522.25,-1181"/>
<text xml:space="preserve" text-anchor="start" x="156.5" y="-1163.7" font-family="Times,serif" font-size="14.00">TYPES</text>
<text xml:space="preserve" text-anchor="start" x="156.5" y="-1147.2" font-family="Times,serif" font-size="14.00">() (0 bytes)</text>
<text xml:space="preserve" text-anchor="start" x="156.5" y="-1130.7" font-family="Times,serif" font-size="14.00">std::panic::Location&lt;&#39;_&gt; (24 bytes)</text>
<text xml:space="preserve" text-anchor="start" x="156.5" y="-1114.2" font-family="Times,serif" font-size="14.00">std::process::ExitCode (1 bytes)</text>
<text xml:space="preserve" text-anchor="start" x="156.5" y="-1097.7" font-family="Times,serif" font-size="14.00">std::result::Result&lt;isize, !&gt; (8 bytes)</text>
<text xml:space="preserve" text-anchor="start" x="156.5" y="-1081.2" font-family="Times,serif" font-size="14.00">std::sys::pal::unix::process::process_common::ExitCode (1 bytes)</text>
</g>
<!-- X210a8e5fe9313c81_0 -->
<g id="node3" class="node">
<title>X210a8e5fe9313c81_0</title>
<polygon fill="none" stroke="red" points="856.12,-437 682.62,-437 682.62,-396 856.12,-396 856.12,-437"/>
<text xml:space="preserve" text-anchor="middle" x="769.38" y="-419.7" font-family="Times,serif" font-size="14.00">_ZN4core9panicking5panic1</text>
<text xml:space="preserve" text-anchor="middle" x="769.38" y="-403.2" font-family="Times,serif" font-size="14.00">7h37379bf3ce79a0d7E</text>
</g>
<!-- X8b0ac2e54b9a91_0 -->
<g id="node4" class="node">
<title>X8b0ac2e54b9a91_0</title>
<polygon fill="none" stroke="red" points="1069.62,-1145.5 1013.12,-1145.5 1013.12,-1109.5 1069.62,-1109.5 1069.62,-1145.5"/>
<text xml:space="preserve" text-anchor="middle" x="1041.38" y="-1122.45" font-family="Times,serif" font-size="14.00">NoOp: </text>
</g>
<!-- X3c6542d96320ad67_0 -->
<g id="node5" class="node">
<title>X3c6542d96320ad67_0</title>
<polygon fill="none" stroke="red" points="3734.5,-79 3662.25,-79 3662.25,-38 3734.5,-38 3734.5,-79"/>
<text xml:space="preserve" text-anchor="middle" x="3698.38" y="-61.7" font-family="Times,serif" font-size="14.00">Intr: </text>
<text xml:space="preserve" text-anchor="middle" x="3698.38" y="-45.2" font-family="Times,serif" font-size="14.00">black_box</text>
</g>
<!-- X5eb86185c1cf8f06_0 -->
<g id="node6" class="node">
<title>X5eb86185c1cf8f06_0</title>
<polygon fill="none" stroke="red" points="3460.12,-883.5 3292.62,-883.5 3292.62,-826 3460.12,-826 3460.12,-883.5"/>
<text xml:space="preserve" text-anchor="middle" x="3376.38" y="-866.2" font-family="Times,serif" font-size="14.00">_ZN3std2rt19lang_start_in</text>
<text xml:space="preserve" text-anchor="middle" x="3376.38" y="-849.7" font-family="Times,serif" font-size="14.00">ternal17h035df9ff6960926a</text>
<text xml:space="preserve" text-anchor="middle" x="3376.38" y="-833.2" font-family="Times,serif" font-size="14.00">E</text>
</g>
<!-- node_3 -->
<g id="node7" class="node">
<title>node_3</title>
<polygon fill="#7ccd7c" stroke="#7ccd7c" points="684.5,-1181 540.25,-1181 540.25,-1074 684.5,-1074 684.5,-1181"/>
<text xml:space="preserve" text-anchor="start" x="548.25" y="-1163.7" font-family="Times,serif" font-size="14.00">LOCALS</text>
<text xml:space="preserve" text-anchor="start" x="548.25" y="-1147.2" font-family="Times,serif" font-size="14.00">0 = () (0 bytes, align 1)</text>
<text xml:space="preserve" text-anchor="start" x="548.25" y="-1130.7" font-family="Times,serif" font-size="14.00">1 = Bool</text>
<text xml:space="preserve" text-anchor="start" x="548.25" y="-1114.2" font-family="Times,serif" font-size="14.00">2 = Uint(Usize)</text>
<text xml:space="preserve" text-anchor="start" x="548.25" y="-1097.7" font-family="Times,serif" font-size="14.00">3 = Uint(Usize)</text>
<text xml:space="preserve" text-anchor="start" x="548.25" y="-1081.2" font-family="Times,serif" font-size="14.00">4 = ()</text>
</g>
<!-- Xfdfccde6c678d333_0 -->
<g id="node8" class="node">
<title>Xfdfccde6c678d333_0</title>
<polygon fill="none" stroke="black" points="892,-1156.25 702.75,-1156.25 702.75,-1098.75 892,-1098.75 892,-1156.25"/>
<text xml:space="preserve" text-anchor="start" x="710.75" y="-1138.95" font-family="Times,serif" font-size="14.00">2 &lt;&#45; Use(const 42_Uint(Usize))</text>
<text xml:space="preserve" text-anchor="start" x="710.75" y="-1122.45" font-family="Times,serif" font-size="14.00">3 &lt;&#45; Use(const 0_Uint(Usize))</text>
<text xml:space="preserve" text-anchor="start" x="710.75" y="-1105.95" font-family="Times,serif" font-size="14.00">Call</text>
</g>
<!-- Xfdfccde6c678d333_1 -->
<g id="node9" class="node">
<title>Xfdfccde6c678d333_1</title>
<polygon fill="none" stroke="black" points="847.75,-872.75 747,-872.75 747,-836.75 847.75,-836.75 847.75,-872.75"/>
<text xml:space="preserve" text-anchor="start" x="755" y="-849.7" font-family="Times,serif" font-size="14.00">SwitchInt cp(1)</text>
</g>
<!-- Xfdfccde6c678d333_0&#45;&gt;Xfdfccde6c678d333_1 -->
<g id="edge1" class="edge">
<title>Xfdfccde6c678d333_0&#45;&gt;Xfdfccde6c678d333_1</title>
<path fill="none" stroke="black" d="M797.38,-1098.29C797.38,-1046.51 797.38,-936.81 797.38,-884.57"/>
<polygon fill="black" stroke="black" points="800.88,-884.69 797.38,-874.69 793.88,-884.69 800.88,-884.69"/>
<text xml:space="preserve" text-anchor="middle" x="800.75" y="-1009.7" font-family="Times,serif" font-size="14.00">1</text>
</g>
<!-- X23a1b3ae20028c2d_0 -->
<g id="node12" class="node">
<title>X23a1b3ae20028c2d_0</title>
<polygon fill="none" stroke="black" points="1046.38,-875.25 916.38,-875.25 916.38,-834.25 1046.38,-834.25 1046.38,-875.25"/>
<text xml:space="preserve" text-anchor="start" x="924.38" y="-857.95" font-family="Times,serif" font-size="14.00">0 &lt;&#45; Gt(cp(1), cp(2))</text>
<text xml:space="preserve" text-anchor="start" x="924.38" y="-841.45" font-family="Times,serif" font-size="14.00">Return</text>
</g>
<!-- Xfdfccde6c678d333_0&#45;&gt;X23a1b3ae20028c2d_0 -->
<g id="edge4" class="edge">
<title>Xfdfccde6c678d333_0&#45;&gt;X23a1b3ae20028c2d_0</title>
<path fill="none" stroke="black" d="M823.78,-1098.33C846.59,-1073.24 879.68,-1034.95 904.38,-998.5 929.55,-961.34 953.23,-915.1 967.52,-885.5"/>
<polygon fill="black" stroke="black" points="970.54,-887.3 971.69,-876.77 964.22,-884.28 970.54,-887.3"/>
<text xml:space="preserve" text-anchor="middle" x="932.28" y="-1009.7" font-family="Times,serif" font-size="14.00">mv(2),mv(3)</text>
</g>
<!-- Xfdfccde6c678d333_2 -->
<g id="node10" class="node">
<title>Xfdfccde6c678d333_2</title>
<polygon fill="none" stroke="black" points="796.38,-666 742.38,-666 742.38,-630 796.38,-630 796.38,-666"/>
<text xml:space="preserve" text-anchor="start" x="750.38" y="-642.95" font-family="Times,serif" font-size="14.00">Call</text>
</g>
<!-- Xfdfccde6c678d333_1&#45;&gt;Xfdfccde6c678d333_2 -->
<g id="edge2" class="edge">
<title>Xfdfccde6c678d333_1&#45;&gt;Xfdfccde6c678d333_2</title>
<path fill="none" stroke="black" d="M794.99,-836.29C790.16,-801.01 779.21,-720.91 773.31,-677.78"/>
<polygon fill="black" stroke="black" points="776.78,-677.35 771.96,-667.91 769.85,-678.29 776.78,-677.35"/>
<text xml:space="preserve" text-anchor="middle" x="791.69" y="-778.2" font-family="Times,serif" font-size="14.00">0</text>
</g>
<!-- Xfdfccde6c678d333_3 -->
<g id="node11" class="node">
<title>Xfdfccde6c678d333_3</title>
<polygon fill="none" stroke="black" points="868.38,-666 814.38,-666 814.38,-630 868.38,-630 868.38,-666"/>
<text xml:space="preserve" text-anchor="start" x="822.38" y="-642.95" font-family="Times,serif" font-size="14.00">Return</text>
</g>
<!-- Xfdfccde6c678d333_1&#45;&gt;Xfdfccde6c678d333_3 -->
<g id="edge3" class="edge">
<title>Xfdfccde6c678d333_1&#45;&gt;Xfdfccde6c678d333_3</title>
<path fill="none" stroke="black" d="M801.13,-836.29C808.72,-800.93 826,-720.56 835.25,-677.5"/>
<polygon fill="black" stroke="black" points="838.64,-678.4 837.32,-667.89 831.79,-676.93 838.64,-678.4"/>
<text xml:space="preserve" text-anchor="middle" x="828.02" y="-778.2" font-family="Times,serif" font-size="14.00">other</text>
</g>
<!-- Xfdfccde6c678d333_2&#45;&gt;X210a8e5fe9313c81_0 -->
<g id="edge5" class="edge">
<title>Xfdfccde6c678d333_2&#45;&gt;X210a8e5fe9313c81_0</title>
<path fill="none" stroke="black" d="M769.38,-629.75C769.38,-591.21 769.38,-497.68 769.38,-448.65"/>
<polygon fill="black" stroke="black" points="772.88,-448.72 769.38,-438.72 765.88,-448.72 772.88,-448.72"/>
<text xml:space="preserve" text-anchor="middle" x="806.5" y="-546.7" font-family="Times,serif" font-size="14.00">const [alloc0]</text>
</g>
<!-- node_5 -->
<g id="node13" class="node">
<title>node_5</title>
<polygon fill="#7ccd7c" stroke="#7ccd7c" points="1166.5,-891.75 1064.25,-891.75 1064.25,-817.75 1166.5,-817.75 1166.5,-891.75"/>
<text xml:space="preserve" text-anchor="start" x="1072.25" y="-874.45" font-family="Times,serif" font-size="14.00">LOCALS</text>
<text xml:space="preserve" text-anchor="start" x="1072.25" y="-857.95" font-family="Times,serif" font-size="14.00">0 = Bool</text>
<text xml:space="preserve" text-anchor="start" x="1072.25" y="-841.45" font-family="Times,serif" font-size="14.00">1 = Uint(Usize)</text>
<text xml:space="preserve" text-anchor="start" x="1072.25" y="-824.95" font-family="Times,serif" font-size="14.00">2 = Uint(Usize)</text>
</g>
<!-- node_7 -->
<g id="node14" class="node">
<title>node_7</title>
<polygon fill="#7ccd7c" stroke="#7ccd7c" points="3019.75,-1214 2457,-1214 2457,-1041 3019.75,-1041 3019.75,-1214"/>
<text xml:space="preserve" text-anchor="start" x="2465" y="-1196.7" font-family="Times,serif" font-size="14.00">LOCALS</text>
<text xml:space="preserve" text-anchor="start" x="2465" y="-1180.2" font-family="Times,serif" font-size="14.00">0 = Int(Isize)</text>
<text xml:space="preserve" text-anchor="start" x="2465" y="-1163.7" font-family="Times,serif" font-size="14.00">1 = fn()</text>
<text xml:space="preserve" text-anchor="start" x="2465" y="-1147.2" font-family="Times,serif" font-size="14.00">2 = Int(Isize)</text>
<text xml:space="preserve" text-anchor="start" x="2465" y="-1130.7" font-family="Times,serif" font-size="14.00">3 = *const *const u8 (8 bytes, align 8)</text>
<text xml:space="preserve" text-anchor="start" x="2465" y="-1114.2" font-family="Times,serif" font-size="14.00">4 = Uint(U8)</text>
<text xml:space="preserve" text-anchor="start" x="2465" y="-1097.7" font-family="Times,serif" font-size="14.00">5 = std::result::Result&lt;isize, !&gt; (8 bytes, align 8)</text>
<text xml:space="preserve" text-anchor="start" x="2465" y="-1081.2" font-family="Times,serif" font-size="14.00">6 = &amp;dyn std::ops::Fn() &#45;&gt; i32 + std::marker::Sync + std::panic::RefUnwindSafe (16 bytes, align 8)</text>
<text xml:space="preserve" text-anchor="start" x="2465" y="-1064.7" font-family="Times,serif" font-size="14.00">7 = &amp;{closure@std::rt::lang_start&lt;()&gt;::{closure#0}} (8 bytes, align 8)</text>
<text xml:space="preserve" text-anchor="start" x="2465" y="-1048.2" font-family="Times,serif" font-size="14.00">8 = {closure@std::rt::lang_start&lt;()&gt;::{closure#0}}</text>
</g>
<!-- X45d174be2195ac8e_0 -->
<g id="node15" class="node">
<title>X45d174be2195ac8e_0</title>
<polygon fill="none" stroke="black" points="3276.75,-1189.25 3038,-1189.25 3038,-1065.75 3276.75,-1065.75 3276.75,-1189.25"/>
<text xml:space="preserve" text-anchor="start" x="3046" y="-1171.95" font-family="Times,serif" font-size="14.00">Storage Live _5</text>
<text xml:space="preserve" text-anchor="start" x="3046" y="-1155.45" font-family="Times,serif" font-size="14.00">Storage Live _6</text>
<text xml:space="preserve" text-anchor="start" x="3046" y="-1138.95" font-family="Times,serif" font-size="14.00">Storage Live _8</text>
<text xml:space="preserve" text-anchor="start" x="3046" y="-1122.45" font-family="Times,serif" font-size="14.00">8 &lt;&#45; Closure (cp(1))</text>
<text xml:space="preserve" text-anchor="start" x="3046" y="-1105.95" font-family="Times,serif" font-size="14.00">7 &lt;&#45; &amp; 8</text>
<text xml:space="preserve" text-anchor="start" x="3046" y="-1089.45" font-family="Times,serif" font-size="14.00">6 &lt;&#45; Cast&#45;PointerCoercion(Unsize) cp(7)</text>
<text xml:space="preserve" text-anchor="start" x="3046" y="-1072.95" font-family="Times,serif" font-size="14.00">Call</text>
</g>
<!-- X45d174be2195ac8e_0&#45;&gt;X5eb86185c1cf8f06_0 -->
<g id="edge7" class="edge">
<title>X45d174be2195ac8e_0&#45;&gt;X5eb86185c1cf8f06_0</title>
<path fill="none" stroke="black" d="M3226.27,-1065.31C3247.32,-1045.05 3269.8,-1021.72 3288.38,-998.5 3314.89,-965.35 3339.75,-923.65 3356.24,-893.9"/>
<polygon fill="black" stroke="black" points="3359.25,-895.69 3360.98,-885.24 3353.11,-892.33 3359.25,-895.69"/>
<text xml:space="preserve" text-anchor="middle" x="3352.05" y="-1009.7" font-family="Times,serif" font-size="14.00">mv(6),mv(2),mv(3),mv(4)</text>
</g>
<!-- X45d174be2195ac8e_1 -->
<g id="node16" class="node">
<title>X45d174be2195ac8e_1</title>
<polygon fill="none" stroke="black" points="3251.25,-900 3063.5,-900 3063.5,-809.5 3251.25,-809.5 3251.25,-900"/>
<text xml:space="preserve" text-anchor="start" x="3071.5" y="-882.7" font-family="Times,serif" font-size="14.00">Storage Dead _6</text>
<text xml:space="preserve" text-anchor="start" x="3071.5" y="-866.2" font-family="Times,serif" font-size="14.00">0 &lt;&#45; Use(cp((5 as variant 0).0))</text>
<text xml:space="preserve" text-anchor="start" x="3071.5" y="-849.7" font-family="Times,serif" font-size="14.00">Storage Dead _8</text>
<text xml:space="preserve" text-anchor="start" x="3071.5" y="-833.2" font-family="Times,serif" font-size="14.00">Storage Dead _5</text>
<text xml:space="preserve" text-anchor="start" x="3071.5" y="-816.7" font-family="Times,serif" font-size="14.00">Return</text>
</g>
<!-- X45d174be2195ac8e_0&#45;&gt;X45d174be2195ac8e_1 -->
<g id="edge6" class="edge">
<title>X45d174be2195ac8e_0&#45;&gt;X45d174be2195ac8e_1</title>
<path fill="none" stroke="black" d="M3157.38,-1065.4C3157.38,-1019.2 3157.38,-956.29 3157.38,-911.46"/>
<polygon fill="black" stroke="black" points="3160.88,-911.7 3157.38,-901.7 3153.88,-911.7 3160.88,-911.7"/>
<text xml:space="preserve" text-anchor="middle" x="3160.75" y="-1009.7" font-family="Times,serif" font-size="14.00">5</text>
</g>
<!-- node_9 -->
<g id="node17" class="node">
<title>node_9</title>
<polygon fill="#7ccd7c" stroke="#7ccd7c" points="2719.62,-718 2267.12,-718 2267.12,-578 2719.62,-578 2719.62,-718"/>
<text xml:space="preserve" text-anchor="start" x="2275.12" y="-700.7" font-family="Times,serif" font-size="14.00">LOCALS</text>
<text xml:space="preserve" text-anchor="start" x="2275.12" y="-684.2" font-family="Times,serif" font-size="14.00">0 = Int(I32)</text>
<text xml:space="preserve" text-anchor="start" x="2275.12" y="-667.7" font-family="Times,serif" font-size="14.00">1 = &amp;{closure@std::rt::lang_start&lt;()&gt;::{closure#0}} (8 bytes, align 8)</text>
<text xml:space="preserve" text-anchor="start" x="2275.12" y="-651.2" font-family="Times,serif" font-size="14.00">2 = std::process::ExitCode (1 bytes, align 1)</text>
<text xml:space="preserve" text-anchor="start" x="2275.12" y="-634.7" font-family="Times,serif" font-size="14.00">3 = () (0 bytes, align 1)</text>
<text xml:space="preserve" text-anchor="start" x="2275.12" y="-618.2" font-family="Times,serif" font-size="14.00">4 = fn()</text>
<text xml:space="preserve" text-anchor="start" x="2275.12" y="-601.7" font-family="Times,serif" font-size="14.00">5 = &amp;std::sys::pal::unix::process::process_common::ExitCode (8 bytes, align 8)</text>
<text xml:space="preserve" text-anchor="start" x="2275.12" y="-585.2" font-family="Times,serif" font-size="14.00">6 = Uint(U8)</text>
</g>
<!-- Xdedd0e9dc183ec1f_0 -->
<g id="node18" class="node">
<title>Xdedd0e9dc183ec1f_0</title>
<polygon fill="none" stroke="black" points="2865.25,-693.25 2737.5,-693.25 2737.5,-602.75 2865.25,-602.75 2865.25,-693.25"/>
<text xml:space="preserve" text-anchor="start" x="2745.5" y="-675.95" font-family="Times,serif" font-size="14.00">Storage Live _2</text>
<text xml:space="preserve" text-anchor="start" x="2745.5" y="-659.45" font-family="Times,serif" font-size="14.00">Storage Live _3</text>
<text xml:space="preserve" text-anchor="start" x="2745.5" y="-642.95" font-family="Times,serif" font-size="14.00">Storage Live _4</text>
<text xml:space="preserve" text-anchor="start" x="2745.5" y="-626.45" font-family="Times,serif" font-size="14.00">4 &lt;&#45; Use(cp((*1).0))</text>
<text xml:space="preserve" text-anchor="start" x="2745.5" y="-609.95" font-family="Times,serif" font-size="14.00">Call</text>
</g>
<!-- Xdedd0e9dc183ec1f_1 -->
<g id="node19" class="node">
<title>Xdedd0e9dc183ec1f_1</title>
<polygon fill="none" stroke="black" points="2854.75,-437 2748,-437 2748,-396 2854.75,-396 2854.75,-437"/>
<text xml:space="preserve" text-anchor="start" x="2756" y="-419.7" font-family="Times,serif" font-size="14.00">Storage Dead _4</text>
<text xml:space="preserve" text-anchor="start" x="2756" y="-403.2" font-family="Times,serif" font-size="14.00">Call</text>
</g>
<!-- Xdedd0e9dc183ec1f_0&#45;&gt;Xdedd0e9dc183ec1f_1 -->
<g id="edge8" class="edge">
<title>Xdedd0e9dc183ec1f_0&#45;&gt;Xdedd0e9dc183ec1f_1</title>
<path fill="none" stroke="black" d="M2801.38,-602.48C2801.38,-557.23 2801.38,-488.32 2801.38,-448.63"/>
<polygon fill="black" stroke="black" points="2804.88,-448.82 2801.38,-438.82 2797.88,-448.82 2804.88,-448.82"/>
<text xml:space="preserve" text-anchor="middle" x="2804.75" y="-546.7" font-family="Times,serif" font-size="14.00">3</text>
</g>
<!-- X4a925e79a41058c4_0 -->
<g id="node21" class="node">
<title>X4a925e79a41058c4_0</title>
<polygon fill="none" stroke="black" points="3484.38,-434.5 3430.38,-434.5 3430.38,-398.5 3484.38,-398.5 3484.38,-434.5"/>
<text xml:space="preserve" text-anchor="start" x="3438.38" y="-411.45" font-family="Times,serif" font-size="14.00">Call</text>
</g>
<!-- Xdedd0e9dc183ec1f_0&#45;&gt;X4a925e79a41058c4_0 -->
<g id="edge10" class="edge">
<title>Xdedd0e9dc183ec1f_0&#45;&gt;X4a925e79a41058c4_0</title>
<path fill="none" stroke="black" d="M2865.47,-624.58C3000.61,-577.3 3311.2,-468.64 3419.38,-430.79"/>
<polygon fill="black" stroke="black" points="3420.38,-434.15 3428.66,-427.55 3418.07,-427.54 3420.38,-434.15"/>
<text xml:space="preserve" text-anchor="middle" x="3106.97" y="-546.7" font-family="Times,serif" font-size="14.00">mv(4)</text>
</g>
<!-- Xdedd0e9dc183ec1f_2 -->
<g id="node20" class="node">
<title>Xdedd0e9dc183ec1f_2</title>
<polygon fill="none" stroke="black" points="2865.38,-304.5 2711.38,-304.5 2711.38,-131.5 2865.38,-131.5 2865.38,-304.5"/>
<text xml:space="preserve" text-anchor="start" x="2719.38" y="-287.2" font-family="Times,serif" font-size="14.00">Storage Dead _3</text>
<text xml:space="preserve" text-anchor="start" x="2719.38" y="-270.7" font-family="Times,serif" font-size="14.00">Storage Live _5</text>
<text xml:space="preserve" text-anchor="start" x="2719.38" y="-254.2" font-family="Times,serif" font-size="14.00">5 &lt;&#45; &amp; 2.0</text>
<text xml:space="preserve" text-anchor="start" x="2719.38" y="-237.7" font-family="Times,serif" font-size="14.00">Storage Live _6</text>
<text xml:space="preserve" text-anchor="start" x="2719.38" y="-221.2" font-family="Times,serif" font-size="14.00">6 &lt;&#45; Use(cp(2.0.0))</text>
<text xml:space="preserve" text-anchor="start" x="2719.38" y="-204.7" font-family="Times,serif" font-size="14.00">0 &lt;&#45; Cast&#45;IntToInt mv(6)</text>
<text xml:space="preserve" text-anchor="start" x="2719.38" y="-188.2" font-family="Times,serif" font-size="14.00">Storage Dead _6</text>
<text xml:space="preserve" text-anchor="start" x="2719.38" y="-171.7" font-family="Times,serif" font-size="14.00">Storage Dead _5</text>
<text xml:space="preserve" text-anchor="start" x="2719.38" y="-155.2" font-family="Times,serif" font-size="14.00">Storage Dead _2</text>
<text xml:space="preserve" text-anchor="start" x="2719.38" y="-138.7" font-family="Times,serif" font-size="14.00">Return</text>
</g>
<!-- Xdedd0e9dc183ec1f_1&#45;&gt;Xdedd0e9dc183ec1f_2 -->
<g id="edge9" class="edge">
<title>Xdedd0e9dc183ec1f_1&#45;&gt;Xdedd0e9dc183ec1f_2</title>
<path fill="none" stroke="black" d="M2800.06,-395.58C2798.8,-376.54 2796.8,-346.38 2794.81,-316.33"/>
<polygon fill="black" stroke="black" points="2798.31,-316.1 2794.15,-306.35 2791.32,-316.56 2798.31,-316.1"/>
<text xml:space="preserve" text-anchor="middle" x="2800.91" y="-348.2" font-family="Times,serif" font-size="14.00">2</text>
</g>
<!-- X8852de0e0f3cc65e_0 -->
<g id="node22" class="node">
<title>X8852de0e0f3cc65e_0</title>
<polygon fill="none" stroke="black" points="3130.88,-238.5 2889.88,-238.5 2889.88,-197.5 3130.88,-197.5 3130.88,-238.5"/>
<text xml:space="preserve" text-anchor="start" x="2897.88" y="-221.2" font-family="Times,serif" font-size="14.00">0 &lt;&#45; Use(const 0_std::process::ExitCode)</text>
<text xml:space="preserve" text-anchor="start" x="2897.88" y="-204.7" font-family="Times,serif" font-size="14.00">Return</text>
</g>
<!-- Xdedd0e9dc183ec1f_1&#45;&gt;X8852de0e0f3cc65e_0 -->
<g id="edge11" class="edge">
<title>Xdedd0e9dc183ec1f_1&#45;&gt;X8852de0e0f3cc65e_0</title>
<path fill="none" stroke="black" d="M2822.57,-395.58C2860.04,-360.34 2938.08,-286.97 2980.82,-246.78"/>
<polygon fill="black" stroke="black" points="2983.14,-249.41 2988.03,-240.01 2978.34,-244.31 2983.14,-249.41"/>
<text xml:space="preserve" text-anchor="middle" x="2891.82" y="-348.2" font-family="Times,serif" font-size="14.00">mv(3)</text>
</g>
<!-- X4a925e79a41058c4_1 -->
<g id="node24" class="node">
<title>X4a925e79a41058c4_1</title>
<polygon fill="none" stroke="black" points="3564.38,-236 3510.38,-236 3510.38,-200 3564.38,-200 3564.38,-236"/>
<text xml:space="preserve" text-anchor="start" x="3518.38" y="-212.95" font-family="Times,serif" font-size="14.00">Call</text>
</g>
<!-- X4a925e79a41058c4_0&#45;&gt;X4a925e79a41058c4_1 -->
<g id="edge12" class="edge">
<title>X4a925e79a41058c4_0&#45;&gt;X4a925e79a41058c4_1</title>
<path fill="none" stroke="black" d="M3464.47,-398.06C3478.35,-363.98 3509.18,-288.26 3525.96,-247.05"/>
<polygon fill="black" stroke="black" points="3529.19,-248.38 3529.72,-237.8 3522.71,-245.74 3529.19,-248.38"/>
<text xml:space="preserve" text-anchor="middle" x="3488.91" y="-348.2" font-family="Times,serif" font-size="14.00">0</text>
</g>
<!-- Xd4236c18a1d62246_0 -->
<g id="node26" class="node">
<title>Xd4236c18a1d62246_0</title>
<polygon fill="none" stroke="black" points="3807.38,-236 3753.38,-236 3753.38,-200 3807.38,-200 3807.38,-236"/>
<text xml:space="preserve" text-anchor="start" x="3761.38" y="-212.95" font-family="Times,serif" font-size="14.00">Call</text>
</g>
<!-- X4a925e79a41058c4_0&#45;&gt;Xd4236c18a1d62246_0 -->
<g id="edge14" class="edge">
<title>X4a925e79a41058c4_0&#45;&gt;Xd4236c18a1d62246_0</title>
<path fill="none" stroke="black" d="M3471.25,-398.06C3477.38,-391.38 3485.08,-384.23 3493.38,-379.5 3559.14,-341.96 3592.3,-374 3658.38,-337 3700.23,-313.56 3738.19,-272.21 3760.28,-245.21"/>
<polygon fill="black" stroke="black" points="3762.95,-247.48 3766.47,-237.49 3757.48,-243.11 3762.95,-247.48"/>
<text xml:space="preserve" text-anchor="middle" x="3678.85" y="-348.2" font-family="Times,serif" font-size="14.00">mv(1),const ()</text>
</g>
<!-- node_11 -->
<g id="node23" class="node">
<title>node_11</title>
<polygon fill="#7ccd7c" stroke="#7ccd7c" points="3646.5,-453.5 3502.25,-453.5 3502.25,-379.5 3646.5,-379.5 3646.5,-453.5"/>
<text xml:space="preserve" text-anchor="start" x="3510.25" y="-436.2" font-family="Times,serif" font-size="14.00">LOCALS</text>
<text xml:space="preserve" text-anchor="start" x="3510.25" y="-419.7" font-family="Times,serif" font-size="14.00">0 = () (0 bytes, align 1)</text>
<text xml:space="preserve" text-anchor="start" x="3510.25" y="-403.2" font-family="Times,serif" font-size="14.00">1 = fn()</text>
<text xml:space="preserve" text-anchor="start" x="3510.25" y="-386.7" font-family="Times,serif" font-size="14.00">2 = () (0 bytes, align 1)</text>
</g>
<!-- X4a925e79a41058c4_1&#45;&gt;X3c6542d96320ad67_0 -->
<g id="edge15" class="edge">
<title>X4a925e79a41058c4_1&#45;&gt;X3c6542d96320ad67_0</title>
<path fill="none" stroke="black" d="M3555.22,-199.54C3583.07,-172.3 3637.11,-119.44 3670.24,-87.03"/>
<polygon fill="black" stroke="black" points="3672.4,-89.81 3677.1,-80.31 3667.5,-84.8 3672.4,-89.81"/>
<text xml:space="preserve" text-anchor="middle" x="3680.09" y="-100.2" font-family="Times,serif" font-size="14.00">const ()</text>
</g>
<!-- X4a925e79a41058c4_2 -->
<g id="node25" class="node">
<title>X4a925e79a41058c4_2</title>
<polygon fill="none" stroke="black" points="3564.38,-76.5 3510.38,-76.5 3510.38,-40.5 3564.38,-40.5 3564.38,-76.5"/>
<text xml:space="preserve" text-anchor="start" x="3518.38" y="-53.45" font-family="Times,serif" font-size="14.00">Return</text>
</g>
<!-- X4a925e79a41058c4_1&#45;&gt;X4a925e79a41058c4_2 -->
<g id="edge13" class="edge">
<title>X4a925e79a41058c4_1&#45;&gt;X4a925e79a41058c4_2</title>
<path fill="none" stroke="black" d="M3537.38,-199.54C3537.38,-172.56 3537.38,-120.44 3537.38,-87.95"/>
<polygon fill="black" stroke="black" points="3540.88,-88.07 3537.38,-78.07 3533.88,-88.07 3540.88,-88.07"/>
<text xml:space="preserve" text-anchor="middle" x="3540.75" y="-100.2" font-family="Times,serif" font-size="14.00">2</text>
</g>
<!-- Xd4236c18a1d62246_0&#45;&gt;Xd4236c18a1d62246_0 -->
<g id="edge19" class="edge">
<title>Xd4236c18a1d62246_0&#45;&gt;Xd4236c18a1d62246_0:1</title>
<path fill="none" stroke="black" d="M3797.93,-236.41C3811.52,-243.3 3825.38,-237.16 3825.38,-218 3825.38,-204.08 3818.06,-197.03 3808.85,-196.86"/>
<polygon fill="black" stroke="black" points="3808.25,-193.4 3799.4,-199.22 3809.95,-200.2 3808.25,-193.4"/>
</g>
<!-- Xd4236c18a1d62246_1 -->
<g id="node32" class="node">
<title>Xd4236c18a1d62246_1</title>
<polygon fill="none" stroke="black" points="3807.38,-76.5 3753.38,-76.5 3753.38,-40.5 3807.38,-40.5 3807.38,-76.5"/>
<text xml:space="preserve" text-anchor="start" x="3761.38" y="-53.45" font-family="Times,serif" font-size="14.00">Return</text>
</g>
<!-- Xd4236c18a1d62246_0&#45;&gt;Xd4236c18a1d62246_1 -->
<g id="edge18" class="edge">
<title>Xd4236c18a1d62246_0&#45;&gt;Xd4236c18a1d62246_1</title>
<path fill="none" stroke="black" d="M3780.38,-199.54C3780.38,-172.56 3780.38,-120.44 3780.38,-87.95"/>
<polygon fill="black" stroke="black" points="3783.88,-88.07 3780.38,-78.07 3776.88,-88.07 3783.88,-88.07"/>
<text xml:space="preserve" text-anchor="middle" x="3783.75" y="-100.2" font-family="Times,serif" font-size="14.00">0</text>
</g>
<!-- node_13 -->
<g id="node27" class="node">
<title>node_13</title>
<polygon fill="#7ccd7c" stroke="#7ccd7c" points="1614.38,-1164.5 1190.38,-1164.5 1190.38,-1090.5 1614.38,-1090.5 1614.38,-1164.5"/>
<text xml:space="preserve" text-anchor="start" x="1198.38" y="-1147.2" font-family="Times,serif" font-size="14.00">LOCALS</text>
<text xml:space="preserve" text-anchor="start" x="1198.38" y="-1130.7" font-family="Times,serif" font-size="14.00">0 = Int(I32)</text>
<text xml:space="preserve" text-anchor="start" x="1198.38" y="-1114.2" font-family="Times,serif" font-size="14.00">1 = *mut {closure@std::rt::lang_start&lt;()&gt;::{closure#0}} (8 bytes, align 8)</text>
<text xml:space="preserve" text-anchor="start" x="1198.38" y="-1097.7" font-family="Times,serif" font-size="14.00">2 = () (0 bytes, align 1)</text>
</g>
<!-- X473254f4136b91c2_0 -->
<g id="node28" class="node">
<title>X473254f4136b91c2_0</title>
<polygon fill="none" stroke="black" points="1686.38,-1145.5 1632.38,-1145.5 1632.38,-1109.5 1686.38,-1109.5 1686.38,-1145.5"/>
<text xml:space="preserve" text-anchor="start" x="1640.38" y="-1122.45" font-family="Times,serif" font-size="14.00">Call</text>
</g>
<!-- X473254f4136b91c2_1 -->
<g id="node29" class="node">
<title>X473254f4136b91c2_1</title>
<polygon fill="none" stroke="black" points="1686.38,-872.75 1632.38,-872.75 1632.38,-836.75 1686.38,-836.75 1686.38,-872.75"/>
<text xml:space="preserve" text-anchor="start" x="1640.38" y="-849.7" font-family="Times,serif" font-size="14.00">Return</text>
</g>
<!-- X473254f4136b91c2_0&#45;&gt;X473254f4136b91c2_1 -->
<g id="edge16" class="edge">
<title>X473254f4136b91c2_0&#45;&gt;X473254f4136b91c2_1</title>
<path fill="none" stroke="black" d="M1659.38,-1109.15C1659.38,-1063.59 1659.38,-940.21 1659.38,-884.15"/>
<polygon fill="black" stroke="black" points="1662.88,-884.47 1659.38,-874.47 1655.88,-884.47 1662.88,-884.47"/>
<text xml:space="preserve" text-anchor="middle" x="1662.75" y="-1009.7" font-family="Times,serif" font-size="14.00">0</text>
</g>
<!-- X56b311e8ff35086c_0 -->
<g id="node30" class="node">
<title>X56b311e8ff35086c_0</title>
<polygon fill="none" stroke="black" points="1796.62,-875.25 1710.12,-875.25 1710.12,-834.25 1796.62,-834.25 1796.62,-875.25"/>
<text xml:space="preserve" text-anchor="start" x="1718.12" y="-857.95" font-family="Times,serif" font-size="14.00">3 &lt;&#45; &amp;mut 1</text>
<text xml:space="preserve" text-anchor="start" x="1718.12" y="-841.45" font-family="Times,serif" font-size="14.00">Call</text>
</g>
<!-- X473254f4136b91c2_0&#45;&gt;X56b311e8ff35086c_0 -->
<g id="edge17" class="edge">
<title>X473254f4136b91c2_0&#45;&gt;X56b311e8ff35086c_0</title>
<path fill="none" stroke="black" d="M1665.4,-1109.15C1681.02,-1064.16 1722.98,-943.3 1742.77,-886.3"/>
<polygon fill="black" stroke="black" points="1746.06,-887.5 1746.03,-876.9 1739.45,-885.2 1746.06,-887.5"/>
<text xml:space="preserve" text-anchor="middle" x="1744.25" y="-1009.7" font-family="Times,serif" font-size="14.00">mv((*1)),mv(2)</text>
</g>
<!-- X56b311e8ff35086c_0&#45;&gt;Xdedd0e9dc183ec1f_0 -->
<g id="edge24" class="edge">
<title>X56b311e8ff35086c_0&#45;&gt;Xdedd0e9dc183ec1f_0</title>
<path fill="none" stroke="black" d="M1767.4,-833.88C1776.91,-822.15 1790.6,-808.32 1806.38,-801.5 1900.48,-760.84 2639.77,-818.57 2728.38,-767 2752.41,-753.01 2769.61,-727.65 2781.25,-704.02"/>
<polygon fill="black" stroke="black" points="2784.38,-705.6 2785.42,-695.05 2778.03,-702.64 2784.38,-705.6"/>
<text xml:space="preserve" text-anchor="middle" x="2741.3" y="-778.2" font-family="Times,serif" font-size="14.00">mv(3),mv(2)</text>
</g>
<!-- X56b311e8ff35086c_3 -->
<g id="node34" class="node">
<title>X56b311e8ff35086c_3</title>
<polygon fill="none" stroke="black" points="1774.5,-666 1720.25,-666 1720.25,-630 1774.5,-630 1774.5,-666"/>
<text xml:space="preserve" text-anchor="start" x="1728.25" y="-642.95" font-family="Times,serif" font-size="14.00">Drop 1</text>
</g>
<!-- X56b311e8ff35086c_0&#45;&gt;X56b311e8ff35086c_3 -->
<g id="edge20" class="edge">
<title>X56b311e8ff35086c_0&#45;&gt;X56b311e8ff35086c_3</title>
<path fill="none" stroke="black" d="M1752.71,-833.85C1752.31,-821.63 1751.8,-805.66 1751.38,-791.5 1750.18,-751.89 1748.92,-706.08 1748.14,-677.32"/>
<polygon fill="black" stroke="black" points="1751.64,-677.52 1747.87,-667.62 1744.65,-677.71 1751.64,-677.52"/>
<text xml:space="preserve" text-anchor="middle" x="1773.88" y="-778.2" font-family="Times,serif" font-size="14.00">Cleanup</text>
</g>
<!-- X56b311e8ff35086c_1 -->
<g id="node35" class="node">
<title>X56b311e8ff35086c_1</title>
<polygon fill="none" stroke="black" points="1847.5,-666 1793.25,-666 1793.25,-630 1847.5,-630 1847.5,-666"/>
<text xml:space="preserve" text-anchor="start" x="1801.25" y="-642.95" font-family="Times,serif" font-size="14.00">Drop 1</text>
</g>
<!-- X56b311e8ff35086c_0&#45;&gt;X56b311e8ff35086c_1 -->
<g id="edge21" class="edge">
<title>X56b311e8ff35086c_0&#45;&gt;X56b311e8ff35086c_1</title>
<path fill="none" stroke="black" d="M1770.56,-833.76C1779.64,-822.15 1790.15,-806.83 1796.38,-791.5 1811.64,-753.91 1817.19,-706.94 1819.22,-677.45"/>
<polygon fill="black" stroke="black" points="1822.69,-678.02 1819.78,-667.84 1815.7,-677.62 1822.69,-678.02"/>
<text xml:space="preserve" text-anchor="middle" x="1805.09" y="-778.2" font-family="Times,serif" font-size="14.00">0</text>
</g>
<!-- node_15 -->
<g id="node31" class="node">
<title>node_15</title>
<polygon fill="#7ccd7c" stroke="#7ccd7c" points="3987.5,-255 3843.25,-255 3843.25,-181 3987.5,-181 3987.5,-255"/>
<text xml:space="preserve" text-anchor="start" x="3851.25" y="-237.7" font-family="Times,serif" font-size="14.00">LOCALS</text>
<text xml:space="preserve" text-anchor="start" x="3851.25" y="-221.2" font-family="Times,serif" font-size="14.00">0 = () (0 bytes, align 1)</text>
<text xml:space="preserve" text-anchor="start" x="3851.25" y="-204.7" font-family="Times,serif" font-size="14.00">1 = fn()</text>
<text xml:space="preserve" text-anchor="start" x="3851.25" y="-188.2" font-family="Times,serif" font-size="14.00">2 = () (0 bytes, align 1)</text>
</g>
<!-- node_17 -->
<g id="node33" class="node">
<title>node_17</title>
<polygon fill="#7ccd7c" stroke="#7ccd7c" points="2243.62,-900 1815.12,-900 1815.12,-809.5 2243.62,-809.5 2243.62,-900"/>
<text xml:space="preserve" text-anchor="start" x="1823.12" y="-882.7" font-family="Times,serif" font-size="14.00">LOCALS</text>
<text xml:space="preserve" text-anchor="start" x="1823.12" y="-866.2" font-family="Times,serif" font-size="14.00">0 = Int(I32)</text>
<text xml:space="preserve" text-anchor="start" x="1823.12" y="-849.7" font-family="Times,serif" font-size="14.00">1 = {closure@std::rt::lang_start&lt;()&gt;::{closure#0}}</text>
<text xml:space="preserve" text-anchor="start" x="1823.12" y="-833.2" font-family="Times,serif" font-size="14.00">2 = () (0 bytes, align 1)</text>
<text xml:space="preserve" text-anchor="start" x="1823.12" y="-816.7" font-family="Times,serif" font-size="14.00">3 = &amp;mut {closure@std::rt::lang_start&lt;()&gt;::{closure#0}} (8 bytes, align 8)</text>
</g>
<!-- X56b311e8ff35086c_4 -->
<g id="node37" class="node">
<title>X56b311e8ff35086c_4</title>
<polygon fill="none" stroke="black" points="1776.5,-434.5 1716.25,-434.5 1716.25,-398.5 1776.5,-398.5 1776.5,-434.5"/>
<text xml:space="preserve" text-anchor="start" x="1724.25" y="-411.45" font-family="Times,serif" font-size="14.00">Resume</text>
</g>
<!-- X56b311e8ff35086c_3&#45;&gt;X56b311e8ff35086c_4 -->
<g id="edge23" class="edge">
<title>X56b311e8ff35086c_3&#45;&gt;X56b311e8ff35086c_4</title>
<path fill="none" stroke="black" d="M1747.3,-629.75C1747.13,-590.62 1746.71,-494.8 1746.5,-446.43"/>
<polygon fill="black" stroke="black" points="1750,-446.45 1746.46,-436.46 1743,-446.48 1750,-446.45"/>
</g>
<!-- X56b311e8ff35086c_2 -->
<g id="node36" class="node">
<title>X56b311e8ff35086c_2</title>
<polygon fill="none" stroke="black" points="1848.38,-434.5 1794.38,-434.5 1794.38,-398.5 1848.38,-398.5 1848.38,-434.5"/>
<text xml:space="preserve" text-anchor="start" x="1802.38" y="-411.45" font-family="Times,serif" font-size="14.00">Return</text>
</g>
<!-- X56b311e8ff35086c_1&#45;&gt;X56b311e8ff35086c_2 -->
<g id="edge22" class="edge">
<title>X56b311e8ff35086c_1&#45;&gt;X56b311e8ff35086c_2</title>
<path fill="none" stroke="black" d="M1820.45,-629.75C1820.62,-590.62 1821.04,-494.8 1821.25,-446.43"/>
<polygon fill="black" stroke="black" points="1824.75,-446.48 1821.29,-436.46 1817.75,-446.45 1824.75,-446.48"/>
</g>
<!-- node_19 -->
<g id="node38" class="node">
<title>node_19</title>
<polygon fill="#7ccd7c" stroke="#7ccd7c" points="3819.38,-1156.25 3395.38,-1156.25 3395.38,-1098.75 3819.38,-1098.75 3819.38,-1156.25"/>
<text xml:space="preserve" text-anchor="start" x="3403.38" y="-1138.95" font-family="Times,serif" font-size="14.00">LOCALS</text>
<text xml:space="preserve" text-anchor="start" x="3403.38" y="-1122.45" font-family="Times,serif" font-size="14.00">0 = () (0 bytes, align 1)</text>
<text xml:space="preserve" text-anchor="start" x="3403.38" y="-1105.95" font-family="Times,serif" font-size="14.00">1 = *mut {closure@std::rt::lang_start&lt;()&gt;::{closure#0}} (8 bytes, align 8)</text>
</g>
<!-- X1ac429227fdc1c93_0 -->
<g id="node39" class="node">
<title>X1ac429227fdc1c93_0</title>
<polygon fill="none" stroke="black" points="3891.38,-1145.5 3837.38,-1145.5 3837.38,-1109.5 3891.38,-1109.5 3891.38,-1145.5"/>
<text xml:space="preserve" text-anchor="start" x="3845.38" y="-1122.45" font-family="Times,serif" font-size="14.00">Return</text>
</g>
<!-- node_21 -->
<g id="node40" class="node">
<title>node_21</title>
<polygon fill="#7ccd7c" stroke="#7ccd7c" points="3406.12,-246.75 3148.62,-246.75 3148.62,-189.25 3406.12,-189.25 3406.12,-246.75"/>
<text xml:space="preserve" text-anchor="start" x="3156.62" y="-229.45" font-family="Times,serif" font-size="14.00">LOCALS</text>
<text xml:space="preserve" text-anchor="start" x="3156.62" y="-212.95" font-family="Times,serif" font-size="14.00">0 = std::process::ExitCode (1 bytes, align 1)</text>
<text xml:space="preserve" text-anchor="start" x="3156.62" y="-196.45" font-family="Times,serif" font-size="14.00">1 = () (0 bytes, align 1)</text>
</g>
</g>
</svg>
