<?xml version="1.0" encoding="UTF-8" standalone="no"?>
<!DOCTYPE svg PUBLIC "-//W3C//DTD SVG 1.1//EN"
 "http://www.w3.org/Graphics/SVG/1.1/DTD/svg11.dtd">
<!-- Generated by graphviz version 14.1.1 (20251213.1925)
 -->
<!-- Pages: 1 -->
<svg width="5268pt" height="1279pt"
 viewBox="0.00 0.00 5268.00 1279.00" xmlns="http://www.w3.org/2000/svg" xmlns:xlink="http://www.w3.org/1999/xlink">
<g id="graph0" class="graph" transform="scale(1 1) rotate(0) translate(4 1275)">
<polygon fill="white" stroke="none" points="-4,4 -4,-1275 5264.38,-1275 5264.38,4 -4,4"/>
<text xml:space="preserve" text-anchor="middle" x="2630.19" y="-7.2" font-family="Times,serif" font-size="14.00">div</text>
<g id="clust1" class="cluster">
<title>cluster_2</title>
<polygon fill="palegreen" stroke="palegreen" points="4297.38,-390.5 4297.38,-1230 4732.38,-1230 4732.38,-390.5 4297.38,-390.5"/>
<text xml:space="preserve" text-anchor="middle" x="4514.88" y="-1212.7" font-family="Times,serif" font-size="14.00">main</text>
</g>
<g id="clust2" class="cluster">
<title>cluster_4</title>
<polygon fill="lightgray" stroke="lightgray" points="607.38,-801.5 607.38,-1246.5 1442.38,-1246.5 1442.38,-801.5 607.38,-801.5"/>
<text xml:space="preserve" text-anchor="middle" x="1024.88" y="-1229.2" font-family="Times,serif" font-size="14.00">std::rt::lang_start::&lt;()&gt;</text>
</g>
<g id="clust3" class="cluster">
<title>cluster_6</title>
<polygon fill="lightgray" stroke="lightgray" points="2765.38,-123.5 2765.38,-767 3379.38,-767 3379.38,-123.5 2765.38,-123.5"/>
<text xml:space="preserve" text-anchor="middle" x="3072.38" y="-749.7" font-family="Times,serif" font-size="14.00">std::rt::lang_start::&lt;()&gt;</text>
<text xml:space="preserve" text-anchor="middle" x="3072.38" y="-733.2" font-family="Times,serif" font-size="14.00">::{closure#0}</text>
</g>
<g id="clust4" class="cluster">
<title>cluster_8</title>
<polygon fill="lightgray" stroke="lightgray" points="3928.38,-32.5 3928.38,-535.5 4160.38,-535.5 4160.38,-32.5 3928.38,-32.5"/>
<text xml:space="preserve" text-anchor="middle" x="4044.38" y="-518.2" font-family="Times,serif" font-size="14.00">std::sys::backtrace::__ru</text>
<text xml:space="preserve" text-anchor="middle" x="4044.38" y="-501.7" font-family="Times,serif" font-size="14.00">st_begin_short_backtrace:</text>
<text xml:space="preserve" text-anchor="middle" x="4044.38" y="-485.2" font-family="Times,serif" font-size="14.00">:&lt;fn(), </text>
<text xml:space="preserve" text-anchor="middle" x="4044.38" y="-468.7" font-family="Times,serif" font-size="14.00">()&gt;</text>
</g>
<g id="clust5" class="cluster">
<title>cluster_10</title>
<polygon fill="lightgray" stroke="lightgray" points="1688.38,-828.75 1688.38,-1263 2200.38,-1263 2200.38,-828.75 1688.38,-828.75"/>
<text xml:space="preserve" text-anchor="middle" x="1944.38" y="-1245.7" font-family="Times,serif" font-size="14.00">&lt;{closure@std::rt::lang_s</text>
<text xml:space="preserve" text-anchor="middle" x="1944.38" y="-1229.2" font-family="Times,serif" font-size="14.00">tart&lt;()&gt;::{closure#0}} </text>
<text xml:space="preserve" text-anchor="middle" x="1944.38" y="-1212.7" font-family="Times,serif" font-size="14.00">as </text>
<text xml:space="preserve" text-anchor="middle" x="1944.38" y="-1196.2" font-family="Times,serif" font-size="14.00">std::ops::FnOnce&lt;()&gt;&gt;::ca</text>
<text xml:space="preserve" text-anchor="middle" x="1944.38" y="-1179.7" font-family="Times,serif" font-size="14.00">ll_once</text>
</g>
<g id="clust6" class="cluster">
<title>cluster_12</title>
<polygon fill="lightgray" stroke="lightgray" points="2208.38,-390.5 2208.38,-998.5 2757.38,-998.5 2757.38,-390.5 2208.38,-390.5"/>
<text xml:space="preserve" text-anchor="middle" x="2482.88" y="-981.2" font-family="Times,serif" font-size="14.00">&lt;{closure@std::rt::lang_s</text>
<text xml:space="preserve" text-anchor="middle" x="2482.88" y="-964.7" font-family="Times,serif" font-size="14.00">tart&lt;()&gt;::{closure#0}} </text>
<text xml:space="preserve" text-anchor="middle" x="2482.88" y="-948.2" font-family="Times,serif" font-size="14.00">as </text>
<text xml:space="preserve" text-anchor="middle" x="2482.88" y="-931.7" font-family="Times,serif" font-size="14.00">std::ops::FnOnce&lt;()&gt;&gt;::ca</text>
<text xml:space="preserve" text-anchor="middle" x="2482.88" y="-915.2" font-family="Times,serif" font-size="14.00">ll_once</text>
</g>
<g id="clust7" class="cluster">
<title>cluster_14</title>
<polygon fill="lightgray" stroke="lightgray" points="4251.38,-32.5 4251.38,-337 4501.38,-337 4501.38,-32.5 4251.38,-32.5"/>
<text xml:space="preserve" text-anchor="middle" x="4376.38" y="-319.7" font-family="Times,serif" font-size="14.00">&lt;fn() </text>
<text xml:space="preserve" text-anchor="middle" x="4376.38" y="-303.2" font-family="Times,serif" font-size="14.00">as </text>
<text xml:space="preserve" text-anchor="middle" x="4376.38" y="-286.7" font-family="Times,serif" font-size="14.00">std::ops::FnOnce&lt;()&gt;&gt;::ca</text>
<text xml:space="preserve" text-anchor="middle" x="4376.38" y="-270.2" font-family="Times,serif" font-size="14.00">ll_once</text>
</g>
<g id="clust8" class="cluster">
<title>cluster_16</title>
<polygon fill="lightgray" stroke="lightgray" points="4740.38,-1090.75 4740.38,-1221.75 5252.38,-1221.75 5252.38,-1090.75 4740.38,-1090.75"/>
<text xml:space="preserve" text-anchor="middle" x="4996.38" y="-1204.45" font-family="Times,serif" font-size="14.00">std::ptr::drop_in_place::</text>
<text xml:space="preserve" text-anchor="middle" x="4996.38" y="-1187.95" font-family="Times,serif" font-size="14.00">&lt;{closure@std::rt::lang_s</text>
<text xml:space="preserve" text-anchor="middle" x="4996.38" y="-1171.45" font-family="Times,serif" font-size="14.00">tart&lt;()&gt;::{closure#0}}&gt;</text>
</g>
<g id="clust9" class="cluster">
<title>cluster_18</title>
<polygon fill="lightgray" stroke="lightgray" points="3387.38,-181.25 3387.38,-328.75 3920.38,-328.75 3920.38,-181.25 3387.38,-181.25"/>
<text xml:space="preserve" text-anchor="middle" x="3653.88" y="-311.45" font-family="Times,serif" font-size="14.00">&lt;() </text>
<text xml:space="preserve" text-anchor="middle" x="3653.88" y="-294.95" font-family="Times,serif" font-size="14.00">as </text>
<text xml:space="preserve" text-anchor="middle" x="3653.88" y="-278.45" font-family="Times,serif" font-size="14.00">std::process::Termination</text>
<text xml:space="preserve" text-anchor="middle" x="3653.88" y="-261.95" font-family="Times,serif" font-size="14.00">&gt;::report</text>
</g>
<!-- node_0 -->
<g id="node1" class="node">
<title>node_0</title>
<polygon fill="lightyellow" stroke="lightyellow" points="130.75,-1148 0,-1148 0,-1107 130.75,-1107 130.75,-1148"/>
<text xml:space="preserve" text-anchor="start" x="8" y="-1130.7" font-family="Times,serif" font-size="14.00">ALLOCS</text>
<text xml:space="preserve" text-anchor="start" x="8" y="-1114.2" font-family="Times,serif" font-size="14.00">alloc1: Str (32 bytes)</text>
</g>
<!-- node_1 -->
<g id="node2" class="node">
<title>node_1</title>
<polygon fill="lavender" stroke="lavender" points="522.25,-1181 148.5,-1181 148.5,-1074 522.25,-1074 522.25,-1181"/>
<text xml:space="preserve" text-anchor="start" x="156.5" y="-1163.7" font-family="Times,serif" font-size="14.00">TYPES</text>
<text xml:space="preserve" text-anchor="start" x="156.5" y="-1147.2" font-family="Times,serif" font-size="14.00">() (0 bytes)</text>
<text xml:space="preserve" text-anchor="start" x="156.5" y="-1130.7" font-family="Times,serif" font-size="14.00">std::panic::Location&lt;&#39;_&gt; (24 bytes)</text>
<text xml:space="preserve" text-anchor="start" x="156.5" y="-1114.2" font-family="Times,serif" font-size="14.00">std::process::ExitCode (1 bytes)</text>
<text xml:space="preserve" text-anchor="start" x="156.5" y="-1097.7" font-family="Times,serif" font-size="14.00">std::result::Result&lt;isize, !&gt; (8 bytes)</text>
<text xml:space="preserve" text-anchor="start" x="156.5" y="-1081.2" font-family="Times,serif" font-size="14.00">std::sys::pal::unix::process::process_common::ExitCode (1 bytes)</text>
</g>
<!-- X8b0ac2e54b9a91_0 -->
<g id="node3" class="node">
<title>X8b0ac2e54b9a91_0</title>
<polygon fill="none" stroke="red" points="596.62,-1145.5 540.12,-1145.5 540.12,-1109.5 596.62,-1109.5 596.62,-1145.5"/>
<text xml:space="preserve" text-anchor="middle" x="568.38" y="-1122.45" font-family="Times,serif" font-size="14.00">NoOp: </text>
</g>
<!-- X5eb86185c1cf8f06_0 -->
<g id="node4" class="node">
<title>X5eb86185c1cf8f06_0</title>
<polygon fill="none" stroke="red" points="1618.12,-883.5 1450.62,-883.5 1450.62,-826 1618.12,-826 1618.12,-883.5"/>
<text xml:space="preserve" text-anchor="middle" x="1534.38" y="-866.2" font-family="Times,serif" font-size="14.00">_ZN3std2rt19lang_start_in</text>
<text xml:space="preserve" text-anchor="middle" x="1534.38" y="-849.7" font-family="Times,serif" font-size="14.00">ternal17h035df9ff6960926a</text>
<text xml:space="preserve" text-anchor="middle" x="1534.38" y="-833.2" font-family="Times,serif" font-size="14.00">E</text>
</g>
<!-- X3c6542d96320ad67_0 -->
<g id="node5" class="node">
<title>X3c6542d96320ad67_0</title>
<polygon fill="none" stroke="red" points="4240.5,-79 4168.25,-79 4168.25,-38 4240.5,-38 4240.5,-79"/>
<text xml:space="preserve" text-anchor="middle" x="4204.38" y="-61.7" font-family="Times,serif" font-size="14.00">Intr: </text>
<text xml:space="preserve" text-anchor="middle" x="4204.38" y="-45.2" font-family="Times,serif" font-size="14.00">black_box</text>
</g>
<!-- X210a8e5fe9313c81_0 -->
<g id="node6" class="node">
<title>X210a8e5fe9313c81_0</title>
<polygon fill="none" stroke="red" points="4685.12,-238.5 4511.62,-238.5 4511.62,-197.5 4685.12,-197.5 4685.12,-238.5"/>
<text xml:space="preserve" text-anchor="middle" x="4598.38" y="-221.2" font-family="Times,serif" font-size="14.00">_ZN4core9panicking5panic1</text>
<text xml:space="preserve" text-anchor="middle" x="4598.38" y="-204.7" font-family="Times,serif" font-size="14.00">7h37379bf3ce79a0d7E</text>
</g>
<!-- node_3 -->
<g id="node7" class="node">
<title>node_3</title>
<polygon fill="#7ccd7c" stroke="#7ccd7c" points="4449.5,-1197.5 4305.25,-1197.5 4305.25,-1057.5 4449.5,-1057.5 4449.5,-1197.5"/>
<text xml:space="preserve" text-anchor="start" x="4313.25" y="-1180.2" font-family="Times,serif" font-size="14.00">LOCALS</text>
<text xml:space="preserve" text-anchor="start" x="4313.25" y="-1163.7" font-family="Times,serif" font-size="14.00">0 = () (0 bytes, align 1)</text>
<text xml:space="preserve" text-anchor="start" x="4313.25" y="-1147.2" font-family="Times,serif" font-size="14.00">1 = Int(I32)</text>
<text xml:space="preserve" text-anchor="start" x="4313.25" y="-1130.7" font-family="Times,serif" font-size="14.00">2 = Bool</text>
<text xml:space="preserve" text-anchor="start" x="4313.25" y="-1114.2" font-family="Times,serif" font-size="14.00">3 = Bool</text>
<text xml:space="preserve" text-anchor="start" x="4313.25" y="-1097.7" font-family="Times,serif" font-size="14.00">4 = Bool</text>
<text xml:space="preserve" text-anchor="start" x="4313.25" y="-1081.2" font-family="Times,serif" font-size="14.00">5 = Bool</text>
<text xml:space="preserve" text-anchor="start" x="4313.25" y="-1064.7" font-family="Times,serif" font-size="14.00">6 = ()</text>
</g>
<!-- X2b29fbf0dc4ddc3c_0 -->
<g id="node8" class="node">
<title>X2b29fbf0dc4ddc3c_0</title>
<polygon fill="none" stroke="black" points="4724.75,-1148 4468,-1148 4468,-1107 4724.75,-1107 4724.75,-1148"/>
<text xml:space="preserve" text-anchor="start" x="4476" y="-1130.7" font-family="Times,serif" font-size="14.00">2 &lt;&#45; Eq(const 10_Int(I32), const 0_Int(I32))</text>
<text xml:space="preserve" text-anchor="start" x="4476" y="-1114.2" font-family="Times,serif" font-size="14.00">Assert mv(2) == false</text>
</g>
<!-- X2b29fbf0dc4ddc3c_1 -->
<g id="node9" class="node">
<title>X2b29fbf0dc4ddc3c_1</title>
<polygon fill="none" stroke="black" points="4724.5,-891.75 4400.25,-891.75 4400.25,-817.75 4724.5,-817.75 4724.5,-891.75"/>
<text xml:space="preserve" text-anchor="start" x="4408.25" y="-874.45" font-family="Times,serif" font-size="14.00">3 &lt;&#45; Eq(const 10_Int(I32), const 4294967295_Int(I32))</text>
<text xml:space="preserve" text-anchor="start" x="4408.25" y="-857.95" font-family="Times,serif" font-size="14.00">4 &lt;&#45; Eq(const 420_Int(I32), const 2147483648_Int(I32))</text>
<text xml:space="preserve" text-anchor="start" x="4408.25" y="-841.45" font-family="Times,serif" font-size="14.00">5 &lt;&#45; BitAnd(mv(3), mv(4))</text>
<text xml:space="preserve" text-anchor="start" x="4408.25" y="-824.95" font-family="Times,serif" font-size="14.00">Assert mv(5) == false</text>
</g>
<!-- X2b29fbf0dc4ddc3c_0&#45;&gt;X2b29fbf0dc4ddc3c_1 -->
<g id="edge1" class="edge">
<title>X2b29fbf0dc4ddc3c_0&#45;&gt;X2b29fbf0dc4ddc3c_1</title>
<path fill="none" stroke="black" d="M4593.87,-1106.59C4588.53,-1064.03 4575.86,-963.17 4568.32,-903.11"/>
<polygon fill="black" stroke="black" points="4571.84,-903.02 4567.12,-893.54 4564.89,-903.9 4571.84,-903.02"/>
</g>
<!-- X2b29fbf0dc4ddc3c_2 -->
<g id="node10" class="node">
<title>X2b29fbf0dc4ddc3c_2</title>
<polygon fill="none" stroke="black" points="4700.12,-668.5 4424.62,-668.5 4424.62,-627.5 4700.12,-627.5 4700.12,-668.5"/>
<text xml:space="preserve" text-anchor="start" x="4432.62" y="-651.2" font-family="Times,serif" font-size="14.00">1 &lt;&#45; Div(const 420_Int(I32), const 10_Int(I32))</text>
<text xml:space="preserve" text-anchor="start" x="4432.62" y="-634.7" font-family="Times,serif" font-size="14.00">SwitchInt mv(1)</text>
</g>
<!-- X2b29fbf0dc4ddc3c_1&#45;&gt;X2b29fbf0dc4ddc3c_2 -->
<g id="edge2" class="edge">
<title>X2b29fbf0dc4ddc3c_1&#45;&gt;X2b29fbf0dc4ddc3c_2</title>
<path fill="none" stroke="black" d="M4562.38,-817.62C4562.38,-778.56 4562.38,-716.97 4562.38,-680.03"/>
<polygon fill="black" stroke="black" points="4565.88,-680.47 4562.38,-670.47 4558.88,-680.47 4565.88,-680.47"/>
</g>
<!-- X2b29fbf0dc4ddc3c_3 -->
<g id="node11" class="node">
<title>X2b29fbf0dc4ddc3c_3</title>
<polygon fill="none" stroke="black" points="4553.38,-434.5 4499.38,-434.5 4499.38,-398.5 4553.38,-398.5 4553.38,-434.5"/>
<text xml:space="preserve" text-anchor="start" x="4507.38" y="-411.45" font-family="Times,serif" font-size="14.00">Return</text>
</g>
<!-- X2b29fbf0dc4ddc3c_2&#45;&gt;X2b29fbf0dc4ddc3c_3 -->
<g id="edge3" class="edge">
<title>X2b29fbf0dc4ddc3c_2&#45;&gt;X2b29fbf0dc4ddc3c_3</title>
<path fill="none" stroke="black" d="M4559.24,-627.03C4552.84,-586.2 4538.22,-493.04 4530.83,-445.92"/>
<polygon fill="black" stroke="black" points="4534.32,-445.55 4529.31,-436.22 4527.4,-446.64 4534.32,-445.55"/>
<text xml:space="preserve" text-anchor="middle" x="4555.41" y="-546.7" font-family="Times,serif" font-size="14.00">42</text>
</g>
<!-- X2b29fbf0dc4ddc3c_4 -->
<g id="node12" class="node">
<title>X2b29fbf0dc4ddc3c_4</title>
<polygon fill="none" stroke="black" points="4625.38,-434.5 4571.38,-434.5 4571.38,-398.5 4625.38,-398.5 4625.38,-434.5"/>
<text xml:space="preserve" text-anchor="start" x="4579.38" y="-411.45" font-family="Times,serif" font-size="14.00">Call</text>
</g>
<!-- X2b29fbf0dc4ddc3c_2&#45;&gt;X2b29fbf0dc4ddc3c_4 -->
<g id="edge4" class="edge">
<title>X2b29fbf0dc4ddc3c_2&#45;&gt;X2b29fbf0dc4ddc3c_4</title>
<path fill="none" stroke="black" d="M4565.51,-627.03C4571.91,-586.2 4586.53,-493.04 4593.92,-445.92"/>
<polygon fill="black" stroke="black" points="4597.35,-446.64 4595.44,-436.22 4590.43,-445.55 4597.35,-446.64"/>
<text xml:space="preserve" text-anchor="middle" x="4592.09" y="-546.7" font-family="Times,serif" font-size="14.00">other</text>
</g>
<!-- X2b29fbf0dc4ddc3c_4&#45;&gt;X210a8e5fe9313c81_0 -->
<g id="edge5" class="edge">
<title>X2b29fbf0dc4ddc3c_4&#45;&gt;X210a8e5fe9313c81_0</title>
<path fill="none" stroke="black" d="M4598.38,-398.06C4598.38,-364.81 4598.38,-291.92 4598.38,-250.11"/>
<polygon fill="black" stroke="black" points="4601.88,-250.22 4598.38,-240.22 4594.88,-250.22 4601.88,-250.22"/>
<text xml:space="preserve" text-anchor="middle" x="4635.5" y="-348.2" font-family="Times,serif" font-size="14.00">const [alloc0]</text>
</g>
<!-- node_5 -->
<g id="node13" class="node">
<title>node_5</title>
<polygon fill="#7ccd7c" stroke="#7ccd7c" points="1177.75,-1214 615,-1214 615,-1041 1177.75,-1041 1177.75,-1214"/>
<text xml:space="preserve" text-anchor="start" x="623" y="-1196.7" font-family="Times,serif" font-size="14.00">LOCALS</text>
<text xml:space="preserve" text-anchor="start" x="623" y="-1180.2" font-family="Times,serif" font-size="14.00">0 = Int(Isize)</text>
<text xml:space="preserve" text-anchor="start" x="623" y="-1163.7" font-family="Times,serif" font-size="14.00">1 = fn()</text>
<text xml:space="preserve" text-anchor="start" x="623" y="-1147.2" font-family="Times,serif" font-size="14.00">2 = Int(Isize)</text>
<text xml:space="preserve" text-anchor="start" x="623" y="-1130.7" font-family="Times,serif" font-size="14.00">3 = *const *const u8 (8 bytes, align 8)</text>
<text xml:space="preserve" text-anchor="start" x="623" y="-1114.2" font-family="Times,serif" font-size="14.00">4 = Uint(U8)</text>
<text xml:space="preserve" text-anchor="start" x="623" y="-1097.7" font-family="Times,serif" font-size="14.00">5 = std::result::Result&lt;isize, !&gt; (8 bytes, align 8)</text>
<text xml:space="preserve" text-anchor="start" x="623" y="-1081.2" font-family="Times,serif" font-size="14.00">6 = &amp;dyn std::ops::Fn() &#45;&gt; i32 + std::marker::Sync + std::panic::RefUnwindSafe (16 bytes, align 8)</text>
<text xml:space="preserve" text-anchor="start" x="623" y="-1064.7" font-family="Times,serif" font-size="14.00">7 = &amp;{closure@std::rt::lang_start&lt;()&gt;::{closure#0}} (8 bytes, align 8)</text>
<text xml:space="preserve" text-anchor="start" x="623" y="-1048.2" font-family="Times,serif" font-size="14.00">8 = {closure@std::rt::lang_start&lt;()&gt;::{closure#0}}</text>
</g>
<!-- X2a5dcaaed24efd7_0 -->
<g id="node14" class="node">
<title>X2a5dcaaed24efd7_0</title>
<polygon fill="none" stroke="black" points="1434.75,-1189.25 1196,-1189.25 1196,-1065.75 1434.75,-1065.75 1434.75,-1189.25"/>
<text xml:space="preserve" text-anchor="start" x="1204" y="-1171.95" font-family="Times,serif" font-size="14.00">Storage Live _5</text>
<text xml:space="preserve" text-anchor="start" x="1204" y="-1155.45" font-family="Times,serif" font-size="14.00">Storage Live _6</text>
<text xml:space="preserve" text-anchor="start" x="1204" y="-1138.95" font-family="Times,serif" font-size="14.00">Storage Live _8</text>
<text xml:space="preserve" text-anchor="start" x="1204" y="-1122.45" font-family="Times,serif" font-size="14.00">8 &lt;&#45; Closure (cp(1))</text>
<text xml:space="preserve" text-anchor="start" x="1204" y="-1105.95" font-family="Times,serif" font-size="14.00">7 &lt;&#45; &amp; 8</text>
<text xml:space="preserve" text-anchor="start" x="1204" y="-1089.45" font-family="Times,serif" font-size="14.00">6 &lt;&#45; Cast&#45;PointerCoercion(Unsize) cp(7)</text>
<text xml:space="preserve" text-anchor="start" x="1204" y="-1072.95" font-family="Times,serif" font-size="14.00">Call</text>
</g>
<!-- X2a5dcaaed24efd7_0&#45;&gt;X5eb86185c1cf8f06_0 -->
<g id="edge7" class="edge">
<title>X2a5dcaaed24efd7_0&#45;&gt;X5eb86185c1cf8f06_0</title>
<path fill="none" stroke="black" d="M1384.27,-1065.31C1405.32,-1045.05 1427.8,-1021.72 1446.38,-998.5 1472.89,-965.35 1497.75,-923.65 1514.24,-893.9"/>
<polygon fill="black" stroke="black" points="1517.25,-895.69 1518.98,-885.24 1511.11,-892.33 1517.25,-895.69"/>
<text xml:space="preserve" text-anchor="middle" x="1510.05" y="-1009.7" font-family="Times,serif" font-size="14.00">mv(6),mv(2),mv(3),mv(4)</text>
</g>
<!-- X2a5dcaaed24efd7_1 -->
<g id="node15" class="node">
<title>X2a5dcaaed24efd7_1</title>
<polygon fill="none" stroke="black" points="1409.25,-900 1221.5,-900 1221.5,-809.5 1409.25,-809.5 1409.25,-900"/>
<text xml:space="preserve" text-anchor="start" x="1229.5" y="-882.7" font-family="Times,serif" font-size="14.00">Storage Dead _6</text>
<text xml:space="preserve" text-anchor="start" x="1229.5" y="-866.2" font-family="Times,serif" font-size="14.00">0 &lt;&#45; Use(cp((5 as variant 0).0))</text>
<text xml:space="preserve" text-anchor="start" x="1229.5" y="-849.7" font-family="Times,serif" font-size="14.00">Storage Dead _8</text>
<text xml:space="preserve" text-anchor="start" x="1229.5" y="-833.2" font-family="Times,serif" font-size="14.00">Storage Dead _5</text>
<text xml:space="preserve" text-anchor="start" x="1229.5" y="-816.7" font-family="Times,serif" font-size="14.00">Return</text>
</g>
<!-- X2a5dcaaed24efd7_0&#45;&gt;X2a5dcaaed24efd7_1 -->
<g id="edge6" class="edge">
<title>X2a5dcaaed24efd7_0&#45;&gt;X2a5dcaaed24efd7_1</title>
<path fill="none" stroke="black" d="M1315.38,-1065.4C1315.38,-1019.2 1315.38,-956.29 1315.38,-911.46"/>
<polygon fill="black" stroke="black" points="1318.88,-911.7 1315.38,-901.7 1311.88,-911.7 1318.88,-911.7"/>
<text xml:space="preserve" text-anchor="middle" x="1318.75" y="-1009.7" font-family="Times,serif" font-size="14.00">5</text>
</g>
<!-- node_7 -->
<g id="node16" class="node">
<title>node_7</title>
<polygon fill="#7ccd7c" stroke="#7ccd7c" points="3225.62,-718 2773.12,-718 2773.12,-578 3225.62,-578 3225.62,-718"/>
<text xml:space="preserve" text-anchor="start" x="2781.12" y="-700.7" font-family="Times,serif" font-size="14.00">LOCALS</text>
<text xml:space="preserve" text-anchor="start" x="2781.12" y="-684.2" font-family="Times,serif" font-size="14.00">0 = Int(I32)</text>
<text xml:space="preserve" text-anchor="start" x="2781.12" y="-667.7" font-family="Times,serif" font-size="14.00">1 = &amp;{closure@std::rt::lang_start&lt;()&gt;::{closure#0}} (8 bytes, align 8)</text>
<text xml:space="preserve" text-anchor="start" x="2781.12" y="-651.2" font-family="Times,serif" font-size="14.00">2 = std::process::ExitCode (1 bytes, align 1)</text>
<text xml:space="preserve" text-anchor="start" x="2781.12" y="-634.7" font-family="Times,serif" font-size="14.00">3 = () (0 bytes, align 1)</text>
<text xml:space="preserve" text-anchor="start" x="2781.12" y="-618.2" font-family="Times,serif" font-size="14.00">4 = fn()</text>
<text xml:space="preserve" text-anchor="start" x="2781.12" y="-601.7" font-family="Times,serif" font-size="14.00">5 = &amp;std::sys::pal::unix::process::process_common::ExitCode (8 bytes, align 8)</text>
<text xml:space="preserve" text-anchor="start" x="2781.12" y="-585.2" font-family="Times,serif" font-size="14.00">6 = Uint(U8)</text>
</g>
<!-- X5d02c033a0e1d8da_0 -->
<g id="node17" class="node">
<title>X5d02c033a0e1d8da_0</title>
<polygon fill="none" stroke="black" points="3371.25,-693.25 3243.5,-693.25 3243.5,-602.75 3371.25,-602.75 3371.25,-693.25"/>
<text xml:space="preserve" text-anchor="start" x="3251.5" y="-675.95" font-family="Times,serif" font-size="14.00">Storage Live _2</text>
<text xml:space="preserve" text-anchor="start" x="3251.5" y="-659.45" font-family="Times,serif" font-size="14.00">Storage Live _3</text>
<text xml:space="preserve" text-anchor="start" x="3251.5" y="-642.95" font-family="Times,serif" font-size="14.00">Storage Live _4</text>
<text xml:space="preserve" text-anchor="start" x="3251.5" y="-626.45" font-family="Times,serif" font-size="14.00">4 &lt;&#45; Use(cp((*1).0))</text>
<text xml:space="preserve" text-anchor="start" x="3251.5" y="-609.95" font-family="Times,serif" font-size="14.00">Call</text>
</g>
<!-- X5d02c033a0e1d8da_1 -->
<g id="node18" class="node">
<title>X5d02c033a0e1d8da_1</title>
<polygon fill="none" stroke="black" points="3360.75,-437 3254,-437 3254,-396 3360.75,-396 3360.75,-437"/>
<text xml:space="preserve" text-anchor="start" x="3262" y="-419.7" font-family="Times,serif" font-size="14.00">Storage Dead _4</text>
<text xml:space="preserve" text-anchor="start" x="3262" y="-403.2" font-family="Times,serif" font-size="14.00">Call</text>
</g>
<!-- X5d02c033a0e1d8da_0&#45;&gt;X5d02c033a0e1d8da_1 -->
<g id="edge8" class="edge">
<title>X5d02c033a0e1d8da_0&#45;&gt;X5d02c033a0e1d8da_1</title>
<path fill="none" stroke="black" d="M3307.38,-602.48C3307.38,-557.23 3307.38,-488.32 3307.38,-448.63"/>
<polygon fill="black" stroke="black" points="3310.88,-448.82 3307.38,-438.82 3303.88,-448.82 3310.88,-448.82"/>
<text xml:space="preserve" text-anchor="middle" x="3310.75" y="-546.7" font-family="Times,serif" font-size="14.00">3</text>
</g>
<!-- X930fb4cd603095ba_0 -->
<g id="node20" class="node">
<title>X930fb4cd603095ba_0</title>
<polygon fill="none" stroke="black" points="3990.38,-434.5 3936.38,-434.5 3936.38,-398.5 3990.38,-398.5 3990.38,-434.5"/>
<text xml:space="preserve" text-anchor="start" x="3944.38" y="-411.45" font-family="Times,serif" font-size="14.00">Call</text>
</g>
<!-- X5d02c033a0e1d8da_0&#45;&gt;X930fb4cd603095ba_0 -->
<g id="edge10" class="edge">
<title>X5d02c033a0e1d8da_0&#45;&gt;X930fb4cd603095ba_0</title>
<path fill="none" stroke="black" d="M3371.47,-624.58C3506.61,-577.3 3817.2,-468.64 3925.38,-430.79"/>
<polygon fill="black" stroke="black" points="3926.38,-434.15 3934.66,-427.55 3924.07,-427.54 3926.38,-434.15"/>
<text xml:space="preserve" text-anchor="middle" x="3612.97" y="-546.7" font-family="Times,serif" font-size="14.00">mv(4)</text>
</g>
<!-- X5d02c033a0e1d8da_2 -->
<g id="node19" class="node">
<title>X5d02c033a0e1d8da_2</title>
<polygon fill="none" stroke="black" points="3371.38,-304.5 3217.38,-304.5 3217.38,-131.5 3371.38,-131.5 3371.38,-304.5"/>
<text xml:space="preserve" text-anchor="start" x="3225.38" y="-287.2" font-family="Times,serif" font-size="14.00">Storage Dead _3</text>
<text xml:space="preserve" text-anchor="start" x="3225.38" y="-270.7" font-family="Times,serif" font-size="14.00">Storage Live _5</text>
<text xml:space="preserve" text-anchor="start" x="3225.38" y="-254.2" font-family="Times,serif" font-size="14.00">5 &lt;&#45; &amp; 2.0</text>
<text xml:space="preserve" text-anchor="start" x="3225.38" y="-237.7" font-family="Times,serif" font-size="14.00">Storage Live _6</text>
<text xml:space="preserve" text-anchor="start" x="3225.38" y="-221.2" font-family="Times,serif" font-size="14.00">6 &lt;&#45; Use(cp(2.0.0))</text>
<text xml:space="preserve" text-anchor="start" x="3225.38" y="-204.7" font-family="Times,serif" font-size="14.00">0 &lt;&#45; Cast&#45;IntToInt mv(6)</text>
<text xml:space="preserve" text-anchor="start" x="3225.38" y="-188.2" font-family="Times,serif" font-size="14.00">Storage Dead _6</text>
<text xml:space="preserve" text-anchor="start" x="3225.38" y="-171.7" font-family="Times,serif" font-size="14.00">Storage Dead _5</text>
<text xml:space="preserve" text-anchor="start" x="3225.38" y="-155.2" font-family="Times,serif" font-size="14.00">Storage Dead _2</text>
<text xml:space="preserve" text-anchor="start" x="3225.38" y="-138.7" font-family="Times,serif" font-size="14.00">Return</text>
</g>
<!-- X5d02c033a0e1d8da_1&#45;&gt;X5d02c033a0e1d8da_2 -->
<g id="edge9" class="edge">
<title>X5d02c033a0e1d8da_1&#45;&gt;X5d02c033a0e1d8da_2</title>
<path fill="none" stroke="black" d="M3306.06,-395.58C3304.8,-376.54 3302.8,-346.38 3300.81,-316.33"/>
<polygon fill="black" stroke="black" points="3304.31,-316.1 3300.15,-306.35 3297.32,-316.56 3304.31,-316.1"/>
<text xml:space="preserve" text-anchor="middle" x="3306.91" y="-348.2" font-family="Times,serif" font-size="14.00">2</text>
</g>
<!-- X5e1c138e35e4c91d_0 -->
<g id="node21" class="node">
<title>X5e1c138e35e4c91d_0</title>
<polygon fill="none" stroke="black" points="3636.88,-238.5 3395.88,-238.5 3395.88,-197.5 3636.88,-197.5 3636.88,-238.5"/>
<text xml:space="preserve" text-anchor="start" x="3403.88" y="-221.2" font-family="Times,serif" font-size="14.00">0 &lt;&#45; Use(const 0_std::process::ExitCode)</text>
<text xml:space="preserve" text-anchor="start" x="3403.88" y="-204.7" font-family="Times,serif" font-size="14.00">Return</text>
</g>
<!-- X5d02c033a0e1d8da_1&#45;&gt;X5e1c138e35e4c91d_0 -->
<g id="edge11" class="edge">
<title>X5d02c033a0e1d8da_1&#45;&gt;X5e1c138e35e4c91d_0</title>
<path fill="none" stroke="black" d="M3328.57,-395.58C3366.04,-360.34 3444.08,-286.97 3486.82,-246.78"/>
<polygon fill="black" stroke="black" points="3489.14,-249.41 3494.03,-240.01 3484.34,-244.31 3489.14,-249.41"/>
<text xml:space="preserve" text-anchor="middle" x="3397.82" y="-348.2" font-family="Times,serif" font-size="14.00">mv(3)</text>
</g>
<!-- X930fb4cd603095ba_1 -->
<g id="node23" class="node">
<title>X930fb4cd603095ba_1</title>
<polygon fill="none" stroke="black" points="4070.38,-236 4016.38,-236 4016.38,-200 4070.38,-200 4070.38,-236"/>
<text xml:space="preserve" text-anchor="start" x="4024.38" y="-212.95" font-family="Times,serif" font-size="14.00">Call</text>
</g>
<!-- X930fb4cd603095ba_0&#45;&gt;X930fb4cd603095ba_1 -->
<g id="edge12" class="edge">
<title>X930fb4cd603095ba_0&#45;&gt;X930fb4cd603095ba_1</title>
<path fill="none" stroke="black" d="M3970.47,-398.06C3984.35,-363.98 4015.18,-288.26 4031.96,-247.05"/>
<polygon fill="black" stroke="black" points="4035.19,-248.38 4035.72,-237.8 4028.71,-245.74 4035.19,-248.38"/>
<text xml:space="preserve" text-anchor="middle" x="3994.91" y="-348.2" font-family="Times,serif" font-size="14.00">0</text>
</g>
<!-- Xfcb4719e31f979d3_0 -->
<g id="node25" class="node">
<title>Xfcb4719e31f979d3_0</title>
<polygon fill="none" stroke="black" points="4313.38,-236 4259.38,-236 4259.38,-200 4313.38,-200 4313.38,-236"/>
<text xml:space="preserve" text-anchor="start" x="4267.38" y="-212.95" font-family="Times,serif" font-size="14.00">Call</text>
</g>
<!-- X930fb4cd603095ba_0&#45;&gt;Xfcb4719e31f979d3_0 -->
<g id="edge14" class="edge">
<title>X930fb4cd603095ba_0&#45;&gt;Xfcb4719e31f979d3_0</title>
<path fill="none" stroke="black" d="M3977.25,-398.06C3983.38,-391.38 3991.08,-384.23 3999.38,-379.5 4065.14,-341.96 4098.3,-374 4164.38,-337 4206.23,-313.56 4244.19,-272.21 4266.28,-245.21"/>
<polygon fill="black" stroke="black" points="4268.95,-247.48 4272.47,-237.49 4263.48,-243.11 4268.95,-247.48"/>
<text xml:space="preserve" text-anchor="middle" x="4184.85" y="-348.2" font-family="Times,serif" font-size="14.00">mv(1),const ()</text>
</g>
<!-- node_9 -->
<g id="node22" class="node">
<title>node_9</title>
<polygon fill="#7ccd7c" stroke="#7ccd7c" points="4152.5,-453.5 4008.25,-453.5 4008.25,-379.5 4152.5,-379.5 4152.5,-453.5"/>
<text xml:space="preserve" text-anchor="start" x="4016.25" y="-436.2" font-family="Times,serif" font-size="14.00">LOCALS</text>
<text xml:space="preserve" text-anchor="start" x="4016.25" y="-419.7" font-family="Times,serif" font-size="14.00">0 = () (0 bytes, align 1)</text>
<text xml:space="preserve" text-anchor="start" x="4016.25" y="-403.2" font-family="Times,serif" font-size="14.00">1 = fn()</text>
<text xml:space="preserve" text-anchor="start" x="4016.25" y="-386.7" font-family="Times,serif" font-size="14.00">2 = () (0 bytes, align 1)</text>
</g>
<!-- X930fb4cd603095ba_1&#45;&gt;X3c6542d96320ad67_0 -->
<g id="edge15" class="edge">
<title>X930fb4cd603095ba_1&#45;&gt;X3c6542d96320ad67_0</title>
<path fill="none" stroke="black" d="M4061.22,-199.54C4089.07,-172.3 4143.11,-119.44 4176.24,-87.03"/>
<polygon fill="black" stroke="black" points="4178.4,-89.81 4183.1,-80.31 4173.5,-84.8 4178.4,-89.81"/>
<text xml:space="preserve" text-anchor="middle" x="4186.09" y="-100.2" font-family="Times,serif" font-size="14.00">const ()</text>
</g>
<!-- X930fb4cd603095ba_2 -->
<g id="node24" class="node">
<title>X930fb4cd603095ba_2</title>
<polygon fill="none" stroke="black" points="4070.38,-76.5 4016.38,-76.5 4016.38,-40.5 4070.38,-40.5 4070.38,-76.5"/>
<text xml:space="preserve" text-anchor="start" x="4024.38" y="-53.45" font-family="Times,serif" font-size="14.00">Return</text>
</g>
<!-- X930fb4cd603095ba_1&#45;&gt;X930fb4cd603095ba_2 -->
<g id="edge13" class="edge">
<title>X930fb4cd603095ba_1&#45;&gt;X930fb4cd603095ba_2</title>
<path fill="none" stroke="black" d="M4043.38,-199.54C4043.38,-172.56 4043.38,-120.44 4043.38,-87.95"/>
<polygon fill="black" stroke="black" points="4046.88,-88.07 4043.38,-78.07 4039.88,-88.07 4046.88,-88.07"/>
<text xml:space="preserve" text-anchor="middle" x="4046.75" y="-100.2" font-family="Times,serif" font-size="14.00">2</text>
</g>
<!-- Xfcb4719e31f979d3_0&#45;&gt;Xfcb4719e31f979d3_0 -->
<g id="edge24" class="edge">
<title>Xfcb4719e31f979d3_0&#45;&gt;Xfcb4719e31f979d3_0:1</title>
<path fill="none" stroke="black" d="M4303.93,-236.41C4317.52,-243.3 4331.38,-237.16 4331.38,-218 4331.38,-204.08 4324.06,-197.03 4314.85,-196.86"/>
<polygon fill="black" stroke="black" points="4314.25,-193.4 4305.4,-199.22 4315.95,-200.2 4314.25,-193.4"/>
</g>
<!-- Xfcb4719e31f979d3_1 -->
<g id="node36" class="node">
<title>Xfcb4719e31f979d3_1</title>
<polygon fill="none" stroke="black" points="4313.38,-76.5 4259.38,-76.5 4259.38,-40.5 4313.38,-40.5 4313.38,-76.5"/>
<text xml:space="preserve" text-anchor="start" x="4267.38" y="-53.45" font-family="Times,serif" font-size="14.00">Return</text>
</g>
<!-- Xfcb4719e31f979d3_0&#45;&gt;Xfcb4719e31f979d3_1 -->
<g id="edge23" class="edge">
<title>Xfcb4719e31f979d3_0&#45;&gt;Xfcb4719e31f979d3_1</title>
<path fill="none" stroke="black" d="M4286.38,-199.54C4286.38,-172.56 4286.38,-120.44 4286.38,-87.95"/>
<polygon fill="black" stroke="black" points="4289.88,-88.07 4286.38,-78.07 4282.88,-88.07 4289.88,-88.07"/>
<text xml:space="preserve" text-anchor="middle" x="4289.75" y="-100.2" font-family="Times,serif" font-size="14.00">0</text>
</g>
<!-- node_11 -->
<g id="node26" class="node">
<title>node_11</title>
<polygon fill="#7ccd7c" stroke="#7ccd7c" points="2120.38,-1164.5 1696.38,-1164.5 1696.38,-1090.5 2120.38,-1090.5 2120.38,-1164.5"/>
<text xml:space="preserve" text-anchor="start" x="1704.38" y="-1147.2" font-family="Times,serif" font-size="14.00">LOCALS</text>
<text xml:space="preserve" text-anchor="start" x="1704.38" y="-1130.7" font-family="Times,serif" font-size="14.00">0 = Int(I32)</text>
<text xml:space="preserve" text-anchor="start" x="1704.38" y="-1114.2" font-family="Times,serif" font-size="14.00">1 = *mut {closure@std::rt::lang_start&lt;()&gt;::{closure#0}} (8 bytes, align 8)</text>
<text xml:space="preserve" text-anchor="start" x="1704.38" y="-1097.7" font-family="Times,serif" font-size="14.00">2 = () (0 bytes, align 1)</text>
</g>
<!-- X12dd358368033723_0 -->
<g id="node27" class="node">
<title>X12dd358368033723_0</title>
<polygon fill="none" stroke="black" points="2192.38,-1145.5 2138.38,-1145.5 2138.38,-1109.5 2192.38,-1109.5 2192.38,-1145.5"/>
<text xml:space="preserve" text-anchor="start" x="2146.38" y="-1122.45" font-family="Times,serif" font-size="14.00">Call</text>
</g>
<!-- X12dd358368033723_1 -->
<g id="node28" class="node">
<title>X12dd358368033723_1</title>
<polygon fill="none" stroke="black" points="2192.38,-872.75 2138.38,-872.75 2138.38,-836.75 2192.38,-836.75 2192.38,-872.75"/>
<text xml:space="preserve" text-anchor="start" x="2146.38" y="-849.7" font-family="Times,serif" font-size="14.00">Return</text>
</g>
<!-- X12dd358368033723_0&#45;&gt;X12dd358368033723_1 -->
<g id="edge16" class="edge">
<title>X12dd358368033723_0&#45;&gt;X12dd358368033723_1</title>
<path fill="none" stroke="black" d="M2165.38,-1109.15C2165.38,-1063.59 2165.38,-940.21 2165.38,-884.15"/>
<polygon fill="black" stroke="black" points="2168.88,-884.47 2165.38,-874.47 2161.88,-884.47 2168.88,-884.47"/>
<text xml:space="preserve" text-anchor="middle" x="2168.75" y="-1009.7" font-family="Times,serif" font-size="14.00">0</text>
</g>
<!-- X9bb4beb63ef478de_0 -->
<g id="node29" class="node">
<title>X9bb4beb63ef478de_0</title>
<polygon fill="none" stroke="black" points="2302.62,-875.25 2216.12,-875.25 2216.12,-834.25 2302.62,-834.25 2302.62,-875.25"/>
<text xml:space="preserve" text-anchor="start" x="2224.12" y="-857.95" font-family="Times,serif" font-size="14.00">3 &lt;&#45; &amp;mut 1</text>
<text xml:space="preserve" text-anchor="start" x="2224.12" y="-841.45" font-family="Times,serif" font-size="14.00">Call</text>
</g>
<!-- X12dd358368033723_0&#45;&gt;X9bb4beb63ef478de_0 -->
<g id="edge17" class="edge">
<title>X12dd358368033723_0&#45;&gt;X9bb4beb63ef478de_0</title>
<path fill="none" stroke="black" d="M2171.4,-1109.15C2187.02,-1064.16 2228.98,-943.3 2248.77,-886.3"/>
<polygon fill="black" stroke="black" points="2252.06,-887.5 2252.03,-876.9 2245.45,-885.2 2252.06,-887.5"/>
<text xml:space="preserve" text-anchor="middle" x="2250.25" y="-1009.7" font-family="Times,serif" font-size="14.00">mv((*1)),mv(2)</text>
</g>
<!-- X9bb4beb63ef478de_0&#45;&gt;X5d02c033a0e1d8da_0 -->
<g id="edge22" class="edge">
<title>X9bb4beb63ef478de_0&#45;&gt;X5d02c033a0e1d8da_0</title>
<path fill="none" stroke="black" d="M2273.4,-833.88C2282.91,-822.15 2296.6,-808.32 2312.38,-801.5 2406.48,-760.84 3145.77,-818.57 3234.38,-767 3258.41,-753.01 3275.61,-727.65 3287.25,-704.02"/>
<polygon fill="black" stroke="black" points="3290.38,-705.6 3291.42,-695.05 3284.03,-702.64 3290.38,-705.6"/>
<text xml:space="preserve" text-anchor="middle" x="3247.3" y="-778.2" font-family="Times,serif" font-size="14.00">mv(3),mv(2)</text>
</g>
<!-- X9bb4beb63ef478de_3 -->
<g id="node31" class="node">
<title>X9bb4beb63ef478de_3</title>
<polygon fill="none" stroke="black" points="2280.5,-666 2226.25,-666 2226.25,-630 2280.5,-630 2280.5,-666"/>
<text xml:space="preserve" text-anchor="start" x="2234.25" y="-642.95" font-family="Times,serif" font-size="14.00">Drop 1</text>
</g>
<!-- X9bb4beb63ef478de_0&#45;&gt;X9bb4beb63ef478de_3 -->
<g id="edge18" class="edge">
<title>X9bb4beb63ef478de_0&#45;&gt;X9bb4beb63ef478de_3</title>
<path fill="none" stroke="black" d="M2258.71,-833.85C2258.31,-821.63 2257.8,-805.66 2257.38,-791.5 2256.18,-751.89 2254.92,-706.08 2254.14,-677.32"/>
<polygon fill="black" stroke="black" points="2257.64,-677.52 2253.87,-667.62 2250.65,-677.71 2257.64,-677.52"/>
<text xml:space="preserve" text-anchor="middle" x="2279.88" y="-778.2" font-family="Times,serif" font-size="14.00">Cleanup</text>
</g>
<!-- X9bb4beb63ef478de_1 -->
<g id="node32" class="node">
<title>X9bb4beb63ef478de_1</title>
<polygon fill="none" stroke="black" points="2353.5,-666 2299.25,-666 2299.25,-630 2353.5,-630 2353.5,-666"/>
<text xml:space="preserve" text-anchor="start" x="2307.25" y="-642.95" font-family="Times,serif" font-size="14.00">Drop 1</text>
</g>
<!-- X9bb4beb63ef478de_0&#45;&gt;X9bb4beb63ef478de_1 -->
<g id="edge19" class="edge">
<title>X9bb4beb63ef478de_0&#45;&gt;X9bb4beb63ef478de_1</title>
<path fill="none" stroke="black" d="M2276.56,-833.76C2285.64,-822.15 2296.15,-806.83 2302.38,-791.5 2317.64,-753.91 2323.19,-706.94 2325.22,-677.45"/>
<polygon fill="black" stroke="black" points="2328.69,-678.02 2325.78,-667.84 2321.7,-677.62 2328.69,-678.02"/>
<text xml:space="preserve" text-anchor="middle" x="2311.09" y="-778.2" font-family="Times,serif" font-size="14.00">0</text>
</g>
<!-- node_13 -->
<g id="node30" class="node">
<title>node_13</title>
<polygon fill="#7ccd7c" stroke="#7ccd7c" points="2749.62,-900 2321.12,-900 2321.12,-809.5 2749.62,-809.5 2749.62,-900"/>
<text xml:space="preserve" text-anchor="start" x="2329.12" y="-882.7" font-family="Times,serif" font-size="14.00">LOCALS</text>
<text xml:space="preserve" text-anchor="start" x="2329.12" y="-866.2" font-family="Times,serif" font-size="14.00">0 = Int(I32)</text>
<text xml:space="preserve" text-anchor="start" x="2329.12" y="-849.7" font-family="Times,serif" font-size="14.00">1 = {closure@std::rt::lang_start&lt;()&gt;::{closure#0}}</text>
<text xml:space="preserve" text-anchor="start" x="2329.12" y="-833.2" font-family="Times,serif" font-size="14.00">2 = () (0 bytes, align 1)</text>
<text xml:space="preserve" text-anchor="start" x="2329.12" y="-816.7" font-family="Times,serif" font-size="14.00">3 = &amp;mut {closure@std::rt::lang_start&lt;()&gt;::{closure#0}} (8 bytes, align 8)</text>
</g>
<!-- X9bb4beb63ef478de_4 -->
<g id="node34" class="node">
<title>X9bb4beb63ef478de_4</title>
<polygon fill="none" stroke="black" points="2282.5,-434.5 2222.25,-434.5 2222.25,-398.5 2282.5,-398.5 2282.5,-434.5"/>
<text xml:space="preserve" text-anchor="start" x="2230.25" y="-411.45" font-family="Times,serif" font-size="14.00">Resume</text>
</g>
<!-- X9bb4beb63ef478de_3&#45;&gt;X9bb4beb63ef478de_4 -->
<g id="edge21" class="edge">
<title>X9bb4beb63ef478de_3&#45;&gt;X9bb4beb63ef478de_4</title>
<path fill="none" stroke="black" d="M2253.3,-629.75C2253.13,-590.62 2252.71,-494.8 2252.5,-446.43"/>
<polygon fill="black" stroke="black" points="2256,-446.45 2252.46,-436.46 2249,-446.48 2256,-446.45"/>
</g>
<!-- X9bb4beb63ef478de_2 -->
<g id="node33" class="node">
<title>X9bb4beb63ef478de_2</title>
<polygon fill="none" stroke="black" points="2354.38,-434.5 2300.38,-434.5 2300.38,-398.5 2354.38,-398.5 2354.38,-434.5"/>
<text xml:space="preserve" text-anchor="start" x="2308.38" y="-411.45" font-family="Times,serif" font-size="14.00">Return</text>
</g>
<!-- X9bb4beb63ef478de_1&#45;&gt;X9bb4beb63ef478de_2 -->
<g id="edge20" class="edge">
<title>X9bb4beb63ef478de_1&#45;&gt;X9bb4beb63ef478de_2</title>
<path fill="none" stroke="black" d="M2326.45,-629.75C2326.62,-590.62 2327.04,-494.8 2327.25,-446.43"/>
<polygon fill="black" stroke="black" points="2330.75,-446.48 2327.29,-436.46 2323.75,-446.45 2330.75,-446.48"/>
</g>
<!-- node_15 -->
<g id="node35" class="node">
<title>node_15</title>
<polygon fill="#7ccd7c" stroke="#7ccd7c" points="4493.5,-255 4349.25,-255 4349.25,-181 4493.5,-181 4493.5,-255"/>
<text xml:space="preserve" text-anchor="start" x="4357.25" y="-237.7" font-family="Times,serif" font-size="14.00">LOCALS</text>
<text xml:space="preserve" text-anchor="start" x="4357.25" y="-221.2" font-family="Times,serif" font-size="14.00">0 = () (0 bytes, align 1)</text>
<text xml:space="preserve" text-anchor="start" x="4357.25" y="-204.7" font-family="Times,serif" font-size="14.00">1 = fn()</text>
<text xml:space="preserve" text-anchor="start" x="4357.25" y="-188.2" font-family="Times,serif" font-size="14.00">2 = () (0 bytes, align 1)</text>
</g>
<!-- node_17 -->
<g id="node37" class="node">
<title>node_17</title>
<polygon fill="#7ccd7c" stroke="#7ccd7c" points="5172.38,-1156.25 4748.38,-1156.25 4748.38,-1098.75 5172.38,-1098.75 5172.38,-1156.25"/>
<text xml:space="preserve" text-anchor="start" x="4756.38" y="-1138.95" font-family="Times,serif" font-size="14.00">LOCALS</text>
<text xml:space="preserve" text-anchor="start" x="4756.38" y="-1122.45" font-family="Times,serif" font-size="14.00">0 = () (0 bytes, align 1)</text>
<text xml:space="preserve" text-anchor="start" x="4756.38" y="-1105.95" font-family="Times,serif" font-size="14.00">1 = *mut {closure@std::rt::lang_start&lt;()&gt;::{closure#0}} (8 bytes, align 8)</text>
</g>
<!-- Xac973d251e1aa6ec_0 -->
<g id="node38" class="node">
<title>Xac973d251e1aa6ec_0</title>
<polygon fill="none" stroke="black" points="5244.38,-1145.5 5190.38,-1145.5 5190.38,-1109.5 5244.38,-1109.5 5244.38,-1145.5"/>
<text xml:space="preserve" text-anchor="start" x="5198.38" y="-1122.45" font-family="Times,serif" font-size="14.00">Return</text>
</g>
<!-- node_19 -->
<g id="node39" class="node">
<title>node_19</title>
<polygon fill="#7ccd7c" stroke="#7ccd7c" points="3912.12,-246.75 3654.62,-246.75 3654.62,-189.25 3912.12,-189.25 3912.12,-246.75"/>
<text xml:space="preserve" text-anchor="start" x="3662.62" y="-229.45" font-family="Times,serif" font-size="14.00">LOCALS</text>
<text xml:space="preserve" text-anchor="start" x="3662.62" y="-212.95" font-family="Times,serif" font-size="14.00">0 = std::process::ExitCode (1 bytes, align 1)</text>
<text xml:space="preserve" text-anchor="start" x="3662.62" y="-196.45" font-family="Times,serif" font-size="14.00">1 = () (0 bytes, align 1)</text>
</g>
</g>
</svg>
