<?xml version="1.0" encoding="UTF-8" standalone="no"?>
<!DOCTYPE svg PUBLIC "-//W3C//DTD SVG 1.1//EN"
 "http://www.w3.org/Graphics/SVG/1.1/DTD/svg11.dtd">
<!-- Generated by graphviz version 14.1.1 (20251213.1925)
 -->
<!-- Pages: 1 -->
<svg width="4827pt" height="1279pt"
 viewBox="0.00 0.00 4827.00 1279.00" xmlns="http://www.w3.org/2000/svg" xmlns:xlink="http://www.w3.org/1999/xlink">
<g id="graph0" class="graph" transform="scale(1 1) rotate(0) translate(4 1275)">
<polygon fill="white" stroke="none" points="-4,4 -4,-1275 4823.38,-1275 4823.38,4 -4,4"/>
<text xml:space="preserve" text-anchor="middle" x="2409.69" y="-7.2" font-family="Times,serif" font-size="14.00">double_ref_deref</text>
<g id="clust1" class="cluster">
<title>cluster_2</title>
<polygon fill="palegreen" stroke="palegreen" points="1613.38,-828.75 1613.38,-1230 1990.38,-1230 1990.38,-828.75 1613.38,-828.75"/>
<text xml:space="preserve" text-anchor="middle" x="1801.88" y="-1212.7" font-family="Times,serif" font-size="14.00">main</text>
</g>
<g id="clust2" class="cluster">
<title>cluster_4</title>
<polygon fill="lightgray" stroke="lightgray" points="532.38,-801.5 532.38,-1246.5 1367.38,-1246.5 1367.38,-801.5 532.38,-801.5"/>
<text xml:space="preserve" text-anchor="middle" x="949.88" y="-1229.2" font-family="Times,serif" font-size="14.00">std::rt::lang_start::&lt;()&gt;</text>
</g>
<g id="clust3" class="cluster">
<title>cluster_6</title>
<polygon fill="lightgray" stroke="lightgray" points="3075.38,-123.5 3075.38,-767 3689.38,-767 3689.38,-123.5 3075.38,-123.5"/>
<text xml:space="preserve" text-anchor="middle" x="3382.38" y="-749.7" font-family="Times,serif" font-size="14.00">std::rt::lang_start::&lt;()&gt;</text>
<text xml:space="preserve" text-anchor="middle" x="3382.38" y="-733.2" font-family="Times,serif" font-size="14.00">::{closure#0}</text>
</g>
<g id="clust4" class="cluster">
<title>cluster_8</title>
<polygon fill="lightgray" stroke="lightgray" points="4238.38,-32.5 4238.38,-535.5 4470.38,-535.5 4470.38,-32.5 4238.38,-32.5"/>
<text xml:space="preserve" text-anchor="middle" x="4354.38" y="-518.2" font-family="Times,serif" font-size="14.00">std::sys::backtrace::__ru</text>
<text xml:space="preserve" text-anchor="middle" x="4354.38" y="-501.7" font-family="Times,serif" font-size="14.00">st_begin_short_backtrace:</text>
<text xml:space="preserve" text-anchor="middle" x="4354.38" y="-485.2" font-family="Times,serif" font-size="14.00">:&lt;fn(), </text>
<text xml:space="preserve" text-anchor="middle" x="4354.38" y="-468.7" font-family="Times,serif" font-size="14.00">()&gt;</text>
</g>
<g id="clust5" class="cluster">
<title>cluster_10</title>
<polygon fill="lightgray" stroke="lightgray" points="1998.38,-828.75 1998.38,-1263 2510.38,-1263 2510.38,-828.75 1998.38,-828.75"/>
<text xml:space="preserve" text-anchor="middle" x="2254.38" y="-1245.7" font-family="Times,serif" font-size="14.00">&lt;{closure@std::rt::lang_s</text>
<text xml:space="preserve" text-anchor="middle" x="2254.38" y="-1229.2" font-family="Times,serif" font-size="14.00">tart&lt;()&gt;::{closure#0}} </text>
<text xml:space="preserve" text-anchor="middle" x="2254.38" y="-1212.7" font-family="Times,serif" font-size="14.00">as </text>
<text xml:space="preserve" text-anchor="middle" x="2254.38" y="-1196.2" font-family="Times,serif" font-size="14.00">std::ops::FnOnce&lt;()&gt;&gt;::ca</text>
<text xml:space="preserve" text-anchor="middle" x="2254.38" y="-1179.7" font-family="Times,serif" font-size="14.00">ll_once</text>
</g>
<g id="clust6" class="cluster">
<title>cluster_12</title>
<polygon fill="lightgray" stroke="lightgray" points="2518.38,-390.5 2518.38,-998.5 3067.38,-998.5 3067.38,-390.5 2518.38,-390.5"/>
<text xml:space="preserve" text-anchor="middle" x="2792.88" y="-981.2" font-family="Times,serif" font-size="14.00">&lt;{closure@std::rt::lang_s</text>
<text xml:space="preserve" text-anchor="middle" x="2792.88" y="-964.7" font-family="Times,serif" font-size="14.00">tart&lt;()&gt;::{closure#0}} </text>
<text xml:space="preserve" text-anchor="middle" x="2792.88" y="-948.2" font-family="Times,serif" font-size="14.00">as </text>
<text xml:space="preserve" text-anchor="middle" x="2792.88" y="-931.7" font-family="Times,serif" font-size="14.00">std::ops::FnOnce&lt;()&gt;&gt;::ca</text>
<text xml:space="preserve" text-anchor="middle" x="2792.88" y="-915.2" font-family="Times,serif" font-size="14.00">ll_once</text>
</g>
<g id="clust7" class="cluster">
<title>cluster_14</title>
<polygon fill="lightgray" stroke="lightgray" points="4561.38,-32.5 4561.38,-337 4811.38,-337 4811.38,-32.5 4561.38,-32.5"/>
<text xml:space="preserve" text-anchor="middle" x="4686.38" y="-319.7" font-family="Times,serif" font-size="14.00">&lt;fn() </text>
<text xml:space="preserve" text-anchor="middle" x="4686.38" y="-303.2" font-family="Times,serif" font-size="14.00">as </text>
<text xml:space="preserve" text-anchor="middle" x="4686.38" y="-286.7" font-family="Times,serif" font-size="14.00">std::ops::FnOnce&lt;()&gt;&gt;::ca</text>
<text xml:space="preserve" text-anchor="middle" x="4686.38" y="-270.2" font-family="Times,serif" font-size="14.00">ll_once</text>
</g>
<g id="clust8" class="cluster">
<title>cluster_16</title>
<polygon fill="lightgray" stroke="lightgray" points="3870.38,-1090.75 3870.38,-1221.75 4382.38,-1221.75 4382.38,-1090.75 3870.38,-1090.75"/>
<text xml:space="preserve" text-anchor="middle" x="4126.38" y="-1204.45" font-family="Times,serif" font-size="14.00">std::ptr::drop_in_place::</text>
<text xml:space="preserve" text-anchor="middle" x="4126.38" y="-1187.95" font-family="Times,serif" font-size="14.00">&lt;{closure@std::rt::lang_s</text>
<text xml:space="preserve" text-anchor="middle" x="4126.38" y="-1171.45" font-family="Times,serif" font-size="14.00">tart&lt;()&gt;::{closure#0}}&gt;</text>
</g>
<g id="clust9" class="cluster">
<title>cluster_18</title>
<polygon fill="lightgray" stroke="lightgray" points="3697.38,-181.25 3697.38,-328.75 4230.38,-328.75 4230.38,-181.25 3697.38,-181.25"/>
<text xml:space="preserve" text-anchor="middle" x="3963.88" y="-311.45" font-family="Times,serif" font-size="14.00">&lt;() </text>
<text xml:space="preserve" text-anchor="middle" x="3963.88" y="-294.95" font-family="Times,serif" font-size="14.00">as </text>
<text xml:space="preserve" text-anchor="middle" x="3963.88" y="-278.45" font-family="Times,serif" font-size="14.00">std::process::Termination</text>
<text xml:space="preserve" text-anchor="middle" x="3963.88" y="-261.95" font-family="Times,serif" font-size="14.00">&gt;::report</text>
</g>
<!-- node_0 -->
<g id="node1" class="node">
<title>node_0</title>
<polygon fill="lightyellow" stroke="lightyellow" points="130.75,-1148 0,-1148 0,-1107 130.75,-1107 130.75,-1148"/>
<text xml:space="preserve" text-anchor="start" x="8" y="-1130.7" font-family="Times,serif" font-size="14.00">ALLOCS</text>
<text xml:space="preserve" text-anchor="start" x="8" y="-1114.2" font-family="Times,serif" font-size="14.00">alloc1: Str (27 bytes)</text>
</g>
<!-- node_1 -->
<g id="node2" class="node">
<title>node_1</title>
<polygon fill="lavender" stroke="lavender" points="522.25,-1181 148.5,-1181 148.5,-1074 522.25,-1074 522.25,-1181"/>
<text xml:space="preserve" text-anchor="start" x="156.5" y="-1163.7" font-family="Times,serif" font-size="14.00">TYPES</text>
<text xml:space="preserve" text-anchor="start" x="156.5" y="-1147.2" font-family="Times,serif" font-size="14.00">() (0 bytes)</text>
<text xml:space="preserve" text-anchor="start" x="156.5" y="-1130.7" font-family="Times,serif" font-size="14.00">std::panic::Location&lt;&#39;_&gt; (24 bytes)</text>
<text xml:space="preserve" text-anchor="start" x="156.5" y="-1114.2" font-family="Times,serif" font-size="14.00">std::process::ExitCode (1 bytes)</text>
<text xml:space="preserve" text-anchor="start" x="156.5" y="-1097.7" font-family="Times,serif" font-size="14.00">std::result::Result&lt;isize, !&gt; (8 bytes)</text>
<text xml:space="preserve" text-anchor="start" x="156.5" y="-1081.2" font-family="Times,serif" font-size="14.00">std::sys::pal::unix::process::process_common::ExitCode (1 bytes)</text>
</g>
<!-- X5eb86185c1cf8f06_0 -->
<g id="node3" class="node">
<title>X5eb86185c1cf8f06_0</title>
<polygon fill="none" stroke="red" points="1543.12,-883.5 1375.62,-883.5 1375.62,-826 1543.12,-826 1543.12,-883.5"/>
<text xml:space="preserve" text-anchor="middle" x="1459.38" y="-866.2" font-family="Times,serif" font-size="14.00">_ZN3std2rt19lang_start_in</text>
<text xml:space="preserve" text-anchor="middle" x="1459.38" y="-849.7" font-family="Times,serif" font-size="14.00">ternal17h035df9ff6960926a</text>
<text xml:space="preserve" text-anchor="middle" x="1459.38" y="-833.2" font-family="Times,serif" font-size="14.00">E</text>
</g>
<!-- X210a8e5fe9313c81_0 -->
<g id="node4" class="node">
<title>X210a8e5fe9313c81_0</title>
<polygon fill="none" stroke="red" points="2018.12,-668.5 1844.62,-668.5 1844.62,-627.5 2018.12,-627.5 2018.12,-668.5"/>
<text xml:space="preserve" text-anchor="middle" x="1931.38" y="-651.2" font-family="Times,serif" font-size="14.00">_ZN4core9panicking5panic1</text>
<text xml:space="preserve" text-anchor="middle" x="1931.38" y="-634.7" font-family="Times,serif" font-size="14.00">7h37379bf3ce79a0d7E</text>
</g>
<!-- X3c6542d96320ad67_0 -->
<g id="node5" class="node">
<title>X3c6542d96320ad67_0</title>
<polygon fill="none" stroke="red" points="4550.5,-79 4478.25,-79 4478.25,-38 4550.5,-38 4550.5,-79"/>
<text xml:space="preserve" text-anchor="middle" x="4514.38" y="-61.7" font-family="Times,serif" font-size="14.00">Intr: </text>
<text xml:space="preserve" text-anchor="middle" x="4514.38" y="-45.2" font-family="Times,serif" font-size="14.00">black_box</text>
</g>
<!-- X8b0ac2e54b9a91_0 -->
<g id="node6" class="node">
<title>X8b0ac2e54b9a91_0</title>
<polygon fill="none" stroke="red" points="3432.62,-1145.5 3376.12,-1145.5 3376.12,-1109.5 3432.62,-1109.5 3432.62,-1145.5"/>
<text xml:space="preserve" text-anchor="middle" x="3404.38" y="-1122.45" font-family="Times,serif" font-size="14.00">NoOp: </text>
</g>
<!-- node_3 -->
<g id="node7" class="node">
<title>node_3</title>
<polygon fill="#7ccd7c" stroke="#7ccd7c" points="1796.88,-1197.5 1621.88,-1197.5 1621.88,-1057.5 1796.88,-1057.5 1796.88,-1197.5"/>
<text xml:space="preserve" text-anchor="start" x="1629.88" y="-1180.2" font-family="Times,serif" font-size="14.00">LOCALS</text>
<text xml:space="preserve" text-anchor="start" x="1629.88" y="-1163.7" font-family="Times,serif" font-size="14.00">0 = () (0 bytes, align 1)</text>
<text xml:space="preserve" text-anchor="start" x="1629.88" y="-1147.2" font-family="Times,serif" font-size="14.00">1 = Int(I32)</text>
<text xml:space="preserve" text-anchor="start" x="1629.88" y="-1130.7" font-family="Times,serif" font-size="14.00">2 = &amp;i32 (8 bytes, align 8)</text>
<text xml:space="preserve" text-anchor="start" x="1629.88" y="-1114.2" font-family="Times,serif" font-size="14.00">3 = &amp;&amp;i32 (8 bytes, align 8)</text>
<text xml:space="preserve" text-anchor="start" x="1629.88" y="-1097.7" font-family="Times,serif" font-size="14.00">4 = Int(I32)</text>
<text xml:space="preserve" text-anchor="start" x="1629.88" y="-1081.2" font-family="Times,serif" font-size="14.00">5 = ()</text>
<text xml:space="preserve" text-anchor="start" x="1629.88" y="-1064.7" font-family="Times,serif" font-size="14.00">6 = &amp;i32 (8 bytes, align 8)</text>
</g>
<!-- X7cd208df2e103c02_0 -->
<g id="node8" class="node">
<title>X7cd208df2e103c02_0</title>
<polygon fill="none" stroke="black" points="1982.12,-1181 1814.62,-1181 1814.62,-1074 1982.12,-1074 1982.12,-1181"/>
<text xml:space="preserve" text-anchor="start" x="1822.62" y="-1163.7" font-family="Times,serif" font-size="14.00">1 &lt;&#45; Use(const 42_Int(I32))</text>
<text xml:space="preserve" text-anchor="start" x="1822.62" y="-1147.2" font-family="Times,serif" font-size="14.00">2 &lt;&#45; &amp; 1</text>
<text xml:space="preserve" text-anchor="start" x="1822.62" y="-1130.7" font-family="Times,serif" font-size="14.00">3 &lt;&#45; &amp; 2</text>
<text xml:space="preserve" text-anchor="start" x="1822.62" y="-1114.2" font-family="Times,serif" font-size="14.00">6 &lt;&#45; CopyForDeref((*3))</text>
<text xml:space="preserve" text-anchor="start" x="1822.62" y="-1097.7" font-family="Times,serif" font-size="14.00">4 &lt;&#45; Use(cp((*6)))</text>
<text xml:space="preserve" text-anchor="start" x="1822.62" y="-1081.2" font-family="Times,serif" font-size="14.00">SwitchInt mv(4)</text>
</g>
<!-- X7cd208df2e103c02_1 -->
<g id="node9" class="node">
<title>X7cd208df2e103c02_1</title>
<polygon fill="none" stroke="black" points="1886.38,-872.75 1832.38,-872.75 1832.38,-836.75 1886.38,-836.75 1886.38,-872.75"/>
<text xml:space="preserve" text-anchor="start" x="1840.38" y="-849.7" font-family="Times,serif" font-size="14.00">Return</text>
</g>
<!-- X7cd208df2e103c02_0&#45;&gt;X7cd208df2e103c02_1 -->
<g id="edge1" class="edge">
<title>X7cd208df2e103c02_0&#45;&gt;X7cd208df2e103c02_1</title>
<path fill="none" stroke="black" d="M1890.76,-1073.65C1882.6,-1016.98 1869.94,-929.11 1863.48,-884.24"/>
<polygon fill="black" stroke="black" points="1866.97,-883.93 1862.08,-874.53 1860.04,-884.93 1866.97,-883.93"/>
<text xml:space="preserve" text-anchor="middle" x="1889.12" y="-1009.7" font-family="Times,serif" font-size="14.00">42</text>
</g>
<!-- X7cd208df2e103c02_2 -->
<g id="node10" class="node">
<title>X7cd208df2e103c02_2</title>
<polygon fill="none" stroke="black" points="1958.38,-872.75 1904.38,-872.75 1904.38,-836.75 1958.38,-836.75 1958.38,-872.75"/>
<text xml:space="preserve" text-anchor="start" x="1912.38" y="-849.7" font-family="Times,serif" font-size="14.00">Call</text>
</g>
<!-- X7cd208df2e103c02_0&#45;&gt;X7cd208df2e103c02_2 -->
<g id="edge2" class="edge">
<title>X7cd208df2e103c02_0&#45;&gt;X7cd208df2e103c02_2</title>
<path fill="none" stroke="black" d="M1904.82,-1073.65C1911.72,-1016.98 1922.43,-929.11 1927.9,-884.24"/>
<polygon fill="black" stroke="black" points="1931.35,-884.89 1929.09,-874.54 1924.4,-884.04 1931.35,-884.89"/>
<text xml:space="preserve" text-anchor="middle" x="1926.77" y="-1009.7" font-family="Times,serif" font-size="14.00">other</text>
</g>
<!-- X7cd208df2e103c02_2&#45;&gt;X210a8e5fe9313c81_0 -->
<g id="edge3" class="edge">
<title>X7cd208df2e103c02_2&#45;&gt;X210a8e5fe9313c81_0</title>
<path fill="none" stroke="black" d="M1931.38,-836.29C1931.38,-801.64 1931.38,-723.76 1931.38,-680.13"/>
<polygon fill="black" stroke="black" points="1934.88,-680.31 1931.38,-670.31 1927.88,-680.31 1934.88,-680.31"/>
<text xml:space="preserve" text-anchor="middle" x="1968.5" y="-778.2" font-family="Times,serif" font-size="14.00">const [alloc0]</text>
</g>
<!-- node_5 -->
<g id="node11" class="node">
<title>node_5</title>
<polygon fill="#7ccd7c" stroke="#7ccd7c" points="1102.75,-1214 540,-1214 540,-1041 1102.75,-1041 1102.75,-1214"/>
<text xml:space="preserve" text-anchor="start" x="548" y="-1196.7" font-family="Times,serif" font-size="14.00">LOCALS</text>
<text xml:space="preserve" text-anchor="start" x="548" y="-1180.2" font-family="Times,serif" font-size="14.00">0 = Int(Isize)</text>
<text xml:space="preserve" text-anchor="start" x="548" y="-1163.7" font-family="Times,serif" font-size="14.00">1 = fn()</text>
<text xml:space="preserve" text-anchor="start" x="548" y="-1147.2" font-family="Times,serif" font-size="14.00">2 = Int(Isize)</text>
<text xml:space="preserve" text-anchor="start" x="548" y="-1130.7" font-family="Times,serif" font-size="14.00">3 = *const *const u8 (8 bytes, align 8)</text>
<text xml:space="preserve" text-anchor="start" x="548" y="-1114.2" font-family="Times,serif" font-size="14.00">4 = Uint(U8)</text>
<text xml:space="preserve" text-anchor="start" x="548" y="-1097.7" font-family="Times,serif" font-size="14.00">5 = std::result::Result&lt;isize, !&gt; (8 bytes, align 8)</text>
<text xml:space="preserve" text-anchor="start" x="548" y="-1081.2" font-family="Times,serif" font-size="14.00">6 = &amp;dyn std::ops::Fn() &#45;&gt; i32 + std::marker::Sync + std::panic::RefUnwindSafe (16 bytes, align 8)</text>
<text xml:space="preserve" text-anchor="start" x="548" y="-1064.7" font-family="Times,serif" font-size="14.00">7 = &amp;{closure@std::rt::lang_start&lt;()&gt;::{closure#0}} (8 bytes, align 8)</text>
<text xml:space="preserve" text-anchor="start" x="548" y="-1048.2" font-family="Times,serif" font-size="14.00">8 = {closure@std::rt::lang_start&lt;()&gt;::{closure#0}}</text>
</g>
<!-- Xf14ca7be6cc4d4ad_0 -->
<g id="node12" class="node">
<title>Xf14ca7be6cc4d4ad_0</title>
<polygon fill="none" stroke="black" points="1359.75,-1189.25 1121,-1189.25 1121,-1065.75 1359.75,-1065.75 1359.75,-1189.25"/>
<text xml:space="preserve" text-anchor="start" x="1129" y="-1171.95" font-family="Times,serif" font-size="14.00">Storage Live _5</text>
<text xml:space="preserve" text-anchor="start" x="1129" y="-1155.45" font-family="Times,serif" font-size="14.00">Storage Live _6</text>
<text xml:space="preserve" text-anchor="start" x="1129" y="-1138.95" font-family="Times,serif" font-size="14.00">Storage Live _8</text>
<text xml:space="preserve" text-anchor="start" x="1129" y="-1122.45" font-family="Times,serif" font-size="14.00">8 &lt;&#45; Closure (cp(1))</text>
<text xml:space="preserve" text-anchor="start" x="1129" y="-1105.95" font-family="Times,serif" font-size="14.00">7 &lt;&#45; &amp; 8</text>
<text xml:space="preserve" text-anchor="start" x="1129" y="-1089.45" font-family="Times,serif" font-size="14.00">6 &lt;&#45; Cast&#45;PointerCoercion(Unsize) cp(7)</text>
<text xml:space="preserve" text-anchor="start" x="1129" y="-1072.95" font-family="Times,serif" font-size="14.00">Call</text>
</g>
<!-- Xf14ca7be6cc4d4ad_0&#45;&gt;X5eb86185c1cf8f06_0 -->
<g id="edge5" class="edge">
<title>Xf14ca7be6cc4d4ad_0&#45;&gt;X5eb86185c1cf8f06_0</title>
<path fill="none" stroke="black" d="M1309.27,-1065.31C1330.32,-1045.05 1352.8,-1021.72 1371.38,-998.5 1397.89,-965.35 1422.75,-923.65 1439.24,-893.9"/>
<polygon fill="black" stroke="black" points="1442.25,-895.69 1443.98,-885.24 1436.11,-892.33 1442.25,-895.69"/>
<text xml:space="preserve" text-anchor="middle" x="1435.05" y="-1009.7" font-family="Times,serif" font-size="14.00">mv(6),mv(2),mv(3),mv(4)</text>
</g>
<!-- Xf14ca7be6cc4d4ad_1 -->
<g id="node13" class="node">
<title>Xf14ca7be6cc4d4ad_1</title>
<polygon fill="none" stroke="black" points="1334.25,-900 1146.5,-900 1146.5,-809.5 1334.25,-809.5 1334.25,-900"/>
<text xml:space="preserve" text-anchor="start" x="1154.5" y="-882.7" font-family="Times,serif" font-size="14.00">Storage Dead _6</text>
<text xml:space="preserve" text-anchor="start" x="1154.5" y="-866.2" font-family="Times,serif" font-size="14.00">0 &lt;&#45; Use(cp((5 as variant 0).0))</text>
<text xml:space="preserve" text-anchor="start" x="1154.5" y="-849.7" font-family="Times,serif" font-size="14.00">Storage Dead _8</text>
<text xml:space="preserve" text-anchor="start" x="1154.5" y="-833.2" font-family="Times,serif" font-size="14.00">Storage Dead _5</text>
<text xml:space="preserve" text-anchor="start" x="1154.5" y="-816.7" font-family="Times,serif" font-size="14.00">Return</text>
</g>
<!-- Xf14ca7be6cc4d4ad_0&#45;&gt;Xf14ca7be6cc4d4ad_1 -->
<g id="edge4" class="edge">
<title>Xf14ca7be6cc4d4ad_0&#45;&gt;Xf14ca7be6cc4d4ad_1</title>
<path fill="none" stroke="black" d="M1240.38,-1065.4C1240.38,-1019.2 1240.38,-956.29 1240.38,-911.46"/>
<polygon fill="black" stroke="black" points="1243.88,-911.7 1240.38,-901.7 1236.88,-911.7 1243.88,-911.7"/>
<text xml:space="preserve" text-anchor="middle" x="1243.75" y="-1009.7" font-family="Times,serif" font-size="14.00">5</text>
</g>
<!-- node_7 -->
<g id="node14" class="node">
<title>node_7</title>
<polygon fill="#7ccd7c" stroke="#7ccd7c" points="3535.62,-718 3083.12,-718 3083.12,-578 3535.62,-578 3535.62,-718"/>
<text xml:space="preserve" text-anchor="start" x="3091.12" y="-700.7" font-family="Times,serif" font-size="14.00">LOCALS</text>
<text xml:space="preserve" text-anchor="start" x="3091.12" y="-684.2" font-family="Times,serif" font-size="14.00">0 = Int(I32)</text>
<text xml:space="preserve" text-anchor="start" x="3091.12" y="-667.7" font-family="Times,serif" font-size="14.00">1 = &amp;{closure@std::rt::lang_start&lt;()&gt;::{closure#0}} (8 bytes, align 8)</text>
<text xml:space="preserve" text-anchor="start" x="3091.12" y="-651.2" font-family="Times,serif" font-size="14.00">2 = std::process::ExitCode (1 bytes, align 1)</text>
<text xml:space="preserve" text-anchor="start" x="3091.12" y="-634.7" font-family="Times,serif" font-size="14.00">3 = () (0 bytes, align 1)</text>
<text xml:space="preserve" text-anchor="start" x="3091.12" y="-618.2" font-family="Times,serif" font-size="14.00">4 = fn()</text>
<text xml:space="preserve" text-anchor="start" x="3091.12" y="-601.7" font-family="Times,serif" font-size="14.00">5 = &amp;std::sys::pal::unix::process::process_common::ExitCode (8 bytes, align 8)</text>
<text xml:space="preserve" text-anchor="start" x="3091.12" y="-585.2" font-family="Times,serif" font-size="14.00">6 = Uint(U8)</text>
</g>
<!-- X1e6d84e2964cfb18_0 -->
<g id="node15" class="node">
<title>X1e6d84e2964cfb18_0</title>
<polygon fill="none" stroke="black" points="3681.25,-693.25 3553.5,-693.25 3553.5,-602.75 3681.25,-602.75 3681.25,-693.25"/>
<text xml:space="preserve" text-anchor="start" x="3561.5" y="-675.95" font-family="Times,serif" font-size="14.00">Storage Live _2</text>
<text xml:space="preserve" text-anchor="start" x="3561.5" y="-659.45" font-family="Times,serif" font-size="14.00">Storage Live _3</text>
<text xml:space="preserve" text-anchor="start" x="3561.5" y="-642.95" font-family="Times,serif" font-size="14.00">Storage Live _4</text>
<text xml:space="preserve" text-anchor="start" x="3561.5" y="-626.45" font-family="Times,serif" font-size="14.00">4 &lt;&#45; Use(cp((*1).0))</text>
<text xml:space="preserve" text-anchor="start" x="3561.5" y="-609.95" font-family="Times,serif" font-size="14.00">Call</text>
</g>
<!-- X1e6d84e2964cfb18_1 -->
<g id="node16" class="node">
<title>X1e6d84e2964cfb18_1</title>
<polygon fill="none" stroke="black" points="3670.75,-437 3564,-437 3564,-396 3670.75,-396 3670.75,-437"/>
<text xml:space="preserve" text-anchor="start" x="3572" y="-419.7" font-family="Times,serif" font-size="14.00">Storage Dead _4</text>
<text xml:space="preserve" text-anchor="start" x="3572" y="-403.2" font-family="Times,serif" font-size="14.00">Call</text>
</g>
<!-- X1e6d84e2964cfb18_0&#45;&gt;X1e6d84e2964cfb18_1 -->
<g id="edge6" class="edge">
<title>X1e6d84e2964cfb18_0&#45;&gt;X1e6d84e2964cfb18_1</title>
<path fill="none" stroke="black" d="M3617.38,-602.48C3617.38,-557.23 3617.38,-488.32 3617.38,-448.63"/>
<polygon fill="black" stroke="black" points="3620.88,-448.82 3617.38,-438.82 3613.88,-448.82 3620.88,-448.82"/>
<text xml:space="preserve" text-anchor="middle" x="3620.75" y="-546.7" font-family="Times,serif" font-size="14.00">3</text>
</g>
<!-- Xdd4cafaa435802a6_0 -->
<g id="node18" class="node">
<title>Xdd4cafaa435802a6_0</title>
<polygon fill="none" stroke="black" points="4300.38,-434.5 4246.38,-434.5 4246.38,-398.5 4300.38,-398.5 4300.38,-434.5"/>
<text xml:space="preserve" text-anchor="start" x="4254.38" y="-411.45" font-family="Times,serif" font-size="14.00">Call</text>
</g>
<!-- X1e6d84e2964cfb18_0&#45;&gt;Xdd4cafaa435802a6_0 -->
<g id="edge8" class="edge">
<title>X1e6d84e2964cfb18_0&#45;&gt;Xdd4cafaa435802a6_0</title>
<path fill="none" stroke="black" d="M3681.47,-624.58C3816.61,-577.3 4127.2,-468.64 4235.38,-430.79"/>
<polygon fill="black" stroke="black" points="4236.38,-434.15 4244.66,-427.55 4234.07,-427.54 4236.38,-434.15"/>
<text xml:space="preserve" text-anchor="middle" x="3922.97" y="-546.7" font-family="Times,serif" font-size="14.00">mv(4)</text>
</g>
<!-- X1e6d84e2964cfb18_2 -->
<g id="node17" class="node">
<title>X1e6d84e2964cfb18_2</title>
<polygon fill="none" stroke="black" points="3681.38,-304.5 3527.38,-304.5 3527.38,-131.5 3681.38,-131.5 3681.38,-304.5"/>
<text xml:space="preserve" text-anchor="start" x="3535.38" y="-287.2" font-family="Times,serif" font-size="14.00">Storage Dead _3</text>
<text xml:space="preserve" text-anchor="start" x="3535.38" y="-270.7" font-family="Times,serif" font-size="14.00">Storage Live _5</text>
<text xml:space="preserve" text-anchor="start" x="3535.38" y="-254.2" font-family="Times,serif" font-size="14.00">5 &lt;&#45; &amp; 2.0</text>
<text xml:space="preserve" text-anchor="start" x="3535.38" y="-237.7" font-family="Times,serif" font-size="14.00">Storage Live _6</text>
<text xml:space="preserve" text-anchor="start" x="3535.38" y="-221.2" font-family="Times,serif" font-size="14.00">6 &lt;&#45; Use(cp(2.0.0))</text>
<text xml:space="preserve" text-anchor="start" x="3535.38" y="-204.7" font-family="Times,serif" font-size="14.00">0 &lt;&#45; Cast&#45;IntToInt mv(6)</text>
<text xml:space="preserve" text-anchor="start" x="3535.38" y="-188.2" font-family="Times,serif" font-size="14.00">Storage Dead _6</text>
<text xml:space="preserve" text-anchor="start" x="3535.38" y="-171.7" font-family="Times,serif" font-size="14.00">Storage Dead _5</text>
<text xml:space="preserve" text-anchor="start" x="3535.38" y="-155.2" font-family="Times,serif" font-size="14.00">Storage Dead _2</text>
<text xml:space="preserve" text-anchor="start" x="3535.38" y="-138.7" font-family="Times,serif" font-size="14.00">Return</text>
</g>
<!-- X1e6d84e2964cfb18_1&#45;&gt;X1e6d84e2964cfb18_2 -->
<g id="edge7" class="edge">
<title>X1e6d84e2964cfb18_1&#45;&gt;X1e6d84e2964cfb18_2</title>
<path fill="none" stroke="black" d="M3616.06,-395.58C3614.8,-376.54 3612.8,-346.38 3610.81,-316.33"/>
<polygon fill="black" stroke="black" points="3614.31,-316.1 3610.15,-306.35 3607.32,-316.56 3614.31,-316.1"/>
<text xml:space="preserve" text-anchor="middle" x="3616.91" y="-348.2" font-family="Times,serif" font-size="14.00">2</text>
</g>
<!-- Xf92b109ca8d0dbd7_0 -->
<g id="node19" class="node">
<title>Xf92b109ca8d0dbd7_0</title>
<polygon fill="none" stroke="black" points="3946.88,-238.5 3705.88,-238.5 3705.88,-197.5 3946.88,-197.5 3946.88,-238.5"/>
<text xml:space="preserve" text-anchor="start" x="3713.88" y="-221.2" font-family="Times,serif" font-size="14.00">0 &lt;&#45; Use(const 0_std::process::ExitCode)</text>
<text xml:space="preserve" text-anchor="start" x="3713.88" y="-204.7" font-family="Times,serif" font-size="14.00">Return</text>
</g>
<!-- X1e6d84e2964cfb18_1&#45;&gt;Xf92b109ca8d0dbd7_0 -->
<g id="edge9" class="edge">
<title>X1e6d84e2964cfb18_1&#45;&gt;Xf92b109ca8d0dbd7_0</title>
<path fill="none" stroke="black" d="M3638.57,-395.58C3676.04,-360.34 3754.08,-286.97 3796.82,-246.78"/>
<polygon fill="black" stroke="black" points="3799.14,-249.41 3804.03,-240.01 3794.34,-244.31 3799.14,-249.41"/>
<text xml:space="preserve" text-anchor="middle" x="3707.82" y="-348.2" font-family="Times,serif" font-size="14.00">mv(3)</text>
</g>
<!-- Xdd4cafaa435802a6_1 -->
<g id="node21" class="node">
<title>Xdd4cafaa435802a6_1</title>
<polygon fill="none" stroke="black" points="4380.38,-236 4326.38,-236 4326.38,-200 4380.38,-200 4380.38,-236"/>
<text xml:space="preserve" text-anchor="start" x="4334.38" y="-212.95" font-family="Times,serif" font-size="14.00">Call</text>
</g>
<!-- Xdd4cafaa435802a6_0&#45;&gt;Xdd4cafaa435802a6_1 -->
<g id="edge10" class="edge">
<title>Xdd4cafaa435802a6_0&#45;&gt;Xdd4cafaa435802a6_1</title>
<path fill="none" stroke="black" d="M4280.47,-398.06C4294.35,-363.98 4325.18,-288.26 4341.96,-247.05"/>
<polygon fill="black" stroke="black" points="4345.19,-248.38 4345.72,-237.8 4338.71,-245.74 4345.19,-248.38"/>
<text xml:space="preserve" text-anchor="middle" x="4304.91" y="-348.2" font-family="Times,serif" font-size="14.00">0</text>
</g>
<!-- Xd43bb0e16735dfd9_0 -->
<g id="node23" class="node">
<title>Xd43bb0e16735dfd9_0</title>
<polygon fill="none" stroke="black" points="4623.38,-236 4569.38,-236 4569.38,-200 4623.38,-200 4623.38,-236"/>
<text xml:space="preserve" text-anchor="start" x="4577.38" y="-212.95" font-family="Times,serif" font-size="14.00">Call</text>
</g>
<!-- Xdd4cafaa435802a6_0&#45;&gt;Xd43bb0e16735dfd9_0 -->
<g id="edge12" class="edge">
<title>Xdd4cafaa435802a6_0&#45;&gt;Xd43bb0e16735dfd9_0</title>
<path fill="none" stroke="black" d="M4287.25,-398.06C4293.38,-391.38 4301.08,-384.23 4309.38,-379.5 4375.14,-341.96 4408.3,-374 4474.38,-337 4516.23,-313.56 4554.19,-272.21 4576.28,-245.21"/>
<polygon fill="black" stroke="black" points="4578.95,-247.48 4582.47,-237.49 4573.48,-243.11 4578.95,-247.48"/>
<text xml:space="preserve" text-anchor="middle" x="4494.85" y="-348.2" font-family="Times,serif" font-size="14.00">mv(1),const ()</text>
</g>
<!-- node_9 -->
<g id="node20" class="node">
<title>node_9</title>
<polygon fill="#7ccd7c" stroke="#7ccd7c" points="4462.5,-453.5 4318.25,-453.5 4318.25,-379.5 4462.5,-379.5 4462.5,-453.5"/>
<text xml:space="preserve" text-anchor="start" x="4326.25" y="-436.2" font-family="Times,serif" font-size="14.00">LOCALS</text>
<text xml:space="preserve" text-anchor="start" x="4326.25" y="-419.7" font-family="Times,serif" font-size="14.00">0 = () (0 bytes, align 1)</text>
<text xml:space="preserve" text-anchor="start" x="4326.25" y="-403.2" font-family="Times,serif" font-size="14.00">1 = fn()</text>
<text xml:space="preserve" text-anchor="start" x="4326.25" y="-386.7" font-family="Times,serif" font-size="14.00">2 = () (0 bytes, align 1)</text>
</g>
<!-- Xdd4cafaa435802a6_1&#45;&gt;X3c6542d96320ad67_0 -->
<g id="edge13" class="edge">
<title>Xdd4cafaa435802a6_1&#45;&gt;X3c6542d96320ad67_0</title>
<path fill="none" stroke="black" d="M4371.22,-199.54C4399.07,-172.3 4453.11,-119.44 4486.24,-87.03"/>
<polygon fill="black" stroke="black" points="4488.4,-89.81 4493.1,-80.31 4483.5,-84.8 4488.4,-89.81"/>
<text xml:space="preserve" text-anchor="middle" x="4496.09" y="-100.2" font-family="Times,serif" font-size="14.00">const ()</text>
</g>
<!-- Xdd4cafaa435802a6_2 -->
<g id="node22" class="node">
<title>Xdd4cafaa435802a6_2</title>
<polygon fill="none" stroke="black" points="4380.38,-76.5 4326.38,-76.5 4326.38,-40.5 4380.38,-40.5 4380.38,-76.5"/>
<text xml:space="preserve" text-anchor="start" x="4334.38" y="-53.45" font-family="Times,serif" font-size="14.00">Return</text>
</g>
<!-- Xdd4cafaa435802a6_1&#45;&gt;Xdd4cafaa435802a6_2 -->
<g id="edge11" class="edge">
<title>Xdd4cafaa435802a6_1&#45;&gt;Xdd4cafaa435802a6_2</title>
<path fill="none" stroke="black" d="M4353.38,-199.54C4353.38,-172.56 4353.38,-120.44 4353.38,-87.95"/>
<polygon fill="black" stroke="black" points="4356.88,-88.07 4353.38,-78.07 4349.88,-88.07 4356.88,-88.07"/>
<text xml:space="preserve" text-anchor="middle" x="4356.75" y="-100.2" font-family="Times,serif" font-size="14.00">2</text>
</g>
<!-- Xd43bb0e16735dfd9_0&#45;&gt;Xd43bb0e16735dfd9_0 -->
<g id="edge22" class="edge">
<title>Xd43bb0e16735dfd9_0&#45;&gt;Xd43bb0e16735dfd9_0:1</title>
<path fill="none" stroke="black" d="M4613.93,-236.41C4627.52,-243.3 4641.38,-237.16 4641.38,-218 4641.38,-204.08 4634.06,-197.03 4624.85,-196.86"/>
<polygon fill="black" stroke="black" points="4624.25,-193.4 4615.4,-199.22 4625.95,-200.2 4624.25,-193.4"/>
</g>
<!-- Xd43bb0e16735dfd9_1 -->
<g id="node34" class="node">
<title>Xd43bb0e16735dfd9_1</title>
<polygon fill="none" stroke="black" points="4623.38,-76.5 4569.38,-76.5 4569.38,-40.5 4623.38,-40.5 4623.38,-76.5"/>
<text xml:space="preserve" text-anchor="start" x="4577.38" y="-53.45" font-family="Times,serif" font-size="14.00">Return</text>
</g>
<!-- Xd43bb0e16735dfd9_0&#45;&gt;Xd43bb0e16735dfd9_1 -->
<g id="edge21" class="edge">
<title>Xd43bb0e16735dfd9_0&#45;&gt;Xd43bb0e16735dfd9_1</title>
<path fill="none" stroke="black" d="M4596.38,-199.54C4596.38,-172.56 4596.38,-120.44 4596.38,-87.95"/>
<polygon fill="black" stroke="black" points="4599.88,-88.07 4596.38,-78.07 4592.88,-88.07 4599.88,-88.07"/>
<text xml:space="preserve" text-anchor="middle" x="4599.75" y="-100.2" font-family="Times,serif" font-size="14.00">0</text>
</g>
<!-- node_11 -->
<g id="node24" class="node">
<title>node_11</title>
<polygon fill="#7ccd7c" stroke="#7ccd7c" points="2430.38,-1164.5 2006.38,-1164.5 2006.38,-1090.5 2430.38,-1090.5 2430.38,-1164.5"/>
<text xml:space="preserve" text-anchor="start" x="2014.38" y="-1147.2" font-family="Times,serif" font-size="14.00">LOCALS</text>
<text xml:space="preserve" text-anchor="start" x="2014.38" y="-1130.7" font-family="Times,serif" font-size="14.00">0 = Int(I32)</text>
<text xml:space="preserve" text-anchor="start" x="2014.38" y="-1114.2" font-family="Times,serif" font-size="14.00">1 = *mut {closure@std::rt::lang_start&lt;()&gt;::{closure#0}} (8 bytes, align 8)</text>
<text xml:space="preserve" text-anchor="start" x="2014.38" y="-1097.7" font-family="Times,serif" font-size="14.00">2 = () (0 bytes, align 1)</text>
</g>
<!-- X10f2e33a012a1828_0 -->
<g id="node25" class="node">
<title>X10f2e33a012a1828_0</title>
<polygon fill="none" stroke="black" points="2502.38,-1145.5 2448.38,-1145.5 2448.38,-1109.5 2502.38,-1109.5 2502.38,-1145.5"/>
<text xml:space="preserve" text-anchor="start" x="2456.38" y="-1122.45" font-family="Times,serif" font-size="14.00">Call</text>
</g>
<!-- X10f2e33a012a1828_1 -->
<g id="node26" class="node">
<title>X10f2e33a012a1828_1</title>
<polygon fill="none" stroke="black" points="2502.38,-872.75 2448.38,-872.75 2448.38,-836.75 2502.38,-836.75 2502.38,-872.75"/>
<text xml:space="preserve" text-anchor="start" x="2456.38" y="-849.7" font-family="Times,serif" font-size="14.00">Return</text>
</g>
<!-- X10f2e33a012a1828_0&#45;&gt;X10f2e33a012a1828_1 -->
<g id="edge14" class="edge">
<title>X10f2e33a012a1828_0&#45;&gt;X10f2e33a012a1828_1</title>
<path fill="none" stroke="black" d="M2475.38,-1109.15C2475.38,-1063.59 2475.38,-940.21 2475.38,-884.15"/>
<polygon fill="black" stroke="black" points="2478.88,-884.47 2475.38,-874.47 2471.88,-884.47 2478.88,-884.47"/>
<text xml:space="preserve" text-anchor="middle" x="2478.75" y="-1009.7" font-family="Times,serif" font-size="14.00">0</text>
</g>
<!-- X6a76753ce9618315_0 -->
<g id="node27" class="node">
<title>X6a76753ce9618315_0</title>
<polygon fill="none" stroke="black" points="2612.62,-875.25 2526.12,-875.25 2526.12,-834.25 2612.62,-834.25 2612.62,-875.25"/>
<text xml:space="preserve" text-anchor="start" x="2534.12" y="-857.95" font-family="Times,serif" font-size="14.00">3 &lt;&#45; &amp;mut 1</text>
<text xml:space="preserve" text-anchor="start" x="2534.12" y="-841.45" font-family="Times,serif" font-size="14.00">Call</text>
</g>
<!-- X10f2e33a012a1828_0&#45;&gt;X6a76753ce9618315_0 -->
<g id="edge15" class="edge">
<title>X10f2e33a012a1828_0&#45;&gt;X6a76753ce9618315_0</title>
<path fill="none" stroke="black" d="M2481.4,-1109.15C2497.02,-1064.16 2538.98,-943.3 2558.77,-886.3"/>
<polygon fill="black" stroke="black" points="2562.06,-887.5 2562.03,-876.9 2555.45,-885.2 2562.06,-887.5"/>
<text xml:space="preserve" text-anchor="middle" x="2560.25" y="-1009.7" font-family="Times,serif" font-size="14.00">mv((*1)),mv(2)</text>
</g>
<!-- X6a76753ce9618315_0&#45;&gt;X1e6d84e2964cfb18_0 -->
<g id="edge20" class="edge">
<title>X6a76753ce9618315_0&#45;&gt;X1e6d84e2964cfb18_0</title>
<path fill="none" stroke="black" d="M2583.4,-833.88C2592.91,-822.15 2606.6,-808.32 2622.38,-801.5 2716.48,-760.84 3455.77,-818.57 3544.38,-767 3568.41,-753.01 3585.61,-727.65 3597.25,-704.02"/>
<polygon fill="black" stroke="black" points="3600.38,-705.6 3601.42,-695.05 3594.03,-702.64 3600.38,-705.6"/>
<text xml:space="preserve" text-anchor="middle" x="3557.3" y="-778.2" font-family="Times,serif" font-size="14.00">mv(3),mv(2)</text>
</g>
<!-- X6a76753ce9618315_3 -->
<g id="node29" class="node">
<title>X6a76753ce9618315_3</title>
<polygon fill="none" stroke="black" points="2590.5,-666 2536.25,-666 2536.25,-630 2590.5,-630 2590.5,-666"/>
<text xml:space="preserve" text-anchor="start" x="2544.25" y="-642.95" font-family="Times,serif" font-size="14.00">Drop 1</text>
</g>
<!-- X6a76753ce9618315_0&#45;&gt;X6a76753ce9618315_3 -->
<g id="edge16" class="edge">
<title>X6a76753ce9618315_0&#45;&gt;X6a76753ce9618315_3</title>
<path fill="none" stroke="black" d="M2568.71,-833.85C2568.31,-821.63 2567.8,-805.66 2567.38,-791.5 2566.18,-751.89 2564.92,-706.08 2564.14,-677.32"/>
<polygon fill="black" stroke="black" points="2567.64,-677.52 2563.87,-667.62 2560.65,-677.71 2567.64,-677.52"/>
<text xml:space="preserve" text-anchor="middle" x="2589.88" y="-778.2" font-family="Times,serif" font-size="14.00">Cleanup</text>
</g>
<!-- X6a76753ce9618315_1 -->
<g id="node30" class="node">
<title>X6a76753ce9618315_1</title>
<polygon fill="none" stroke="black" points="2663.5,-666 2609.25,-666 2609.25,-630 2663.5,-630 2663.5,-666"/>
<text xml:space="preserve" text-anchor="start" x="2617.25" y="-642.95" font-family="Times,serif" font-size="14.00">Drop 1</text>
</g>
<!-- X6a76753ce9618315_0&#45;&gt;X6a76753ce9618315_1 -->
<g id="edge17" class="edge">
<title>X6a76753ce9618315_0&#45;&gt;X6a76753ce9618315_1</title>
<path fill="none" stroke="black" d="M2586.56,-833.76C2595.64,-822.15 2606.15,-806.83 2612.38,-791.5 2627.64,-753.91 2633.19,-706.94 2635.22,-677.45"/>
<polygon fill="black" stroke="black" points="2638.69,-678.02 2635.78,-667.84 2631.7,-677.62 2638.69,-678.02"/>
<text xml:space="preserve" text-anchor="middle" x="2621.09" y="-778.2" font-family="Times,serif" font-size="14.00">0</text>
</g>
<!-- node_13 -->
<g id="node28" class="node">
<title>node_13</title>
<polygon fill="#7ccd7c" stroke="#7ccd7c" points="3059.62,-900 2631.12,-900 2631.12,-809.5 3059.62,-809.5 3059.62,-900"/>
<text xml:space="preserve" text-anchor="start" x="2639.12" y="-882.7" font-family="Times,serif" font-size="14.00">LOCALS</text>
<text xml:space="preserve" text-anchor="start" x="2639.12" y="-866.2" font-family="Times,serif" font-size="14.00">0 = Int(I32)</text>
<text xml:space="preserve" text-anchor="start" x="2639.12" y="-849.7" font-family="Times,serif" font-size="14.00">1 = {closure@std::rt::lang_start&lt;()&gt;::{closure#0}}</text>
<text xml:space="preserve" text-anchor="start" x="2639.12" y="-833.2" font-family="Times,serif" font-size="14.00">2 = () (0 bytes, align 1)</text>
<text xml:space="preserve" text-anchor="start" x="2639.12" y="-816.7" font-family="Times,serif" font-size="14.00">3 = &amp;mut {closure@std::rt::lang_start&lt;()&gt;::{closure#0}} (8 bytes, align 8)</text>
</g>
<!-- X6a76753ce9618315_4 -->
<g id="node32" class="node">
<title>X6a76753ce9618315_4</title>
<polygon fill="none" stroke="black" points="2592.5,-434.5 2532.25,-434.5 2532.25,-398.5 2592.5,-398.5 2592.5,-434.5"/>
<text xml:space="preserve" text-anchor="start" x="2540.25" y="-411.45" font-family="Times,serif" font-size="14.00">Resume</text>
</g>
<!-- X6a76753ce9618315_3&#45;&gt;X6a76753ce9618315_4 -->
<g id="edge19" class="edge">
<title>X6a76753ce9618315_3&#45;&gt;X6a76753ce9618315_4</title>
<path fill="none" stroke="black" d="M2563.3,-629.75C2563.13,-590.62 2562.71,-494.8 2562.5,-446.43"/>
<polygon fill="black" stroke="black" points="2566,-446.45 2562.46,-436.46 2559,-446.48 2566,-446.45"/>
</g>
<!-- X6a76753ce9618315_2 -->
<g id="node31" class="node">
<title>X6a76753ce9618315_2</title>
<polygon fill="none" stroke="black" points="2664.38,-434.5 2610.38,-434.5 2610.38,-398.5 2664.38,-398.5 2664.38,-434.5"/>
<text xml:space="preserve" text-anchor="start" x="2618.38" y="-411.45" font-family="Times,serif" font-size="14.00">Return</text>
</g>
<!-- X6a76753ce9618315_1&#45;&gt;X6a76753ce9618315_2 -->
<g id="edge18" class="edge">
<title>X6a76753ce9618315_1&#45;&gt;X6a76753ce9618315_2</title>
<path fill="none" stroke="black" d="M2636.45,-629.75C2636.62,-590.62 2637.04,-494.8 2637.25,-446.43"/>
<polygon fill="black" stroke="black" points="2640.75,-446.48 2637.29,-436.46 2633.75,-446.45 2640.75,-446.48"/>
</g>
<!-- node_15 -->
<g id="node33" class="node">
<title>node_15</title>
<polygon fill="#7ccd7c" stroke="#7ccd7c" points="4803.5,-255 4659.25,-255 4659.25,-181 4803.5,-181 4803.5,-255"/>
<text xml:space="preserve" text-anchor="start" x="4667.25" y="-237.7" font-family="Times,serif" font-size="14.00">LOCALS</text>
<text xml:space="preserve" text-anchor="start" x="4667.25" y="-221.2" font-family="Times,serif" font-size="14.00">0 = () (0 bytes, align 1)</text>
<text xml:space="preserve" text-anchor="start" x="4667.25" y="-204.7" font-family="Times,serif" font-size="14.00">1 = fn()</text>
<text xml:space="preserve" text-anchor="start" x="4667.25" y="-188.2" font-family="Times,serif" font-size="14.00">2 = () (0 bytes, align 1)</text>
</g>
<!-- node_17 -->
<g id="node35" class="node">
<title>node_17</title>
<polygon fill="#7ccd7c" stroke="#7ccd7c" points="4302.38,-1156.25 3878.38,-1156.25 3878.38,-1098.75 4302.38,-1098.75 4302.38,-1156.25"/>
<text xml:space="preserve" text-anchor="start" x="3886.38" y="-1138.95" font-family="Times,serif" font-size="14.00">LOCALS</text>
<text xml:space="preserve" text-anchor="start" x="3886.38" y="-1122.45" font-family="Times,serif" font-size="14.00">0 = () (0 bytes, align 1)</text>
<text xml:space="preserve" text-anchor="start" x="3886.38" y="-1105.95" font-family="Times,serif" font-size="14.00">1 = *mut {closure@std::rt::lang_start&lt;()&gt;::{closure#0}} (8 bytes, align 8)</text>
</g>
<!-- X5171aa52f5bb14b2_0 -->
<g id="node36" class="node">
<title>X5171aa52f5bb14b2_0</title>
<polygon fill="none" stroke="black" points="4374.38,-1145.5 4320.38,-1145.5 4320.38,-1109.5 4374.38,-1109.5 4374.38,-1145.5"/>
<text xml:space="preserve" text-anchor="start" x="4328.38" y="-1122.45" font-family="Times,serif" font-size="14.00">Return</text>
</g>
<!-- node_19 -->
<g id="node37" class="node">
<title>node_19</title>
<polygon fill="#7ccd7c" stroke="#7ccd7c" points="4222.12,-246.75 3964.62,-246.75 3964.62,-189.25 4222.12,-189.25 4222.12,-246.75"/>
<text xml:space="preserve" text-anchor="start" x="3972.62" y="-229.45" font-family="Times,serif" font-size="14.00">LOCALS</text>
<text xml:space="preserve" text-anchor="start" x="3972.62" y="-212.95" font-family="Times,serif" font-size="14.00">0 = std::process::ExitCode (1 bytes, align 1)</text>
<text xml:space="preserve" text-anchor="start" x="3972.62" y="-196.45" font-family="Times,serif" font-size="14.00">1 = () (0 bytes, align 1)</text>
</g>
</g>
</svg>
