<?xml version="1.0" encoding="UTF-8" standalone="no"?>
<!DOCTYPE svg PUBLIC "-//W3C//DTD SVG 1.1//EN"
 "http://www.w3.org/Graphics/SVG/1.1/DTD/svg11.dtd">
<!-- Generated by graphviz version 14.1.1 (20251213.1925)
 -->
<!-- Pages: 1 -->
<svg width="4369pt" height="1279pt"
 viewBox="0.00 0.00 4369.00 1279.00" xmlns="http://www.w3.org/2000/svg" xmlns:xlink="http://www.w3.org/1999/xlink">
<g id="graph0" class="graph" transform="scale(1 1) rotate(0) translate(4 1275)">
<polygon fill="white" stroke="none" points="-4,4 -4,-1275 4364.88,-1275 4364.88,4 -4,4"/>
<text xml:space="preserve" text-anchor="middle" x="2180.44" y="-7.2" font-family="Times,serif" font-size="14.00">enum</text>
<g id="clust1" class="cluster">
<title>cluster_1</title>
<polygon fill="lightgray" stroke="lightgray" points="458.88,-801.5 458.88,-1246.5 1293.88,-1246.5 1293.88,-801.5 458.88,-801.5"/>
<text xml:space="preserve" text-anchor="middle" x="876.38" y="-1229.2" font-family="Times,serif" font-size="14.00">std::rt::lang_start::&lt;()&gt;</text>
</g>
<g id="clust2" class="cluster">
<title>cluster_3</title>
<polygon fill="lightgray" stroke="lightgray" points="2616.88,-123.5 2616.88,-767 3230.88,-767 3230.88,-123.5 2616.88,-123.5"/>
<text xml:space="preserve" text-anchor="middle" x="2923.88" y="-749.7" font-family="Times,serif" font-size="14.00">std::rt::lang_start::&lt;()&gt;</text>
<text xml:space="preserve" text-anchor="middle" x="2923.88" y="-733.2" font-family="Times,serif" font-size="14.00">::{closure#0}</text>
</g>
<g id="clust3" class="cluster">
<title>cluster_5</title>
<polygon fill="lightgray" stroke="lightgray" points="3779.88,-32.5 3779.88,-535.5 4011.88,-535.5 4011.88,-32.5 3779.88,-32.5"/>
<text xml:space="preserve" text-anchor="middle" x="3895.88" y="-518.2" font-family="Times,serif" font-size="14.00">std::sys::backtrace::__ru</text>
<text xml:space="preserve" text-anchor="middle" x="3895.88" y="-501.7" font-family="Times,serif" font-size="14.00">st_begin_short_backtrace:</text>
<text xml:space="preserve" text-anchor="middle" x="3895.88" y="-485.2" font-family="Times,serif" font-size="14.00">:&lt;fn(), </text>
<text xml:space="preserve" text-anchor="middle" x="3895.88" y="-468.7" font-family="Times,serif" font-size="14.00">()&gt;</text>
</g>
<g id="clust4" class="cluster">
<title>cluster_7</title>
<polygon fill="lightgray" stroke="lightgray" points="1539.88,-828.75 1539.88,-1263 2051.88,-1263 2051.88,-828.75 1539.88,-828.75"/>
<text xml:space="preserve" text-anchor="middle" x="1795.88" y="-1245.7" font-family="Times,serif" font-size="14.00">&lt;{closure@std::rt::lang_s</text>
<text xml:space="preserve" text-anchor="middle" x="1795.88" y="-1229.2" font-family="Times,serif" font-size="14.00">tart&lt;()&gt;::{closure#0}} </text>
<text xml:space="preserve" text-anchor="middle" x="1795.88" y="-1212.7" font-family="Times,serif" font-size="14.00">as </text>
<text xml:space="preserve" text-anchor="middle" x="1795.88" y="-1196.2" font-family="Times,serif" font-size="14.00">std::ops::FnOnce&lt;()&gt;&gt;::ca</text>
<text xml:space="preserve" text-anchor="middle" x="1795.88" y="-1179.7" font-family="Times,serif" font-size="14.00">ll_once</text>
</g>
<g id="clust5" class="cluster">
<title>cluster_9</title>
<polygon fill="lightgray" stroke="lightgray" points="2059.88,-390.5 2059.88,-998.5 2608.88,-998.5 2608.88,-390.5 2059.88,-390.5"/>
<text xml:space="preserve" text-anchor="middle" x="2334.38" y="-981.2" font-family="Times,serif" font-size="14.00">&lt;{closure@std::rt::lang_s</text>
<text xml:space="preserve" text-anchor="middle" x="2334.38" y="-964.7" font-family="Times,serif" font-size="14.00">tart&lt;()&gt;::{closure#0}} </text>
<text xml:space="preserve" text-anchor="middle" x="2334.38" y="-948.2" font-family="Times,serif" font-size="14.00">as </text>
<text xml:space="preserve" text-anchor="middle" x="2334.38" y="-931.7" font-family="Times,serif" font-size="14.00">std::ops::FnOnce&lt;()&gt;&gt;::ca</text>
<text xml:space="preserve" text-anchor="middle" x="2334.38" y="-915.2" font-family="Times,serif" font-size="14.00">ll_once</text>
</g>
<g id="clust6" class="cluster">
<title>cluster_11</title>
<polygon fill="lightgray" stroke="lightgray" points="4102.88,-32.5 4102.88,-337 4352.88,-337 4352.88,-32.5 4102.88,-32.5"/>
<text xml:space="preserve" text-anchor="middle" x="4227.88" y="-319.7" font-family="Times,serif" font-size="14.00">&lt;fn() </text>
<text xml:space="preserve" text-anchor="middle" x="4227.88" y="-303.2" font-family="Times,serif" font-size="14.00">as </text>
<text xml:space="preserve" text-anchor="middle" x="4227.88" y="-286.7" font-family="Times,serif" font-size="14.00">std::ops::FnOnce&lt;()&gt;&gt;::ca</text>
<text xml:space="preserve" text-anchor="middle" x="4227.88" y="-270.2" font-family="Times,serif" font-size="14.00">ll_once</text>
</g>
<g id="clust7" class="cluster">
<title>cluster_13</title>
<polygon fill="lightgray" stroke="lightgray" points="2796.88,-1090.75 2796.88,-1221.75 3308.88,-1221.75 3308.88,-1090.75 2796.88,-1090.75"/>
<text xml:space="preserve" text-anchor="middle" x="3052.88" y="-1204.45" font-family="Times,serif" font-size="14.00">std::ptr::drop_in_place::</text>
<text xml:space="preserve" text-anchor="middle" x="3052.88" y="-1187.95" font-family="Times,serif" font-size="14.00">&lt;{closure@std::rt::lang_s</text>
<text xml:space="preserve" text-anchor="middle" x="3052.88" y="-1171.45" font-family="Times,serif" font-size="14.00">tart&lt;()&gt;::{closure#0}}&gt;</text>
</g>
<g id="clust8" class="cluster">
<title>cluster_15</title>
<polygon fill="palegreen" stroke="palegreen" points="3684.88,-1090.75 3684.88,-1188.75 3982.88,-1188.75 3982.88,-1090.75 3684.88,-1090.75"/>
<text xml:space="preserve" text-anchor="middle" x="3833.88" y="-1171.45" font-family="Times,serif" font-size="14.00">main</text>
</g>
<g id="clust9" class="cluster">
<title>cluster_17</title>
<polygon fill="lightgray" stroke="lightgray" points="3238.88,-181.25 3238.88,-328.75 3771.88,-328.75 3771.88,-181.25 3238.88,-181.25"/>
<text xml:space="preserve" text-anchor="middle" x="3505.38" y="-311.45" font-family="Times,serif" font-size="14.00">&lt;() </text>
<text xml:space="preserve" text-anchor="middle" x="3505.38" y="-294.95" font-family="Times,serif" font-size="14.00">as </text>
<text xml:space="preserve" text-anchor="middle" x="3505.38" y="-278.45" font-family="Times,serif" font-size="14.00">std::process::Termination</text>
<text xml:space="preserve" text-anchor="middle" x="3505.38" y="-261.95" font-family="Times,serif" font-size="14.00">&gt;::report</text>
</g>
<!-- node_0 -->
<g id="node1" class="node">
<title>node_0</title>
<polygon fill="lavender" stroke="lavender" points="373.75,-1181 0,-1181 0,-1074 373.75,-1074 373.75,-1181"/>
<text xml:space="preserve" text-anchor="start" x="8" y="-1163.7" font-family="Times,serif" font-size="14.00">TYPES</text>
<text xml:space="preserve" text-anchor="start" x="8" y="-1147.2" font-family="Times,serif" font-size="14.00">() (0 bytes)</text>
<text xml:space="preserve" text-anchor="start" x="8" y="-1130.7" font-family="Times,serif" font-size="14.00">Letter (1 bytes)</text>
<text xml:space="preserve" text-anchor="start" x="8" y="-1114.2" font-family="Times,serif" font-size="14.00">std::process::ExitCode (1 bytes)</text>
<text xml:space="preserve" text-anchor="start" x="8" y="-1097.7" font-family="Times,serif" font-size="14.00">std::result::Result&lt;isize, !&gt; (8 bytes)</text>
<text xml:space="preserve" text-anchor="start" x="8" y="-1081.2" font-family="Times,serif" font-size="14.00">std::sys::pal::unix::process::process_common::ExitCode (1 bytes)</text>
</g>
<!-- X8b0ac2e54b9a91_0 -->
<g id="node2" class="node">
<title>X8b0ac2e54b9a91_0</title>
<polygon fill="none" stroke="red" points="448.12,-1145.5 391.62,-1145.5 391.62,-1109.5 448.12,-1109.5 448.12,-1145.5"/>
<text xml:space="preserve" text-anchor="middle" x="419.88" y="-1122.45" font-family="Times,serif" font-size="14.00">NoOp: </text>
</g>
<!-- X5eb86185c1cf8f06_0 -->
<g id="node3" class="node">
<title>X5eb86185c1cf8f06_0</title>
<polygon fill="none" stroke="red" points="1469.62,-883.5 1302.12,-883.5 1302.12,-826 1469.62,-826 1469.62,-883.5"/>
<text xml:space="preserve" text-anchor="middle" x="1385.88" y="-866.2" font-family="Times,serif" font-size="14.00">_ZN3std2rt19lang_start_in</text>
<text xml:space="preserve" text-anchor="middle" x="1385.88" y="-849.7" font-family="Times,serif" font-size="14.00">ternal17h035df9ff6960926a</text>
<text xml:space="preserve" text-anchor="middle" x="1385.88" y="-833.2" font-family="Times,serif" font-size="14.00">E</text>
</g>
<!-- X3c6542d96320ad67_0 -->
<g id="node4" class="node">
<title>X3c6542d96320ad67_0</title>
<polygon fill="none" stroke="red" points="4092,-79 4019.75,-79 4019.75,-38 4092,-38 4092,-79"/>
<text xml:space="preserve" text-anchor="middle" x="4055.88" y="-61.7" font-family="Times,serif" font-size="14.00">Intr: </text>
<text xml:space="preserve" text-anchor="middle" x="4055.88" y="-45.2" font-family="Times,serif" font-size="14.00">black_box</text>
</g>
<!-- node_2 -->
<g id="node5" class="node">
<title>node_2</title>
<polygon fill="#7ccd7c" stroke="#7ccd7c" points="1029.25,-1214 466.5,-1214 466.5,-1041 1029.25,-1041 1029.25,-1214"/>
<text xml:space="preserve" text-anchor="start" x="474.5" y="-1196.7" font-family="Times,serif" font-size="14.00">LOCALS</text>
<text xml:space="preserve" text-anchor="start" x="474.5" y="-1180.2" font-family="Times,serif" font-size="14.00">0 = Int(Isize)</text>
<text xml:space="preserve" text-anchor="start" x="474.5" y="-1163.7" font-family="Times,serif" font-size="14.00">1 = fn()</text>
<text xml:space="preserve" text-anchor="start" x="474.5" y="-1147.2" font-family="Times,serif" font-size="14.00">2 = Int(Isize)</text>
<text xml:space="preserve" text-anchor="start" x="474.5" y="-1130.7" font-family="Times,serif" font-size="14.00">3 = *const *const u8 (8 bytes, align 8)</text>
<text xml:space="preserve" text-anchor="start" x="474.5" y="-1114.2" font-family="Times,serif" font-size="14.00">4 = Uint(U8)</text>
<text xml:space="preserve" text-anchor="start" x="474.5" y="-1097.7" font-family="Times,serif" font-size="14.00">5 = std::result::Result&lt;isize, !&gt; (8 bytes, align 8)</text>
<text xml:space="preserve" text-anchor="start" x="474.5" y="-1081.2" font-family="Times,serif" font-size="14.00">6 = &amp;dyn std::ops::Fn() &#45;&gt; i32 + std::marker::Sync + std::panic::RefUnwindSafe (16 bytes, align 8)</text>
<text xml:space="preserve" text-anchor="start" x="474.5" y="-1064.7" font-family="Times,serif" font-size="14.00">7 = &amp;{closure@std::rt::lang_start&lt;()&gt;::{closure#0}} (8 bytes, align 8)</text>
<text xml:space="preserve" text-anchor="start" x="474.5" y="-1048.2" font-family="Times,serif" font-size="14.00">8 = {closure@std::rt::lang_start&lt;()&gt;::{closure#0}}</text>
</g>
<!-- X2766fb7306c89426_0 -->
<g id="node6" class="node">
<title>X2766fb7306c89426_0</title>
<polygon fill="none" stroke="black" points="1286.25,-1189.25 1047.5,-1189.25 1047.5,-1065.75 1286.25,-1065.75 1286.25,-1189.25"/>
<text xml:space="preserve" text-anchor="start" x="1055.5" y="-1171.95" font-family="Times,serif" font-size="14.00">Storage Live _5</text>
<text xml:space="preserve" text-anchor="start" x="1055.5" y="-1155.45" font-family="Times,serif" font-size="14.00">Storage Live _6</text>
<text xml:space="preserve" text-anchor="start" x="1055.5" y="-1138.95" font-family="Times,serif" font-size="14.00">Storage Live _8</text>
<text xml:space="preserve" text-anchor="start" x="1055.5" y="-1122.45" font-family="Times,serif" font-size="14.00">8 &lt;&#45; Closure (cp(1))</text>
<text xml:space="preserve" text-anchor="start" x="1055.5" y="-1105.95" font-family="Times,serif" font-size="14.00">7 &lt;&#45; &amp; 8</text>
<text xml:space="preserve" text-anchor="start" x="1055.5" y="-1089.45" font-family="Times,serif" font-size="14.00">6 &lt;&#45; Cast&#45;PointerCoercion(Unsize) cp(7)</text>
<text xml:space="preserve" text-anchor="start" x="1055.5" y="-1072.95" font-family="Times,serif" font-size="14.00">Call</text>
</g>
<!-- X2766fb7306c89426_0&#45;&gt;X5eb86185c1cf8f06_0 -->
<g id="edge2" class="edge">
<title>X2766fb7306c89426_0&#45;&gt;X5eb86185c1cf8f06_0</title>
<path fill="none" stroke="black" d="M1235.77,-1065.31C1256.82,-1045.05 1279.3,-1021.72 1297.88,-998.5 1324.39,-965.35 1349.25,-923.65 1365.74,-893.9"/>
<polygon fill="black" stroke="black" points="1368.75,-895.69 1370.48,-885.24 1362.61,-892.33 1368.75,-895.69"/>
<text xml:space="preserve" text-anchor="middle" x="1361.55" y="-1009.7" font-family="Times,serif" font-size="14.00">mv(6),mv(2),mv(3),mv(4)</text>
</g>
<!-- X2766fb7306c89426_1 -->
<g id="node7" class="node">
<title>X2766fb7306c89426_1</title>
<polygon fill="none" stroke="black" points="1260.75,-900 1073,-900 1073,-809.5 1260.75,-809.5 1260.75,-900"/>
<text xml:space="preserve" text-anchor="start" x="1081" y="-882.7" font-family="Times,serif" font-size="14.00">Storage Dead _6</text>
<text xml:space="preserve" text-anchor="start" x="1081" y="-866.2" font-family="Times,serif" font-size="14.00">0 &lt;&#45; Use(cp((5 as variant 0).0))</text>
<text xml:space="preserve" text-anchor="start" x="1081" y="-849.7" font-family="Times,serif" font-size="14.00">Storage Dead _8</text>
<text xml:space="preserve" text-anchor="start" x="1081" y="-833.2" font-family="Times,serif" font-size="14.00">Storage Dead _5</text>
<text xml:space="preserve" text-anchor="start" x="1081" y="-816.7" font-family="Times,serif" font-size="14.00">Return</text>
</g>
<!-- X2766fb7306c89426_0&#45;&gt;X2766fb7306c89426_1 -->
<g id="edge1" class="edge">
<title>X2766fb7306c89426_0&#45;&gt;X2766fb7306c89426_1</title>
<path fill="none" stroke="black" d="M1166.88,-1065.4C1166.88,-1019.2 1166.88,-956.29 1166.88,-911.46"/>
<polygon fill="black" stroke="black" points="1170.38,-911.7 1166.88,-901.7 1163.38,-911.7 1170.38,-911.7"/>
<text xml:space="preserve" text-anchor="middle" x="1170.25" y="-1009.7" font-family="Times,serif" font-size="14.00">5</text>
</g>
<!-- node_4 -->
<g id="node8" class="node">
<title>node_4</title>
<polygon fill="#7ccd7c" stroke="#7ccd7c" points="3077.12,-718 2624.62,-718 2624.62,-578 3077.12,-578 3077.12,-718"/>
<text xml:space="preserve" text-anchor="start" x="2632.62" y="-700.7" font-family="Times,serif" font-size="14.00">LOCALS</text>
<text xml:space="preserve" text-anchor="start" x="2632.62" y="-684.2" font-family="Times,serif" font-size="14.00">0 = Int(I32)</text>
<text xml:space="preserve" text-anchor="start" x="2632.62" y="-667.7" font-family="Times,serif" font-size="14.00">1 = &amp;{closure@std::rt::lang_start&lt;()&gt;::{closure#0}} (8 bytes, align 8)</text>
<text xml:space="preserve" text-anchor="start" x="2632.62" y="-651.2" font-family="Times,serif" font-size="14.00">2 = std::process::ExitCode (1 bytes, align 1)</text>
<text xml:space="preserve" text-anchor="start" x="2632.62" y="-634.7" font-family="Times,serif" font-size="14.00">3 = () (0 bytes, align 1)</text>
<text xml:space="preserve" text-anchor="start" x="2632.62" y="-618.2" font-family="Times,serif" font-size="14.00">4 = fn()</text>
<text xml:space="preserve" text-anchor="start" x="2632.62" y="-601.7" font-family="Times,serif" font-size="14.00">5 = &amp;std::sys::pal::unix::process::process_common::ExitCode (8 bytes, align 8)</text>
<text xml:space="preserve" text-anchor="start" x="2632.62" y="-585.2" font-family="Times,serif" font-size="14.00">6 = Uint(U8)</text>
</g>
<!-- X934b5c64735659a6_0 -->
<g id="node9" class="node">
<title>X934b5c64735659a6_0</title>
<polygon fill="none" stroke="black" points="3222.75,-693.25 3095,-693.25 3095,-602.75 3222.75,-602.75 3222.75,-693.25"/>
<text xml:space="preserve" text-anchor="start" x="3103" y="-675.95" font-family="Times,serif" font-size="14.00">Storage Live _2</text>
<text xml:space="preserve" text-anchor="start" x="3103" y="-659.45" font-family="Times,serif" font-size="14.00">Storage Live _3</text>
<text xml:space="preserve" text-anchor="start" x="3103" y="-642.95" font-family="Times,serif" font-size="14.00">Storage Live _4</text>
<text xml:space="preserve" text-anchor="start" x="3103" y="-626.45" font-family="Times,serif" font-size="14.00">4 &lt;&#45; Use(cp((*1).0))</text>
<text xml:space="preserve" text-anchor="start" x="3103" y="-609.95" font-family="Times,serif" font-size="14.00">Call</text>
</g>
<!-- X934b5c64735659a6_1 -->
<g id="node10" class="node">
<title>X934b5c64735659a6_1</title>
<polygon fill="none" stroke="black" points="3212.25,-437 3105.5,-437 3105.5,-396 3212.25,-396 3212.25,-437"/>
<text xml:space="preserve" text-anchor="start" x="3113.5" y="-419.7" font-family="Times,serif" font-size="14.00">Storage Dead _4</text>
<text xml:space="preserve" text-anchor="start" x="3113.5" y="-403.2" font-family="Times,serif" font-size="14.00">Call</text>
</g>
<!-- X934b5c64735659a6_0&#45;&gt;X934b5c64735659a6_1 -->
<g id="edge3" class="edge">
<title>X934b5c64735659a6_0&#45;&gt;X934b5c64735659a6_1</title>
<path fill="none" stroke="black" d="M3158.88,-602.48C3158.88,-557.23 3158.88,-488.32 3158.88,-448.63"/>
<polygon fill="black" stroke="black" points="3162.38,-448.82 3158.88,-438.82 3155.38,-448.82 3162.38,-448.82"/>
<text xml:space="preserve" text-anchor="middle" x="3162.25" y="-546.7" font-family="Times,serif" font-size="14.00">3</text>
</g>
<!-- X990bccf15e539f5_0 -->
<g id="node12" class="node">
<title>X990bccf15e539f5_0</title>
<polygon fill="none" stroke="black" points="3841.88,-434.5 3787.88,-434.5 3787.88,-398.5 3841.88,-398.5 3841.88,-434.5"/>
<text xml:space="preserve" text-anchor="start" x="3795.88" y="-411.45" font-family="Times,serif" font-size="14.00">Call</text>
</g>
<!-- X934b5c64735659a6_0&#45;&gt;X990bccf15e539f5_0 -->
<g id="edge5" class="edge">
<title>X934b5c64735659a6_0&#45;&gt;X990bccf15e539f5_0</title>
<path fill="none" stroke="black" d="M3222.97,-624.58C3358.11,-577.3 3668.7,-468.64 3776.88,-430.79"/>
<polygon fill="black" stroke="black" points="3777.88,-434.15 3786.16,-427.55 3775.57,-427.54 3777.88,-434.15"/>
<text xml:space="preserve" text-anchor="middle" x="3464.47" y="-546.7" font-family="Times,serif" font-size="14.00">mv(4)</text>
</g>
<!-- X934b5c64735659a6_2 -->
<g id="node11" class="node">
<title>X934b5c64735659a6_2</title>
<polygon fill="none" stroke="black" points="3222.88,-304.5 3068.88,-304.5 3068.88,-131.5 3222.88,-131.5 3222.88,-304.5"/>
<text xml:space="preserve" text-anchor="start" x="3076.88" y="-287.2" font-family="Times,serif" font-size="14.00">Storage Dead _3</text>
<text xml:space="preserve" text-anchor="start" x="3076.88" y="-270.7" font-family="Times,serif" font-size="14.00">Storage Live _5</text>
<text xml:space="preserve" text-anchor="start" x="3076.88" y="-254.2" font-family="Times,serif" font-size="14.00">5 &lt;&#45; &amp; 2.0</text>
<text xml:space="preserve" text-anchor="start" x="3076.88" y="-237.7" font-family="Times,serif" font-size="14.00">Storage Live _6</text>
<text xml:space="preserve" text-anchor="start" x="3076.88" y="-221.2" font-family="Times,serif" font-size="14.00">6 &lt;&#45; Use(cp(2.0.0))</text>
<text xml:space="preserve" text-anchor="start" x="3076.88" y="-204.7" font-family="Times,serif" font-size="14.00">0 &lt;&#45; Cast&#45;IntToInt mv(6)</text>
<text xml:space="preserve" text-anchor="start" x="3076.88" y="-188.2" font-family="Times,serif" font-size="14.00">Storage Dead _6</text>
<text xml:space="preserve" text-anchor="start" x="3076.88" y="-171.7" font-family="Times,serif" font-size="14.00">Storage Dead _5</text>
<text xml:space="preserve" text-anchor="start" x="3076.88" y="-155.2" font-family="Times,serif" font-size="14.00">Storage Dead _2</text>
<text xml:space="preserve" text-anchor="start" x="3076.88" y="-138.7" font-family="Times,serif" font-size="14.00">Return</text>
</g>
<!-- X934b5c64735659a6_1&#45;&gt;X934b5c64735659a6_2 -->
<g id="edge4" class="edge">
<title>X934b5c64735659a6_1&#45;&gt;X934b5c64735659a6_2</title>
<path fill="none" stroke="black" d="M3157.56,-395.58C3156.3,-376.54 3154.3,-346.38 3152.31,-316.33"/>
<polygon fill="black" stroke="black" points="3155.81,-316.1 3151.65,-306.35 3148.82,-316.56 3155.81,-316.1"/>
<text xml:space="preserve" text-anchor="middle" x="3158.41" y="-348.2" font-family="Times,serif" font-size="14.00">2</text>
</g>
<!-- X8b478d290a7104f6_0 -->
<g id="node13" class="node">
<title>X8b478d290a7104f6_0</title>
<polygon fill="none" stroke="black" points="3488.38,-238.5 3247.38,-238.5 3247.38,-197.5 3488.38,-197.5 3488.38,-238.5"/>
<text xml:space="preserve" text-anchor="start" x="3255.38" y="-221.2" font-family="Times,serif" font-size="14.00">0 &lt;&#45; Use(const 0_std::process::ExitCode)</text>
<text xml:space="preserve" text-anchor="start" x="3255.38" y="-204.7" font-family="Times,serif" font-size="14.00">Return</text>
</g>
<!-- X934b5c64735659a6_1&#45;&gt;X8b478d290a7104f6_0 -->
<g id="edge6" class="edge">
<title>X934b5c64735659a6_1&#45;&gt;X8b478d290a7104f6_0</title>
<path fill="none" stroke="black" d="M3180.07,-395.58C3217.54,-360.34 3295.58,-286.97 3338.32,-246.78"/>
<polygon fill="black" stroke="black" points="3340.64,-249.41 3345.53,-240.01 3335.84,-244.31 3340.64,-249.41"/>
<text xml:space="preserve" text-anchor="middle" x="3249.32" y="-348.2" font-family="Times,serif" font-size="14.00">mv(3)</text>
</g>
<!-- X990bccf15e539f5_1 -->
<g id="node15" class="node">
<title>X990bccf15e539f5_1</title>
<polygon fill="none" stroke="black" points="3921.88,-236 3867.88,-236 3867.88,-200 3921.88,-200 3921.88,-236"/>
<text xml:space="preserve" text-anchor="start" x="3875.88" y="-212.95" font-family="Times,serif" font-size="14.00">Call</text>
</g>
<!-- X990bccf15e539f5_0&#45;&gt;X990bccf15e539f5_1 -->
<g id="edge7" class="edge">
<title>X990bccf15e539f5_0&#45;&gt;X990bccf15e539f5_1</title>
<path fill="none" stroke="black" d="M3821.97,-398.06C3835.85,-363.98 3866.68,-288.26 3883.46,-247.05"/>
<polygon fill="black" stroke="black" points="3886.69,-248.38 3887.22,-237.8 3880.21,-245.74 3886.69,-248.38"/>
<text xml:space="preserve" text-anchor="middle" x="3846.41" y="-348.2" font-family="Times,serif" font-size="14.00">0</text>
</g>
<!-- Xf6c8ad22a431133f_0 -->
<g id="node17" class="node">
<title>Xf6c8ad22a431133f_0</title>
<polygon fill="none" stroke="black" points="4164.88,-236 4110.88,-236 4110.88,-200 4164.88,-200 4164.88,-236"/>
<text xml:space="preserve" text-anchor="start" x="4118.88" y="-212.95" font-family="Times,serif" font-size="14.00">Call</text>
</g>
<!-- X990bccf15e539f5_0&#45;&gt;Xf6c8ad22a431133f_0 -->
<g id="edge9" class="edge">
<title>X990bccf15e539f5_0&#45;&gt;Xf6c8ad22a431133f_0</title>
<path fill="none" stroke="black" d="M3828.75,-398.06C3834.88,-391.38 3842.58,-384.23 3850.88,-379.5 3916.64,-341.96 3949.8,-374 4015.88,-337 4057.73,-313.56 4095.69,-272.21 4117.78,-245.21"/>
<polygon fill="black" stroke="black" points="4120.45,-247.48 4123.97,-237.49 4114.98,-243.11 4120.45,-247.48"/>
<text xml:space="preserve" text-anchor="middle" x="4036.35" y="-348.2" font-family="Times,serif" font-size="14.00">mv(1),const ()</text>
</g>
<!-- node_6 -->
<g id="node14" class="node">
<title>node_6</title>
<polygon fill="#7ccd7c" stroke="#7ccd7c" points="4004,-453.5 3859.75,-453.5 3859.75,-379.5 4004,-379.5 4004,-453.5"/>
<text xml:space="preserve" text-anchor="start" x="3867.75" y="-436.2" font-family="Times,serif" font-size="14.00">LOCALS</text>
<text xml:space="preserve" text-anchor="start" x="3867.75" y="-419.7" font-family="Times,serif" font-size="14.00">0 = () (0 bytes, align 1)</text>
<text xml:space="preserve" text-anchor="start" x="3867.75" y="-403.2" font-family="Times,serif" font-size="14.00">1 = fn()</text>
<text xml:space="preserve" text-anchor="start" x="3867.75" y="-386.7" font-family="Times,serif" font-size="14.00">2 = () (0 bytes, align 1)</text>
</g>
<!-- X990bccf15e539f5_1&#45;&gt;X3c6542d96320ad67_0 -->
<g id="edge10" class="edge">
<title>X990bccf15e539f5_1&#45;&gt;X3c6542d96320ad67_0</title>
<path fill="none" stroke="black" d="M3912.72,-199.54C3940.57,-172.3 3994.61,-119.44 4027.74,-87.03"/>
<polygon fill="black" stroke="black" points="4029.9,-89.81 4034.6,-80.31 4025,-84.8 4029.9,-89.81"/>
<text xml:space="preserve" text-anchor="middle" x="4037.59" y="-100.2" font-family="Times,serif" font-size="14.00">const ()</text>
</g>
<!-- X990bccf15e539f5_2 -->
<g id="node16" class="node">
<title>X990bccf15e539f5_2</title>
<polygon fill="none" stroke="black" points="3921.88,-76.5 3867.88,-76.5 3867.88,-40.5 3921.88,-40.5 3921.88,-76.5"/>
<text xml:space="preserve" text-anchor="start" x="3875.88" y="-53.45" font-family="Times,serif" font-size="14.00">Return</text>
</g>
<!-- X990bccf15e539f5_1&#45;&gt;X990bccf15e539f5_2 -->
<g id="edge8" class="edge">
<title>X990bccf15e539f5_1&#45;&gt;X990bccf15e539f5_2</title>
<path fill="none" stroke="black" d="M3894.88,-199.54C3894.88,-172.56 3894.88,-120.44 3894.88,-87.95"/>
<polygon fill="black" stroke="black" points="3898.38,-88.07 3894.88,-78.07 3891.38,-88.07 3898.38,-88.07"/>
<text xml:space="preserve" text-anchor="middle" x="3898.25" y="-100.2" font-family="Times,serif" font-size="14.00">2</text>
</g>
<!-- Xf6c8ad22a431133f_0&#45;&gt;Xf6c8ad22a431133f_0 -->
<g id="edge19" class="edge">
<title>Xf6c8ad22a431133f_0&#45;&gt;Xf6c8ad22a431133f_0:1</title>
<path fill="none" stroke="black" d="M4155.43,-236.41C4169.02,-243.3 4182.88,-237.16 4182.88,-218 4182.88,-204.08 4175.56,-197.03 4166.35,-196.86"/>
<polygon fill="black" stroke="black" points="4165.75,-193.4 4156.9,-199.22 4167.45,-200.2 4165.75,-193.4"/>
</g>
<!-- Xf6c8ad22a431133f_1 -->
<g id="node28" class="node">
<title>Xf6c8ad22a431133f_1</title>
<polygon fill="none" stroke="black" points="4164.88,-76.5 4110.88,-76.5 4110.88,-40.5 4164.88,-40.5 4164.88,-76.5"/>
<text xml:space="preserve" text-anchor="start" x="4118.88" y="-53.45" font-family="Times,serif" font-size="14.00">Return</text>
</g>
<!-- Xf6c8ad22a431133f_0&#45;&gt;Xf6c8ad22a431133f_1 -->
<g id="edge18" class="edge">
<title>Xf6c8ad22a431133f_0&#45;&gt;Xf6c8ad22a431133f_1</title>
<path fill="none" stroke="black" d="M4137.88,-199.54C4137.88,-172.56 4137.88,-120.44 4137.88,-87.95"/>
<polygon fill="black" stroke="black" points="4141.38,-88.07 4137.88,-78.07 4134.38,-88.07 4141.38,-88.07"/>
<text xml:space="preserve" text-anchor="middle" x="4141.25" y="-100.2" font-family="Times,serif" font-size="14.00">0</text>
</g>
<!-- node_8 -->
<g id="node18" class="node">
<title>node_8</title>
<polygon fill="#7ccd7c" stroke="#7ccd7c" points="1971.88,-1164.5 1547.88,-1164.5 1547.88,-1090.5 1971.88,-1090.5 1971.88,-1164.5"/>
<text xml:space="preserve" text-anchor="start" x="1555.88" y="-1147.2" font-family="Times,serif" font-size="14.00">LOCALS</text>
<text xml:space="preserve" text-anchor="start" x="1555.88" y="-1130.7" font-family="Times,serif" font-size="14.00">0 = Int(I32)</text>
<text xml:space="preserve" text-anchor="start" x="1555.88" y="-1114.2" font-family="Times,serif" font-size="14.00">1 = *mut {closure@std::rt::lang_start&lt;()&gt;::{closure#0}} (8 bytes, align 8)</text>
<text xml:space="preserve" text-anchor="start" x="1555.88" y="-1097.7" font-family="Times,serif" font-size="14.00">2 = () (0 bytes, align 1)</text>
</g>
<!-- X9ffb852f42bb5a29_0 -->
<g id="node19" class="node">
<title>X9ffb852f42bb5a29_0</title>
<polygon fill="none" stroke="black" points="2043.88,-1145.5 1989.88,-1145.5 1989.88,-1109.5 2043.88,-1109.5 2043.88,-1145.5"/>
<text xml:space="preserve" text-anchor="start" x="1997.88" y="-1122.45" font-family="Times,serif" font-size="14.00">Call</text>
</g>
<!-- X9ffb852f42bb5a29_1 -->
<g id="node20" class="node">
<title>X9ffb852f42bb5a29_1</title>
<polygon fill="none" stroke="black" points="2043.88,-872.75 1989.88,-872.75 1989.88,-836.75 2043.88,-836.75 2043.88,-872.75"/>
<text xml:space="preserve" text-anchor="start" x="1997.88" y="-849.7" font-family="Times,serif" font-size="14.00">Return</text>
</g>
<!-- X9ffb852f42bb5a29_0&#45;&gt;X9ffb852f42bb5a29_1 -->
<g id="edge11" class="edge">
<title>X9ffb852f42bb5a29_0&#45;&gt;X9ffb852f42bb5a29_1</title>
<path fill="none" stroke="black" d="M2016.88,-1109.15C2016.88,-1063.59 2016.88,-940.21 2016.88,-884.15"/>
<polygon fill="black" stroke="black" points="2020.38,-884.47 2016.88,-874.47 2013.38,-884.47 2020.38,-884.47"/>
<text xml:space="preserve" text-anchor="middle" x="2020.25" y="-1009.7" font-family="Times,serif" font-size="14.00">0</text>
</g>
<!-- X5acb1dd7ca85b461_0 -->
<g id="node21" class="node">
<title>X5acb1dd7ca85b461_0</title>
<polygon fill="none" stroke="black" points="2154.12,-875.25 2067.62,-875.25 2067.62,-834.25 2154.12,-834.25 2154.12,-875.25"/>
<text xml:space="preserve" text-anchor="start" x="2075.62" y="-857.95" font-family="Times,serif" font-size="14.00">3 &lt;&#45; &amp;mut 1</text>
<text xml:space="preserve" text-anchor="start" x="2075.62" y="-841.45" font-family="Times,serif" font-size="14.00">Call</text>
</g>
<!-- X9ffb852f42bb5a29_0&#45;&gt;X5acb1dd7ca85b461_0 -->
<g id="edge12" class="edge">
<title>X9ffb852f42bb5a29_0&#45;&gt;X5acb1dd7ca85b461_0</title>
<path fill="none" stroke="black" d="M2022.9,-1109.15C2038.52,-1064.16 2080.48,-943.3 2100.27,-886.3"/>
<polygon fill="black" stroke="black" points="2103.56,-887.5 2103.53,-876.9 2096.95,-885.2 2103.56,-887.5"/>
<text xml:space="preserve" text-anchor="middle" x="2101.75" y="-1009.7" font-family="Times,serif" font-size="14.00">mv((*1)),mv(2)</text>
</g>
<!-- X5acb1dd7ca85b461_0&#45;&gt;X934b5c64735659a6_0 -->
<g id="edge17" class="edge">
<title>X5acb1dd7ca85b461_0&#45;&gt;X934b5c64735659a6_0</title>
<path fill="none" stroke="black" d="M2124.9,-833.88C2134.41,-822.15 2148.1,-808.32 2163.88,-801.5 2257.98,-760.84 2997.27,-818.57 3085.88,-767 3109.91,-753.01 3127.11,-727.65 3138.75,-704.02"/>
<polygon fill="black" stroke="black" points="3141.88,-705.6 3142.92,-695.05 3135.53,-702.64 3141.88,-705.6"/>
<text xml:space="preserve" text-anchor="middle" x="3098.8" y="-778.2" font-family="Times,serif" font-size="14.00">mv(3),mv(2)</text>
</g>
<!-- X5acb1dd7ca85b461_3 -->
<g id="node23" class="node">
<title>X5acb1dd7ca85b461_3</title>
<polygon fill="none" stroke="black" points="2132,-666 2077.75,-666 2077.75,-630 2132,-630 2132,-666"/>
<text xml:space="preserve" text-anchor="start" x="2085.75" y="-642.95" font-family="Times,serif" font-size="14.00">Drop 1</text>
</g>
<!-- X5acb1dd7ca85b461_0&#45;&gt;X5acb1dd7ca85b461_3 -->
<g id="edge13" class="edge">
<title>X5acb1dd7ca85b461_0&#45;&gt;X5acb1dd7ca85b461_3</title>
<path fill="none" stroke="black" d="M2110.21,-833.85C2109.81,-821.63 2109.3,-805.66 2108.88,-791.5 2107.68,-751.89 2106.42,-706.08 2105.64,-677.32"/>
<polygon fill="black" stroke="black" points="2109.14,-677.52 2105.37,-667.62 2102.15,-677.71 2109.14,-677.52"/>
<text xml:space="preserve" text-anchor="middle" x="2131.38" y="-778.2" font-family="Times,serif" font-size="14.00">Cleanup</text>
</g>
<!-- X5acb1dd7ca85b461_1 -->
<g id="node24" class="node">
<title>X5acb1dd7ca85b461_1</title>
<polygon fill="none" stroke="black" points="2205,-666 2150.75,-666 2150.75,-630 2205,-630 2205,-666"/>
<text xml:space="preserve" text-anchor="start" x="2158.75" y="-642.95" font-family="Times,serif" font-size="14.00">Drop 1</text>
</g>
<!-- X5acb1dd7ca85b461_0&#45;&gt;X5acb1dd7ca85b461_1 -->
<g id="edge14" class="edge">
<title>X5acb1dd7ca85b461_0&#45;&gt;X5acb1dd7ca85b461_1</title>
<path fill="none" stroke="black" d="M2128.06,-833.76C2137.14,-822.15 2147.65,-806.83 2153.88,-791.5 2169.14,-753.91 2174.69,-706.94 2176.72,-677.45"/>
<polygon fill="black" stroke="black" points="2180.19,-678.02 2177.28,-667.84 2173.2,-677.62 2180.19,-678.02"/>
<text xml:space="preserve" text-anchor="middle" x="2162.59" y="-778.2" font-family="Times,serif" font-size="14.00">0</text>
</g>
<!-- node_10 -->
<g id="node22" class="node">
<title>node_10</title>
<polygon fill="#7ccd7c" stroke="#7ccd7c" points="2601.12,-900 2172.62,-900 2172.62,-809.5 2601.12,-809.5 2601.12,-900"/>
<text xml:space="preserve" text-anchor="start" x="2180.62" y="-882.7" font-family="Times,serif" font-size="14.00">LOCALS</text>
<text xml:space="preserve" text-anchor="start" x="2180.62" y="-866.2" font-family="Times,serif" font-size="14.00">0 = Int(I32)</text>
<text xml:space="preserve" text-anchor="start" x="2180.62" y="-849.7" font-family="Times,serif" font-size="14.00">1 = {closure@std::rt::lang_start&lt;()&gt;::{closure#0}}</text>
<text xml:space="preserve" text-anchor="start" x="2180.62" y="-833.2" font-family="Times,serif" font-size="14.00">2 = () (0 bytes, align 1)</text>
<text xml:space="preserve" text-anchor="start" x="2180.62" y="-816.7" font-family="Times,serif" font-size="14.00">3 = &amp;mut {closure@std::rt::lang_start&lt;()&gt;::{closure#0}} (8 bytes, align 8)</text>
</g>
<!-- X5acb1dd7ca85b461_4 -->
<g id="node26" class="node">
<title>X5acb1dd7ca85b461_4</title>
<polygon fill="none" stroke="black" points="2134,-434.5 2073.75,-434.5 2073.75,-398.5 2134,-398.5 2134,-434.5"/>
<text xml:space="preserve" text-anchor="start" x="2081.75" y="-411.45" font-family="Times,serif" font-size="14.00">Resume</text>
</g>
<!-- X5acb1dd7ca85b461_3&#45;&gt;X5acb1dd7ca85b461_4 -->
<g id="edge16" class="edge">
<title>X5acb1dd7ca85b461_3&#45;&gt;X5acb1dd7ca85b461_4</title>
<path fill="none" stroke="black" d="M2104.8,-629.75C2104.63,-590.62 2104.21,-494.8 2104,-446.43"/>
<polygon fill="black" stroke="black" points="2107.5,-446.45 2103.96,-436.46 2100.5,-446.48 2107.5,-446.45"/>
</g>
<!-- X5acb1dd7ca85b461_2 -->
<g id="node25" class="node">
<title>X5acb1dd7ca85b461_2</title>
<polygon fill="none" stroke="black" points="2205.88,-434.5 2151.88,-434.5 2151.88,-398.5 2205.88,-398.5 2205.88,-434.5"/>
<text xml:space="preserve" text-anchor="start" x="2159.88" y="-411.45" font-family="Times,serif" font-size="14.00">Return</text>
</g>
<!-- X5acb1dd7ca85b461_1&#45;&gt;X5acb1dd7ca85b461_2 -->
<g id="edge15" class="edge">
<title>X5acb1dd7ca85b461_1&#45;&gt;X5acb1dd7ca85b461_2</title>
<path fill="none" stroke="black" d="M2177.95,-629.75C2178.12,-590.62 2178.54,-494.8 2178.75,-446.43"/>
<polygon fill="black" stroke="black" points="2182.25,-446.48 2178.79,-436.46 2175.25,-446.45 2182.25,-446.48"/>
</g>
<!-- node_12 -->
<g id="node27" class="node">
<title>node_12</title>
<polygon fill="#7ccd7c" stroke="#7ccd7c" points="4345,-255 4200.75,-255 4200.75,-181 4345,-181 4345,-255"/>
<text xml:space="preserve" text-anchor="start" x="4208.75" y="-237.7" font-family="Times,serif" font-size="14.00">LOCALS</text>
<text xml:space="preserve" text-anchor="start" x="4208.75" y="-221.2" font-family="Times,serif" font-size="14.00">0 = () (0 bytes, align 1)</text>
<text xml:space="preserve" text-anchor="start" x="4208.75" y="-204.7" font-family="Times,serif" font-size="14.00">1 = fn()</text>
<text xml:space="preserve" text-anchor="start" x="4208.75" y="-188.2" font-family="Times,serif" font-size="14.00">2 = () (0 bytes, align 1)</text>
</g>
<!-- node_14 -->
<g id="node29" class="node">
<title>node_14</title>
<polygon fill="#7ccd7c" stroke="#7ccd7c" points="3228.88,-1156.25 2804.88,-1156.25 2804.88,-1098.75 3228.88,-1098.75 3228.88,-1156.25"/>
<text xml:space="preserve" text-anchor="start" x="2812.88" y="-1138.95" font-family="Times,serif" font-size="14.00">LOCALS</text>
<text xml:space="preserve" text-anchor="start" x="2812.88" y="-1122.45" font-family="Times,serif" font-size="14.00">0 = () (0 bytes, align 1)</text>
<text xml:space="preserve" text-anchor="start" x="2812.88" y="-1105.95" font-family="Times,serif" font-size="14.00">1 = *mut {closure@std::rt::lang_start&lt;()&gt;::{closure#0}} (8 bytes, align 8)</text>
</g>
<!-- Xeb66e986df54a001_0 -->
<g id="node30" class="node">
<title>Xeb66e986df54a001_0</title>
<polygon fill="none" stroke="black" points="3300.88,-1145.5 3246.88,-1145.5 3246.88,-1109.5 3300.88,-1109.5 3300.88,-1145.5"/>
<text xml:space="preserve" text-anchor="start" x="3254.88" y="-1122.45" font-family="Times,serif" font-size="14.00">Return</text>
</g>
<!-- node_16 -->
<g id="node31" class="node">
<title>node_16</title>
<polygon fill="#7ccd7c" stroke="#7ccd7c" points="3860.62,-1156.25 3693.12,-1156.25 3693.12,-1098.75 3860.62,-1098.75 3860.62,-1156.25"/>
<text xml:space="preserve" text-anchor="start" x="3701.12" y="-1138.95" font-family="Times,serif" font-size="14.00">LOCALS</text>
<text xml:space="preserve" text-anchor="start" x="3701.12" y="-1122.45" font-family="Times,serif" font-size="14.00">0 = () (0 bytes, align 1)</text>
<text xml:space="preserve" text-anchor="start" x="3701.12" y="-1105.95" font-family="Times,serif" font-size="14.00">1 = Letter (1 bytes, align 1)</text>
</g>
<!-- X99f632b84b51c7ef_0 -->
<g id="node32" class="node">
<title>X99f632b84b51c7ef_0</title>
<polygon fill="none" stroke="black" points="3974.62,-1148 3879.12,-1148 3879.12,-1107 3974.62,-1107 3974.62,-1148"/>
<text xml:space="preserve" text-anchor="start" x="3887.12" y="-1130.7" font-family="Times,serif" font-size="14.00">1 &lt;&#45; Adt{0} ()</text>
<text xml:space="preserve" text-anchor="start" x="3887.12" y="-1114.2" font-family="Times,serif" font-size="14.00">Return</text>
</g>
<!-- node_18 -->
<g id="node33" class="node">
<title>node_18</title>
<polygon fill="#7ccd7c" stroke="#7ccd7c" points="3763.62,-246.75 3506.12,-246.75 3506.12,-189.25 3763.62,-189.25 3763.62,-246.75"/>
<text xml:space="preserve" text-anchor="start" x="3514.12" y="-229.45" font-family="Times,serif" font-size="14.00">LOCALS</text>
<text xml:space="preserve" text-anchor="start" x="3514.12" y="-212.95" font-family="Times,serif" font-size="14.00">0 = std::process::ExitCode (1 bytes, align 1)</text>
<text xml:space="preserve" text-anchor="start" x="3514.12" y="-196.45" font-family="Times,serif" font-size="14.00">1 = () (0 bytes, align 1)</text>
</g>
</g>
</svg>
