<?xml version="1.0" encoding="UTF-8" standalone="no"?>
<!DOCTYPE svg PUBLIC "-//W3C//DTD SVG 1.1//EN"
 "http://www.w3.org/Graphics/SVG/1.1/DTD/svg11.dtd">
<!-- Generated by graphviz version 14.1.1 (20251213.1925)
 -->
<!-- Pages: 1 -->
<svg width="4955pt" height="1279pt"
 viewBox="0.00 0.00 4955.00 1279.00" xmlns="http://www.w3.org/2000/svg" xmlns:xlink="http://www.w3.org/1999/xlink">
<g id="graph0" class="graph" transform="scale(1 1) rotate(0) translate(4 1275)">
<polygon fill="white" stroke="none" points="-4,4 -4,-1275 4951.38,-1275 4951.38,4 -4,4"/>
<text xml:space="preserve" text-anchor="middle" x="2473.69" y="-7.2" font-family="Times,serif" font-size="14.00">modulo</text>
<g id="clust1" class="cluster">
<title>cluster_2</title>
<polygon fill="lightgray" stroke="lightgray" points="1045.38,-801.5 1045.38,-1246.5 1880.38,-1246.5 1880.38,-801.5 1045.38,-801.5"/>
<text xml:space="preserve" text-anchor="middle" x="1462.88" y="-1229.2" font-family="Times,serif" font-size="14.00">std::rt::lang_start::&lt;()&gt;</text>
</g>
<g id="clust2" class="cluster">
<title>cluster_4</title>
<polygon fill="lightgray" stroke="lightgray" points="3203.38,-123.5 3203.38,-767 3817.38,-767 3817.38,-123.5 3203.38,-123.5"/>
<text xml:space="preserve" text-anchor="middle" x="3510.38" y="-749.7" font-family="Times,serif" font-size="14.00">std::rt::lang_start::&lt;()&gt;</text>
<text xml:space="preserve" text-anchor="middle" x="3510.38" y="-733.2" font-family="Times,serif" font-size="14.00">::{closure#0}</text>
</g>
<g id="clust3" class="cluster">
<title>cluster_6</title>
<polygon fill="lightgray" stroke="lightgray" points="4366.38,-32.5 4366.38,-535.5 4598.38,-535.5 4598.38,-32.5 4366.38,-32.5"/>
<text xml:space="preserve" text-anchor="middle" x="4482.38" y="-518.2" font-family="Times,serif" font-size="14.00">std::sys::backtrace::__ru</text>
<text xml:space="preserve" text-anchor="middle" x="4482.38" y="-501.7" font-family="Times,serif" font-size="14.00">st_begin_short_backtrace:</text>
<text xml:space="preserve" text-anchor="middle" x="4482.38" y="-485.2" font-family="Times,serif" font-size="14.00">:&lt;fn(), </text>
<text xml:space="preserve" text-anchor="middle" x="4482.38" y="-468.7" font-family="Times,serif" font-size="14.00">()&gt;</text>
</g>
<g id="clust4" class="cluster">
<title>cluster_8</title>
<polygon fill="lightgray" stroke="lightgray" points="2126.38,-828.75 2126.38,-1263 2638.38,-1263 2638.38,-828.75 2126.38,-828.75"/>
<text xml:space="preserve" text-anchor="middle" x="2382.38" y="-1245.7" font-family="Times,serif" font-size="14.00">&lt;{closure@std::rt::lang_s</text>
<text xml:space="preserve" text-anchor="middle" x="2382.38" y="-1229.2" font-family="Times,serif" font-size="14.00">tart&lt;()&gt;::{closure#0}} </text>
<text xml:space="preserve" text-anchor="middle" x="2382.38" y="-1212.7" font-family="Times,serif" font-size="14.00">as </text>
<text xml:space="preserve" text-anchor="middle" x="2382.38" y="-1196.2" font-family="Times,serif" font-size="14.00">std::ops::FnOnce&lt;()&gt;&gt;::ca</text>
<text xml:space="preserve" text-anchor="middle" x="2382.38" y="-1179.7" font-family="Times,serif" font-size="14.00">ll_once</text>
</g>
<g id="clust5" class="cluster">
<title>cluster_10</title>
<polygon fill="lightgray" stroke="lightgray" points="2646.38,-390.5 2646.38,-998.5 3195.38,-998.5 3195.38,-390.5 2646.38,-390.5"/>
<text xml:space="preserve" text-anchor="middle" x="2920.88" y="-981.2" font-family="Times,serif" font-size="14.00">&lt;{closure@std::rt::lang_s</text>
<text xml:space="preserve" text-anchor="middle" x="2920.88" y="-964.7" font-family="Times,serif" font-size="14.00">tart&lt;()&gt;::{closure#0}} </text>
<text xml:space="preserve" text-anchor="middle" x="2920.88" y="-948.2" font-family="Times,serif" font-size="14.00">as </text>
<text xml:space="preserve" text-anchor="middle" x="2920.88" y="-931.7" font-family="Times,serif" font-size="14.00">std::ops::FnOnce&lt;()&gt;&gt;::ca</text>
<text xml:space="preserve" text-anchor="middle" x="2920.88" y="-915.2" font-family="Times,serif" font-size="14.00">ll_once</text>
</g>
<g id="clust6" class="cluster">
<title>cluster_12</title>
<polygon fill="lightgray" stroke="lightgray" points="4689.38,-32.5 4689.38,-337 4939.38,-337 4939.38,-32.5 4689.38,-32.5"/>
<text xml:space="preserve" text-anchor="middle" x="4814.38" y="-319.7" font-family="Times,serif" font-size="14.00">&lt;fn() </text>
<text xml:space="preserve" text-anchor="middle" x="4814.38" y="-303.2" font-family="Times,serif" font-size="14.00">as </text>
<text xml:space="preserve" text-anchor="middle" x="4814.38" y="-286.7" font-family="Times,serif" font-size="14.00">std::ops::FnOnce&lt;()&gt;&gt;::ca</text>
<text xml:space="preserve" text-anchor="middle" x="4814.38" y="-270.2" font-family="Times,serif" font-size="14.00">ll_once</text>
</g>
<g id="clust7" class="cluster">
<title>cluster_14</title>
<polygon fill="lightgray" stroke="lightgray" points="3536.38,-1090.75 3536.38,-1221.75 4048.38,-1221.75 4048.38,-1090.75 3536.38,-1090.75"/>
<text xml:space="preserve" text-anchor="middle" x="3792.38" y="-1204.45" font-family="Times,serif" font-size="14.00">std::ptr::drop_in_place::</text>
<text xml:space="preserve" text-anchor="middle" x="3792.38" y="-1187.95" font-family="Times,serif" font-size="14.00">&lt;{closure@std::rt::lang_s</text>
<text xml:space="preserve" text-anchor="middle" x="3792.38" y="-1171.45" font-family="Times,serif" font-size="14.00">tart&lt;()&gt;::{closure#0}}&gt;</text>
</g>
<g id="clust8" class="cluster">
<title>cluster_16</title>
<polygon fill="lightgray" stroke="lightgray" points="3825.38,-181.25 3825.38,-328.75 4358.38,-328.75 4358.38,-181.25 3825.38,-181.25"/>
<text xml:space="preserve" text-anchor="middle" x="4091.88" y="-311.45" font-family="Times,serif" font-size="14.00">&lt;() </text>
<text xml:space="preserve" text-anchor="middle" x="4091.88" y="-294.95" font-family="Times,serif" font-size="14.00">as </text>
<text xml:space="preserve" text-anchor="middle" x="4091.88" y="-278.45" font-family="Times,serif" font-size="14.00">std::process::Termination</text>
<text xml:space="preserve" text-anchor="middle" x="4091.88" y="-261.95" font-family="Times,serif" font-size="14.00">&gt;::report</text>
</g>
<g id="clust9" class="cluster">
<title>cluster_18</title>
<polygon fill="palegreen" stroke="palegreen" points="532.38,-390.5 532.38,-1230 967.38,-1230 967.38,-390.5 532.38,-390.5"/>
<text xml:space="preserve" text-anchor="middle" x="749.88" y="-1212.7" font-family="Times,serif" font-size="14.00">main</text>
</g>
<!-- node_0 -->
<g id="node1" class="node">
<title>node_0</title>
<polygon fill="lightyellow" stroke="lightyellow" points="130.75,-1148 0,-1148 0,-1107 130.75,-1107 130.75,-1148"/>
<text xml:space="preserve" text-anchor="start" x="8" y="-1130.7" font-family="Times,serif" font-size="14.00">ALLOCS</text>
<text xml:space="preserve" text-anchor="start" x="8" y="-1114.2" font-family="Times,serif" font-size="14.00">alloc1: Str (30 bytes)</text>
</g>
<!-- node_1 -->
<g id="node2" class="node">
<title>node_1</title>
<polygon fill="lavender" stroke="lavender" points="522.25,-1181 148.5,-1181 148.5,-1074 522.25,-1074 522.25,-1181"/>
<text xml:space="preserve" text-anchor="start" x="156.5" y="-1163.7" font-family="Times,serif" font-size="14.00">TYPES</text>
<text xml:space="preserve" text-anchor="start" x="156.5" y="-1147.2" font-family="Times,serif" font-size="14.00">() (0 bytes)</text>
<text xml:space="preserve" text-anchor="start" x="156.5" y="-1130.7" font-family="Times,serif" font-size="14.00">std::panic::Location&lt;&#39;_&gt; (24 bytes)</text>
<text xml:space="preserve" text-anchor="start" x="156.5" y="-1114.2" font-family="Times,serif" font-size="14.00">std::process::ExitCode (1 bytes)</text>
<text xml:space="preserve" text-anchor="start" x="156.5" y="-1097.7" font-family="Times,serif" font-size="14.00">std::result::Result&lt;isize, !&gt; (8 bytes)</text>
<text xml:space="preserve" text-anchor="start" x="156.5" y="-1081.2" font-family="Times,serif" font-size="14.00">std::sys::pal::unix::process::process_common::ExitCode (1 bytes)</text>
</g>
<!-- X210a8e5fe9313c81_0 -->
<g id="node3" class="node">
<title>X210a8e5fe9313c81_0</title>
<polygon fill="none" stroke="red" points="928.12,-238.5 754.62,-238.5 754.62,-197.5 928.12,-197.5 928.12,-238.5"/>
<text xml:space="preserve" text-anchor="middle" x="841.38" y="-221.2" font-family="Times,serif" font-size="14.00">_ZN4core9panicking5panic1</text>
<text xml:space="preserve" text-anchor="middle" x="841.38" y="-204.7" font-family="Times,serif" font-size="14.00">7h37379bf3ce79a0d7E</text>
</g>
<!-- X8b0ac2e54b9a91_0 -->
<g id="node4" class="node">
<title>X8b0ac2e54b9a91_0</title>
<polygon fill="none" stroke="red" points="1034.62,-1145.5 978.12,-1145.5 978.12,-1109.5 1034.62,-1109.5 1034.62,-1145.5"/>
<text xml:space="preserve" text-anchor="middle" x="1006.38" y="-1122.45" font-family="Times,serif" font-size="14.00">NoOp: </text>
</g>
<!-- X5eb86185c1cf8f06_0 -->
<g id="node5" class="node">
<title>X5eb86185c1cf8f06_0</title>
<polygon fill="none" stroke="red" points="2056.12,-883.5 1888.62,-883.5 1888.62,-826 2056.12,-826 2056.12,-883.5"/>
<text xml:space="preserve" text-anchor="middle" x="1972.38" y="-866.2" font-family="Times,serif" font-size="14.00">_ZN3std2rt19lang_start_in</text>
<text xml:space="preserve" text-anchor="middle" x="1972.38" y="-849.7" font-family="Times,serif" font-size="14.00">ternal17h035df9ff6960926a</text>
<text xml:space="preserve" text-anchor="middle" x="1972.38" y="-833.2" font-family="Times,serif" font-size="14.00">E</text>
</g>
<!-- X3c6542d96320ad67_0 -->
<g id="node6" class="node">
<title>X3c6542d96320ad67_0</title>
<polygon fill="none" stroke="red" points="4678.5,-79 4606.25,-79 4606.25,-38 4678.5,-38 4678.5,-79"/>
<text xml:space="preserve" text-anchor="middle" x="4642.38" y="-61.7" font-family="Times,serif" font-size="14.00">Intr: </text>
<text xml:space="preserve" text-anchor="middle" x="4642.38" y="-45.2" font-family="Times,serif" font-size="14.00">black_box</text>
</g>
<!-- node_3 -->
<g id="node7" class="node">
<title>node_3</title>
<polygon fill="#7ccd7c" stroke="#7ccd7c" points="1615.75,-1214 1053,-1214 1053,-1041 1615.75,-1041 1615.75,-1214"/>
<text xml:space="preserve" text-anchor="start" x="1061" y="-1196.7" font-family="Times,serif" font-size="14.00">LOCALS</text>
<text xml:space="preserve" text-anchor="start" x="1061" y="-1180.2" font-family="Times,serif" font-size="14.00">0 = Int(Isize)</text>
<text xml:space="preserve" text-anchor="start" x="1061" y="-1163.7" font-family="Times,serif" font-size="14.00">1 = fn()</text>
<text xml:space="preserve" text-anchor="start" x="1061" y="-1147.2" font-family="Times,serif" font-size="14.00">2 = Int(Isize)</text>
<text xml:space="preserve" text-anchor="start" x="1061" y="-1130.7" font-family="Times,serif" font-size="14.00">3 = *const *const u8 (8 bytes, align 8)</text>
<text xml:space="preserve" text-anchor="start" x="1061" y="-1114.2" font-family="Times,serif" font-size="14.00">4 = Uint(U8)</text>
<text xml:space="preserve" text-anchor="start" x="1061" y="-1097.7" font-family="Times,serif" font-size="14.00">5 = std::result::Result&lt;isize, !&gt; (8 bytes, align 8)</text>
<text xml:space="preserve" text-anchor="start" x="1061" y="-1081.2" font-family="Times,serif" font-size="14.00">6 = &amp;dyn std::ops::Fn() &#45;&gt; i32 + std::marker::Sync + std::panic::RefUnwindSafe (16 bytes, align 8)</text>
<text xml:space="preserve" text-anchor="start" x="1061" y="-1064.7" font-family="Times,serif" font-size="14.00">7 = &amp;{closure@std::rt::lang_start&lt;()&gt;::{closure#0}} (8 bytes, align 8)</text>
<text xml:space="preserve" text-anchor="start" x="1061" y="-1048.2" font-family="Times,serif" font-size="14.00">8 = {closure@std::rt::lang_start&lt;()&gt;::{closure#0}}</text>
</g>
<!-- Xd65e88aaab4bd19b_0 -->
<g id="node8" class="node">
<title>Xd65e88aaab4bd19b_0</title>
<polygon fill="none" stroke="black" points="1872.75,-1189.25 1634,-1189.25 1634,-1065.75 1872.75,-1065.75 1872.75,-1189.25"/>
<text xml:space="preserve" text-anchor="start" x="1642" y="-1171.95" font-family="Times,serif" font-size="14.00">Storage Live _5</text>
<text xml:space="preserve" text-anchor="start" x="1642" y="-1155.45" font-family="Times,serif" font-size="14.00">Storage Live _6</text>
<text xml:space="preserve" text-anchor="start" x="1642" y="-1138.95" font-family="Times,serif" font-size="14.00">Storage Live _8</text>
<text xml:space="preserve" text-anchor="start" x="1642" y="-1122.45" font-family="Times,serif" font-size="14.00">8 &lt;&#45; Closure (cp(1))</text>
<text xml:space="preserve" text-anchor="start" x="1642" y="-1105.95" font-family="Times,serif" font-size="14.00">7 &lt;&#45; &amp; 8</text>
<text xml:space="preserve" text-anchor="start" x="1642" y="-1089.45" font-family="Times,serif" font-size="14.00">6 &lt;&#45; Cast&#45;PointerCoercion(Unsize) cp(7)</text>
<text xml:space="preserve" text-anchor="start" x="1642" y="-1072.95" font-family="Times,serif" font-size="14.00">Call</text>
</g>
<!-- Xd65e88aaab4bd19b_0&#45;&gt;X5eb86185c1cf8f06_0 -->
<g id="edge2" class="edge">
<title>Xd65e88aaab4bd19b_0&#45;&gt;X5eb86185c1cf8f06_0</title>
<path fill="none" stroke="black" d="M1822.27,-1065.31C1843.32,-1045.05 1865.8,-1021.72 1884.38,-998.5 1910.89,-965.35 1935.75,-923.65 1952.24,-893.9"/>
<polygon fill="black" stroke="black" points="1955.25,-895.69 1956.98,-885.24 1949.11,-892.33 1955.25,-895.69"/>
<text xml:space="preserve" text-anchor="middle" x="1948.05" y="-1009.7" font-family="Times,serif" font-size="14.00">mv(6),mv(2),mv(3),mv(4)</text>
</g>
<!-- Xd65e88aaab4bd19b_1 -->
<g id="node9" class="node">
<title>Xd65e88aaab4bd19b_1</title>
<polygon fill="none" stroke="black" points="1847.25,-900 1659.5,-900 1659.5,-809.5 1847.25,-809.5 1847.25,-900"/>
<text xml:space="preserve" text-anchor="start" x="1667.5" y="-882.7" font-family="Times,serif" font-size="14.00">Storage Dead _6</text>
<text xml:space="preserve" text-anchor="start" x="1667.5" y="-866.2" font-family="Times,serif" font-size="14.00">0 &lt;&#45; Use(cp((5 as variant 0).0))</text>
<text xml:space="preserve" text-anchor="start" x="1667.5" y="-849.7" font-family="Times,serif" font-size="14.00">Storage Dead _8</text>
<text xml:space="preserve" text-anchor="start" x="1667.5" y="-833.2" font-family="Times,serif" font-size="14.00">Storage Dead _5</text>
<text xml:space="preserve" text-anchor="start" x="1667.5" y="-816.7" font-family="Times,serif" font-size="14.00">Return</text>
</g>
<!-- Xd65e88aaab4bd19b_0&#45;&gt;Xd65e88aaab4bd19b_1 -->
<g id="edge1" class="edge">
<title>Xd65e88aaab4bd19b_0&#45;&gt;Xd65e88aaab4bd19b_1</title>
<path fill="none" stroke="black" d="M1753.38,-1065.4C1753.38,-1019.2 1753.38,-956.29 1753.38,-911.46"/>
<polygon fill="black" stroke="black" points="1756.88,-911.7 1753.38,-901.7 1749.88,-911.7 1756.88,-911.7"/>
<text xml:space="preserve" text-anchor="middle" x="1756.75" y="-1009.7" font-family="Times,serif" font-size="14.00">5</text>
</g>
<!-- node_5 -->
<g id="node10" class="node">
<title>node_5</title>
<polygon fill="#7ccd7c" stroke="#7ccd7c" points="3663.62,-718 3211.12,-718 3211.12,-578 3663.62,-578 3663.62,-718"/>
<text xml:space="preserve" text-anchor="start" x="3219.12" y="-700.7" font-family="Times,serif" font-size="14.00">LOCALS</text>
<text xml:space="preserve" text-anchor="start" x="3219.12" y="-684.2" font-family="Times,serif" font-size="14.00">0 = Int(I32)</text>
<text xml:space="preserve" text-anchor="start" x="3219.12" y="-667.7" font-family="Times,serif" font-size="14.00">1 = &amp;{closure@std::rt::lang_start&lt;()&gt;::{closure#0}} (8 bytes, align 8)</text>
<text xml:space="preserve" text-anchor="start" x="3219.12" y="-651.2" font-family="Times,serif" font-size="14.00">2 = std::process::ExitCode (1 bytes, align 1)</text>
<text xml:space="preserve" text-anchor="start" x="3219.12" y="-634.7" font-family="Times,serif" font-size="14.00">3 = () (0 bytes, align 1)</text>
<text xml:space="preserve" text-anchor="start" x="3219.12" y="-618.2" font-family="Times,serif" font-size="14.00">4 = fn()</text>
<text xml:space="preserve" text-anchor="start" x="3219.12" y="-601.7" font-family="Times,serif" font-size="14.00">5 = &amp;std::sys::pal::unix::process::process_common::ExitCode (8 bytes, align 8)</text>
<text xml:space="preserve" text-anchor="start" x="3219.12" y="-585.2" font-family="Times,serif" font-size="14.00">6 = Uint(U8)</text>
</g>
<!-- Xbc2605224c355882_0 -->
<g id="node11" class="node">
<title>Xbc2605224c355882_0</title>
<polygon fill="none" stroke="black" points="3809.25,-693.25 3681.5,-693.25 3681.5,-602.75 3809.25,-602.75 3809.25,-693.25"/>
<text xml:space="preserve" text-anchor="start" x="3689.5" y="-675.95" font-family="Times,serif" font-size="14.00">Storage Live _2</text>
<text xml:space="preserve" text-anchor="start" x="3689.5" y="-659.45" font-family="Times,serif" font-size="14.00">Storage Live _3</text>
<text xml:space="preserve" text-anchor="start" x="3689.5" y="-642.95" font-family="Times,serif" font-size="14.00">Storage Live _4</text>
<text xml:space="preserve" text-anchor="start" x="3689.5" y="-626.45" font-family="Times,serif" font-size="14.00">4 &lt;&#45; Use(cp((*1).0))</text>
<text xml:space="preserve" text-anchor="start" x="3689.5" y="-609.95" font-family="Times,serif" font-size="14.00">Call</text>
</g>
<!-- Xbc2605224c355882_1 -->
<g id="node12" class="node">
<title>Xbc2605224c355882_1</title>
<polygon fill="none" stroke="black" points="3798.75,-437 3692,-437 3692,-396 3798.75,-396 3798.75,-437"/>
<text xml:space="preserve" text-anchor="start" x="3700" y="-419.7" font-family="Times,serif" font-size="14.00">Storage Dead _4</text>
<text xml:space="preserve" text-anchor="start" x="3700" y="-403.2" font-family="Times,serif" font-size="14.00">Call</text>
</g>
<!-- Xbc2605224c355882_0&#45;&gt;Xbc2605224c355882_1 -->
<g id="edge3" class="edge">
<title>Xbc2605224c355882_0&#45;&gt;Xbc2605224c355882_1</title>
<path fill="none" stroke="black" d="M3745.38,-602.48C3745.38,-557.23 3745.38,-488.32 3745.38,-448.63"/>
<polygon fill="black" stroke="black" points="3748.88,-448.82 3745.38,-438.82 3741.88,-448.82 3748.88,-448.82"/>
<text xml:space="preserve" text-anchor="middle" x="3748.75" y="-546.7" font-family="Times,serif" font-size="14.00">3</text>
</g>
<!-- X81bf83a370be3025_0 -->
<g id="node14" class="node">
<title>X81bf83a370be3025_0</title>
<polygon fill="none" stroke="black" points="4428.38,-434.5 4374.38,-434.5 4374.38,-398.5 4428.38,-398.5 4428.38,-434.5"/>
<text xml:space="preserve" text-anchor="start" x="4382.38" y="-411.45" font-family="Times,serif" font-size="14.00">Call</text>
</g>
<!-- Xbc2605224c355882_0&#45;&gt;X81bf83a370be3025_0 -->
<g id="edge5" class="edge">
<title>Xbc2605224c355882_0&#45;&gt;X81bf83a370be3025_0</title>
<path fill="none" stroke="black" d="M3809.47,-624.58C3944.61,-577.3 4255.2,-468.64 4363.38,-430.79"/>
<polygon fill="black" stroke="black" points="4364.38,-434.15 4372.66,-427.55 4362.07,-427.54 4364.38,-434.15"/>
<text xml:space="preserve" text-anchor="middle" x="4050.97" y="-546.7" font-family="Times,serif" font-size="14.00">mv(4)</text>
</g>
<!-- Xbc2605224c355882_2 -->
<g id="node13" class="node">
<title>Xbc2605224c355882_2</title>
<polygon fill="none" stroke="black" points="3809.38,-304.5 3655.38,-304.5 3655.38,-131.5 3809.38,-131.5 3809.38,-304.5"/>
<text xml:space="preserve" text-anchor="start" x="3663.38" y="-287.2" font-family="Times,serif" font-size="14.00">Storage Dead _3</text>
<text xml:space="preserve" text-anchor="start" x="3663.38" y="-270.7" font-family="Times,serif" font-size="14.00">Storage Live _5</text>
<text xml:space="preserve" text-anchor="start" x="3663.38" y="-254.2" font-family="Times,serif" font-size="14.00">5 &lt;&#45; &amp; 2.0</text>
<text xml:space="preserve" text-anchor="start" x="3663.38" y="-237.7" font-family="Times,serif" font-size="14.00">Storage Live _6</text>
<text xml:space="preserve" text-anchor="start" x="3663.38" y="-221.2" font-family="Times,serif" font-size="14.00">6 &lt;&#45; Use(cp(2.0.0))</text>
<text xml:space="preserve" text-anchor="start" x="3663.38" y="-204.7" font-family="Times,serif" font-size="14.00">0 &lt;&#45; Cast&#45;IntToInt mv(6)</text>
<text xml:space="preserve" text-anchor="start" x="3663.38" y="-188.2" font-family="Times,serif" font-size="14.00">Storage Dead _6</text>
<text xml:space="preserve" text-anchor="start" x="3663.38" y="-171.7" font-family="Times,serif" font-size="14.00">Storage Dead _5</text>
<text xml:space="preserve" text-anchor="start" x="3663.38" y="-155.2" font-family="Times,serif" font-size="14.00">Storage Dead _2</text>
<text xml:space="preserve" text-anchor="start" x="3663.38" y="-138.7" font-family="Times,serif" font-size="14.00">Return</text>
</g>
<!-- Xbc2605224c355882_1&#45;&gt;Xbc2605224c355882_2 -->
<g id="edge4" class="edge">
<title>Xbc2605224c355882_1&#45;&gt;Xbc2605224c355882_2</title>
<path fill="none" stroke="black" d="M3744.06,-395.58C3742.8,-376.54 3740.8,-346.38 3738.81,-316.33"/>
<polygon fill="black" stroke="black" points="3742.31,-316.1 3738.15,-306.35 3735.32,-316.56 3742.31,-316.1"/>
<text xml:space="preserve" text-anchor="middle" x="3744.91" y="-348.2" font-family="Times,serif" font-size="14.00">2</text>
</g>
<!-- X1cdeabb0d4c01910_0 -->
<g id="node15" class="node">
<title>X1cdeabb0d4c01910_0</title>
<polygon fill="none" stroke="black" points="4074.88,-238.5 3833.88,-238.5 3833.88,-197.5 4074.88,-197.5 4074.88,-238.5"/>
<text xml:space="preserve" text-anchor="start" x="3841.88" y="-221.2" font-family="Times,serif" font-size="14.00">0 &lt;&#45; Use(const 0_std::process::ExitCode)</text>
<text xml:space="preserve" text-anchor="start" x="3841.88" y="-204.7" font-family="Times,serif" font-size="14.00">Return</text>
</g>
<!-- Xbc2605224c355882_1&#45;&gt;X1cdeabb0d4c01910_0 -->
<g id="edge6" class="edge">
<title>Xbc2605224c355882_1&#45;&gt;X1cdeabb0d4c01910_0</title>
<path fill="none" stroke="black" d="M3766.57,-395.58C3804.04,-360.34 3882.08,-286.97 3924.82,-246.78"/>
<polygon fill="black" stroke="black" points="3927.14,-249.41 3932.03,-240.01 3922.34,-244.31 3927.14,-249.41"/>
<text xml:space="preserve" text-anchor="middle" x="3835.82" y="-348.2" font-family="Times,serif" font-size="14.00">mv(3)</text>
</g>
<!-- X81bf83a370be3025_1 -->
<g id="node17" class="node">
<title>X81bf83a370be3025_1</title>
<polygon fill="none" stroke="black" points="4508.38,-236 4454.38,-236 4454.38,-200 4508.38,-200 4508.38,-236"/>
<text xml:space="preserve" text-anchor="start" x="4462.38" y="-212.95" font-family="Times,serif" font-size="14.00">Call</text>
</g>
<!-- X81bf83a370be3025_0&#45;&gt;X81bf83a370be3025_1 -->
<g id="edge7" class="edge">
<title>X81bf83a370be3025_0&#45;&gt;X81bf83a370be3025_1</title>
<path fill="none" stroke="black" d="M4408.47,-398.06C4422.35,-363.98 4453.18,-288.26 4469.96,-247.05"/>
<polygon fill="black" stroke="black" points="4473.19,-248.38 4473.72,-237.8 4466.71,-245.74 4473.19,-248.38"/>
<text xml:space="preserve" text-anchor="middle" x="4432.91" y="-348.2" font-family="Times,serif" font-size="14.00">0</text>
</g>
<!-- Xfc5f9ceb77c3794a_0 -->
<g id="node19" class="node">
<title>Xfc5f9ceb77c3794a_0</title>
<polygon fill="none" stroke="black" points="4751.38,-236 4697.38,-236 4697.38,-200 4751.38,-200 4751.38,-236"/>
<text xml:space="preserve" text-anchor="start" x="4705.38" y="-212.95" font-family="Times,serif" font-size="14.00">Call</text>
</g>
<!-- X81bf83a370be3025_0&#45;&gt;Xfc5f9ceb77c3794a_0 -->
<g id="edge9" class="edge">
<title>X81bf83a370be3025_0&#45;&gt;Xfc5f9ceb77c3794a_0</title>
<path fill="none" stroke="black" d="M4415.25,-398.06C4421.38,-391.38 4429.08,-384.23 4437.38,-379.5 4503.14,-341.96 4536.3,-374 4602.38,-337 4644.23,-313.56 4682.19,-272.21 4704.28,-245.21"/>
<polygon fill="black" stroke="black" points="4706.95,-247.48 4710.47,-237.49 4701.48,-243.11 4706.95,-247.48"/>
<text xml:space="preserve" text-anchor="middle" x="4622.85" y="-348.2" font-family="Times,serif" font-size="14.00">mv(1),const ()</text>
</g>
<!-- node_7 -->
<g id="node16" class="node">
<title>node_7</title>
<polygon fill="#7ccd7c" stroke="#7ccd7c" points="4590.5,-453.5 4446.25,-453.5 4446.25,-379.5 4590.5,-379.5 4590.5,-453.5"/>
<text xml:space="preserve" text-anchor="start" x="4454.25" y="-436.2" font-family="Times,serif" font-size="14.00">LOCALS</text>
<text xml:space="preserve" text-anchor="start" x="4454.25" y="-419.7" font-family="Times,serif" font-size="14.00">0 = () (0 bytes, align 1)</text>
<text xml:space="preserve" text-anchor="start" x="4454.25" y="-403.2" font-family="Times,serif" font-size="14.00">1 = fn()</text>
<text xml:space="preserve" text-anchor="start" x="4454.25" y="-386.7" font-family="Times,serif" font-size="14.00">2 = () (0 bytes, align 1)</text>
</g>
<!-- X81bf83a370be3025_1&#45;&gt;X3c6542d96320ad67_0 -->
<g id="edge10" class="edge">
<title>X81bf83a370be3025_1&#45;&gt;X3c6542d96320ad67_0</title>
<path fill="none" stroke="black" d="M4499.22,-199.54C4527.07,-172.3 4581.11,-119.44 4614.24,-87.03"/>
<polygon fill="black" stroke="black" points="4616.4,-89.81 4621.1,-80.31 4611.5,-84.8 4616.4,-89.81"/>
<text xml:space="preserve" text-anchor="middle" x="4624.09" y="-100.2" font-family="Times,serif" font-size="14.00">const ()</text>
</g>
<!-- X81bf83a370be3025_2 -->
<g id="node18" class="node">
<title>X81bf83a370be3025_2</title>
<polygon fill="none" stroke="black" points="4508.38,-76.5 4454.38,-76.5 4454.38,-40.5 4508.38,-40.5 4508.38,-76.5"/>
<text xml:space="preserve" text-anchor="start" x="4462.38" y="-53.45" font-family="Times,serif" font-size="14.00">Return</text>
</g>
<!-- X81bf83a370be3025_1&#45;&gt;X81bf83a370be3025_2 -->
<g id="edge8" class="edge">
<title>X81bf83a370be3025_1&#45;&gt;X81bf83a370be3025_2</title>
<path fill="none" stroke="black" d="M4481.38,-199.54C4481.38,-172.56 4481.38,-120.44 4481.38,-87.95"/>
<polygon fill="black" stroke="black" points="4484.88,-88.07 4481.38,-78.07 4477.88,-88.07 4484.88,-88.07"/>
<text xml:space="preserve" text-anchor="middle" x="4484.75" y="-100.2" font-family="Times,serif" font-size="14.00">2</text>
</g>
<!-- Xfc5f9ceb77c3794a_0&#45;&gt;Xfc5f9ceb77c3794a_0 -->
<g id="edge19" class="edge">
<title>Xfc5f9ceb77c3794a_0&#45;&gt;Xfc5f9ceb77c3794a_0:1</title>
<path fill="none" stroke="black" d="M4741.93,-236.41C4755.52,-243.3 4769.38,-237.16 4769.38,-218 4769.38,-204.08 4762.06,-197.03 4752.85,-196.86"/>
<polygon fill="black" stroke="black" points="4752.25,-193.4 4743.4,-199.22 4753.95,-200.2 4752.25,-193.4"/>
</g>
<!-- Xfc5f9ceb77c3794a_1 -->
<g id="node30" class="node">
<title>Xfc5f9ceb77c3794a_1</title>
<polygon fill="none" stroke="black" points="4751.38,-76.5 4697.38,-76.5 4697.38,-40.5 4751.38,-40.5 4751.38,-76.5"/>
<text xml:space="preserve" text-anchor="start" x="4705.38" y="-53.45" font-family="Times,serif" font-size="14.00">Return</text>
</g>
<!-- Xfc5f9ceb77c3794a_0&#45;&gt;Xfc5f9ceb77c3794a_1 -->
<g id="edge18" class="edge">
<title>Xfc5f9ceb77c3794a_0&#45;&gt;Xfc5f9ceb77c3794a_1</title>
<path fill="none" stroke="black" d="M4724.38,-199.54C4724.38,-172.56 4724.38,-120.44 4724.38,-87.95"/>
<polygon fill="black" stroke="black" points="4727.88,-88.07 4724.38,-78.07 4720.88,-88.07 4727.88,-88.07"/>
<text xml:space="preserve" text-anchor="middle" x="4727.75" y="-100.2" font-family="Times,serif" font-size="14.00">0</text>
</g>
<!-- node_9 -->
<g id="node20" class="node">
<title>node_9</title>
<polygon fill="#7ccd7c" stroke="#7ccd7c" points="2558.38,-1164.5 2134.38,-1164.5 2134.38,-1090.5 2558.38,-1090.5 2558.38,-1164.5"/>
<text xml:space="preserve" text-anchor="start" x="2142.38" y="-1147.2" font-family="Times,serif" font-size="14.00">LOCALS</text>
<text xml:space="preserve" text-anchor="start" x="2142.38" y="-1130.7" font-family="Times,serif" font-size="14.00">0 = Int(I32)</text>
<text xml:space="preserve" text-anchor="start" x="2142.38" y="-1114.2" font-family="Times,serif" font-size="14.00">1 = *mut {closure@std::rt::lang_start&lt;()&gt;::{closure#0}} (8 bytes, align 8)</text>
<text xml:space="preserve" text-anchor="start" x="2142.38" y="-1097.7" font-family="Times,serif" font-size="14.00">2 = () (0 bytes, align 1)</text>
</g>
<!-- Xfda2cb8a0ff15aa8_0 -->
<g id="node21" class="node">
<title>Xfda2cb8a0ff15aa8_0</title>
<polygon fill="none" stroke="black" points="2630.38,-1145.5 2576.38,-1145.5 2576.38,-1109.5 2630.38,-1109.5 2630.38,-1145.5"/>
<text xml:space="preserve" text-anchor="start" x="2584.38" y="-1122.45" font-family="Times,serif" font-size="14.00">Call</text>
</g>
<!-- Xfda2cb8a0ff15aa8_1 -->
<g id="node22" class="node">
<title>Xfda2cb8a0ff15aa8_1</title>
<polygon fill="none" stroke="black" points="2630.38,-872.75 2576.38,-872.75 2576.38,-836.75 2630.38,-836.75 2630.38,-872.75"/>
<text xml:space="preserve" text-anchor="start" x="2584.38" y="-849.7" font-family="Times,serif" font-size="14.00">Return</text>
</g>
<!-- Xfda2cb8a0ff15aa8_0&#45;&gt;Xfda2cb8a0ff15aa8_1 -->
<g id="edge11" class="edge">
<title>Xfda2cb8a0ff15aa8_0&#45;&gt;Xfda2cb8a0ff15aa8_1</title>
<path fill="none" stroke="black" d="M2603.38,-1109.15C2603.38,-1063.59 2603.38,-940.21 2603.38,-884.15"/>
<polygon fill="black" stroke="black" points="2606.88,-884.47 2603.38,-874.47 2599.88,-884.47 2606.88,-884.47"/>
<text xml:space="preserve" text-anchor="middle" x="2606.75" y="-1009.7" font-family="Times,serif" font-size="14.00">0</text>
</g>
<!-- Xdbef752432163720_0 -->
<g id="node23" class="node">
<title>Xdbef752432163720_0</title>
<polygon fill="none" stroke="black" points="2740.62,-875.25 2654.12,-875.25 2654.12,-834.25 2740.62,-834.25 2740.62,-875.25"/>
<text xml:space="preserve" text-anchor="start" x="2662.12" y="-857.95" font-family="Times,serif" font-size="14.00">3 &lt;&#45; &amp;mut 1</text>
<text xml:space="preserve" text-anchor="start" x="2662.12" y="-841.45" font-family="Times,serif" font-size="14.00">Call</text>
</g>
<!-- Xfda2cb8a0ff15aa8_0&#45;&gt;Xdbef752432163720_0 -->
<g id="edge12" class="edge">
<title>Xfda2cb8a0ff15aa8_0&#45;&gt;Xdbef752432163720_0</title>
<path fill="none" stroke="black" d="M2609.4,-1109.15C2625.02,-1064.16 2666.98,-943.3 2686.77,-886.3"/>
<polygon fill="black" stroke="black" points="2690.06,-887.5 2690.03,-876.9 2683.45,-885.2 2690.06,-887.5"/>
<text xml:space="preserve" text-anchor="middle" x="2688.25" y="-1009.7" font-family="Times,serif" font-size="14.00">mv((*1)),mv(2)</text>
</g>
<!-- Xdbef752432163720_0&#45;&gt;Xbc2605224c355882_0 -->
<g id="edge17" class="edge">
<title>Xdbef752432163720_0&#45;&gt;Xbc2605224c355882_0</title>
<path fill="none" stroke="black" d="M2711.4,-833.88C2720.91,-822.15 2734.6,-808.32 2750.38,-801.5 2844.48,-760.84 3583.77,-818.57 3672.38,-767 3696.41,-753.01 3713.61,-727.65 3725.25,-704.02"/>
<polygon fill="black" stroke="black" points="3728.38,-705.6 3729.42,-695.05 3722.03,-702.64 3728.38,-705.6"/>
<text xml:space="preserve" text-anchor="middle" x="3685.3" y="-778.2" font-family="Times,serif" font-size="14.00">mv(3),mv(2)</text>
</g>
<!-- Xdbef752432163720_3 -->
<g id="node25" class="node">
<title>Xdbef752432163720_3</title>
<polygon fill="none" stroke="black" points="2718.5,-666 2664.25,-666 2664.25,-630 2718.5,-630 2718.5,-666"/>
<text xml:space="preserve" text-anchor="start" x="2672.25" y="-642.95" font-family="Times,serif" font-size="14.00">Drop 1</text>
</g>
<!-- Xdbef752432163720_0&#45;&gt;Xdbef752432163720_3 -->
<g id="edge13" class="edge">
<title>Xdbef752432163720_0&#45;&gt;Xdbef752432163720_3</title>
<path fill="none" stroke="black" d="M2696.71,-833.85C2696.31,-821.63 2695.8,-805.66 2695.38,-791.5 2694.18,-751.89 2692.92,-706.08 2692.14,-677.32"/>
<polygon fill="black" stroke="black" points="2695.64,-677.52 2691.87,-667.62 2688.65,-677.71 2695.64,-677.52"/>
<text xml:space="preserve" text-anchor="middle" x="2717.88" y="-778.2" font-family="Times,serif" font-size="14.00">Cleanup</text>
</g>
<!-- Xdbef752432163720_1 -->
<g id="node26" class="node">
<title>Xdbef752432163720_1</title>
<polygon fill="none" stroke="black" points="2791.5,-666 2737.25,-666 2737.25,-630 2791.5,-630 2791.5,-666"/>
<text xml:space="preserve" text-anchor="start" x="2745.25" y="-642.95" font-family="Times,serif" font-size="14.00">Drop 1</text>
</g>
<!-- Xdbef752432163720_0&#45;&gt;Xdbef752432163720_1 -->
<g id="edge14" class="edge">
<title>Xdbef752432163720_0&#45;&gt;Xdbef752432163720_1</title>
<path fill="none" stroke="black" d="M2714.56,-833.76C2723.64,-822.15 2734.15,-806.83 2740.38,-791.5 2755.64,-753.91 2761.19,-706.94 2763.22,-677.45"/>
<polygon fill="black" stroke="black" points="2766.69,-678.02 2763.78,-667.84 2759.7,-677.62 2766.69,-678.02"/>
<text xml:space="preserve" text-anchor="middle" x="2749.09" y="-778.2" font-family="Times,serif" font-size="14.00">0</text>
</g>
<!-- node_11 -->
<g id="node24" class="node">
<title>node_11</title>
<polygon fill="#7ccd7c" stroke="#7ccd7c" points="3187.62,-900 2759.12,-900 2759.12,-809.5 3187.62,-809.5 3187.62,-900"/>
<text xml:space="preserve" text-anchor="start" x="2767.12" y="-882.7" font-family="Times,serif" font-size="14.00">LOCALS</text>
<text xml:space="preserve" text-anchor="start" x="2767.12" y="-866.2" font-family="Times,serif" font-size="14.00">0 = Int(I32)</text>
<text xml:space="preserve" text-anchor="start" x="2767.12" y="-849.7" font-family="Times,serif" font-size="14.00">1 = {closure@std::rt::lang_start&lt;()&gt;::{closure#0}}</text>
<text xml:space="preserve" text-anchor="start" x="2767.12" y="-833.2" font-family="Times,serif" font-size="14.00">2 = () (0 bytes, align 1)</text>
<text xml:space="preserve" text-anchor="start" x="2767.12" y="-816.7" font-family="Times,serif" font-size="14.00">3 = &amp;mut {closure@std::rt::lang_start&lt;()&gt;::{closure#0}} (8 bytes, align 8)</text>
</g>
<!-- Xdbef752432163720_4 -->
<g id="node28" class="node">
<title>Xdbef752432163720_4</title>
<polygon fill="none" stroke="black" points="2720.5,-434.5 2660.25,-434.5 2660.25,-398.5 2720.5,-398.5 2720.5,-434.5"/>
<text xml:space="preserve" text-anchor="start" x="2668.25" y="-411.45" font-family="Times,serif" font-size="14.00">Resume</text>
</g>
<!-- Xdbef752432163720_3&#45;&gt;Xdbef752432163720_4 -->
<g id="edge16" class="edge">
<title>Xdbef752432163720_3&#45;&gt;Xdbef752432163720_4</title>
<path fill="none" stroke="black" d="M2691.3,-629.75C2691.13,-590.62 2690.71,-494.8 2690.5,-446.43"/>
<polygon fill="black" stroke="black" points="2694,-446.45 2690.46,-436.46 2687,-446.48 2694,-446.45"/>
</g>
<!-- Xdbef752432163720_2 -->
<g id="node27" class="node">
<title>Xdbef752432163720_2</title>
<polygon fill="none" stroke="black" points="2792.38,-434.5 2738.38,-434.5 2738.38,-398.5 2792.38,-398.5 2792.38,-434.5"/>
<text xml:space="preserve" text-anchor="start" x="2746.38" y="-411.45" font-family="Times,serif" font-size="14.00">Return</text>
</g>
<!-- Xdbef752432163720_1&#45;&gt;Xdbef752432163720_2 -->
<g id="edge15" class="edge">
<title>Xdbef752432163720_1&#45;&gt;Xdbef752432163720_2</title>
<path fill="none" stroke="black" d="M2764.45,-629.75C2764.62,-590.62 2765.04,-494.8 2765.25,-446.43"/>
<polygon fill="black" stroke="black" points="2768.75,-446.48 2765.29,-436.46 2761.75,-446.45 2768.75,-446.48"/>
</g>
<!-- node_13 -->
<g id="node29" class="node">
<title>node_13</title>
<polygon fill="#7ccd7c" stroke="#7ccd7c" points="4931.5,-255 4787.25,-255 4787.25,-181 4931.5,-181 4931.5,-255"/>
<text xml:space="preserve" text-anchor="start" x="4795.25" y="-237.7" font-family="Times,serif" font-size="14.00">LOCALS</text>
<text xml:space="preserve" text-anchor="start" x="4795.25" y="-221.2" font-family="Times,serif" font-size="14.00">0 = () (0 bytes, align 1)</text>
<text xml:space="preserve" text-anchor="start" x="4795.25" y="-204.7" font-family="Times,serif" font-size="14.00">1 = fn()</text>
<text xml:space="preserve" text-anchor="start" x="4795.25" y="-188.2" font-family="Times,serif" font-size="14.00">2 = () (0 bytes, align 1)</text>
</g>
<!-- node_15 -->
<g id="node31" class="node">
<title>node_15</title>
<polygon fill="#7ccd7c" stroke="#7ccd7c" points="3968.38,-1156.25 3544.38,-1156.25 3544.38,-1098.75 3968.38,-1098.75 3968.38,-1156.25"/>
<text xml:space="preserve" text-anchor="start" x="3552.38" y="-1138.95" font-family="Times,serif" font-size="14.00">LOCALS</text>
<text xml:space="preserve" text-anchor="start" x="3552.38" y="-1122.45" font-family="Times,serif" font-size="14.00">0 = () (0 bytes, align 1)</text>
<text xml:space="preserve" text-anchor="start" x="3552.38" y="-1105.95" font-family="Times,serif" font-size="14.00">1 = *mut {closure@std::rt::lang_start&lt;()&gt;::{closure#0}} (8 bytes, align 8)</text>
</g>
<!-- X102690aa52928d80_0 -->
<g id="node32" class="node">
<title>X102690aa52928d80_0</title>
<polygon fill="none" stroke="black" points="4040.38,-1145.5 3986.38,-1145.5 3986.38,-1109.5 4040.38,-1109.5 4040.38,-1145.5"/>
<text xml:space="preserve" text-anchor="start" x="3994.38" y="-1122.45" font-family="Times,serif" font-size="14.00">Return</text>
</g>
<!-- node_17 -->
<g id="node33" class="node">
<title>node_17</title>
<polygon fill="#7ccd7c" stroke="#7ccd7c" points="4350.12,-246.75 4092.62,-246.75 4092.62,-189.25 4350.12,-189.25 4350.12,-246.75"/>
<text xml:space="preserve" text-anchor="start" x="4100.62" y="-229.45" font-family="Times,serif" font-size="14.00">LOCALS</text>
<text xml:space="preserve" text-anchor="start" x="4100.62" y="-212.95" font-family="Times,serif" font-size="14.00">0 = std::process::ExitCode (1 bytes, align 1)</text>
<text xml:space="preserve" text-anchor="start" x="4100.62" y="-196.45" font-family="Times,serif" font-size="14.00">1 = () (0 bytes, align 1)</text>
</g>
<!-- node_19 -->
<g id="node34" class="node">
<title>node_19</title>
<polygon fill="#7ccd7c" stroke="#7ccd7c" points="684.5,-1197.5 540.25,-1197.5 540.25,-1057.5 684.5,-1057.5 684.5,-1197.5"/>
<text xml:space="preserve" text-anchor="start" x="548.25" y="-1180.2" font-family="Times,serif" font-size="14.00">LOCALS</text>
<text xml:space="preserve" text-anchor="start" x="548.25" y="-1163.7" font-family="Times,serif" font-size="14.00">0 = () (0 bytes, align 1)</text>
<text xml:space="preserve" text-anchor="start" x="548.25" y="-1147.2" font-family="Times,serif" font-size="14.00">1 = Int(I32)</text>
<text xml:space="preserve" text-anchor="start" x="548.25" y="-1130.7" font-family="Times,serif" font-size="14.00">2 = Bool</text>
<text xml:space="preserve" text-anchor="start" x="548.25" y="-1114.2" font-family="Times,serif" font-size="14.00">3 = Bool</text>
<text xml:space="preserve" text-anchor="start" x="548.25" y="-1097.7" font-family="Times,serif" font-size="14.00">4 = Bool</text>
<text xml:space="preserve" text-anchor="start" x="548.25" y="-1081.2" font-family="Times,serif" font-size="14.00">5 = Bool</text>
<text xml:space="preserve" text-anchor="start" x="548.25" y="-1064.7" font-family="Times,serif" font-size="14.00">6 = ()</text>
</g>
<!-- X12949099185706a4_0 -->
<g id="node35" class="node">
<title>X12949099185706a4_0</title>
<polygon fill="none" stroke="black" points="959.75,-1148 703,-1148 703,-1107 959.75,-1107 959.75,-1148"/>
<text xml:space="preserve" text-anchor="start" x="711" y="-1130.7" font-family="Times,serif" font-size="14.00">2 &lt;&#45; Eq(const 10_Int(I32), const 0_Int(I32))</text>
<text xml:space="preserve" text-anchor="start" x="711" y="-1114.2" font-family="Times,serif" font-size="14.00">Assert mv(2) == false</text>
</g>
<!-- X12949099185706a4_1 -->
<g id="node36" class="node">
<title>X12949099185706a4_1</title>
<polygon fill="none" stroke="black" points="959.12,-891.75 641.62,-891.75 641.62,-817.75 959.12,-817.75 959.12,-891.75"/>
<text xml:space="preserve" text-anchor="start" x="649.62" y="-874.45" font-family="Times,serif" font-size="14.00">3 &lt;&#45; Eq(const 10_Int(I32), const 4294967295_Int(I32))</text>
<text xml:space="preserve" text-anchor="start" x="649.62" y="-857.95" font-family="Times,serif" font-size="14.00">4 &lt;&#45; Eq(const 42_Int(I32), const 2147483648_Int(I32))</text>
<text xml:space="preserve" text-anchor="start" x="649.62" y="-841.45" font-family="Times,serif" font-size="14.00">5 &lt;&#45; BitAnd(mv(3), mv(4))</text>
<text xml:space="preserve" text-anchor="start" x="649.62" y="-824.95" font-family="Times,serif" font-size="14.00">Assert mv(5) == false</text>
</g>
<!-- X12949099185706a4_0&#45;&gt;X12949099185706a4_1 -->
<g id="edge20" class="edge">
<title>X12949099185706a4_0&#45;&gt;X12949099185706a4_1</title>
<path fill="none" stroke="black" d="M829.1,-1106.59C824.22,-1064.03 812.67,-963.17 805.8,-903.11"/>
<polygon fill="black" stroke="black" points="809.32,-903.08 804.7,-893.54 802.36,-903.87 809.32,-903.08"/>
</g>
<!-- X12949099185706a4_2 -->
<g id="node37" class="node">
<title>X12949099185706a4_2</title>
<polygon fill="none" stroke="black" points="937.75,-668.5 663,-668.5 663,-627.5 937.75,-627.5 937.75,-668.5"/>
<text xml:space="preserve" text-anchor="start" x="671" y="-651.2" font-family="Times,serif" font-size="14.00">1 &lt;&#45; Rem(const 42_Int(I32), const 10_Int(I32))</text>
<text xml:space="preserve" text-anchor="start" x="671" y="-634.7" font-family="Times,serif" font-size="14.00">SwitchInt mv(1)</text>
</g>
<!-- X12949099185706a4_1&#45;&gt;X12949099185706a4_2 -->
<g id="edge21" class="edge">
<title>X12949099185706a4_1&#45;&gt;X12949099185706a4_2</title>
<path fill="none" stroke="black" d="M800.38,-817.62C800.38,-778.56 800.38,-716.97 800.38,-680.03"/>
<polygon fill="black" stroke="black" points="803.88,-680.47 800.38,-670.47 796.88,-680.47 803.88,-680.47"/>
</g>
<!-- X12949099185706a4_3 -->
<g id="node38" class="node">
<title>X12949099185706a4_3</title>
<polygon fill="none" stroke="black" points="796.38,-434.5 742.38,-434.5 742.38,-398.5 796.38,-398.5 796.38,-434.5"/>
<text xml:space="preserve" text-anchor="start" x="750.38" y="-411.45" font-family="Times,serif" font-size="14.00">Return</text>
</g>
<!-- X12949099185706a4_2&#45;&gt;X12949099185706a4_3 -->
<g id="edge22" class="edge">
<title>X12949099185706a4_2&#45;&gt;X12949099185706a4_3</title>
<path fill="none" stroke="black" d="M797.68,-627.03C792.16,-586.2 779.58,-493.04 773.21,-445.92"/>
<polygon fill="black" stroke="black" points="776.71,-445.66 771.9,-436.22 769.77,-446.6 776.71,-445.66"/>
<text xml:space="preserve" text-anchor="middle" x="791.94" y="-546.7" font-family="Times,serif" font-size="14.00">2</text>
</g>
<!-- X12949099185706a4_4 -->
<g id="node39" class="node">
<title>X12949099185706a4_4</title>
<polygon fill="none" stroke="black" points="868.38,-434.5 814.38,-434.5 814.38,-398.5 868.38,-398.5 868.38,-434.5"/>
<text xml:space="preserve" text-anchor="start" x="822.38" y="-411.45" font-family="Times,serif" font-size="14.00">Call</text>
</g>
<!-- X12949099185706a4_2&#45;&gt;X12949099185706a4_4 -->
<g id="edge23" class="edge">
<title>X12949099185706a4_2&#45;&gt;X12949099185706a4_4</title>
<path fill="none" stroke="black" d="M803.94,-627.03C811.24,-586.2 827.88,-493.04 836.3,-445.92"/>
<polygon fill="black" stroke="black" points="839.72,-446.67 838.03,-436.21 832.83,-445.44 839.72,-446.67"/>
<text xml:space="preserve" text-anchor="middle" x="832.3" y="-546.7" font-family="Times,serif" font-size="14.00">other</text>
</g>
<!-- X12949099185706a4_4&#45;&gt;X210a8e5fe9313c81_0 -->
<g id="edge24" class="edge">
<title>X12949099185706a4_4&#45;&gt;X210a8e5fe9313c81_0</title>
<path fill="none" stroke="black" d="M841.38,-398.06C841.38,-364.81 841.38,-291.92 841.38,-250.11"/>
<polygon fill="black" stroke="black" points="844.88,-250.22 841.38,-240.22 837.88,-250.22 844.88,-250.22"/>
<text xml:space="preserve" text-anchor="middle" x="878.5" y="-348.2" font-family="Times,serif" font-size="14.00">const [alloc0]</text>
</g>
</g>
</svg>
