<?xml version="1.0" encoding="UTF-8" standalone="no"?>
<!DOCTYPE svg PUBLIC "-//W3C//DTD SVG 1.1//EN"
 "http://www.w3.org/Graphics/SVG/1.1/DTD/svg11.dtd">
<!-- Generated by graphviz version 14.1.1 (20251213.1925)
 -->
<!-- Pages: 1 -->
<svg width="4529pt" height="1279pt"
 viewBox="0.00 0.00 4529.00 1279.00" xmlns="http://www.w3.org/2000/svg" xmlns:xlink="http://www.w3.org/1999/xlink">
<g id="graph0" class="graph" transform="scale(1 1) rotate(0) translate(4 1275)">
<polygon fill="white" stroke="none" points="-4,4 -4,-1275 4524.88,-1275 4524.88,4 -4,4"/>
<text xml:space="preserve" text-anchor="middle" x="2260.44" y="-7.2" font-family="Times,serif" font-size="14.00">option_construction</text>
<g id="clust1" class="cluster">
<title>cluster_1</title>
<polygon fill="palegreen" stroke="palegreen" points="3479.88,-828.75 3479.88,-1205.25 3992.88,-1205.25 3992.88,-828.75 3479.88,-828.75"/>
<text xml:space="preserve" text-anchor="middle" x="3736.38" y="-1187.95" font-family="Times,serif" font-size="14.00">main</text>
</g>
<g id="clust2" class="cluster">
<title>cluster_3</title>
<polygon fill="lightgray" stroke="lightgray" points="383.88,-801.5 383.88,-1246.5 1218.88,-1246.5 1218.88,-801.5 383.88,-801.5"/>
<text xml:space="preserve" text-anchor="middle" x="801.38" y="-1229.2" font-family="Times,serif" font-size="14.00">std::rt::lang_start::&lt;()&gt;</text>
</g>
<g id="clust3" class="cluster">
<title>cluster_5</title>
<polygon fill="lightgray" stroke="lightgray" points="2541.88,-123.5 2541.88,-767 3155.88,-767 3155.88,-123.5 2541.88,-123.5"/>
<text xml:space="preserve" text-anchor="middle" x="2848.88" y="-749.7" font-family="Times,serif" font-size="14.00">std::rt::lang_start::&lt;()&gt;</text>
<text xml:space="preserve" text-anchor="middle" x="2848.88" y="-733.2" font-family="Times,serif" font-size="14.00">::{closure#0}</text>
</g>
<g id="clust4" class="cluster">
<title>cluster_7</title>
<polygon fill="lightgray" stroke="lightgray" points="3704.88,-32.5 3704.88,-535.5 3936.88,-535.5 3936.88,-32.5 3704.88,-32.5"/>
<text xml:space="preserve" text-anchor="middle" x="3820.88" y="-518.2" font-family="Times,serif" font-size="14.00">std::sys::backtrace::__ru</text>
<text xml:space="preserve" text-anchor="middle" x="3820.88" y="-501.7" font-family="Times,serif" font-size="14.00">st_begin_short_backtrace:</text>
<text xml:space="preserve" text-anchor="middle" x="3820.88" y="-485.2" font-family="Times,serif" font-size="14.00">:&lt;fn(), </text>
<text xml:space="preserve" text-anchor="middle" x="3820.88" y="-468.7" font-family="Times,serif" font-size="14.00">()&gt;</text>
</g>
<g id="clust5" class="cluster">
<title>cluster_9</title>
<polygon fill="lightgray" stroke="lightgray" points="1464.88,-828.75 1464.88,-1263 1976.88,-1263 1976.88,-828.75 1464.88,-828.75"/>
<text xml:space="preserve" text-anchor="middle" x="1720.88" y="-1245.7" font-family="Times,serif" font-size="14.00">&lt;{closure@std::rt::lang_s</text>
<text xml:space="preserve" text-anchor="middle" x="1720.88" y="-1229.2" font-family="Times,serif" font-size="14.00">tart&lt;()&gt;::{closure#0}} </text>
<text xml:space="preserve" text-anchor="middle" x="1720.88" y="-1212.7" font-family="Times,serif" font-size="14.00">as </text>
<text xml:space="preserve" text-anchor="middle" x="1720.88" y="-1196.2" font-family="Times,serif" font-size="14.00">std::ops::FnOnce&lt;()&gt;&gt;::ca</text>
<text xml:space="preserve" text-anchor="middle" x="1720.88" y="-1179.7" font-family="Times,serif" font-size="14.00">ll_once</text>
</g>
<g id="clust6" class="cluster">
<title>cluster_11</title>
<polygon fill="lightgray" stroke="lightgray" points="4027.88,-32.5 4027.88,-337 4277.88,-337 4277.88,-32.5 4027.88,-32.5"/>
<text xml:space="preserve" text-anchor="middle" x="4152.88" y="-319.7" font-family="Times,serif" font-size="14.00">&lt;fn() </text>
<text xml:space="preserve" text-anchor="middle" x="4152.88" y="-303.2" font-family="Times,serif" font-size="14.00">as </text>
<text xml:space="preserve" text-anchor="middle" x="4152.88" y="-286.7" font-family="Times,serif" font-size="14.00">std::ops::FnOnce&lt;()&gt;&gt;::ca</text>
<text xml:space="preserve" text-anchor="middle" x="4152.88" y="-270.2" font-family="Times,serif" font-size="14.00">ll_once</text>
</g>
<g id="clust7" class="cluster">
<title>cluster_13</title>
<polygon fill="lightgray" stroke="lightgray" points="1984.88,-390.5 1984.88,-998.5 2533.88,-998.5 2533.88,-390.5 1984.88,-390.5"/>
<text xml:space="preserve" text-anchor="middle" x="2259.38" y="-981.2" font-family="Times,serif" font-size="14.00">&lt;{closure@std::rt::lang_s</text>
<text xml:space="preserve" text-anchor="middle" x="2259.38" y="-964.7" font-family="Times,serif" font-size="14.00">tart&lt;()&gt;::{closure#0}} </text>
<text xml:space="preserve" text-anchor="middle" x="2259.38" y="-948.2" font-family="Times,serif" font-size="14.00">as </text>
<text xml:space="preserve" text-anchor="middle" x="2259.38" y="-931.7" font-family="Times,serif" font-size="14.00">std::ops::FnOnce&lt;()&gt;&gt;::ca</text>
<text xml:space="preserve" text-anchor="middle" x="2259.38" y="-915.2" font-family="Times,serif" font-size="14.00">ll_once</text>
</g>
<g id="clust8" class="cluster">
<title>cluster_15</title>
<polygon fill="lightgray" stroke="lightgray" points="4000.88,-1090.75 4000.88,-1221.75 4512.88,-1221.75 4512.88,-1090.75 4000.88,-1090.75"/>
<text xml:space="preserve" text-anchor="middle" x="4256.88" y="-1204.45" font-family="Times,serif" font-size="14.00">std::ptr::drop_in_place::</text>
<text xml:space="preserve" text-anchor="middle" x="4256.88" y="-1187.95" font-family="Times,serif" font-size="14.00">&lt;{closure@std::rt::lang_s</text>
<text xml:space="preserve" text-anchor="middle" x="4256.88" y="-1171.45" font-family="Times,serif" font-size="14.00">tart&lt;()&gt;::{closure#0}}&gt;</text>
</g>
<g id="clust9" class="cluster">
<title>cluster_17</title>
<polygon fill="lightgray" stroke="lightgray" points="4000.88,-619.5 4000.88,-949 4438.88,-949 4438.88,-619.5 4000.88,-619.5"/>
<text xml:space="preserve" text-anchor="middle" x="4219.88" y="-931.7" font-family="Times,serif" font-size="14.00">std::option::Option::&lt;u32</text>
<text xml:space="preserve" text-anchor="middle" x="4219.88" y="-915.2" font-family="Times,serif" font-size="14.00">&gt;::unwrap</text>
</g>
<g id="clust10" class="cluster">
<title>cluster_19</title>
<polygon fill="lightgray" stroke="lightgray" points="3163.88,-181.25 3163.88,-328.75 3696.88,-328.75 3696.88,-181.25 3163.88,-181.25"/>
<text xml:space="preserve" text-anchor="middle" x="3430.38" y="-311.45" font-family="Times,serif" font-size="14.00">&lt;() </text>
<text xml:space="preserve" text-anchor="middle" x="3430.38" y="-294.95" font-family="Times,serif" font-size="14.00">as </text>
<text xml:space="preserve" text-anchor="middle" x="3430.38" y="-278.45" font-family="Times,serif" font-size="14.00">std::process::Termination</text>
<text xml:space="preserve" text-anchor="middle" x="3430.38" y="-261.95" font-family="Times,serif" font-size="14.00">&gt;::report</text>
</g>
<!-- node_0 -->
<g id="node1" class="node">
<title>node_0</title>
<polygon fill="lavender" stroke="lavender" points="373.75,-1189.25 0,-1189.25 0,-1065.75 373.75,-1065.75 373.75,-1189.25"/>
<text xml:space="preserve" text-anchor="start" x="8" y="-1171.95" font-family="Times,serif" font-size="14.00">TYPES</text>
<text xml:space="preserve" text-anchor="start" x="8" y="-1155.45" font-family="Times,serif" font-size="14.00">() (0 bytes)</text>
<text xml:space="preserve" text-anchor="start" x="8" y="-1138.95" font-family="Times,serif" font-size="14.00">std::option::Option&lt;u32&gt; (8 bytes)</text>
<text xml:space="preserve" text-anchor="start" x="8" y="-1122.45" font-family="Times,serif" font-size="14.00">std::panic::Location&lt;&#39;_&gt; (24 bytes)</text>
<text xml:space="preserve" text-anchor="start" x="8" y="-1105.95" font-family="Times,serif" font-size="14.00">std::process::ExitCode (1 bytes)</text>
<text xml:space="preserve" text-anchor="start" x="8" y="-1089.45" font-family="Times,serif" font-size="14.00">std::result::Result&lt;isize, !&gt; (8 bytes)</text>
<text xml:space="preserve" text-anchor="start" x="8" y="-1072.95" font-family="Times,serif" font-size="14.00">std::sys::pal::unix::process::process_common::ExitCode (1 bytes)</text>
</g>
<!-- X5eb86185c1cf8f06_0 -->
<g id="node2" class="node">
<title>X5eb86185c1cf8f06_0</title>
<polygon fill="none" stroke="red" points="1394.62,-883.5 1227.12,-883.5 1227.12,-826 1394.62,-826 1394.62,-883.5"/>
<text xml:space="preserve" text-anchor="middle" x="1310.88" y="-866.2" font-family="Times,serif" font-size="14.00">_ZN3std2rt19lang_start_in</text>
<text xml:space="preserve" text-anchor="middle" x="1310.88" y="-849.7" font-family="Times,serif" font-size="14.00">ternal17h035df9ff6960926a</text>
<text xml:space="preserve" text-anchor="middle" x="1310.88" y="-833.2" font-family="Times,serif" font-size="14.00">E</text>
</g>
<!-- X3c6542d96320ad67_0 -->
<g id="node3" class="node">
<title>X3c6542d96320ad67_0</title>
<polygon fill="none" stroke="red" points="4017,-79 3944.75,-79 3944.75,-38 4017,-38 4017,-79"/>
<text xml:space="preserve" text-anchor="middle" x="3980.88" y="-61.7" font-family="Times,serif" font-size="14.00">Intr: </text>
<text xml:space="preserve" text-anchor="middle" x="3980.88" y="-45.2" font-family="Times,serif" font-size="14.00">black_box</text>
</g>
<!-- X8b0ac2e54b9a91_0 -->
<g id="node4" class="node">
<title>X8b0ac2e54b9a91_0</title>
<polygon fill="none" stroke="red" points="2756.12,-1145.5 2699.62,-1145.5 2699.62,-1109.5 2756.12,-1109.5 2756.12,-1145.5"/>
<text xml:space="preserve" text-anchor="middle" x="2727.88" y="-1122.45" font-family="Times,serif" font-size="14.00">NoOp: </text>
</g>
<!-- Xe8a26c2980749453_0 -->
<g id="node5" class="node">
<title>Xe8a26c2980749453_0</title>
<polygon fill="none" stroke="red" points="4124.5,-437 3947.25,-437 3947.25,-396 4124.5,-396 4124.5,-437"/>
<text xml:space="preserve" text-anchor="middle" x="4035.88" y="-419.7" font-family="Times,serif" font-size="14.00">_ZN4core6option13unwrap_f</text>
<text xml:space="preserve" text-anchor="middle" x="4035.88" y="-403.2" font-family="Times,serif" font-size="14.00">ailed17h70bb8fac4436ed8fE</text>
</g>
<!-- node_2 -->
<g id="node6" class="node">
<title>node_2</title>
<polygon fill="#7ccd7c" stroke="#7ccd7c" points="3762.25,-1172.75 3487.5,-1172.75 3487.5,-1082.25 3762.25,-1082.25 3762.25,-1172.75"/>
<text xml:space="preserve" text-anchor="start" x="3495.5" y="-1155.45" font-family="Times,serif" font-size="14.00">LOCALS</text>
<text xml:space="preserve" text-anchor="start" x="3495.5" y="-1138.95" font-family="Times,serif" font-size="14.00">0 = () (0 bytes, align 1)</text>
<text xml:space="preserve" text-anchor="start" x="3495.5" y="-1122.45" font-family="Times,serif" font-size="14.00">1 = std::option::Option&lt;u32&gt; (8 bytes, align 4)</text>
<text xml:space="preserve" text-anchor="start" x="3495.5" y="-1105.95" font-family="Times,serif" font-size="14.00">2 = std::option::Option&lt;u32&gt; (8 bytes, align 4)</text>
<text xml:space="preserve" text-anchor="start" x="3495.5" y="-1089.45" font-family="Times,serif" font-size="14.00">3 = Uint(U32)</text>
</g>
<!-- Xdae329d9da0edf2c_0 -->
<g id="node7" class="node">
<title>Xdae329d9da0edf2c_0</title>
<polygon fill="none" stroke="black" points="3985,-1156.25 3780.75,-1156.25 3780.75,-1098.75 3985,-1098.75 3985,-1156.25"/>
<text xml:space="preserve" text-anchor="start" x="3788.75" y="-1138.95" font-family="Times,serif" font-size="14.00">1 &lt;&#45; Adt{1} (const 42_Uint(U32))</text>
<text xml:space="preserve" text-anchor="start" x="3788.75" y="-1122.45" font-family="Times,serif" font-size="14.00">2 &lt;&#45; Adt{0} ()</text>
<text xml:space="preserve" text-anchor="start" x="3788.75" y="-1105.95" font-family="Times,serif" font-size="14.00">Call</text>
</g>
<!-- Xdae329d9da0edf2c_1 -->
<g id="node8" class="node">
<title>Xdae329d9da0edf2c_1</title>
<polygon fill="none" stroke="black" points="3909.88,-872.75 3855.88,-872.75 3855.88,-836.75 3909.88,-836.75 3909.88,-872.75"/>
<text xml:space="preserve" text-anchor="start" x="3863.88" y="-849.7" font-family="Times,serif" font-size="14.00">Return</text>
</g>
<!-- Xdae329d9da0edf2c_0&#45;&gt;Xdae329d9da0edf2c_1 -->
<g id="edge1" class="edge">
<title>Xdae329d9da0edf2c_0&#45;&gt;Xdae329d9da0edf2c_1</title>
<path fill="none" stroke="black" d="M3882.88,-1098.29C3882.88,-1046.51 3882.88,-936.81 3882.88,-884.57"/>
<polygon fill="black" stroke="black" points="3886.38,-884.69 3882.88,-874.69 3879.38,-884.69 3886.38,-884.69"/>
<text xml:space="preserve" text-anchor="middle" x="3886.25" y="-1009.7" font-family="Times,serif" font-size="14.00">3</text>
</g>
<!-- X5b398d6023fbe452_0 -->
<g id="node9" class="node">
<title>X5b398d6023fbe452_0</title>
<polygon fill="none" stroke="black" points="4138.88,-875.25 4008.88,-875.25 4008.88,-834.25 4138.88,-834.25 4138.88,-875.25"/>
<text xml:space="preserve" text-anchor="start" x="4016.88" y="-857.95" font-family="Times,serif" font-size="14.00">2 &lt;&#45; Discriminant(1)</text>
<text xml:space="preserve" text-anchor="start" x="4016.88" y="-841.45" font-family="Times,serif" font-size="14.00">SwitchInt mv(2)</text>
</g>
<!-- Xdae329d9da0edf2c_0&#45;&gt;X5b398d6023fbe452_0 -->
<g id="edge2" class="edge">
<title>Xdae329d9da0edf2c_0&#45;&gt;X5b398d6023fbe452_0</title>
<path fill="none" stroke="black" d="M3911.18,-1098.63C3935.6,-1073.72 3970.92,-1035.54 3996.88,-998.5 4022.63,-961.73 4046.17,-915.4 4060.27,-885.67"/>
<polygon fill="black" stroke="black" points="4063.31,-887.43 4064.38,-876.89 4056.97,-884.46 4063.31,-887.43"/>
<text xml:space="preserve" text-anchor="middle" x="4002.99" y="-1009.7" font-family="Times,serif" font-size="14.00">cp(1)</text>
</g>
<!-- X5b398d6023fbe452_2 -->
<g id="node37" class="node">
<title>X5b398d6023fbe452_2</title>
<polygon fill="none" stroke="black" points="4062.88,-666 4008.88,-666 4008.88,-630 4062.88,-630 4062.88,-666"/>
<text xml:space="preserve" text-anchor="start" x="4016.88" y="-642.95" font-family="Times,serif" font-size="14.00">Call</text>
</g>
<!-- X5b398d6023fbe452_0&#45;&gt;X5b398d6023fbe452_2 -->
<g id="edge22" class="edge">
<title>X5b398d6023fbe452_0&#45;&gt;X5b398d6023fbe452_2</title>
<path fill="none" stroke="black" d="M4070.23,-834.12C4063.47,-797.69 4048.96,-719.52 4041.14,-677.35"/>
<polygon fill="black" stroke="black" points="4044.62,-676.92 4039.35,-667.72 4037.73,-678.19 4044.62,-676.92"/>
<text xml:space="preserve" text-anchor="middle" x="4064.96" y="-778.2" font-family="Times,serif" font-size="14.00">0</text>
</g>
<!-- X5b398d6023fbe452_3 -->
<g id="node38" class="node">
<title>X5b398d6023fbe452_3</title>
<polygon fill="none" stroke="black" points="4274.38,-668.5 4081.38,-668.5 4081.38,-627.5 4274.38,-627.5 4274.38,-668.5"/>
<text xml:space="preserve" text-anchor="start" x="4089.38" y="-651.2" font-family="Times,serif" font-size="14.00">0 &lt;&#45; Use(mv((1 as variant 1).0))</text>
<text xml:space="preserve" text-anchor="start" x="4089.38" y="-634.7" font-family="Times,serif" font-size="14.00">Return</text>
</g>
<!-- X5b398d6023fbe452_0&#45;&gt;X5b398d6023fbe452_3 -->
<g id="edge23" class="edge">
<title>X5b398d6023fbe452_0&#45;&gt;X5b398d6023fbe452_3</title>
<path fill="none" stroke="black" d="M4083.85,-834.12C4102.13,-798.13 4141.1,-721.4 4162.69,-678.9"/>
<polygon fill="black" stroke="black" points="4165.69,-680.72 4167.09,-670.22 4159.45,-677.55 4165.69,-680.72"/>
<text xml:space="preserve" text-anchor="middle" x="4116.88" y="-778.2" font-family="Times,serif" font-size="14.00">1</text>
</g>
<!-- X5b398d6023fbe452_1 -->
<g id="node39" class="node">
<title>X5b398d6023fbe452_1</title>
<polygon fill="none" stroke="black" points="4377,-666 4292.75,-666 4292.75,-630 4377,-630 4377,-666"/>
<text xml:space="preserve" text-anchor="start" x="4300.75" y="-642.95" font-family="Times,serif" font-size="14.00">Unreachable</text>
</g>
<!-- X5b398d6023fbe452_0&#45;&gt;X5b398d6023fbe452_1 -->
<g id="edge24" class="edge">
<title>X5b398d6023fbe452_0&#45;&gt;X5b398d6023fbe452_1</title>
<path fill="none" stroke="black" d="M4097.16,-833.94C4111.09,-822.98 4129.59,-809.92 4147.88,-801.5 4204.52,-775.41 4236.41,-807.44 4283.88,-767 4310.81,-744.05 4323.94,-704.27 4330.04,-677.31"/>
<polygon fill="black" stroke="black" points="4333.42,-678.26 4332,-667.76 4326.56,-676.85 4333.42,-678.26"/>
<text xml:space="preserve" text-anchor="middle" x="4286.64" y="-778.2" font-family="Times,serif" font-size="14.00">other</text>
</g>
<!-- node_4 -->
<g id="node10" class="node">
<title>node_4</title>
<polygon fill="#7ccd7c" stroke="#7ccd7c" points="954.25,-1214 391.5,-1214 391.5,-1041 954.25,-1041 954.25,-1214"/>
<text xml:space="preserve" text-anchor="start" x="399.5" y="-1196.7" font-family="Times,serif" font-size="14.00">LOCALS</text>
<text xml:space="preserve" text-anchor="start" x="399.5" y="-1180.2" font-family="Times,serif" font-size="14.00">0 = Int(Isize)</text>
<text xml:space="preserve" text-anchor="start" x="399.5" y="-1163.7" font-family="Times,serif" font-size="14.00">1 = fn()</text>
<text xml:space="preserve" text-anchor="start" x="399.5" y="-1147.2" font-family="Times,serif" font-size="14.00">2 = Int(Isize)</text>
<text xml:space="preserve" text-anchor="start" x="399.5" y="-1130.7" font-family="Times,serif" font-size="14.00">3 = *const *const u8 (8 bytes, align 8)</text>
<text xml:space="preserve" text-anchor="start" x="399.5" y="-1114.2" font-family="Times,serif" font-size="14.00">4 = Uint(U8)</text>
<text xml:space="preserve" text-anchor="start" x="399.5" y="-1097.7" font-family="Times,serif" font-size="14.00">5 = std::result::Result&lt;isize, !&gt; (8 bytes, align 8)</text>
<text xml:space="preserve" text-anchor="start" x="399.5" y="-1081.2" font-family="Times,serif" font-size="14.00">6 = &amp;dyn std::ops::Fn() &#45;&gt; i32 + std::marker::Sync + std::panic::RefUnwindSafe (16 bytes, align 8)</text>
<text xml:space="preserve" text-anchor="start" x="399.5" y="-1064.7" font-family="Times,serif" font-size="14.00">7 = &amp;{closure@std::rt::lang_start&lt;()&gt;::{closure#0}} (8 bytes, align 8)</text>
<text xml:space="preserve" text-anchor="start" x="399.5" y="-1048.2" font-family="Times,serif" font-size="14.00">8 = {closure@std::rt::lang_start&lt;()&gt;::{closure#0}}</text>
</g>
<!-- X1544b14f663670c6_0 -->
<g id="node11" class="node">
<title>X1544b14f663670c6_0</title>
<polygon fill="none" stroke="black" points="1211.25,-1189.25 972.5,-1189.25 972.5,-1065.75 1211.25,-1065.75 1211.25,-1189.25"/>
<text xml:space="preserve" text-anchor="start" x="980.5" y="-1171.95" font-family="Times,serif" font-size="14.00">Storage Live _5</text>
<text xml:space="preserve" text-anchor="start" x="980.5" y="-1155.45" font-family="Times,serif" font-size="14.00">Storage Live _6</text>
<text xml:space="preserve" text-anchor="start" x="980.5" y="-1138.95" font-family="Times,serif" font-size="14.00">Storage Live _8</text>
<text xml:space="preserve" text-anchor="start" x="980.5" y="-1122.45" font-family="Times,serif" font-size="14.00">8 &lt;&#45; Closure (cp(1))</text>
<text xml:space="preserve" text-anchor="start" x="980.5" y="-1105.95" font-family="Times,serif" font-size="14.00">7 &lt;&#45; &amp; 8</text>
<text xml:space="preserve" text-anchor="start" x="980.5" y="-1089.45" font-family="Times,serif" font-size="14.00">6 &lt;&#45; Cast&#45;PointerCoercion(Unsize) cp(7)</text>
<text xml:space="preserve" text-anchor="start" x="980.5" y="-1072.95" font-family="Times,serif" font-size="14.00">Call</text>
</g>
<!-- X1544b14f663670c6_0&#45;&gt;X5eb86185c1cf8f06_0 -->
<g id="edge4" class="edge">
<title>X1544b14f663670c6_0&#45;&gt;X5eb86185c1cf8f06_0</title>
<path fill="none" stroke="black" d="M1160.77,-1065.31C1181.82,-1045.05 1204.3,-1021.72 1222.88,-998.5 1249.39,-965.35 1274.25,-923.65 1290.74,-893.9"/>
<polygon fill="black" stroke="black" points="1293.75,-895.69 1295.48,-885.24 1287.61,-892.33 1293.75,-895.69"/>
<text xml:space="preserve" text-anchor="middle" x="1286.55" y="-1009.7" font-family="Times,serif" font-size="14.00">mv(6),mv(2),mv(3),mv(4)</text>
</g>
<!-- X1544b14f663670c6_1 -->
<g id="node12" class="node">
<title>X1544b14f663670c6_1</title>
<polygon fill="none" stroke="black" points="1185.75,-900 998,-900 998,-809.5 1185.75,-809.5 1185.75,-900"/>
<text xml:space="preserve" text-anchor="start" x="1006" y="-882.7" font-family="Times,serif" font-size="14.00">Storage Dead _6</text>
<text xml:space="preserve" text-anchor="start" x="1006" y="-866.2" font-family="Times,serif" font-size="14.00">0 &lt;&#45; Use(cp((5 as variant 0).0))</text>
<text xml:space="preserve" text-anchor="start" x="1006" y="-849.7" font-family="Times,serif" font-size="14.00">Storage Dead _8</text>
<text xml:space="preserve" text-anchor="start" x="1006" y="-833.2" font-family="Times,serif" font-size="14.00">Storage Dead _5</text>
<text xml:space="preserve" text-anchor="start" x="1006" y="-816.7" font-family="Times,serif" font-size="14.00">Return</text>
</g>
<!-- X1544b14f663670c6_0&#45;&gt;X1544b14f663670c6_1 -->
<g id="edge3" class="edge">
<title>X1544b14f663670c6_0&#45;&gt;X1544b14f663670c6_1</title>
<path fill="none" stroke="black" d="M1091.88,-1065.4C1091.88,-1019.2 1091.88,-956.29 1091.88,-911.46"/>
<polygon fill="black" stroke="black" points="1095.38,-911.7 1091.88,-901.7 1088.38,-911.7 1095.38,-911.7"/>
<text xml:space="preserve" text-anchor="middle" x="1095.25" y="-1009.7" font-family="Times,serif" font-size="14.00">5</text>
</g>
<!-- node_6 -->
<g id="node13" class="node">
<title>node_6</title>
<polygon fill="#7ccd7c" stroke="#7ccd7c" points="3002.12,-718 2549.62,-718 2549.62,-578 3002.12,-578 3002.12,-718"/>
<text xml:space="preserve" text-anchor="start" x="2557.62" y="-700.7" font-family="Times,serif" font-size="14.00">LOCALS</text>
<text xml:space="preserve" text-anchor="start" x="2557.62" y="-684.2" font-family="Times,serif" font-size="14.00">0 = Int(I32)</text>
<text xml:space="preserve" text-anchor="start" x="2557.62" y="-667.7" font-family="Times,serif" font-size="14.00">1 = &amp;{closure@std::rt::lang_start&lt;()&gt;::{closure#0}} (8 bytes, align 8)</text>
<text xml:space="preserve" text-anchor="start" x="2557.62" y="-651.2" font-family="Times,serif" font-size="14.00">2 = std::process::ExitCode (1 bytes, align 1)</text>
<text xml:space="preserve" text-anchor="start" x="2557.62" y="-634.7" font-family="Times,serif" font-size="14.00">3 = () (0 bytes, align 1)</text>
<text xml:space="preserve" text-anchor="start" x="2557.62" y="-618.2" font-family="Times,serif" font-size="14.00">4 = fn()</text>
<text xml:space="preserve" text-anchor="start" x="2557.62" y="-601.7" font-family="Times,serif" font-size="14.00">5 = &amp;std::sys::pal::unix::process::process_common::ExitCode (8 bytes, align 8)</text>
<text xml:space="preserve" text-anchor="start" x="2557.62" y="-585.2" font-family="Times,serif" font-size="14.00">6 = Uint(U8)</text>
</g>
<!-- X65af0e3007b124b_0 -->
<g id="node14" class="node">
<title>X65af0e3007b124b_0</title>
<polygon fill="none" stroke="black" points="3147.75,-693.25 3020,-693.25 3020,-602.75 3147.75,-602.75 3147.75,-693.25"/>
<text xml:space="preserve" text-anchor="start" x="3028" y="-675.95" font-family="Times,serif" font-size="14.00">Storage Live _2</text>
<text xml:space="preserve" text-anchor="start" x="3028" y="-659.45" font-family="Times,serif" font-size="14.00">Storage Live _3</text>
<text xml:space="preserve" text-anchor="start" x="3028" y="-642.95" font-family="Times,serif" font-size="14.00">Storage Live _4</text>
<text xml:space="preserve" text-anchor="start" x="3028" y="-626.45" font-family="Times,serif" font-size="14.00">4 &lt;&#45; Use(cp((*1).0))</text>
<text xml:space="preserve" text-anchor="start" x="3028" y="-609.95" font-family="Times,serif" font-size="14.00">Call</text>
</g>
<!-- X65af0e3007b124b_1 -->
<g id="node15" class="node">
<title>X65af0e3007b124b_1</title>
<polygon fill="none" stroke="black" points="3137.25,-437 3030.5,-437 3030.5,-396 3137.25,-396 3137.25,-437"/>
<text xml:space="preserve" text-anchor="start" x="3038.5" y="-419.7" font-family="Times,serif" font-size="14.00">Storage Dead _4</text>
<text xml:space="preserve" text-anchor="start" x="3038.5" y="-403.2" font-family="Times,serif" font-size="14.00">Call</text>
</g>
<!-- X65af0e3007b124b_0&#45;&gt;X65af0e3007b124b_1 -->
<g id="edge5" class="edge">
<title>X65af0e3007b124b_0&#45;&gt;X65af0e3007b124b_1</title>
<path fill="none" stroke="black" d="M3083.88,-602.48C3083.88,-557.23 3083.88,-488.32 3083.88,-448.63"/>
<polygon fill="black" stroke="black" points="3087.38,-448.82 3083.88,-438.82 3080.38,-448.82 3087.38,-448.82"/>
<text xml:space="preserve" text-anchor="middle" x="3087.25" y="-546.7" font-family="Times,serif" font-size="14.00">3</text>
</g>
<!-- X6bd2407ef9d04c6e_0 -->
<g id="node17" class="node">
<title>X6bd2407ef9d04c6e_0</title>
<polygon fill="none" stroke="black" points="3766.88,-434.5 3712.88,-434.5 3712.88,-398.5 3766.88,-398.5 3766.88,-434.5"/>
<text xml:space="preserve" text-anchor="start" x="3720.88" y="-411.45" font-family="Times,serif" font-size="14.00">Call</text>
</g>
<!-- X65af0e3007b124b_0&#45;&gt;X6bd2407ef9d04c6e_0 -->
<g id="edge7" class="edge">
<title>X65af0e3007b124b_0&#45;&gt;X6bd2407ef9d04c6e_0</title>
<path fill="none" stroke="black" d="M3147.97,-624.58C3283.11,-577.3 3593.7,-468.64 3701.88,-430.79"/>
<polygon fill="black" stroke="black" points="3702.88,-434.15 3711.16,-427.55 3700.57,-427.54 3702.88,-434.15"/>
<text xml:space="preserve" text-anchor="middle" x="3389.47" y="-546.7" font-family="Times,serif" font-size="14.00">mv(4)</text>
</g>
<!-- X65af0e3007b124b_2 -->
<g id="node16" class="node">
<title>X65af0e3007b124b_2</title>
<polygon fill="none" stroke="black" points="3147.88,-304.5 2993.88,-304.5 2993.88,-131.5 3147.88,-131.5 3147.88,-304.5"/>
<text xml:space="preserve" text-anchor="start" x="3001.88" y="-287.2" font-family="Times,serif" font-size="14.00">Storage Dead _3</text>
<text xml:space="preserve" text-anchor="start" x="3001.88" y="-270.7" font-family="Times,serif" font-size="14.00">Storage Live _5</text>
<text xml:space="preserve" text-anchor="start" x="3001.88" y="-254.2" font-family="Times,serif" font-size="14.00">5 &lt;&#45; &amp; 2.0</text>
<text xml:space="preserve" text-anchor="start" x="3001.88" y="-237.7" font-family="Times,serif" font-size="14.00">Storage Live _6</text>
<text xml:space="preserve" text-anchor="start" x="3001.88" y="-221.2" font-family="Times,serif" font-size="14.00">6 &lt;&#45; Use(cp(2.0.0))</text>
<text xml:space="preserve" text-anchor="start" x="3001.88" y="-204.7" font-family="Times,serif" font-size="14.00">0 &lt;&#45; Cast&#45;IntToInt mv(6)</text>
<text xml:space="preserve" text-anchor="start" x="3001.88" y="-188.2" font-family="Times,serif" font-size="14.00">Storage Dead _6</text>
<text xml:space="preserve" text-anchor="start" x="3001.88" y="-171.7" font-family="Times,serif" font-size="14.00">Storage Dead _5</text>
<text xml:space="preserve" text-anchor="start" x="3001.88" y="-155.2" font-family="Times,serif" font-size="14.00">Storage Dead _2</text>
<text xml:space="preserve" text-anchor="start" x="3001.88" y="-138.7" font-family="Times,serif" font-size="14.00">Return</text>
</g>
<!-- X65af0e3007b124b_1&#45;&gt;X65af0e3007b124b_2 -->
<g id="edge6" class="edge">
<title>X65af0e3007b124b_1&#45;&gt;X65af0e3007b124b_2</title>
<path fill="none" stroke="black" d="M3082.56,-395.58C3081.3,-376.54 3079.3,-346.38 3077.31,-316.33"/>
<polygon fill="black" stroke="black" points="3080.81,-316.1 3076.65,-306.35 3073.82,-316.56 3080.81,-316.1"/>
<text xml:space="preserve" text-anchor="middle" x="3083.41" y="-348.2" font-family="Times,serif" font-size="14.00">2</text>
</g>
<!-- X93c3fae39955d8b3_0 -->
<g id="node18" class="node">
<title>X93c3fae39955d8b3_0</title>
<polygon fill="none" stroke="black" points="3413.38,-238.5 3172.38,-238.5 3172.38,-197.5 3413.38,-197.5 3413.38,-238.5"/>
<text xml:space="preserve" text-anchor="start" x="3180.38" y="-221.2" font-family="Times,serif" font-size="14.00">0 &lt;&#45; Use(const 0_std::process::ExitCode)</text>
<text xml:space="preserve" text-anchor="start" x="3180.38" y="-204.7" font-family="Times,serif" font-size="14.00">Return</text>
</g>
<!-- X65af0e3007b124b_1&#45;&gt;X93c3fae39955d8b3_0 -->
<g id="edge8" class="edge">
<title>X65af0e3007b124b_1&#45;&gt;X93c3fae39955d8b3_0</title>
<path fill="none" stroke="black" d="M3105.07,-395.58C3142.54,-360.34 3220.58,-286.97 3263.32,-246.78"/>
<polygon fill="black" stroke="black" points="3265.64,-249.41 3270.53,-240.01 3260.84,-244.31 3265.64,-249.41"/>
<text xml:space="preserve" text-anchor="middle" x="3174.32" y="-348.2" font-family="Times,serif" font-size="14.00">mv(3)</text>
</g>
<!-- X6bd2407ef9d04c6e_1 -->
<g id="node20" class="node">
<title>X6bd2407ef9d04c6e_1</title>
<polygon fill="none" stroke="black" points="3846.88,-236 3792.88,-236 3792.88,-200 3846.88,-200 3846.88,-236"/>
<text xml:space="preserve" text-anchor="start" x="3800.88" y="-212.95" font-family="Times,serif" font-size="14.00">Call</text>
</g>
<!-- X6bd2407ef9d04c6e_0&#45;&gt;X6bd2407ef9d04c6e_1 -->
<g id="edge9" class="edge">
<title>X6bd2407ef9d04c6e_0&#45;&gt;X6bd2407ef9d04c6e_1</title>
<path fill="none" stroke="black" d="M3746.97,-398.06C3760.85,-363.98 3791.68,-288.26 3808.46,-247.05"/>
<polygon fill="black" stroke="black" points="3811.69,-248.38 3812.22,-237.8 3805.21,-245.74 3811.69,-248.38"/>
<text xml:space="preserve" text-anchor="middle" x="3771.41" y="-348.2" font-family="Times,serif" font-size="14.00">0</text>
</g>
<!-- Xad0908701f4adff7_0 -->
<g id="node22" class="node">
<title>Xad0908701f4adff7_0</title>
<polygon fill="none" stroke="black" points="4089.88,-236 4035.88,-236 4035.88,-200 4089.88,-200 4089.88,-236"/>
<text xml:space="preserve" text-anchor="start" x="4043.88" y="-212.95" font-family="Times,serif" font-size="14.00">Call</text>
</g>
<!-- X6bd2407ef9d04c6e_0&#45;&gt;Xad0908701f4adff7_0 -->
<g id="edge11" class="edge">
<title>X6bd2407ef9d04c6e_0&#45;&gt;Xad0908701f4adff7_0</title>
<path fill="none" stroke="black" d="M3753.75,-398.06C3759.88,-391.38 3767.58,-384.23 3775.88,-379.5 3841.64,-341.96 3874.8,-374 3940.88,-337 3982.73,-313.56 4020.69,-272.21 4042.78,-245.21"/>
<polygon fill="black" stroke="black" points="4045.45,-247.48 4048.97,-237.49 4039.98,-243.11 4045.45,-247.48"/>
<text xml:space="preserve" text-anchor="middle" x="3961.35" y="-348.2" font-family="Times,serif" font-size="14.00">mv(1),const ()</text>
</g>
<!-- node_8 -->
<g id="node19" class="node">
<title>node_8</title>
<polygon fill="#7ccd7c" stroke="#7ccd7c" points="3929,-453.5 3784.75,-453.5 3784.75,-379.5 3929,-379.5 3929,-453.5"/>
<text xml:space="preserve" text-anchor="start" x="3792.75" y="-436.2" font-family="Times,serif" font-size="14.00">LOCALS</text>
<text xml:space="preserve" text-anchor="start" x="3792.75" y="-419.7" font-family="Times,serif" font-size="14.00">0 = () (0 bytes, align 1)</text>
<text xml:space="preserve" text-anchor="start" x="3792.75" y="-403.2" font-family="Times,serif" font-size="14.00">1 = fn()</text>
<text xml:space="preserve" text-anchor="start" x="3792.75" y="-386.7" font-family="Times,serif" font-size="14.00">2 = () (0 bytes, align 1)</text>
</g>
<!-- X6bd2407ef9d04c6e_1&#45;&gt;X3c6542d96320ad67_0 -->
<g id="edge12" class="edge">
<title>X6bd2407ef9d04c6e_1&#45;&gt;X3c6542d96320ad67_0</title>
<path fill="none" stroke="black" d="M3837.72,-199.54C3865.57,-172.3 3919.61,-119.44 3952.74,-87.03"/>
<polygon fill="black" stroke="black" points="3954.9,-89.81 3959.6,-80.31 3950,-84.8 3954.9,-89.81"/>
<text xml:space="preserve" text-anchor="middle" x="3962.59" y="-100.2" font-family="Times,serif" font-size="14.00">const ()</text>
</g>
<!-- X6bd2407ef9d04c6e_2 -->
<g id="node21" class="node">
<title>X6bd2407ef9d04c6e_2</title>
<polygon fill="none" stroke="black" points="3846.88,-76.5 3792.88,-76.5 3792.88,-40.5 3846.88,-40.5 3846.88,-76.5"/>
<text xml:space="preserve" text-anchor="start" x="3800.88" y="-53.45" font-family="Times,serif" font-size="14.00">Return</text>
</g>
<!-- X6bd2407ef9d04c6e_1&#45;&gt;X6bd2407ef9d04c6e_2 -->
<g id="edge10" class="edge">
<title>X6bd2407ef9d04c6e_1&#45;&gt;X6bd2407ef9d04c6e_2</title>
<path fill="none" stroke="black" d="M3819.88,-199.54C3819.88,-172.56 3819.88,-120.44 3819.88,-87.95"/>
<polygon fill="black" stroke="black" points="3823.38,-88.07 3819.88,-78.07 3816.38,-88.07 3823.38,-88.07"/>
<text xml:space="preserve" text-anchor="middle" x="3823.25" y="-100.2" font-family="Times,serif" font-size="14.00">2</text>
</g>
<!-- Xad0908701f4adff7_0&#45;&gt;Xad0908701f4adff7_0 -->
<g id="edge16" class="edge">
<title>Xad0908701f4adff7_0&#45;&gt;Xad0908701f4adff7_0:1</title>
<path fill="none" stroke="black" d="M4080.43,-236.41C4094.02,-243.3 4107.88,-237.16 4107.88,-218 4107.88,-204.08 4100.56,-197.03 4091.35,-196.86"/>
<polygon fill="black" stroke="black" points="4090.75,-193.4 4081.9,-199.22 4092.45,-200.2 4090.75,-193.4"/>
</g>
<!-- Xad0908701f4adff7_1 -->
<g id="node28" class="node">
<title>Xad0908701f4adff7_1</title>
<polygon fill="none" stroke="black" points="4089.88,-76.5 4035.88,-76.5 4035.88,-40.5 4089.88,-40.5 4089.88,-76.5"/>
<text xml:space="preserve" text-anchor="start" x="4043.88" y="-53.45" font-family="Times,serif" font-size="14.00">Return</text>
</g>
<!-- Xad0908701f4adff7_0&#45;&gt;Xad0908701f4adff7_1 -->
<g id="edge15" class="edge">
<title>Xad0908701f4adff7_0&#45;&gt;Xad0908701f4adff7_1</title>
<path fill="none" stroke="black" d="M4062.88,-199.54C4062.88,-172.56 4062.88,-120.44 4062.88,-87.95"/>
<polygon fill="black" stroke="black" points="4066.38,-88.07 4062.88,-78.07 4059.38,-88.07 4066.38,-88.07"/>
<text xml:space="preserve" text-anchor="middle" x="4066.25" y="-100.2" font-family="Times,serif" font-size="14.00">0</text>
</g>
<!-- node_10 -->
<g id="node23" class="node">
<title>node_10</title>
<polygon fill="#7ccd7c" stroke="#7ccd7c" points="1896.88,-1164.5 1472.88,-1164.5 1472.88,-1090.5 1896.88,-1090.5 1896.88,-1164.5"/>
<text xml:space="preserve" text-anchor="start" x="1480.88" y="-1147.2" font-family="Times,serif" font-size="14.00">LOCALS</text>
<text xml:space="preserve" text-anchor="start" x="1480.88" y="-1130.7" font-family="Times,serif" font-size="14.00">0 = Int(I32)</text>
<text xml:space="preserve" text-anchor="start" x="1480.88" y="-1114.2" font-family="Times,serif" font-size="14.00">1 = *mut {closure@std::rt::lang_start&lt;()&gt;::{closure#0}} (8 bytes, align 8)</text>
<text xml:space="preserve" text-anchor="start" x="1480.88" y="-1097.7" font-family="Times,serif" font-size="14.00">2 = () (0 bytes, align 1)</text>
</g>
<!-- X338088a36ccccec9_0 -->
<g id="node24" class="node">
<title>X338088a36ccccec9_0</title>
<polygon fill="none" stroke="black" points="1968.88,-1145.5 1914.88,-1145.5 1914.88,-1109.5 1968.88,-1109.5 1968.88,-1145.5"/>
<text xml:space="preserve" text-anchor="start" x="1922.88" y="-1122.45" font-family="Times,serif" font-size="14.00">Call</text>
</g>
<!-- X338088a36ccccec9_1 -->
<g id="node25" class="node">
<title>X338088a36ccccec9_1</title>
<polygon fill="none" stroke="black" points="1968.88,-872.75 1914.88,-872.75 1914.88,-836.75 1968.88,-836.75 1968.88,-872.75"/>
<text xml:space="preserve" text-anchor="start" x="1922.88" y="-849.7" font-family="Times,serif" font-size="14.00">Return</text>
</g>
<!-- X338088a36ccccec9_0&#45;&gt;X338088a36ccccec9_1 -->
<g id="edge13" class="edge">
<title>X338088a36ccccec9_0&#45;&gt;X338088a36ccccec9_1</title>
<path fill="none" stroke="black" d="M1941.88,-1109.15C1941.88,-1063.59 1941.88,-940.21 1941.88,-884.15"/>
<polygon fill="black" stroke="black" points="1945.38,-884.47 1941.88,-874.47 1938.38,-884.47 1945.38,-884.47"/>
<text xml:space="preserve" text-anchor="middle" x="1945.25" y="-1009.7" font-family="Times,serif" font-size="14.00">0</text>
</g>
<!-- Xc68d17dcc5a09212_0 -->
<g id="node26" class="node">
<title>Xc68d17dcc5a09212_0</title>
<polygon fill="none" stroke="black" points="2079.12,-875.25 1992.62,-875.25 1992.62,-834.25 2079.12,-834.25 2079.12,-875.25"/>
<text xml:space="preserve" text-anchor="start" x="2000.62" y="-857.95" font-family="Times,serif" font-size="14.00">3 &lt;&#45; &amp;mut 1</text>
<text xml:space="preserve" text-anchor="start" x="2000.62" y="-841.45" font-family="Times,serif" font-size="14.00">Call</text>
</g>
<!-- X338088a36ccccec9_0&#45;&gt;Xc68d17dcc5a09212_0 -->
<g id="edge14" class="edge">
<title>X338088a36ccccec9_0&#45;&gt;Xc68d17dcc5a09212_0</title>
<path fill="none" stroke="black" d="M1947.9,-1109.15C1963.52,-1064.16 2005.48,-943.3 2025.27,-886.3"/>
<polygon fill="black" stroke="black" points="2028.56,-887.5 2028.53,-876.9 2021.95,-885.2 2028.56,-887.5"/>
<text xml:space="preserve" text-anchor="middle" x="2026.75" y="-1009.7" font-family="Times,serif" font-size="14.00">mv((*1)),mv(2)</text>
</g>
<!-- Xc68d17dcc5a09212_0&#45;&gt;X65af0e3007b124b_0 -->
<g id="edge21" class="edge">
<title>Xc68d17dcc5a09212_0&#45;&gt;X65af0e3007b124b_0</title>
<path fill="none" stroke="black" d="M2049.9,-833.88C2059.41,-822.15 2073.1,-808.32 2088.88,-801.5 2182.98,-760.84 2922.27,-818.57 3010.88,-767 3034.91,-753.01 3052.11,-727.65 3063.75,-704.02"/>
<polygon fill="black" stroke="black" points="3066.88,-705.6 3067.92,-695.05 3060.53,-702.64 3066.88,-705.6"/>
<text xml:space="preserve" text-anchor="middle" x="3023.8" y="-778.2" font-family="Times,serif" font-size="14.00">mv(3),mv(2)</text>
</g>
<!-- Xc68d17dcc5a09212_3 -->
<g id="node30" class="node">
<title>Xc68d17dcc5a09212_3</title>
<polygon fill="none" stroke="black" points="2057,-666 2002.75,-666 2002.75,-630 2057,-630 2057,-666"/>
<text xml:space="preserve" text-anchor="start" x="2010.75" y="-642.95" font-family="Times,serif" font-size="14.00">Drop 1</text>
</g>
<!-- Xc68d17dcc5a09212_0&#45;&gt;Xc68d17dcc5a09212_3 -->
<g id="edge17" class="edge">
<title>Xc68d17dcc5a09212_0&#45;&gt;Xc68d17dcc5a09212_3</title>
<path fill="none" stroke="black" d="M2035.21,-833.85C2034.81,-821.63 2034.3,-805.66 2033.88,-791.5 2032.68,-751.89 2031.42,-706.08 2030.64,-677.32"/>
<polygon fill="black" stroke="black" points="2034.14,-677.52 2030.37,-667.62 2027.15,-677.71 2034.14,-677.52"/>
<text xml:space="preserve" text-anchor="middle" x="2056.38" y="-778.2" font-family="Times,serif" font-size="14.00">Cleanup</text>
</g>
<!-- Xc68d17dcc5a09212_1 -->
<g id="node31" class="node">
<title>Xc68d17dcc5a09212_1</title>
<polygon fill="none" stroke="black" points="2130,-666 2075.75,-666 2075.75,-630 2130,-630 2130,-666"/>
<text xml:space="preserve" text-anchor="start" x="2083.75" y="-642.95" font-family="Times,serif" font-size="14.00">Drop 1</text>
</g>
<!-- Xc68d17dcc5a09212_0&#45;&gt;Xc68d17dcc5a09212_1 -->
<g id="edge18" class="edge">
<title>Xc68d17dcc5a09212_0&#45;&gt;Xc68d17dcc5a09212_1</title>
<path fill="none" stroke="black" d="M2053.06,-833.76C2062.14,-822.15 2072.65,-806.83 2078.88,-791.5 2094.14,-753.91 2099.69,-706.94 2101.72,-677.45"/>
<polygon fill="black" stroke="black" points="2105.19,-678.02 2102.28,-667.84 2098.2,-677.62 2105.19,-678.02"/>
<text xml:space="preserve" text-anchor="middle" x="2087.59" y="-778.2" font-family="Times,serif" font-size="14.00">0</text>
</g>
<!-- node_12 -->
<g id="node27" class="node">
<title>node_12</title>
<polygon fill="#7ccd7c" stroke="#7ccd7c" points="4270,-255 4125.75,-255 4125.75,-181 4270,-181 4270,-255"/>
<text xml:space="preserve" text-anchor="start" x="4133.75" y="-237.7" font-family="Times,serif" font-size="14.00">LOCALS</text>
<text xml:space="preserve" text-anchor="start" x="4133.75" y="-221.2" font-family="Times,serif" font-size="14.00">0 = () (0 bytes, align 1)</text>
<text xml:space="preserve" text-anchor="start" x="4133.75" y="-204.7" font-family="Times,serif" font-size="14.00">1 = fn()</text>
<text xml:space="preserve" text-anchor="start" x="4133.75" y="-188.2" font-family="Times,serif" font-size="14.00">2 = () (0 bytes, align 1)</text>
</g>
<!-- node_14 -->
<g id="node29" class="node">
<title>node_14</title>
<polygon fill="#7ccd7c" stroke="#7ccd7c" points="2526.12,-900 2097.62,-900 2097.62,-809.5 2526.12,-809.5 2526.12,-900"/>
<text xml:space="preserve" text-anchor="start" x="2105.62" y="-882.7" font-family="Times,serif" font-size="14.00">LOCALS</text>
<text xml:space="preserve" text-anchor="start" x="2105.62" y="-866.2" font-family="Times,serif" font-size="14.00">0 = Int(I32)</text>
<text xml:space="preserve" text-anchor="start" x="2105.62" y="-849.7" font-family="Times,serif" font-size="14.00">1 = {closure@std::rt::lang_start&lt;()&gt;::{closure#0}}</text>
<text xml:space="preserve" text-anchor="start" x="2105.62" y="-833.2" font-family="Times,serif" font-size="14.00">2 = () (0 bytes, align 1)</text>
<text xml:space="preserve" text-anchor="start" x="2105.62" y="-816.7" font-family="Times,serif" font-size="14.00">3 = &amp;mut {closure@std::rt::lang_start&lt;()&gt;::{closure#0}} (8 bytes, align 8)</text>
</g>
<!-- Xc68d17dcc5a09212_4 -->
<g id="node33" class="node">
<title>Xc68d17dcc5a09212_4</title>
<polygon fill="none" stroke="black" points="2059,-434.5 1998.75,-434.5 1998.75,-398.5 2059,-398.5 2059,-434.5"/>
<text xml:space="preserve" text-anchor="start" x="2006.75" y="-411.45" font-family="Times,serif" font-size="14.00">Resume</text>
</g>
<!-- Xc68d17dcc5a09212_3&#45;&gt;Xc68d17dcc5a09212_4 -->
<g id="edge20" class="edge">
<title>Xc68d17dcc5a09212_3&#45;&gt;Xc68d17dcc5a09212_4</title>
<path fill="none" stroke="black" d="M2029.8,-629.75C2029.63,-590.62 2029.21,-494.8 2029,-446.43"/>
<polygon fill="black" stroke="black" points="2032.5,-446.45 2028.96,-436.46 2025.5,-446.48 2032.5,-446.45"/>
</g>
<!-- Xc68d17dcc5a09212_2 -->
<g id="node32" class="node">
<title>Xc68d17dcc5a09212_2</title>
<polygon fill="none" stroke="black" points="2130.88,-434.5 2076.88,-434.5 2076.88,-398.5 2130.88,-398.5 2130.88,-434.5"/>
<text xml:space="preserve" text-anchor="start" x="2084.88" y="-411.45" font-family="Times,serif" font-size="14.00">Return</text>
</g>
<!-- Xc68d17dcc5a09212_1&#45;&gt;Xc68d17dcc5a09212_2 -->
<g id="edge19" class="edge">
<title>Xc68d17dcc5a09212_1&#45;&gt;Xc68d17dcc5a09212_2</title>
<path fill="none" stroke="black" d="M2102.95,-629.75C2103.12,-590.62 2103.54,-494.8 2103.75,-446.43"/>
<polygon fill="black" stroke="black" points="2107.25,-446.48 2103.79,-436.46 2100.25,-446.45 2107.25,-446.48"/>
</g>
<!-- node_16 -->
<g id="node34" class="node">
<title>node_16</title>
<polygon fill="#7ccd7c" stroke="#7ccd7c" points="4432.88,-1156.25 4008.88,-1156.25 4008.88,-1098.75 4432.88,-1098.75 4432.88,-1156.25"/>
<text xml:space="preserve" text-anchor="start" x="4016.88" y="-1138.95" font-family="Times,serif" font-size="14.00">LOCALS</text>
<text xml:space="preserve" text-anchor="start" x="4016.88" y="-1122.45" font-family="Times,serif" font-size="14.00">0 = () (0 bytes, align 1)</text>
<text xml:space="preserve" text-anchor="start" x="4016.88" y="-1105.95" font-family="Times,serif" font-size="14.00">1 = *mut {closure@std::rt::lang_start&lt;()&gt;::{closure#0}} (8 bytes, align 8)</text>
</g>
<!-- X3a5dbdd3459870c9_0 -->
<g id="node35" class="node">
<title>X3a5dbdd3459870c9_0</title>
<polygon fill="none" stroke="black" points="4504.88,-1145.5 4450.88,-1145.5 4450.88,-1109.5 4504.88,-1109.5 4504.88,-1145.5"/>
<text xml:space="preserve" text-anchor="start" x="4458.88" y="-1122.45" font-family="Times,serif" font-size="14.00">Return</text>
</g>
<!-- node_18 -->
<g id="node36" class="node">
<title>node_18</title>
<polygon fill="#7ccd7c" stroke="#7ccd7c" points="4431.25,-900 4156.5,-900 4156.5,-809.5 4431.25,-809.5 4431.25,-900"/>
<text xml:space="preserve" text-anchor="start" x="4164.5" y="-882.7" font-family="Times,serif" font-size="14.00">LOCALS</text>
<text xml:space="preserve" text-anchor="start" x="4164.5" y="-866.2" font-family="Times,serif" font-size="14.00">0 = Uint(U32)</text>
<text xml:space="preserve" text-anchor="start" x="4164.5" y="-849.7" font-family="Times,serif" font-size="14.00">1 = std::option::Option&lt;u32&gt; (8 bytes, align 4)</text>
<text xml:space="preserve" text-anchor="start" x="4164.5" y="-833.2" font-family="Times,serif" font-size="14.00">2 = Int(Isize)</text>
<text xml:space="preserve" text-anchor="start" x="4164.5" y="-816.7" font-family="Times,serif" font-size="14.00">3 = ()</text>
</g>
<!-- X5b398d6023fbe452_2&#45;&gt;Xe8a26c2980749453_0 -->
<g id="edge25" class="edge">
<title>X5b398d6023fbe452_2&#45;&gt;Xe8a26c2980749453_0</title>
<path fill="none" stroke="black" d="M4035.88,-629.75C4035.88,-591.21 4035.88,-497.68 4035.88,-448.65"/>
<polygon fill="black" stroke="black" points="4039.38,-448.72 4035.88,-438.72 4032.38,-448.72 4039.38,-448.72"/>
</g>
<!-- node_20 -->
<g id="node40" class="node">
<title>node_20</title>
<polygon fill="#7ccd7c" stroke="#7ccd7c" points="3688.62,-246.75 3431.12,-246.75 3431.12,-189.25 3688.62,-189.25 3688.62,-246.75"/>
<text xml:space="preserve" text-anchor="start" x="3439.12" y="-229.45" font-family="Times,serif" font-size="14.00">LOCALS</text>
<text xml:space="preserve" text-anchor="start" x="3439.12" y="-212.95" font-family="Times,serif" font-size="14.00">0 = std::process::ExitCode (1 bytes, align 1)</text>
<text xml:space="preserve" text-anchor="start" x="3439.12" y="-196.45" font-family="Times,serif" font-size="14.00">1 = () (0 bytes, align 1)</text>
</g>
</g>
</svg>
