<?xml version="1.0" encoding="UTF-8" standalone="no"?>
<!DOCTYPE svg PUBLIC "-//W3C//DTD SVG 1.1//EN"
 "http://www.w3.org/Graphics/SVG/1.1/DTD/svg11.dtd">
<!-- Generated by graphviz version 14.1.1 (20251213.1925)
 -->
<!-- Pages: 1 -->
<svg width="4901pt" height="1279pt"
 viewBox="0.00 0.00 4901.00 1279.00" xmlns="http://www.w3.org/2000/svg" xmlns:xlink="http://www.w3.org/1999/xlink">
<g id="graph0" class="graph" transform="scale(1 1) rotate(0) translate(4 1275)">
<polygon fill="white" stroke="none" points="-4,4 -4,-1275 4897.38,-1275 4897.38,4 -4,4"/>
<text xml:space="preserve" text-anchor="middle" x="2446.69" y="-7.2" font-family="Times,serif" font-size="14.00">strange_ref_deref</text>
<g id="clust1" class="cluster">
<title>cluster_2</title>
<polygon fill="palegreen" stroke="palegreen" points="606.38,-828.75 606.38,-1230 983.38,-1230 983.38,-828.75 606.38,-828.75"/>
<text xml:space="preserve" text-anchor="middle" x="794.88" y="-1212.7" font-family="Times,serif" font-size="14.00">main</text>
</g>
<g id="clust2" class="cluster">
<title>cluster_4</title>
<polygon fill="lightgray" stroke="lightgray" points="991.38,-801.5 991.38,-1246.5 1826.38,-1246.5 1826.38,-801.5 991.38,-801.5"/>
<text xml:space="preserve" text-anchor="middle" x="1408.88" y="-1229.2" font-family="Times,serif" font-size="14.00">std::rt::lang_start::&lt;()&gt;</text>
</g>
<g id="clust3" class="cluster">
<title>cluster_6</title>
<polygon fill="lightgray" stroke="lightgray" points="3149.38,-123.5 3149.38,-767 3763.38,-767 3763.38,-123.5 3149.38,-123.5"/>
<text xml:space="preserve" text-anchor="middle" x="3456.38" y="-749.7" font-family="Times,serif" font-size="14.00">std::rt::lang_start::&lt;()&gt;</text>
<text xml:space="preserve" text-anchor="middle" x="3456.38" y="-733.2" font-family="Times,serif" font-size="14.00">::{closure#0}</text>
</g>
<g id="clust4" class="cluster">
<title>cluster_8</title>
<polygon fill="lightgray" stroke="lightgray" points="4312.38,-32.5 4312.38,-535.5 4544.38,-535.5 4544.38,-32.5 4312.38,-32.5"/>
<text xml:space="preserve" text-anchor="middle" x="4428.38" y="-518.2" font-family="Times,serif" font-size="14.00">std::sys::backtrace::__ru</text>
<text xml:space="preserve" text-anchor="middle" x="4428.38" y="-501.7" font-family="Times,serif" font-size="14.00">st_begin_short_backtrace:</text>
<text xml:space="preserve" text-anchor="middle" x="4428.38" y="-485.2" font-family="Times,serif" font-size="14.00">:&lt;fn(), </text>
<text xml:space="preserve" text-anchor="middle" x="4428.38" y="-468.7" font-family="Times,serif" font-size="14.00">()&gt;</text>
</g>
<g id="clust5" class="cluster">
<title>cluster_10</title>
<polygon fill="lightgray" stroke="lightgray" points="2072.38,-828.75 2072.38,-1263 2584.38,-1263 2584.38,-828.75 2072.38,-828.75"/>
<text xml:space="preserve" text-anchor="middle" x="2328.38" y="-1245.7" font-family="Times,serif" font-size="14.00">&lt;{closure@std::rt::lang_s</text>
<text xml:space="preserve" text-anchor="middle" x="2328.38" y="-1229.2" font-family="Times,serif" font-size="14.00">tart&lt;()&gt;::{closure#0}} </text>
<text xml:space="preserve" text-anchor="middle" x="2328.38" y="-1212.7" font-family="Times,serif" font-size="14.00">as </text>
<text xml:space="preserve" text-anchor="middle" x="2328.38" y="-1196.2" font-family="Times,serif" font-size="14.00">std::ops::FnOnce&lt;()&gt;&gt;::ca</text>
<text xml:space="preserve" text-anchor="middle" x="2328.38" y="-1179.7" font-family="Times,serif" font-size="14.00">ll_once</text>
</g>
<g id="clust6" class="cluster">
<title>cluster_12</title>
<polygon fill="lightgray" stroke="lightgray" points="4635.38,-32.5 4635.38,-337 4885.38,-337 4885.38,-32.5 4635.38,-32.5"/>
<text xml:space="preserve" text-anchor="middle" x="4760.38" y="-319.7" font-family="Times,serif" font-size="14.00">&lt;fn() </text>
<text xml:space="preserve" text-anchor="middle" x="4760.38" y="-303.2" font-family="Times,serif" font-size="14.00">as </text>
<text xml:space="preserve" text-anchor="middle" x="4760.38" y="-286.7" font-family="Times,serif" font-size="14.00">std::ops::FnOnce&lt;()&gt;&gt;::ca</text>
<text xml:space="preserve" text-anchor="middle" x="4760.38" y="-270.2" font-family="Times,serif" font-size="14.00">ll_once</text>
</g>
<g id="clust7" class="cluster">
<title>cluster_14</title>
<polygon fill="lightgray" stroke="lightgray" points="2592.38,-390.5 2592.38,-998.5 3141.38,-998.5 3141.38,-390.5 2592.38,-390.5"/>
<text xml:space="preserve" text-anchor="middle" x="2866.88" y="-981.2" font-family="Times,serif" font-size="14.00">&lt;{closure@std::rt::lang_s</text>
<text xml:space="preserve" text-anchor="middle" x="2866.88" y="-964.7" font-family="Times,serif" font-size="14.00">tart&lt;()&gt;::{closure#0}} </text>
<text xml:space="preserve" text-anchor="middle" x="2866.88" y="-948.2" font-family="Times,serif" font-size="14.00">as </text>
<text xml:space="preserve" text-anchor="middle" x="2866.88" y="-931.7" font-family="Times,serif" font-size="14.00">std::ops::FnOnce&lt;()&gt;&gt;::ca</text>
<text xml:space="preserve" text-anchor="middle" x="2866.88" y="-915.2" font-family="Times,serif" font-size="14.00">ll_once</text>
</g>
<g id="clust8" class="cluster">
<title>cluster_16</title>
<polygon fill="lightgray" stroke="lightgray" points="3482.38,-1090.75 3482.38,-1221.75 3994.38,-1221.75 3994.38,-1090.75 3482.38,-1090.75"/>
<text xml:space="preserve" text-anchor="middle" x="3738.38" y="-1204.45" font-family="Times,serif" font-size="14.00">std::ptr::drop_in_place::</text>
<text xml:space="preserve" text-anchor="middle" x="3738.38" y="-1187.95" font-family="Times,serif" font-size="14.00">&lt;{closure@std::rt::lang_s</text>
<text xml:space="preserve" text-anchor="middle" x="3738.38" y="-1171.45" font-family="Times,serif" font-size="14.00">tart&lt;()&gt;::{closure#0}}&gt;</text>
</g>
<g id="clust9" class="cluster">
<title>cluster_18</title>
<polygon fill="lightgray" stroke="lightgray" points="3771.38,-181.25 3771.38,-328.75 4304.38,-328.75 4304.38,-181.25 3771.38,-181.25"/>
<text xml:space="preserve" text-anchor="middle" x="4037.88" y="-311.45" font-family="Times,serif" font-size="14.00">&lt;() </text>
<text xml:space="preserve" text-anchor="middle" x="4037.88" y="-294.95" font-family="Times,serif" font-size="14.00">as </text>
<text xml:space="preserve" text-anchor="middle" x="4037.88" y="-278.45" font-family="Times,serif" font-size="14.00">std::process::Termination</text>
<text xml:space="preserve" text-anchor="middle" x="4037.88" y="-261.95" font-family="Times,serif" font-size="14.00">&gt;::report</text>
</g>
<!-- node_0 -->
<g id="node1" class="node">
<title>node_0</title>
<polygon fill="lightyellow" stroke="lightyellow" points="130.75,-1148 0,-1148 0,-1107 130.75,-1107 130.75,-1148"/>
<text xml:space="preserve" text-anchor="start" x="8" y="-1130.7" font-family="Times,serif" font-size="14.00">ALLOCS</text>
<text xml:space="preserve" text-anchor="start" x="8" y="-1114.2" font-family="Times,serif" font-size="14.00">alloc1: Str (26 bytes)</text>
</g>
<!-- node_1 -->
<g id="node2" class="node">
<title>node_1</title>
<polygon fill="lavender" stroke="lavender" points="522.25,-1181 148.5,-1181 148.5,-1074 522.25,-1074 522.25,-1181"/>
<text xml:space="preserve" text-anchor="start" x="156.5" y="-1163.7" font-family="Times,serif" font-size="14.00">TYPES</text>
<text xml:space="preserve" text-anchor="start" x="156.5" y="-1147.2" font-family="Times,serif" font-size="14.00">() (0 bytes)</text>
<text xml:space="preserve" text-anchor="start" x="156.5" y="-1130.7" font-family="Times,serif" font-size="14.00">std::panic::Location&lt;&#39;_&gt; (24 bytes)</text>
<text xml:space="preserve" text-anchor="start" x="156.5" y="-1114.2" font-family="Times,serif" font-size="14.00">std::process::ExitCode (1 bytes)</text>
<text xml:space="preserve" text-anchor="start" x="156.5" y="-1097.7" font-family="Times,serif" font-size="14.00">std::result::Result&lt;isize, !&gt; (8 bytes)</text>
<text xml:space="preserve" text-anchor="start" x="156.5" y="-1081.2" font-family="Times,serif" font-size="14.00">std::sys::pal::unix::process::process_common::ExitCode (1 bytes)</text>
</g>
<!-- X8b0ac2e54b9a91_0 -->
<g id="node3" class="node">
<title>X8b0ac2e54b9a91_0</title>
<polygon fill="none" stroke="red" points="596.62,-1145.5 540.12,-1145.5 540.12,-1109.5 596.62,-1109.5 596.62,-1145.5"/>
<text xml:space="preserve" text-anchor="middle" x="568.38" y="-1122.45" font-family="Times,serif" font-size="14.00">NoOp: </text>
</g>
<!-- X210a8e5fe9313c81_0 -->
<g id="node4" class="node">
<title>X210a8e5fe9313c81_0</title>
<polygon fill="none" stroke="red" points="1015.12,-668.5 841.62,-668.5 841.62,-627.5 1015.12,-627.5 1015.12,-668.5"/>
<text xml:space="preserve" text-anchor="middle" x="928.38" y="-651.2" font-family="Times,serif" font-size="14.00">_ZN4core9panicking5panic1</text>
<text xml:space="preserve" text-anchor="middle" x="928.38" y="-634.7" font-family="Times,serif" font-size="14.00">7h37379bf3ce79a0d7E</text>
</g>
<!-- X5eb86185c1cf8f06_0 -->
<g id="node5" class="node">
<title>X5eb86185c1cf8f06_0</title>
<polygon fill="none" stroke="red" points="2002.12,-883.5 1834.62,-883.5 1834.62,-826 2002.12,-826 2002.12,-883.5"/>
<text xml:space="preserve" text-anchor="middle" x="1918.38" y="-866.2" font-family="Times,serif" font-size="14.00">_ZN3std2rt19lang_start_in</text>
<text xml:space="preserve" text-anchor="middle" x="1918.38" y="-849.7" font-family="Times,serif" font-size="14.00">ternal17h035df9ff6960926a</text>
<text xml:space="preserve" text-anchor="middle" x="1918.38" y="-833.2" font-family="Times,serif" font-size="14.00">E</text>
</g>
<!-- X3c6542d96320ad67_0 -->
<g id="node6" class="node">
<title>X3c6542d96320ad67_0</title>
<polygon fill="none" stroke="red" points="4624.5,-79 4552.25,-79 4552.25,-38 4624.5,-38 4624.5,-79"/>
<text xml:space="preserve" text-anchor="middle" x="4588.38" y="-61.7" font-family="Times,serif" font-size="14.00">Intr: </text>
<text xml:space="preserve" text-anchor="middle" x="4588.38" y="-45.2" font-family="Times,serif" font-size="14.00">black_box</text>
</g>
<!-- node_3 -->
<g id="node7" class="node">
<title>node_3</title>
<polygon fill="#7ccd7c" stroke="#7ccd7c" points="789.88,-1197.5 614.88,-1197.5 614.88,-1057.5 789.88,-1057.5 789.88,-1197.5"/>
<text xml:space="preserve" text-anchor="start" x="622.88" y="-1180.2" font-family="Times,serif" font-size="14.00">LOCALS</text>
<text xml:space="preserve" text-anchor="start" x="622.88" y="-1163.7" font-family="Times,serif" font-size="14.00">0 = () (0 bytes, align 1)</text>
<text xml:space="preserve" text-anchor="start" x="622.88" y="-1147.2" font-family="Times,serif" font-size="14.00">1 = Int(I32)</text>
<text xml:space="preserve" text-anchor="start" x="622.88" y="-1130.7" font-family="Times,serif" font-size="14.00">2 = &amp;i32 (8 bytes, align 8)</text>
<text xml:space="preserve" text-anchor="start" x="622.88" y="-1114.2" font-family="Times,serif" font-size="14.00">3 = &amp;&amp;i32 (8 bytes, align 8)</text>
<text xml:space="preserve" text-anchor="start" x="622.88" y="-1097.7" font-family="Times,serif" font-size="14.00">4 = Int(I32)</text>
<text xml:space="preserve" text-anchor="start" x="622.88" y="-1081.2" font-family="Times,serif" font-size="14.00">5 = ()</text>
<text xml:space="preserve" text-anchor="start" x="622.88" y="-1064.7" font-family="Times,serif" font-size="14.00">6 = &amp;i32 (8 bytes, align 8)</text>
</g>
<!-- X6b343513019f1f29_0 -->
<g id="node8" class="node">
<title>X6b343513019f1f29_0</title>
<polygon fill="none" stroke="black" points="975.12,-1189.25 807.62,-1189.25 807.62,-1065.75 975.12,-1065.75 975.12,-1189.25"/>
<text xml:space="preserve" text-anchor="start" x="815.62" y="-1171.95" font-family="Times,serif" font-size="14.00">1 &lt;&#45; Use(const 42_Int(I32))</text>
<text xml:space="preserve" text-anchor="start" x="815.62" y="-1155.45" font-family="Times,serif" font-size="14.00">2 &lt;&#45; &amp; 1</text>
<text xml:space="preserve" text-anchor="start" x="815.62" y="-1138.95" font-family="Times,serif" font-size="14.00">3 &lt;&#45; &amp; 2</text>
<text xml:space="preserve" text-anchor="start" x="815.62" y="-1122.45" font-family="Times,serif" font-size="14.00">6 &lt;&#45; CopyForDeref((*3))</text>
<text xml:space="preserve" text-anchor="start" x="815.62" y="-1105.95" font-family="Times,serif" font-size="14.00">2 &lt;&#45; Use(cp(6))</text>
<text xml:space="preserve" text-anchor="start" x="815.62" y="-1089.45" font-family="Times,serif" font-size="14.00">4 &lt;&#45; Use(cp((*2)))</text>
<text xml:space="preserve" text-anchor="start" x="815.62" y="-1072.95" font-family="Times,serif" font-size="14.00">SwitchInt mv(4)</text>
</g>
<!-- X6b343513019f1f29_1 -->
<g id="node9" class="node">
<title>X6b343513019f1f29_1</title>
<polygon fill="none" stroke="black" points="883.38,-872.75 829.38,-872.75 829.38,-836.75 883.38,-836.75 883.38,-872.75"/>
<text xml:space="preserve" text-anchor="start" x="837.38" y="-849.7" font-family="Times,serif" font-size="14.00">Return</text>
</g>
<!-- X6b343513019f1f29_0&#45;&gt;X6b343513019f1f29_1 -->
<g id="edge1" class="edge">
<title>X6b343513019f1f29_0&#45;&gt;X6b343513019f1f29_1</title>
<path fill="none" stroke="black" d="M881.87,-1065.25C879.8,-1051.37 877.7,-1036.69 875.88,-1023 869.38,-974.22 863,-917.28 859.38,-884"/>
<polygon fill="black" stroke="black" points="862.9,-883.94 858.35,-874.37 855.94,-884.69 862.9,-883.94"/>
<text xml:space="preserve" text-anchor="middle" x="882.62" y="-1009.7" font-family="Times,serif" font-size="14.00">42</text>
</g>
<!-- X6b343513019f1f29_2 -->
<g id="node10" class="node">
<title>X6b343513019f1f29_2</title>
<polygon fill="none" stroke="black" points="955.38,-872.75 901.38,-872.75 901.38,-836.75 955.38,-836.75 955.38,-872.75"/>
<text xml:space="preserve" text-anchor="start" x="909.38" y="-849.7" font-family="Times,serif" font-size="14.00">Call</text>
</g>
<!-- X6b343513019f1f29_0&#45;&gt;X6b343513019f1f29_2 -->
<g id="edge2" class="edge">
<title>X6b343513019f1f29_0&#45;&gt;X6b343513019f1f29_2</title>
<path fill="none" stroke="black" d="M899.72,-1065.4C907.46,-1008.78 918.63,-927.06 924.47,-884.29"/>
<polygon fill="black" stroke="black" points="927.92,-884.95 925.8,-874.57 920.98,-884 927.92,-884.95"/>
<text xml:space="preserve" text-anchor="middle" x="921.53" y="-1009.7" font-family="Times,serif" font-size="14.00">other</text>
</g>
<!-- X6b343513019f1f29_2&#45;&gt;X210a8e5fe9313c81_0 -->
<g id="edge3" class="edge">
<title>X6b343513019f1f29_2&#45;&gt;X210a8e5fe9313c81_0</title>
<path fill="none" stroke="black" d="M928.38,-836.29C928.38,-801.64 928.38,-723.76 928.38,-680.13"/>
<polygon fill="black" stroke="black" points="931.88,-680.31 928.38,-670.31 924.88,-680.31 931.88,-680.31"/>
<text xml:space="preserve" text-anchor="middle" x="965.5" y="-778.2" font-family="Times,serif" font-size="14.00">const [alloc0]</text>
</g>
<!-- node_5 -->
<g id="node11" class="node">
<title>node_5</title>
<polygon fill="#7ccd7c" stroke="#7ccd7c" points="1561.75,-1214 999,-1214 999,-1041 1561.75,-1041 1561.75,-1214"/>
<text xml:space="preserve" text-anchor="start" x="1007" y="-1196.7" font-family="Times,serif" font-size="14.00">LOCALS</text>
<text xml:space="preserve" text-anchor="start" x="1007" y="-1180.2" font-family="Times,serif" font-size="14.00">0 = Int(Isize)</text>
<text xml:space="preserve" text-anchor="start" x="1007" y="-1163.7" font-family="Times,serif" font-size="14.00">1 = fn()</text>
<text xml:space="preserve" text-anchor="start" x="1007" y="-1147.2" font-family="Times,serif" font-size="14.00">2 = Int(Isize)</text>
<text xml:space="preserve" text-anchor="start" x="1007" y="-1130.7" font-family="Times,serif" font-size="14.00">3 = *const *const u8 (8 bytes, align 8)</text>
<text xml:space="preserve" text-anchor="start" x="1007" y="-1114.2" font-family="Times,serif" font-size="14.00">4 = Uint(U8)</text>
<text xml:space="preserve" text-anchor="start" x="1007" y="-1097.7" font-family="Times,serif" font-size="14.00">5 = std::result::Result&lt;isize, !&gt; (8 bytes, align 8)</text>
<text xml:space="preserve" text-anchor="start" x="1007" y="-1081.2" font-family="Times,serif" font-size="14.00">6 = &amp;dyn std::ops::Fn() &#45;&gt; i32 + std::marker::Sync + std::panic::RefUnwindSafe (16 bytes, align 8)</text>
<text xml:space="preserve" text-anchor="start" x="1007" y="-1064.7" font-family="Times,serif" font-size="14.00">7 = &amp;{closure@std::rt::lang_start&lt;()&gt;::{closure#0}} (8 bytes, align 8)</text>
<text xml:space="preserve" text-anchor="start" x="1007" y="-1048.2" font-family="Times,serif" font-size="14.00">8 = {closure@std::rt::lang_start&lt;()&gt;::{closure#0}}</text>
</g>
<!-- X4f9fda3fa7fc50dd_0 -->
<g id="node12" class="node">
<title>X4f9fda3fa7fc50dd_0</title>
<polygon fill="none" stroke="black" points="1818.75,-1189.25 1580,-1189.25 1580,-1065.75 1818.75,-1065.75 1818.75,-1189.25"/>
<text xml:space="preserve" text-anchor="start" x="1588" y="-1171.95" font-family="Times,serif" font-size="14.00">Storage Live _5</text>
<text xml:space="preserve" text-anchor="start" x="1588" y="-1155.45" font-family="Times,serif" font-size="14.00">Storage Live _6</text>
<text xml:space="preserve" text-anchor="start" x="1588" y="-1138.95" font-family="Times,serif" font-size="14.00">Storage Live _8</text>
<text xml:space="preserve" text-anchor="start" x="1588" y="-1122.45" font-family="Times,serif" font-size="14.00">8 &lt;&#45; Closure (cp(1))</text>
<text xml:space="preserve" text-anchor="start" x="1588" y="-1105.95" font-family="Times,serif" font-size="14.00">7 &lt;&#45; &amp; 8</text>
<text xml:space="preserve" text-anchor="start" x="1588" y="-1089.45" font-family="Times,serif" font-size="14.00">6 &lt;&#45; Cast&#45;PointerCoercion(Unsize) cp(7)</text>
<text xml:space="preserve" text-anchor="start" x="1588" y="-1072.95" font-family="Times,serif" font-size="14.00">Call</text>
</g>
<!-- X4f9fda3fa7fc50dd_0&#45;&gt;X5eb86185c1cf8f06_0 -->
<g id="edge5" class="edge">
<title>X4f9fda3fa7fc50dd_0&#45;&gt;X5eb86185c1cf8f06_0</title>
<path fill="none" stroke="black" d="M1768.27,-1065.31C1789.32,-1045.05 1811.8,-1021.72 1830.38,-998.5 1856.89,-965.35 1881.75,-923.65 1898.24,-893.9"/>
<polygon fill="black" stroke="black" points="1901.25,-895.69 1902.98,-885.24 1895.11,-892.33 1901.25,-895.69"/>
<text xml:space="preserve" text-anchor="middle" x="1894.05" y="-1009.7" font-family="Times,serif" font-size="14.00">mv(6),mv(2),mv(3),mv(4)</text>
</g>
<!-- X4f9fda3fa7fc50dd_1 -->
<g id="node13" class="node">
<title>X4f9fda3fa7fc50dd_1</title>
<polygon fill="none" stroke="black" points="1793.25,-900 1605.5,-900 1605.5,-809.5 1793.25,-809.5 1793.25,-900"/>
<text xml:space="preserve" text-anchor="start" x="1613.5" y="-882.7" font-family="Times,serif" font-size="14.00">Storage Dead _6</text>
<text xml:space="preserve" text-anchor="start" x="1613.5" y="-866.2" font-family="Times,serif" font-size="14.00">0 &lt;&#45; Use(cp((5 as variant 0).0))</text>
<text xml:space="preserve" text-anchor="start" x="1613.5" y="-849.7" font-family="Times,serif" font-size="14.00">Storage Dead _8</text>
<text xml:space="preserve" text-anchor="start" x="1613.5" y="-833.2" font-family="Times,serif" font-size="14.00">Storage Dead _5</text>
<text xml:space="preserve" text-anchor="start" x="1613.5" y="-816.7" font-family="Times,serif" font-size="14.00">Return</text>
</g>
<!-- X4f9fda3fa7fc50dd_0&#45;&gt;X4f9fda3fa7fc50dd_1 -->
<g id="edge4" class="edge">
<title>X4f9fda3fa7fc50dd_0&#45;&gt;X4f9fda3fa7fc50dd_1</title>
<path fill="none" stroke="black" d="M1699.38,-1065.4C1699.38,-1019.2 1699.38,-956.29 1699.38,-911.46"/>
<polygon fill="black" stroke="black" points="1702.88,-911.7 1699.38,-901.7 1695.88,-911.7 1702.88,-911.7"/>
<text xml:space="preserve" text-anchor="middle" x="1702.75" y="-1009.7" font-family="Times,serif" font-size="14.00">5</text>
</g>
<!-- node_7 -->
<g id="node14" class="node">
<title>node_7</title>
<polygon fill="#7ccd7c" stroke="#7ccd7c" points="3609.62,-718 3157.12,-718 3157.12,-578 3609.62,-578 3609.62,-718"/>
<text xml:space="preserve" text-anchor="start" x="3165.12" y="-700.7" font-family="Times,serif" font-size="14.00">LOCALS</text>
<text xml:space="preserve" text-anchor="start" x="3165.12" y="-684.2" font-family="Times,serif" font-size="14.00">0 = Int(I32)</text>
<text xml:space="preserve" text-anchor="start" x="3165.12" y="-667.7" font-family="Times,serif" font-size="14.00">1 = &amp;{closure@std::rt::lang_start&lt;()&gt;::{closure#0}} (8 bytes, align 8)</text>
<text xml:space="preserve" text-anchor="start" x="3165.12" y="-651.2" font-family="Times,serif" font-size="14.00">2 = std::process::ExitCode (1 bytes, align 1)</text>
<text xml:space="preserve" text-anchor="start" x="3165.12" y="-634.7" font-family="Times,serif" font-size="14.00">3 = () (0 bytes, align 1)</text>
<text xml:space="preserve" text-anchor="start" x="3165.12" y="-618.2" font-family="Times,serif" font-size="14.00">4 = fn()</text>
<text xml:space="preserve" text-anchor="start" x="3165.12" y="-601.7" font-family="Times,serif" font-size="14.00">5 = &amp;std::sys::pal::unix::process::process_common::ExitCode (8 bytes, align 8)</text>
<text xml:space="preserve" text-anchor="start" x="3165.12" y="-585.2" font-family="Times,serif" font-size="14.00">6 = Uint(U8)</text>
</g>
<!-- X20d29d8683f11f4f_0 -->
<g id="node15" class="node">
<title>X20d29d8683f11f4f_0</title>
<polygon fill="none" stroke="black" points="3755.25,-693.25 3627.5,-693.25 3627.5,-602.75 3755.25,-602.75 3755.25,-693.25"/>
<text xml:space="preserve" text-anchor="start" x="3635.5" y="-675.95" font-family="Times,serif" font-size="14.00">Storage Live _2</text>
<text xml:space="preserve" text-anchor="start" x="3635.5" y="-659.45" font-family="Times,serif" font-size="14.00">Storage Live _3</text>
<text xml:space="preserve" text-anchor="start" x="3635.5" y="-642.95" font-family="Times,serif" font-size="14.00">Storage Live _4</text>
<text xml:space="preserve" text-anchor="start" x="3635.5" y="-626.45" font-family="Times,serif" font-size="14.00">4 &lt;&#45; Use(cp((*1).0))</text>
<text xml:space="preserve" text-anchor="start" x="3635.5" y="-609.95" font-family="Times,serif" font-size="14.00">Call</text>
</g>
<!-- X20d29d8683f11f4f_1 -->
<g id="node16" class="node">
<title>X20d29d8683f11f4f_1</title>
<polygon fill="none" stroke="black" points="3744.75,-437 3638,-437 3638,-396 3744.75,-396 3744.75,-437"/>
<text xml:space="preserve" text-anchor="start" x="3646" y="-419.7" font-family="Times,serif" font-size="14.00">Storage Dead _4</text>
<text xml:space="preserve" text-anchor="start" x="3646" y="-403.2" font-family="Times,serif" font-size="14.00">Call</text>
</g>
<!-- X20d29d8683f11f4f_0&#45;&gt;X20d29d8683f11f4f_1 -->
<g id="edge6" class="edge">
<title>X20d29d8683f11f4f_0&#45;&gt;X20d29d8683f11f4f_1</title>
<path fill="none" stroke="black" d="M3691.38,-602.48C3691.38,-557.23 3691.38,-488.32 3691.38,-448.63"/>
<polygon fill="black" stroke="black" points="3694.88,-448.82 3691.38,-438.82 3687.88,-448.82 3694.88,-448.82"/>
<text xml:space="preserve" text-anchor="middle" x="3694.75" y="-546.7" font-family="Times,serif" font-size="14.00">3</text>
</g>
<!-- Xca536272657bdbf7_0 -->
<g id="node18" class="node">
<title>Xca536272657bdbf7_0</title>
<polygon fill="none" stroke="black" points="4374.38,-434.5 4320.38,-434.5 4320.38,-398.5 4374.38,-398.5 4374.38,-434.5"/>
<text xml:space="preserve" text-anchor="start" x="4328.38" y="-411.45" font-family="Times,serif" font-size="14.00">Call</text>
</g>
<!-- X20d29d8683f11f4f_0&#45;&gt;Xca536272657bdbf7_0 -->
<g id="edge8" class="edge">
<title>X20d29d8683f11f4f_0&#45;&gt;Xca536272657bdbf7_0</title>
<path fill="none" stroke="black" d="M3755.47,-624.58C3890.61,-577.3 4201.2,-468.64 4309.38,-430.79"/>
<polygon fill="black" stroke="black" points="4310.38,-434.15 4318.66,-427.55 4308.07,-427.54 4310.38,-434.15"/>
<text xml:space="preserve" text-anchor="middle" x="3996.97" y="-546.7" font-family="Times,serif" font-size="14.00">mv(4)</text>
</g>
<!-- X20d29d8683f11f4f_2 -->
<g id="node17" class="node">
<title>X20d29d8683f11f4f_2</title>
<polygon fill="none" stroke="black" points="3755.38,-304.5 3601.38,-304.5 3601.38,-131.5 3755.38,-131.5 3755.38,-304.5"/>
<text xml:space="preserve" text-anchor="start" x="3609.38" y="-287.2" font-family="Times,serif" font-size="14.00">Storage Dead _3</text>
<text xml:space="preserve" text-anchor="start" x="3609.38" y="-270.7" font-family="Times,serif" font-size="14.00">Storage Live _5</text>
<text xml:space="preserve" text-anchor="start" x="3609.38" y="-254.2" font-family="Times,serif" font-size="14.00">5 &lt;&#45; &amp; 2.0</text>
<text xml:space="preserve" text-anchor="start" x="3609.38" y="-237.7" font-family="Times,serif" font-size="14.00">Storage Live _6</text>
<text xml:space="preserve" text-anchor="start" x="3609.38" y="-221.2" font-family="Times,serif" font-size="14.00">6 &lt;&#45; Use(cp(2.0.0))</text>
<text xml:space="preserve" text-anchor="start" x="3609.38" y="-204.7" font-family="Times,serif" font-size="14.00">0 &lt;&#45; Cast&#45;IntToInt mv(6)</text>
<text xml:space="preserve" text-anchor="start" x="3609.38" y="-188.2" font-family="Times,serif" font-size="14.00">Storage Dead _6</text>
<text xml:space="preserve" text-anchor="start" x="3609.38" y="-171.7" font-family="Times,serif" font-size="14.00">Storage Dead _5</text>
<text xml:space="preserve" text-anchor="start" x="3609.38" y="-155.2" font-family="Times,serif" font-size="14.00">Storage Dead _2</text>
<text xml:space="preserve" text-anchor="start" x="3609.38" y="-138.7" font-family="Times,serif" font-size="14.00">Return</text>
</g>
<!-- X20d29d8683f11f4f_1&#45;&gt;X20d29d8683f11f4f_2 -->
<g id="edge7" class="edge">
<title>X20d29d8683f11f4f_1&#45;&gt;X20d29d8683f11f4f_2</title>
<path fill="none" stroke="black" d="M3690.06,-395.58C3688.8,-376.54 3686.8,-346.38 3684.81,-316.33"/>
<polygon fill="black" stroke="black" points="3688.31,-316.1 3684.15,-306.35 3681.32,-316.56 3688.31,-316.1"/>
<text xml:space="preserve" text-anchor="middle" x="3690.91" y="-348.2" font-family="Times,serif" font-size="14.00">2</text>
</g>
<!-- X2581f3f2d5dfd456_0 -->
<g id="node19" class="node">
<title>X2581f3f2d5dfd456_0</title>
<polygon fill="none" stroke="black" points="4020.88,-238.5 3779.88,-238.5 3779.88,-197.5 4020.88,-197.5 4020.88,-238.5"/>
<text xml:space="preserve" text-anchor="start" x="3787.88" y="-221.2" font-family="Times,serif" font-size="14.00">0 &lt;&#45; Use(const 0_std::process::ExitCode)</text>
<text xml:space="preserve" text-anchor="start" x="3787.88" y="-204.7" font-family="Times,serif" font-size="14.00">Return</text>
</g>
<!-- X20d29d8683f11f4f_1&#45;&gt;X2581f3f2d5dfd456_0 -->
<g id="edge9" class="edge">
<title>X20d29d8683f11f4f_1&#45;&gt;X2581f3f2d5dfd456_0</title>
<path fill="none" stroke="black" d="M3712.57,-395.58C3750.04,-360.34 3828.08,-286.97 3870.82,-246.78"/>
<polygon fill="black" stroke="black" points="3873.14,-249.41 3878.03,-240.01 3868.34,-244.31 3873.14,-249.41"/>
<text xml:space="preserve" text-anchor="middle" x="3781.82" y="-348.2" font-family="Times,serif" font-size="14.00">mv(3)</text>
</g>
<!-- Xca536272657bdbf7_1 -->
<g id="node21" class="node">
<title>Xca536272657bdbf7_1</title>
<polygon fill="none" stroke="black" points="4454.38,-236 4400.38,-236 4400.38,-200 4454.38,-200 4454.38,-236"/>
<text xml:space="preserve" text-anchor="start" x="4408.38" y="-212.95" font-family="Times,serif" font-size="14.00">Call</text>
</g>
<!-- Xca536272657bdbf7_0&#45;&gt;Xca536272657bdbf7_1 -->
<g id="edge10" class="edge">
<title>Xca536272657bdbf7_0&#45;&gt;Xca536272657bdbf7_1</title>
<path fill="none" stroke="black" d="M4354.47,-398.06C4368.35,-363.98 4399.18,-288.26 4415.96,-247.05"/>
<polygon fill="black" stroke="black" points="4419.19,-248.38 4419.72,-237.8 4412.71,-245.74 4419.19,-248.38"/>
<text xml:space="preserve" text-anchor="middle" x="4378.91" y="-348.2" font-family="Times,serif" font-size="14.00">0</text>
</g>
<!-- Xc6b1681eadf306a4_0 -->
<g id="node23" class="node">
<title>Xc6b1681eadf306a4_0</title>
<polygon fill="none" stroke="black" points="4697.38,-236 4643.38,-236 4643.38,-200 4697.38,-200 4697.38,-236"/>
<text xml:space="preserve" text-anchor="start" x="4651.38" y="-212.95" font-family="Times,serif" font-size="14.00">Call</text>
</g>
<!-- Xca536272657bdbf7_0&#45;&gt;Xc6b1681eadf306a4_0 -->
<g id="edge12" class="edge">
<title>Xca536272657bdbf7_0&#45;&gt;Xc6b1681eadf306a4_0</title>
<path fill="none" stroke="black" d="M4361.25,-398.06C4367.38,-391.38 4375.08,-384.23 4383.38,-379.5 4449.14,-341.96 4482.3,-374 4548.38,-337 4590.23,-313.56 4628.19,-272.21 4650.28,-245.21"/>
<polygon fill="black" stroke="black" points="4652.95,-247.48 4656.47,-237.49 4647.48,-243.11 4652.95,-247.48"/>
<text xml:space="preserve" text-anchor="middle" x="4568.85" y="-348.2" font-family="Times,serif" font-size="14.00">mv(1),const ()</text>
</g>
<!-- node_9 -->
<g id="node20" class="node">
<title>node_9</title>
<polygon fill="#7ccd7c" stroke="#7ccd7c" points="4536.5,-453.5 4392.25,-453.5 4392.25,-379.5 4536.5,-379.5 4536.5,-453.5"/>
<text xml:space="preserve" text-anchor="start" x="4400.25" y="-436.2" font-family="Times,serif" font-size="14.00">LOCALS</text>
<text xml:space="preserve" text-anchor="start" x="4400.25" y="-419.7" font-family="Times,serif" font-size="14.00">0 = () (0 bytes, align 1)</text>
<text xml:space="preserve" text-anchor="start" x="4400.25" y="-403.2" font-family="Times,serif" font-size="14.00">1 = fn()</text>
<text xml:space="preserve" text-anchor="start" x="4400.25" y="-386.7" font-family="Times,serif" font-size="14.00">2 = () (0 bytes, align 1)</text>
</g>
<!-- Xca536272657bdbf7_1&#45;&gt;X3c6542d96320ad67_0 -->
<g id="edge13" class="edge">
<title>Xca536272657bdbf7_1&#45;&gt;X3c6542d96320ad67_0</title>
<path fill="none" stroke="black" d="M4445.22,-199.54C4473.07,-172.3 4527.11,-119.44 4560.24,-87.03"/>
<polygon fill="black" stroke="black" points="4562.4,-89.81 4567.1,-80.31 4557.5,-84.8 4562.4,-89.81"/>
<text xml:space="preserve" text-anchor="middle" x="4570.09" y="-100.2" font-family="Times,serif" font-size="14.00">const ()</text>
</g>
<!-- Xca536272657bdbf7_2 -->
<g id="node22" class="node">
<title>Xca536272657bdbf7_2</title>
<polygon fill="none" stroke="black" points="4454.38,-76.5 4400.38,-76.5 4400.38,-40.5 4454.38,-40.5 4454.38,-76.5"/>
<text xml:space="preserve" text-anchor="start" x="4408.38" y="-53.45" font-family="Times,serif" font-size="14.00">Return</text>
</g>
<!-- Xca536272657bdbf7_1&#45;&gt;Xca536272657bdbf7_2 -->
<g id="edge11" class="edge">
<title>Xca536272657bdbf7_1&#45;&gt;Xca536272657bdbf7_2</title>
<path fill="none" stroke="black" d="M4427.38,-199.54C4427.38,-172.56 4427.38,-120.44 4427.38,-87.95"/>
<polygon fill="black" stroke="black" points="4430.88,-88.07 4427.38,-78.07 4423.88,-88.07 4430.88,-88.07"/>
<text xml:space="preserve" text-anchor="middle" x="4430.75" y="-100.2" font-family="Times,serif" font-size="14.00">2</text>
</g>
<!-- Xc6b1681eadf306a4_0&#45;&gt;Xc6b1681eadf306a4_0 -->
<g id="edge17" class="edge">
<title>Xc6b1681eadf306a4_0&#45;&gt;Xc6b1681eadf306a4_0:1</title>
<path fill="none" stroke="black" d="M4687.93,-236.41C4701.52,-243.3 4715.38,-237.16 4715.38,-218 4715.38,-204.08 4708.06,-197.03 4698.85,-196.86"/>
<polygon fill="black" stroke="black" points="4698.25,-193.4 4689.4,-199.22 4699.95,-200.2 4698.25,-193.4"/>
</g>
<!-- Xc6b1681eadf306a4_1 -->
<g id="node29" class="node">
<title>Xc6b1681eadf306a4_1</title>
<polygon fill="none" stroke="black" points="4697.38,-76.5 4643.38,-76.5 4643.38,-40.5 4697.38,-40.5 4697.38,-76.5"/>
<text xml:space="preserve" text-anchor="start" x="4651.38" y="-53.45" font-family="Times,serif" font-size="14.00">Return</text>
</g>
<!-- Xc6b1681eadf306a4_0&#45;&gt;Xc6b1681eadf306a4_1 -->
<g id="edge16" class="edge">
<title>Xc6b1681eadf306a4_0&#45;&gt;Xc6b1681eadf306a4_1</title>
<path fill="none" stroke="black" d="M4670.38,-199.54C4670.38,-172.56 4670.38,-120.44 4670.38,-87.95"/>
<polygon fill="black" stroke="black" points="4673.88,-88.07 4670.38,-78.07 4666.88,-88.07 4673.88,-88.07"/>
<text xml:space="preserve" text-anchor="middle" x="4673.75" y="-100.2" font-family="Times,serif" font-size="14.00">0</text>
</g>
<!-- node_11 -->
<g id="node24" class="node">
<title>node_11</title>
<polygon fill="#7ccd7c" stroke="#7ccd7c" points="2504.38,-1164.5 2080.38,-1164.5 2080.38,-1090.5 2504.38,-1090.5 2504.38,-1164.5"/>
<text xml:space="preserve" text-anchor="start" x="2088.38" y="-1147.2" font-family="Times,serif" font-size="14.00">LOCALS</text>
<text xml:space="preserve" text-anchor="start" x="2088.38" y="-1130.7" font-family="Times,serif" font-size="14.00">0 = Int(I32)</text>
<text xml:space="preserve" text-anchor="start" x="2088.38" y="-1114.2" font-family="Times,serif" font-size="14.00">1 = *mut {closure@std::rt::lang_start&lt;()&gt;::{closure#0}} (8 bytes, align 8)</text>
<text xml:space="preserve" text-anchor="start" x="2088.38" y="-1097.7" font-family="Times,serif" font-size="14.00">2 = () (0 bytes, align 1)</text>
</g>
<!-- X5fee6e649f9289f7_0 -->
<g id="node25" class="node">
<title>X5fee6e649f9289f7_0</title>
<polygon fill="none" stroke="black" points="2576.38,-1145.5 2522.38,-1145.5 2522.38,-1109.5 2576.38,-1109.5 2576.38,-1145.5"/>
<text xml:space="preserve" text-anchor="start" x="2530.38" y="-1122.45" font-family="Times,serif" font-size="14.00">Call</text>
</g>
<!-- X5fee6e649f9289f7_1 -->
<g id="node26" class="node">
<title>X5fee6e649f9289f7_1</title>
<polygon fill="none" stroke="black" points="2576.38,-872.75 2522.38,-872.75 2522.38,-836.75 2576.38,-836.75 2576.38,-872.75"/>
<text xml:space="preserve" text-anchor="start" x="2530.38" y="-849.7" font-family="Times,serif" font-size="14.00">Return</text>
</g>
<!-- X5fee6e649f9289f7_0&#45;&gt;X5fee6e649f9289f7_1 -->
<g id="edge14" class="edge">
<title>X5fee6e649f9289f7_0&#45;&gt;X5fee6e649f9289f7_1</title>
<path fill="none" stroke="black" d="M2549.38,-1109.15C2549.38,-1063.59 2549.38,-940.21 2549.38,-884.15"/>
<polygon fill="black" stroke="black" points="2552.88,-884.47 2549.38,-874.47 2545.88,-884.47 2552.88,-884.47"/>
<text xml:space="preserve" text-anchor="middle" x="2552.75" y="-1009.7" font-family="Times,serif" font-size="14.00">0</text>
</g>
<!-- Xb510e91eeebc33be_0 -->
<g id="node27" class="node">
<title>Xb510e91eeebc33be_0</title>
<polygon fill="none" stroke="black" points="2686.62,-875.25 2600.12,-875.25 2600.12,-834.25 2686.62,-834.25 2686.62,-875.25"/>
<text xml:space="preserve" text-anchor="start" x="2608.12" y="-857.95" font-family="Times,serif" font-size="14.00">3 &lt;&#45; &amp;mut 1</text>
<text xml:space="preserve" text-anchor="start" x="2608.12" y="-841.45" font-family="Times,serif" font-size="14.00">Call</text>
</g>
<!-- X5fee6e649f9289f7_0&#45;&gt;Xb510e91eeebc33be_0 -->
<g id="edge15" class="edge">
<title>X5fee6e649f9289f7_0&#45;&gt;Xb510e91eeebc33be_0</title>
<path fill="none" stroke="black" d="M2555.4,-1109.15C2571.02,-1064.16 2612.98,-943.3 2632.77,-886.3"/>
<polygon fill="black" stroke="black" points="2636.06,-887.5 2636.03,-876.9 2629.45,-885.2 2636.06,-887.5"/>
<text xml:space="preserve" text-anchor="middle" x="2634.25" y="-1009.7" font-family="Times,serif" font-size="14.00">mv((*1)),mv(2)</text>
</g>
<!-- Xb510e91eeebc33be_0&#45;&gt;X20d29d8683f11f4f_0 -->
<g id="edge22" class="edge">
<title>Xb510e91eeebc33be_0&#45;&gt;X20d29d8683f11f4f_0</title>
<path fill="none" stroke="black" d="M2657.4,-833.88C2666.91,-822.15 2680.6,-808.32 2696.38,-801.5 2790.48,-760.84 3529.77,-818.57 3618.38,-767 3642.41,-753.01 3659.61,-727.65 3671.25,-704.02"/>
<polygon fill="black" stroke="black" points="3674.38,-705.6 3675.42,-695.05 3668.03,-702.64 3674.38,-705.6"/>
<text xml:space="preserve" text-anchor="middle" x="3631.3" y="-778.2" font-family="Times,serif" font-size="14.00">mv(3),mv(2)</text>
</g>
<!-- Xb510e91eeebc33be_3 -->
<g id="node31" class="node">
<title>Xb510e91eeebc33be_3</title>
<polygon fill="none" stroke="black" points="2664.5,-666 2610.25,-666 2610.25,-630 2664.5,-630 2664.5,-666"/>
<text xml:space="preserve" text-anchor="start" x="2618.25" y="-642.95" font-family="Times,serif" font-size="14.00">Drop 1</text>
</g>
<!-- Xb510e91eeebc33be_0&#45;&gt;Xb510e91eeebc33be_3 -->
<g id="edge18" class="edge">
<title>Xb510e91eeebc33be_0&#45;&gt;Xb510e91eeebc33be_3</title>
<path fill="none" stroke="black" d="M2642.71,-833.85C2642.31,-821.63 2641.8,-805.66 2641.38,-791.5 2640.18,-751.89 2638.92,-706.08 2638.14,-677.32"/>
<polygon fill="black" stroke="black" points="2641.64,-677.52 2637.87,-667.62 2634.65,-677.71 2641.64,-677.52"/>
<text xml:space="preserve" text-anchor="middle" x="2663.88" y="-778.2" font-family="Times,serif" font-size="14.00">Cleanup</text>
</g>
<!-- Xb510e91eeebc33be_1 -->
<g id="node32" class="node">
<title>Xb510e91eeebc33be_1</title>
<polygon fill="none" stroke="black" points="2737.5,-666 2683.25,-666 2683.25,-630 2737.5,-630 2737.5,-666"/>
<text xml:space="preserve" text-anchor="start" x="2691.25" y="-642.95" font-family="Times,serif" font-size="14.00">Drop 1</text>
</g>
<!-- Xb510e91eeebc33be_0&#45;&gt;Xb510e91eeebc33be_1 -->
<g id="edge19" class="edge">
<title>Xb510e91eeebc33be_0&#45;&gt;Xb510e91eeebc33be_1</title>
<path fill="none" stroke="black" d="M2660.56,-833.76C2669.64,-822.15 2680.15,-806.83 2686.38,-791.5 2701.64,-753.91 2707.19,-706.94 2709.22,-677.45"/>
<polygon fill="black" stroke="black" points="2712.69,-678.02 2709.78,-667.84 2705.7,-677.62 2712.69,-678.02"/>
<text xml:space="preserve" text-anchor="middle" x="2695.09" y="-778.2" font-family="Times,serif" font-size="14.00">0</text>
</g>
<!-- node_13 -->
<g id="node28" class="node">
<title>node_13</title>
<polygon fill="#7ccd7c" stroke="#7ccd7c" points="4877.5,-255 4733.25,-255 4733.25,-181 4877.5,-181 4877.5,-255"/>
<text xml:space="preserve" text-anchor="start" x="4741.25" y="-237.7" font-family="Times,serif" font-size="14.00">LOCALS</text>
<text xml:space="preserve" text-anchor="start" x="4741.25" y="-221.2" font-family="Times,serif" font-size="14.00">0 = () (0 bytes, align 1)</text>
<text xml:space="preserve" text-anchor="start" x="4741.25" y="-204.7" font-family="Times,serif" font-size="14.00">1 = fn()</text>
<text xml:space="preserve" text-anchor="start" x="4741.25" y="-188.2" font-family="Times,serif" font-size="14.00">2 = () (0 bytes, align 1)</text>
</g>
<!-- node_15 -->
<g id="node30" class="node">
<title>node_15</title>
<polygon fill="#7ccd7c" stroke="#7ccd7c" points="3133.62,-900 2705.12,-900 2705.12,-809.5 3133.62,-809.5 3133.62,-900"/>
<text xml:space="preserve" text-anchor="start" x="2713.12" y="-882.7" font-family="Times,serif" font-size="14.00">LOCALS</text>
<text xml:space="preserve" text-anchor="start" x="2713.12" y="-866.2" font-family="Times,serif" font-size="14.00">0 = Int(I32)</text>
<text xml:space="preserve" text-anchor="start" x="2713.12" y="-849.7" font-family="Times,serif" font-size="14.00">1 = {closure@std::rt::lang_start&lt;()&gt;::{closure#0}}</text>
<text xml:space="preserve" text-anchor="start" x="2713.12" y="-833.2" font-family="Times,serif" font-size="14.00">2 = () (0 bytes, align 1)</text>
<text xml:space="preserve" text-anchor="start" x="2713.12" y="-816.7" font-family="Times,serif" font-size="14.00">3 = &amp;mut {closure@std::rt::lang_start&lt;()&gt;::{closure#0}} (8 bytes, align 8)</text>
</g>
<!-- Xb510e91eeebc33be_4 -->
<g id="node34" class="node">
<title>Xb510e91eeebc33be_4</title>
<polygon fill="none" stroke="black" points="2666.5,-434.5 2606.25,-434.5 2606.25,-398.5 2666.5,-398.5 2666.5,-434.5"/>
<text xml:space="preserve" text-anchor="start" x="2614.25" y="-411.45" font-family="Times,serif" font-size="14.00">Resume</text>
</g>
<!-- Xb510e91eeebc33be_3&#45;&gt;Xb510e91eeebc33be_4 -->
<g id="edge21" class="edge">
<title>Xb510e91eeebc33be_3&#45;&gt;Xb510e91eeebc33be_4</title>
<path fill="none" stroke="black" d="M2637.3,-629.75C2637.13,-590.62 2636.71,-494.8 2636.5,-446.43"/>
<polygon fill="black" stroke="black" points="2640,-446.45 2636.46,-436.46 2633,-446.48 2640,-446.45"/>
</g>
<!-- Xb510e91eeebc33be_2 -->
<g id="node33" class="node">
<title>Xb510e91eeebc33be_2</title>
<polygon fill="none" stroke="black" points="2738.38,-434.5 2684.38,-434.5 2684.38,-398.5 2738.38,-398.5 2738.38,-434.5"/>
<text xml:space="preserve" text-anchor="start" x="2692.38" y="-411.45" font-family="Times,serif" font-size="14.00">Return</text>
</g>
<!-- Xb510e91eeebc33be_1&#45;&gt;Xb510e91eeebc33be_2 -->
<g id="edge20" class="edge">
<title>Xb510e91eeebc33be_1&#45;&gt;Xb510e91eeebc33be_2</title>
<path fill="none" stroke="black" d="M2710.45,-629.75C2710.62,-590.62 2711.04,-494.8 2711.25,-446.43"/>
<polygon fill="black" stroke="black" points="2714.75,-446.48 2711.29,-436.46 2707.75,-446.45 2714.75,-446.48"/>
</g>
<!-- node_17 -->
<g id="node35" class="node">
<title>node_17</title>
<polygon fill="#7ccd7c" stroke="#7ccd7c" points="3914.38,-1156.25 3490.38,-1156.25 3490.38,-1098.75 3914.38,-1098.75 3914.38,-1156.25"/>
<text xml:space="preserve" text-anchor="start" x="3498.38" y="-1138.95" font-family="Times,serif" font-size="14.00">LOCALS</text>
<text xml:space="preserve" text-anchor="start" x="3498.38" y="-1122.45" font-family="Times,serif" font-size="14.00">0 = () (0 bytes, align 1)</text>
<text xml:space="preserve" text-anchor="start" x="3498.38" y="-1105.95" font-family="Times,serif" font-size="14.00">1 = *mut {closure@std::rt::lang_start&lt;()&gt;::{closure#0}} (8 bytes, align 8)</text>
</g>
<!-- X9899ae62f8603f40_0 -->
<g id="node36" class="node">
<title>X9899ae62f8603f40_0</title>
<polygon fill="none" stroke="black" points="3986.38,-1145.5 3932.38,-1145.5 3932.38,-1109.5 3986.38,-1109.5 3986.38,-1145.5"/>
<text xml:space="preserve" text-anchor="start" x="3940.38" y="-1122.45" font-family="Times,serif" font-size="14.00">Return</text>
</g>
<!-- node_19 -->
<g id="node37" class="node">
<title>node_19</title>
<polygon fill="#7ccd7c" stroke="#7ccd7c" points="4296.12,-246.75 4038.62,-246.75 4038.62,-189.25 4296.12,-189.25 4296.12,-246.75"/>
<text xml:space="preserve" text-anchor="start" x="4046.62" y="-229.45" font-family="Times,serif" font-size="14.00">LOCALS</text>
<text xml:space="preserve" text-anchor="start" x="4046.62" y="-212.95" font-family="Times,serif" font-size="14.00">0 = std::process::ExitCode (1 bytes, align 1)</text>
<text xml:space="preserve" text-anchor="start" x="4046.62" y="-196.45" font-family="Times,serif" font-size="14.00">1 = () (0 bytes, align 1)</text>
</g>
</g>
</svg>
