<?xml version="1.0" encoding="UTF-8" standalone="no"?>
<!DOCTYPE svg PUBLIC "-//W3C//DTD SVG 1.1//EN"
 "http://www.w3.org/Graphics/SVG/1.1/DTD/svg11.dtd">
<!-- Generated by graphviz version 14.1.1 (20251213.1925)
 -->
<!-- Pages: 1 -->
<svg width="5023pt" height="1279pt"
 viewBox="0.00 0.00 5023.00 1279.00" xmlns="http://www.w3.org/2000/svg" xmlns:xlink="http://www.w3.org/1999/xlink">
<g id="graph0" class="graph" transform="scale(1 1) rotate(0) translate(4 1275)">
<polygon fill="white" stroke="none" points="-4,4 -4,-1275 5019.38,-1275 5019.38,4 -4,4"/>
<text xml:space="preserve" text-anchor="middle" x="2507.69" y="-7.2" font-family="Times,serif" font-size="14.00">tuples_simple</text>
<g id="clust1" class="cluster">
<title>cluster_2</title>
<polygon fill="palegreen" stroke="palegreen" points="532.38,-828.75 532.38,-1221.75 1036.38,-1221.75 1036.38,-828.75 532.38,-828.75"/>
<text xml:space="preserve" text-anchor="middle" x="784.38" y="-1204.45" font-family="Times,serif" font-size="14.00">main</text>
</g>
<g id="clust2" class="cluster">
<title>cluster_4</title>
<polygon fill="lightgray" stroke="lightgray" points="1113.38,-801.5 1113.38,-1246.5 1948.38,-1246.5 1948.38,-801.5 1113.38,-801.5"/>
<text xml:space="preserve" text-anchor="middle" x="1530.88" y="-1229.2" font-family="Times,serif" font-size="14.00">std::rt::lang_start::&lt;()&gt;</text>
</g>
<g id="clust3" class="cluster">
<title>cluster_6</title>
<polygon fill="lightgray" stroke="lightgray" points="3271.38,-123.5 3271.38,-767 3885.38,-767 3885.38,-123.5 3271.38,-123.5"/>
<text xml:space="preserve" text-anchor="middle" x="3578.38" y="-749.7" font-family="Times,serif" font-size="14.00">std::rt::lang_start::&lt;()&gt;</text>
<text xml:space="preserve" text-anchor="middle" x="3578.38" y="-733.2" font-family="Times,serif" font-size="14.00">::{closure#0}</text>
</g>
<g id="clust4" class="cluster">
<title>cluster_8</title>
<polygon fill="lightgray" stroke="lightgray" points="4434.38,-32.5 4434.38,-535.5 4666.38,-535.5 4666.38,-32.5 4434.38,-32.5"/>
<text xml:space="preserve" text-anchor="middle" x="4550.38" y="-518.2" font-family="Times,serif" font-size="14.00">std::sys::backtrace::__ru</text>
<text xml:space="preserve" text-anchor="middle" x="4550.38" y="-501.7" font-family="Times,serif" font-size="14.00">st_begin_short_backtrace:</text>
<text xml:space="preserve" text-anchor="middle" x="4550.38" y="-485.2" font-family="Times,serif" font-size="14.00">:&lt;fn(), </text>
<text xml:space="preserve" text-anchor="middle" x="4550.38" y="-468.7" font-family="Times,serif" font-size="14.00">()&gt;</text>
</g>
<g id="clust5" class="cluster">
<title>cluster_10</title>
<polygon fill="lightgray" stroke="lightgray" points="2194.38,-828.75 2194.38,-1263 2706.38,-1263 2706.38,-828.75 2194.38,-828.75"/>
<text xml:space="preserve" text-anchor="middle" x="2450.38" y="-1245.7" font-family="Times,serif" font-size="14.00">&lt;{closure@std::rt::lang_s</text>
<text xml:space="preserve" text-anchor="middle" x="2450.38" y="-1229.2" font-family="Times,serif" font-size="14.00">tart&lt;()&gt;::{closure#0}} </text>
<text xml:space="preserve" text-anchor="middle" x="2450.38" y="-1212.7" font-family="Times,serif" font-size="14.00">as </text>
<text xml:space="preserve" text-anchor="middle" x="2450.38" y="-1196.2" font-family="Times,serif" font-size="14.00">std::ops::FnOnce&lt;()&gt;&gt;::ca</text>
<text xml:space="preserve" text-anchor="middle" x="2450.38" y="-1179.7" font-family="Times,serif" font-size="14.00">ll_once</text>
</g>
<g id="clust6" class="cluster">
<title>cluster_12</title>
<polygon fill="lightgray" stroke="lightgray" points="2714.38,-390.5 2714.38,-998.5 3263.38,-998.5 3263.38,-390.5 2714.38,-390.5"/>
<text xml:space="preserve" text-anchor="middle" x="2988.88" y="-981.2" font-family="Times,serif" font-size="14.00">&lt;{closure@std::rt::lang_s</text>
<text xml:space="preserve" text-anchor="middle" x="2988.88" y="-964.7" font-family="Times,serif" font-size="14.00">tart&lt;()&gt;::{closure#0}} </text>
<text xml:space="preserve" text-anchor="middle" x="2988.88" y="-948.2" font-family="Times,serif" font-size="14.00">as </text>
<text xml:space="preserve" text-anchor="middle" x="2988.88" y="-931.7" font-family="Times,serif" font-size="14.00">std::ops::FnOnce&lt;()&gt;&gt;::ca</text>
<text xml:space="preserve" text-anchor="middle" x="2988.88" y="-915.2" font-family="Times,serif" font-size="14.00">ll_once</text>
</g>
<g id="clust7" class="cluster">
<title>cluster_14</title>
<polygon fill="lightgray" stroke="lightgray" points="4757.38,-32.5 4757.38,-337 5007.38,-337 5007.38,-32.5 4757.38,-32.5"/>
<text xml:space="preserve" text-anchor="middle" x="4882.38" y="-319.7" font-family="Times,serif" font-size="14.00">&lt;fn() </text>
<text xml:space="preserve" text-anchor="middle" x="4882.38" y="-303.2" font-family="Times,serif" font-size="14.00">as </text>
<text xml:space="preserve" text-anchor="middle" x="4882.38" y="-286.7" font-family="Times,serif" font-size="14.00">std::ops::FnOnce&lt;()&gt;&gt;::ca</text>
<text xml:space="preserve" text-anchor="middle" x="4882.38" y="-270.2" font-family="Times,serif" font-size="14.00">ll_once</text>
</g>
<g id="clust8" class="cluster">
<title>cluster_16</title>
<polygon fill="lightgray" stroke="lightgray" points="3604.38,-1090.75 3604.38,-1221.75 4116.38,-1221.75 4116.38,-1090.75 3604.38,-1090.75"/>
<text xml:space="preserve" text-anchor="middle" x="3860.38" y="-1204.45" font-family="Times,serif" font-size="14.00">std::ptr::drop_in_place::</text>
<text xml:space="preserve" text-anchor="middle" x="3860.38" y="-1187.95" font-family="Times,serif" font-size="14.00">&lt;{closure@std::rt::lang_s</text>
<text xml:space="preserve" text-anchor="middle" x="3860.38" y="-1171.45" font-family="Times,serif" font-size="14.00">tart&lt;()&gt;::{closure#0}}&gt;</text>
</g>
<g id="clust9" class="cluster">
<title>cluster_18</title>
<polygon fill="lightgray" stroke="lightgray" points="3893.38,-181.25 3893.38,-328.75 4426.38,-328.75 4426.38,-181.25 3893.38,-181.25"/>
<text xml:space="preserve" text-anchor="middle" x="4159.88" y="-311.45" font-family="Times,serif" font-size="14.00">&lt;() </text>
<text xml:space="preserve" text-anchor="middle" x="4159.88" y="-294.95" font-family="Times,serif" font-size="14.00">as </text>
<text xml:space="preserve" text-anchor="middle" x="4159.88" y="-278.45" font-family="Times,serif" font-size="14.00">std::process::Termination</text>
<text xml:space="preserve" text-anchor="middle" x="4159.88" y="-261.95" font-family="Times,serif" font-size="14.00">&gt;::report</text>
</g>
<!-- node_0 -->
<g id="node1" class="node">
<title>node_0</title>
<polygon fill="lightyellow" stroke="lightyellow" points="130.75,-1148 0,-1148 0,-1107 130.75,-1107 130.75,-1148"/>
<text xml:space="preserve" text-anchor="start" x="8" y="-1130.7" font-family="Times,serif" font-size="14.00">ALLOCS</text>
<text xml:space="preserve" text-anchor="start" x="8" y="-1114.2" font-family="Times,serif" font-size="14.00">alloc1: Str (32 bytes)</text>
</g>
<!-- node_1 -->
<g id="node2" class="node">
<title>node_1</title>
<polygon fill="lavender" stroke="lavender" points="522.25,-1189.25 148.5,-1189.25 148.5,-1065.75 522.25,-1065.75 522.25,-1189.25"/>
<text xml:space="preserve" text-anchor="start" x="156.5" y="-1171.95" font-family="Times,serif" font-size="14.00">TYPES</text>
<text xml:space="preserve" text-anchor="start" x="156.5" y="-1155.45" font-family="Times,serif" font-size="14.00">() (0 bytes)</text>
<text xml:space="preserve" text-anchor="start" x="156.5" y="-1138.95" font-family="Times,serif" font-size="14.00">(i32, i32) (8 bytes)</text>
<text xml:space="preserve" text-anchor="start" x="156.5" y="-1122.45" font-family="Times,serif" font-size="14.00">std::panic::Location&lt;&#39;_&gt; (24 bytes)</text>
<text xml:space="preserve" text-anchor="start" x="156.5" y="-1105.95" font-family="Times,serif" font-size="14.00">std::process::ExitCode (1 bytes)</text>
<text xml:space="preserve" text-anchor="start" x="156.5" y="-1089.45" font-family="Times,serif" font-size="14.00">std::result::Result&lt;isize, !&gt; (8 bytes)</text>
<text xml:space="preserve" text-anchor="start" x="156.5" y="-1072.95" font-family="Times,serif" font-size="14.00">std::sys::pal::unix::process::process_common::ExitCode (1 bytes)</text>
</g>
<!-- X210a8e5fe9313c81_0 -->
<g id="node3" class="node">
<title>X210a8e5fe9313c81_0</title>
<polygon fill="none" stroke="red" points="942.12,-668.5 768.62,-668.5 768.62,-627.5 942.12,-627.5 942.12,-668.5"/>
<text xml:space="preserve" text-anchor="middle" x="855.38" y="-651.2" font-family="Times,serif" font-size="14.00">_ZN4core9panicking5panic1</text>
<text xml:space="preserve" text-anchor="middle" x="855.38" y="-634.7" font-family="Times,serif" font-size="14.00">7h37379bf3ce79a0d7E</text>
</g>
<!-- X8b0ac2e54b9a91_0 -->
<g id="node4" class="node">
<title>X8b0ac2e54b9a91_0</title>
<polygon fill="none" stroke="red" points="1102.62,-1145.5 1046.12,-1145.5 1046.12,-1109.5 1102.62,-1109.5 1102.62,-1145.5"/>
<text xml:space="preserve" text-anchor="middle" x="1074.38" y="-1122.45" font-family="Times,serif" font-size="14.00">NoOp: </text>
</g>
<!-- X5eb86185c1cf8f06_0 -->
<g id="node5" class="node">
<title>X5eb86185c1cf8f06_0</title>
<polygon fill="none" stroke="red" points="2124.12,-883.5 1956.62,-883.5 1956.62,-826 2124.12,-826 2124.12,-883.5"/>
<text xml:space="preserve" text-anchor="middle" x="2040.38" y="-866.2" font-family="Times,serif" font-size="14.00">_ZN3std2rt19lang_start_in</text>
<text xml:space="preserve" text-anchor="middle" x="2040.38" y="-849.7" font-family="Times,serif" font-size="14.00">ternal17h035df9ff6960926a</text>
<text xml:space="preserve" text-anchor="middle" x="2040.38" y="-833.2" font-family="Times,serif" font-size="14.00">E</text>
</g>
<!-- X3c6542d96320ad67_0 -->
<g id="node6" class="node">
<title>X3c6542d96320ad67_0</title>
<polygon fill="none" stroke="red" points="4746.5,-79 4674.25,-79 4674.25,-38 4746.5,-38 4746.5,-79"/>
<text xml:space="preserve" text-anchor="middle" x="4710.38" y="-61.7" font-family="Times,serif" font-size="14.00">Intr: </text>
<text xml:space="preserve" text-anchor="middle" x="4710.38" y="-45.2" font-family="Times,serif" font-size="14.00">black_box</text>
</g>
<!-- node_3 -->
<g id="node7" class="node">
<title>node_3</title>
<polygon fill="#7ccd7c" stroke="#7ccd7c" points="726.5,-1189.25 540.25,-1189.25 540.25,-1065.75 726.5,-1065.75 726.5,-1189.25"/>
<text xml:space="preserve" text-anchor="start" x="548.25" y="-1171.95" font-family="Times,serif" font-size="14.00">LOCALS</text>
<text xml:space="preserve" text-anchor="start" x="548.25" y="-1155.45" font-family="Times,serif" font-size="14.00">0 = () (0 bytes, align 1)</text>
<text xml:space="preserve" text-anchor="start" x="548.25" y="-1138.95" font-family="Times,serif" font-size="14.00">1 = (i32, i32) (8 bytes, align 4)</text>
<text xml:space="preserve" text-anchor="start" x="548.25" y="-1122.45" font-family="Times,serif" font-size="14.00">2 = Bool</text>
<text xml:space="preserve" text-anchor="start" x="548.25" y="-1105.95" font-family="Times,serif" font-size="14.00">3 = Int(I32)</text>
<text xml:space="preserve" text-anchor="start" x="548.25" y="-1089.45" font-family="Times,serif" font-size="14.00">4 = Int(I32)</text>
<text xml:space="preserve" text-anchor="start" x="548.25" y="-1072.95" font-family="Times,serif" font-size="14.00">5 = ()</text>
</g>
<!-- Xb108226d6e4c5cda_0 -->
<g id="node8" class="node">
<title>Xb108226d6e4c5cda_0</title>
<polygon fill="none" stroke="black" points="1027.88,-1172.75 744.88,-1172.75 744.88,-1082.25 1027.88,-1082.25 1027.88,-1172.75"/>
<text xml:space="preserve" text-anchor="start" x="752.88" y="-1155.45" font-family="Times,serif" font-size="14.00">1 &lt;&#45; Tuple (const 42_Int(I32), const 99_Int(I32))</text>
<text xml:space="preserve" text-anchor="start" x="752.88" y="-1138.95" font-family="Times,serif" font-size="14.00">3 &lt;&#45; Use(cp(1.0))</text>
<text xml:space="preserve" text-anchor="start" x="752.88" y="-1122.45" font-family="Times,serif" font-size="14.00">4 &lt;&#45; Use(cp(1.1))</text>
<text xml:space="preserve" text-anchor="start" x="752.88" y="-1105.95" font-family="Times,serif" font-size="14.00">2 &lt;&#45; Ne(mv(3), mv(4))</text>
<text xml:space="preserve" text-anchor="start" x="752.88" y="-1089.45" font-family="Times,serif" font-size="14.00">SwitchInt mv(2)</text>
</g>
<!-- Xb108226d6e4c5cda_2 -->
<g id="node9" class="node">
<title>Xb108226d6e4c5cda_2</title>
<polygon fill="none" stroke="black" points="882.38,-872.75 828.38,-872.75 828.38,-836.75 882.38,-836.75 882.38,-872.75"/>
<text xml:space="preserve" text-anchor="start" x="836.38" y="-849.7" font-family="Times,serif" font-size="14.00">Call</text>
</g>
<!-- Xb108226d6e4c5cda_0&#45;&gt;Xb108226d6e4c5cda_2 -->
<g id="edge1" class="edge">
<title>Xb108226d6e4c5cda_0&#45;&gt;Xb108226d6e4c5cda_2</title>
<path fill="none" stroke="black" d="M881.26,-1081.79C874.83,-1025.69 864.01,-931.16 858.62,-884.11"/>
<polygon fill="black" stroke="black" points="862.13,-884 857.52,-874.47 855.18,-884.8 862.13,-884"/>
<text xml:space="preserve" text-anchor="middle" x="877.03" y="-1009.7" font-family="Times,serif" font-size="14.00">0</text>
</g>
<!-- Xb108226d6e4c5cda_1 -->
<g id="node10" class="node">
<title>Xb108226d6e4c5cda_1</title>
<polygon fill="none" stroke="black" points="954.38,-872.75 900.38,-872.75 900.38,-836.75 954.38,-836.75 954.38,-872.75"/>
<text xml:space="preserve" text-anchor="start" x="908.38" y="-849.7" font-family="Times,serif" font-size="14.00">Return</text>
</g>
<!-- Xb108226d6e4c5cda_0&#45;&gt;Xb108226d6e4c5cda_1 -->
<g id="edge2" class="edge">
<title>Xb108226d6e4c5cda_0&#45;&gt;Xb108226d6e4c5cda_1</title>
<path fill="none" stroke="black" d="M893.15,-1081.79C901.64,-1025.69 915.96,-931.16 923.08,-884.11"/>
<polygon fill="black" stroke="black" points="926.51,-884.87 924.54,-874.46 919.58,-883.82 926.51,-884.87"/>
<text xml:space="preserve" text-anchor="middle" x="918.3" y="-1009.7" font-family="Times,serif" font-size="14.00">other</text>
</g>
<!-- Xb108226d6e4c5cda_2&#45;&gt;X210a8e5fe9313c81_0 -->
<g id="edge3" class="edge">
<title>Xb108226d6e4c5cda_2&#45;&gt;X210a8e5fe9313c81_0</title>
<path fill="none" stroke="black" d="M855.38,-836.29C855.38,-801.64 855.38,-723.76 855.38,-680.13"/>
<polygon fill="black" stroke="black" points="858.88,-680.31 855.38,-670.31 851.88,-680.31 858.88,-680.31"/>
<text xml:space="preserve" text-anchor="middle" x="892.5" y="-778.2" font-family="Times,serif" font-size="14.00">const [alloc0]</text>
</g>
<!-- node_5 -->
<g id="node11" class="node">
<title>node_5</title>
<polygon fill="#7ccd7c" stroke="#7ccd7c" points="1683.75,-1214 1121,-1214 1121,-1041 1683.75,-1041 1683.75,-1214"/>
<text xml:space="preserve" text-anchor="start" x="1129" y="-1196.7" font-family="Times,serif" font-size="14.00">LOCALS</text>
<text xml:space="preserve" text-anchor="start" x="1129" y="-1180.2" font-family="Times,serif" font-size="14.00">0 = Int(Isize)</text>
<text xml:space="preserve" text-anchor="start" x="1129" y="-1163.7" font-family="Times,serif" font-size="14.00">1 = fn()</text>
<text xml:space="preserve" text-anchor="start" x="1129" y="-1147.2" font-family="Times,serif" font-size="14.00">2 = Int(Isize)</text>
<text xml:space="preserve" text-anchor="start" x="1129" y="-1130.7" font-family="Times,serif" font-size="14.00">3 = *const *const u8 (8 bytes, align 8)</text>
<text xml:space="preserve" text-anchor="start" x="1129" y="-1114.2" font-family="Times,serif" font-size="14.00">4 = Uint(U8)</text>
<text xml:space="preserve" text-anchor="start" x="1129" y="-1097.7" font-family="Times,serif" font-size="14.00">5 = std::result::Result&lt;isize, !&gt; (8 bytes, align 8)</text>
<text xml:space="preserve" text-anchor="start" x="1129" y="-1081.2" font-family="Times,serif" font-size="14.00">6 = &amp;dyn std::ops::Fn() &#45;&gt; i32 + std::marker::Sync + std::panic::RefUnwindSafe (16 bytes, align 8)</text>
<text xml:space="preserve" text-anchor="start" x="1129" y="-1064.7" font-family="Times,serif" font-size="14.00">7 = &amp;{closure@std::rt::lang_start&lt;()&gt;::{closure#0}} (8 bytes, align 8)</text>
<text xml:space="preserve" text-anchor="start" x="1129" y="-1048.2" font-family="Times,serif" font-size="14.00">8 = {closure@std::rt::lang_start&lt;()&gt;::{closure#0}}</text>
</g>
<!-- X22600fc49dcacbdf_0 -->
<g id="node12" class="node">
<title>X22600fc49dcacbdf_0</title>
<polygon fill="none" stroke="black" points="1940.75,-1189.25 1702,-1189.25 1702,-1065.75 1940.75,-1065.75 1940.75,-1189.25"/>
<text xml:space="preserve" text-anchor="start" x="1710" y="-1171.95" font-family="Times,serif" font-size="14.00">Storage Live _5</text>
<text xml:space="preserve" text-anchor="start" x="1710" y="-1155.45" font-family="Times,serif" font-size="14.00">Storage Live _6</text>
<text xml:space="preserve" text-anchor="start" x="1710" y="-1138.95" font-family="Times,serif" font-size="14.00">Storage Live _8</text>
<text xml:space="preserve" text-anchor="start" x="1710" y="-1122.45" font-family="Times,serif" font-size="14.00">8 &lt;&#45; Closure (cp(1))</text>
<text xml:space="preserve" text-anchor="start" x="1710" y="-1105.95" font-family="Times,serif" font-size="14.00">7 &lt;&#45; &amp; 8</text>
<text xml:space="preserve" text-anchor="start" x="1710" y="-1089.45" font-family="Times,serif" font-size="14.00">6 &lt;&#45; Cast&#45;PointerCoercion(Unsize) cp(7)</text>
<text xml:space="preserve" text-anchor="start" x="1710" y="-1072.95" font-family="Times,serif" font-size="14.00">Call</text>
</g>
<!-- X22600fc49dcacbdf_0&#45;&gt;X5eb86185c1cf8f06_0 -->
<g id="edge5" class="edge">
<title>X22600fc49dcacbdf_0&#45;&gt;X5eb86185c1cf8f06_0</title>
<path fill="none" stroke="black" d="M1890.27,-1065.31C1911.32,-1045.05 1933.8,-1021.72 1952.38,-998.5 1978.89,-965.35 2003.75,-923.65 2020.24,-893.9"/>
<polygon fill="black" stroke="black" points="2023.25,-895.69 2024.98,-885.24 2017.11,-892.33 2023.25,-895.69"/>
<text xml:space="preserve" text-anchor="middle" x="2016.05" y="-1009.7" font-family="Times,serif" font-size="14.00">mv(6),mv(2),mv(3),mv(4)</text>
</g>
<!-- X22600fc49dcacbdf_1 -->
<g id="node13" class="node">
<title>X22600fc49dcacbdf_1</title>
<polygon fill="none" stroke="black" points="1915.25,-900 1727.5,-900 1727.5,-809.5 1915.25,-809.5 1915.25,-900"/>
<text xml:space="preserve" text-anchor="start" x="1735.5" y="-882.7" font-family="Times,serif" font-size="14.00">Storage Dead _6</text>
<text xml:space="preserve" text-anchor="start" x="1735.5" y="-866.2" font-family="Times,serif" font-size="14.00">0 &lt;&#45; Use(cp((5 as variant 0).0))</text>
<text xml:space="preserve" text-anchor="start" x="1735.5" y="-849.7" font-family="Times,serif" font-size="14.00">Storage Dead _8</text>
<text xml:space="preserve" text-anchor="start" x="1735.5" y="-833.2" font-family="Times,serif" font-size="14.00">Storage Dead _5</text>
<text xml:space="preserve" text-anchor="start" x="1735.5" y="-816.7" font-family="Times,serif" font-size="14.00">Return</text>
</g>
<!-- X22600fc49dcacbdf_0&#45;&gt;X22600fc49dcacbdf_1 -->
<g id="edge4" class="edge">
<title>X22600fc49dcacbdf_0&#45;&gt;X22600fc49dcacbdf_1</title>
<path fill="none" stroke="black" d="M1821.38,-1065.4C1821.38,-1019.2 1821.38,-956.29 1821.38,-911.46"/>
<polygon fill="black" stroke="black" points="1824.88,-911.7 1821.38,-901.7 1817.88,-911.7 1824.88,-911.7"/>
<text xml:space="preserve" text-anchor="middle" x="1824.75" y="-1009.7" font-family="Times,serif" font-size="14.00">5</text>
</g>
<!-- node_7 -->
<g id="node14" class="node">
<title>node_7</title>
<polygon fill="#7ccd7c" stroke="#7ccd7c" points="3731.62,-718 3279.12,-718 3279.12,-578 3731.62,-578 3731.62,-718"/>
<text xml:space="preserve" text-anchor="start" x="3287.12" y="-700.7" font-family="Times,serif" font-size="14.00">LOCALS</text>
<text xml:space="preserve" text-anchor="start" x="3287.12" y="-684.2" font-family="Times,serif" font-size="14.00">0 = Int(I32)</text>
<text xml:space="preserve" text-anchor="start" x="3287.12" y="-667.7" font-family="Times,serif" font-size="14.00">1 = &amp;{closure@std::rt::lang_start&lt;()&gt;::{closure#0}} (8 bytes, align 8)</text>
<text xml:space="preserve" text-anchor="start" x="3287.12" y="-651.2" font-family="Times,serif" font-size="14.00">2 = std::process::ExitCode (1 bytes, align 1)</text>
<text xml:space="preserve" text-anchor="start" x="3287.12" y="-634.7" font-family="Times,serif" font-size="14.00">3 = () (0 bytes, align 1)</text>
<text xml:space="preserve" text-anchor="start" x="3287.12" y="-618.2" font-family="Times,serif" font-size="14.00">4 = fn()</text>
<text xml:space="preserve" text-anchor="start" x="3287.12" y="-601.7" font-family="Times,serif" font-size="14.00">5 = &amp;std::sys::pal::unix::process::process_common::ExitCode (8 bytes, align 8)</text>
<text xml:space="preserve" text-anchor="start" x="3287.12" y="-585.2" font-family="Times,serif" font-size="14.00">6 = Uint(U8)</text>
</g>
<!-- X65549ba7c65e4abc_0 -->
<g id="node15" class="node">
<title>X65549ba7c65e4abc_0</title>
<polygon fill="none" stroke="black" points="3877.25,-693.25 3749.5,-693.25 3749.5,-602.75 3877.25,-602.75 3877.25,-693.25"/>
<text xml:space="preserve" text-anchor="start" x="3757.5" y="-675.95" font-family="Times,serif" font-size="14.00">Storage Live _2</text>
<text xml:space="preserve" text-anchor="start" x="3757.5" y="-659.45" font-family="Times,serif" font-size="14.00">Storage Live _3</text>
<text xml:space="preserve" text-anchor="start" x="3757.5" y="-642.95" font-family="Times,serif" font-size="14.00">Storage Live _4</text>
<text xml:space="preserve" text-anchor="start" x="3757.5" y="-626.45" font-family="Times,serif" font-size="14.00">4 &lt;&#45; Use(cp((*1).0))</text>
<text xml:space="preserve" text-anchor="start" x="3757.5" y="-609.95" font-family="Times,serif" font-size="14.00">Call</text>
</g>
<!-- X65549ba7c65e4abc_1 -->
<g id="node16" class="node">
<title>X65549ba7c65e4abc_1</title>
<polygon fill="none" stroke="black" points="3866.75,-437 3760,-437 3760,-396 3866.75,-396 3866.75,-437"/>
<text xml:space="preserve" text-anchor="start" x="3768" y="-419.7" font-family="Times,serif" font-size="14.00">Storage Dead _4</text>
<text xml:space="preserve" text-anchor="start" x="3768" y="-403.2" font-family="Times,serif" font-size="14.00">Call</text>
</g>
<!-- X65549ba7c65e4abc_0&#45;&gt;X65549ba7c65e4abc_1 -->
<g id="edge6" class="edge">
<title>X65549ba7c65e4abc_0&#45;&gt;X65549ba7c65e4abc_1</title>
<path fill="none" stroke="black" d="M3813.38,-602.48C3813.38,-557.23 3813.38,-488.32 3813.38,-448.63"/>
<polygon fill="black" stroke="black" points="3816.88,-448.82 3813.38,-438.82 3809.88,-448.82 3816.88,-448.82"/>
<text xml:space="preserve" text-anchor="middle" x="3816.75" y="-546.7" font-family="Times,serif" font-size="14.00">3</text>
</g>
<!-- X1e4cb1e6a7d828eb_0 -->
<g id="node18" class="node">
<title>X1e4cb1e6a7d828eb_0</title>
<polygon fill="none" stroke="black" points="4496.38,-434.5 4442.38,-434.5 4442.38,-398.5 4496.38,-398.5 4496.38,-434.5"/>
<text xml:space="preserve" text-anchor="start" x="4450.38" y="-411.45" font-family="Times,serif" font-size="14.00">Call</text>
</g>
<!-- X65549ba7c65e4abc_0&#45;&gt;X1e4cb1e6a7d828eb_0 -->
<g id="edge8" class="edge">
<title>X65549ba7c65e4abc_0&#45;&gt;X1e4cb1e6a7d828eb_0</title>
<path fill="none" stroke="black" d="M3877.47,-624.58C4012.61,-577.3 4323.2,-468.64 4431.38,-430.79"/>
<polygon fill="black" stroke="black" points="4432.38,-434.15 4440.66,-427.55 4430.07,-427.54 4432.38,-434.15"/>
<text xml:space="preserve" text-anchor="middle" x="4118.97" y="-546.7" font-family="Times,serif" font-size="14.00">mv(4)</text>
</g>
<!-- X65549ba7c65e4abc_2 -->
<g id="node17" class="node">
<title>X65549ba7c65e4abc_2</title>
<polygon fill="none" stroke="black" points="3877.38,-304.5 3723.38,-304.5 3723.38,-131.5 3877.38,-131.5 3877.38,-304.5"/>
<text xml:space="preserve" text-anchor="start" x="3731.38" y="-287.2" font-family="Times,serif" font-size="14.00">Storage Dead _3</text>
<text xml:space="preserve" text-anchor="start" x="3731.38" y="-270.7" font-family="Times,serif" font-size="14.00">Storage Live _5</text>
<text xml:space="preserve" text-anchor="start" x="3731.38" y="-254.2" font-family="Times,serif" font-size="14.00">5 &lt;&#45; &amp; 2.0</text>
<text xml:space="preserve" text-anchor="start" x="3731.38" y="-237.7" font-family="Times,serif" font-size="14.00">Storage Live _6</text>
<text xml:space="preserve" text-anchor="start" x="3731.38" y="-221.2" font-family="Times,serif" font-size="14.00">6 &lt;&#45; Use(cp(2.0.0))</text>
<text xml:space="preserve" text-anchor="start" x="3731.38" y="-204.7" font-family="Times,serif" font-size="14.00">0 &lt;&#45; Cast&#45;IntToInt mv(6)</text>
<text xml:space="preserve" text-anchor="start" x="3731.38" y="-188.2" font-family="Times,serif" font-size="14.00">Storage Dead _6</text>
<text xml:space="preserve" text-anchor="start" x="3731.38" y="-171.7" font-family="Times,serif" font-size="14.00">Storage Dead _5</text>
<text xml:space="preserve" text-anchor="start" x="3731.38" y="-155.2" font-family="Times,serif" font-size="14.00">Storage Dead _2</text>
<text xml:space="preserve" text-anchor="start" x="3731.38" y="-138.7" font-family="Times,serif" font-size="14.00">Return</text>
</g>
<!-- X65549ba7c65e4abc_1&#45;&gt;X65549ba7c65e4abc_2 -->
<g id="edge7" class="edge">
<title>X65549ba7c65e4abc_1&#45;&gt;X65549ba7c65e4abc_2</title>
<path fill="none" stroke="black" d="M3812.06,-395.58C3810.8,-376.54 3808.8,-346.38 3806.81,-316.33"/>
<polygon fill="black" stroke="black" points="3810.31,-316.1 3806.15,-306.35 3803.32,-316.56 3810.31,-316.1"/>
<text xml:space="preserve" text-anchor="middle" x="3812.91" y="-348.2" font-family="Times,serif" font-size="14.00">2</text>
</g>
<!-- X947a867270fbbd38_0 -->
<g id="node19" class="node">
<title>X947a867270fbbd38_0</title>
<polygon fill="none" stroke="black" points="4142.88,-238.5 3901.88,-238.5 3901.88,-197.5 4142.88,-197.5 4142.88,-238.5"/>
<text xml:space="preserve" text-anchor="start" x="3909.88" y="-221.2" font-family="Times,serif" font-size="14.00">0 &lt;&#45; Use(const 0_std::process::ExitCode)</text>
<text xml:space="preserve" text-anchor="start" x="3909.88" y="-204.7" font-family="Times,serif" font-size="14.00">Return</text>
</g>
<!-- X65549ba7c65e4abc_1&#45;&gt;X947a867270fbbd38_0 -->
<g id="edge9" class="edge">
<title>X65549ba7c65e4abc_1&#45;&gt;X947a867270fbbd38_0</title>
<path fill="none" stroke="black" d="M3834.57,-395.58C3872.04,-360.34 3950.08,-286.97 3992.82,-246.78"/>
<polygon fill="black" stroke="black" points="3995.14,-249.41 4000.03,-240.01 3990.34,-244.31 3995.14,-249.41"/>
<text xml:space="preserve" text-anchor="middle" x="3903.82" y="-348.2" font-family="Times,serif" font-size="14.00">mv(3)</text>
</g>
<!-- X1e4cb1e6a7d828eb_1 -->
<g id="node21" class="node">
<title>X1e4cb1e6a7d828eb_1</title>
<polygon fill="none" stroke="black" points="4576.38,-236 4522.38,-236 4522.38,-200 4576.38,-200 4576.38,-236"/>
<text xml:space="preserve" text-anchor="start" x="4530.38" y="-212.95" font-family="Times,serif" font-size="14.00">Call</text>
</g>
<!-- X1e4cb1e6a7d828eb_0&#45;&gt;X1e4cb1e6a7d828eb_1 -->
<g id="edge10" class="edge">
<title>X1e4cb1e6a7d828eb_0&#45;&gt;X1e4cb1e6a7d828eb_1</title>
<path fill="none" stroke="black" d="M4476.47,-398.06C4490.35,-363.98 4521.18,-288.26 4537.96,-247.05"/>
<polygon fill="black" stroke="black" points="4541.19,-248.38 4541.72,-237.8 4534.71,-245.74 4541.19,-248.38"/>
<text xml:space="preserve" text-anchor="middle" x="4500.91" y="-348.2" font-family="Times,serif" font-size="14.00">0</text>
</g>
<!-- X3c23390f4904cc0b_0 -->
<g id="node23" class="node">
<title>X3c23390f4904cc0b_0</title>
<polygon fill="none" stroke="black" points="4819.38,-236 4765.38,-236 4765.38,-200 4819.38,-200 4819.38,-236"/>
<text xml:space="preserve" text-anchor="start" x="4773.38" y="-212.95" font-family="Times,serif" font-size="14.00">Call</text>
</g>
<!-- X1e4cb1e6a7d828eb_0&#45;&gt;X3c23390f4904cc0b_0 -->
<g id="edge12" class="edge">
<title>X1e4cb1e6a7d828eb_0&#45;&gt;X3c23390f4904cc0b_0</title>
<path fill="none" stroke="black" d="M4483.25,-398.06C4489.38,-391.38 4497.08,-384.23 4505.38,-379.5 4571.14,-341.96 4604.3,-374 4670.38,-337 4712.23,-313.56 4750.19,-272.21 4772.28,-245.21"/>
<polygon fill="black" stroke="black" points="4774.95,-247.48 4778.47,-237.49 4769.48,-243.11 4774.95,-247.48"/>
<text xml:space="preserve" text-anchor="middle" x="4690.85" y="-348.2" font-family="Times,serif" font-size="14.00">mv(1),const ()</text>
</g>
<!-- node_9 -->
<g id="node20" class="node">
<title>node_9</title>
<polygon fill="#7ccd7c" stroke="#7ccd7c" points="4658.5,-453.5 4514.25,-453.5 4514.25,-379.5 4658.5,-379.5 4658.5,-453.5"/>
<text xml:space="preserve" text-anchor="start" x="4522.25" y="-436.2" font-family="Times,serif" font-size="14.00">LOCALS</text>
<text xml:space="preserve" text-anchor="start" x="4522.25" y="-419.7" font-family="Times,serif" font-size="14.00">0 = () (0 bytes, align 1)</text>
<text xml:space="preserve" text-anchor="start" x="4522.25" y="-403.2" font-family="Times,serif" font-size="14.00">1 = fn()</text>
<text xml:space="preserve" text-anchor="start" x="4522.25" y="-386.7" font-family="Times,serif" font-size="14.00">2 = () (0 bytes, align 1)</text>
</g>
<!-- X1e4cb1e6a7d828eb_1&#45;&gt;X3c6542d96320ad67_0 -->
<g id="edge13" class="edge">
<title>X1e4cb1e6a7d828eb_1&#45;&gt;X3c6542d96320ad67_0</title>
<path fill="none" stroke="black" d="M4567.22,-199.54C4595.07,-172.3 4649.11,-119.44 4682.24,-87.03"/>
<polygon fill="black" stroke="black" points="4684.4,-89.81 4689.1,-80.31 4679.5,-84.8 4684.4,-89.81"/>
<text xml:space="preserve" text-anchor="middle" x="4692.09" y="-100.2" font-family="Times,serif" font-size="14.00">const ()</text>
</g>
<!-- X1e4cb1e6a7d828eb_2 -->
<g id="node22" class="node">
<title>X1e4cb1e6a7d828eb_2</title>
<polygon fill="none" stroke="black" points="4576.38,-76.5 4522.38,-76.5 4522.38,-40.5 4576.38,-40.5 4576.38,-76.5"/>
<text xml:space="preserve" text-anchor="start" x="4530.38" y="-53.45" font-family="Times,serif" font-size="14.00">Return</text>
</g>
<!-- X1e4cb1e6a7d828eb_1&#45;&gt;X1e4cb1e6a7d828eb_2 -->
<g id="edge11" class="edge">
<title>X1e4cb1e6a7d828eb_1&#45;&gt;X1e4cb1e6a7d828eb_2</title>
<path fill="none" stroke="black" d="M4549.38,-199.54C4549.38,-172.56 4549.38,-120.44 4549.38,-87.95"/>
<polygon fill="black" stroke="black" points="4552.88,-88.07 4549.38,-78.07 4545.88,-88.07 4552.88,-88.07"/>
<text xml:space="preserve" text-anchor="middle" x="4552.75" y="-100.2" font-family="Times,serif" font-size="14.00">2</text>
</g>
<!-- X3c23390f4904cc0b_0&#45;&gt;X3c23390f4904cc0b_0 -->
<g id="edge22" class="edge">
<title>X3c23390f4904cc0b_0&#45;&gt;X3c23390f4904cc0b_0:1</title>
<path fill="none" stroke="black" d="M4809.93,-236.41C4823.52,-243.3 4837.38,-237.16 4837.38,-218 4837.38,-204.08 4830.06,-197.03 4820.85,-196.86"/>
<polygon fill="black" stroke="black" points="4820.25,-193.4 4811.4,-199.22 4821.95,-200.2 4820.25,-193.4"/>
</g>
<!-- X3c23390f4904cc0b_1 -->
<g id="node34" class="node">
<title>X3c23390f4904cc0b_1</title>
<polygon fill="none" stroke="black" points="4819.38,-76.5 4765.38,-76.5 4765.38,-40.5 4819.38,-40.5 4819.38,-76.5"/>
<text xml:space="preserve" text-anchor="start" x="4773.38" y="-53.45" font-family="Times,serif" font-size="14.00">Return</text>
</g>
<!-- X3c23390f4904cc0b_0&#45;&gt;X3c23390f4904cc0b_1 -->
<g id="edge21" class="edge">
<title>X3c23390f4904cc0b_0&#45;&gt;X3c23390f4904cc0b_1</title>
<path fill="none" stroke="black" d="M4792.38,-199.54C4792.38,-172.56 4792.38,-120.44 4792.38,-87.95"/>
<polygon fill="black" stroke="black" points="4795.88,-88.07 4792.38,-78.07 4788.88,-88.07 4795.88,-88.07"/>
<text xml:space="preserve" text-anchor="middle" x="4795.75" y="-100.2" font-family="Times,serif" font-size="14.00">0</text>
</g>
<!-- node_11 -->
<g id="node24" class="node">
<title>node_11</title>
<polygon fill="#7ccd7c" stroke="#7ccd7c" points="2626.38,-1164.5 2202.38,-1164.5 2202.38,-1090.5 2626.38,-1090.5 2626.38,-1164.5"/>
<text xml:space="preserve" text-anchor="start" x="2210.38" y="-1147.2" font-family="Times,serif" font-size="14.00">LOCALS</text>
<text xml:space="preserve" text-anchor="start" x="2210.38" y="-1130.7" font-family="Times,serif" font-size="14.00">0 = Int(I32)</text>
<text xml:space="preserve" text-anchor="start" x="2210.38" y="-1114.2" font-family="Times,serif" font-size="14.00">1 = *mut {closure@std::rt::lang_start&lt;()&gt;::{closure#0}} (8 bytes, align 8)</text>
<text xml:space="preserve" text-anchor="start" x="2210.38" y="-1097.7" font-family="Times,serif" font-size="14.00">2 = () (0 bytes, align 1)</text>
</g>
<!-- X7d0717dcb726bae7_0 -->
<g id="node25" class="node">
<title>X7d0717dcb726bae7_0</title>
<polygon fill="none" stroke="black" points="2698.38,-1145.5 2644.38,-1145.5 2644.38,-1109.5 2698.38,-1109.5 2698.38,-1145.5"/>
<text xml:space="preserve" text-anchor="start" x="2652.38" y="-1122.45" font-family="Times,serif" font-size="14.00">Call</text>
</g>
<!-- X7d0717dcb726bae7_1 -->
<g id="node26" class="node">
<title>X7d0717dcb726bae7_1</title>
<polygon fill="none" stroke="black" points="2698.38,-872.75 2644.38,-872.75 2644.38,-836.75 2698.38,-836.75 2698.38,-872.75"/>
<text xml:space="preserve" text-anchor="start" x="2652.38" y="-849.7" font-family="Times,serif" font-size="14.00">Return</text>
</g>
<!-- X7d0717dcb726bae7_0&#45;&gt;X7d0717dcb726bae7_1 -->
<g id="edge14" class="edge">
<title>X7d0717dcb726bae7_0&#45;&gt;X7d0717dcb726bae7_1</title>
<path fill="none" stroke="black" d="M2671.38,-1109.15C2671.38,-1063.59 2671.38,-940.21 2671.38,-884.15"/>
<polygon fill="black" stroke="black" points="2674.88,-884.47 2671.38,-874.47 2667.88,-884.47 2674.88,-884.47"/>
<text xml:space="preserve" text-anchor="middle" x="2674.75" y="-1009.7" font-family="Times,serif" font-size="14.00">0</text>
</g>
<!-- X10dc08fa9403900e_0 -->
<g id="node27" class="node">
<title>X10dc08fa9403900e_0</title>
<polygon fill="none" stroke="black" points="2808.62,-875.25 2722.12,-875.25 2722.12,-834.25 2808.62,-834.25 2808.62,-875.25"/>
<text xml:space="preserve" text-anchor="start" x="2730.12" y="-857.95" font-family="Times,serif" font-size="14.00">3 &lt;&#45; &amp;mut 1</text>
<text xml:space="preserve" text-anchor="start" x="2730.12" y="-841.45" font-family="Times,serif" font-size="14.00">Call</text>
</g>
<!-- X7d0717dcb726bae7_0&#45;&gt;X10dc08fa9403900e_0 -->
<g id="edge15" class="edge">
<title>X7d0717dcb726bae7_0&#45;&gt;X10dc08fa9403900e_0</title>
<path fill="none" stroke="black" d="M2677.4,-1109.15C2693.02,-1064.16 2734.98,-943.3 2754.77,-886.3"/>
<polygon fill="black" stroke="black" points="2758.06,-887.5 2758.03,-876.9 2751.45,-885.2 2758.06,-887.5"/>
<text xml:space="preserve" text-anchor="middle" x="2756.25" y="-1009.7" font-family="Times,serif" font-size="14.00">mv((*1)),mv(2)</text>
</g>
<!-- X10dc08fa9403900e_0&#45;&gt;X65549ba7c65e4abc_0 -->
<g id="edge20" class="edge">
<title>X10dc08fa9403900e_0&#45;&gt;X65549ba7c65e4abc_0</title>
<path fill="none" stroke="black" d="M2779.4,-833.88C2788.91,-822.15 2802.6,-808.32 2818.38,-801.5 2912.48,-760.84 3651.77,-818.57 3740.38,-767 3764.41,-753.01 3781.61,-727.65 3793.25,-704.02"/>
<polygon fill="black" stroke="black" points="3796.38,-705.6 3797.42,-695.05 3790.03,-702.64 3796.38,-705.6"/>
<text xml:space="preserve" text-anchor="middle" x="3753.3" y="-778.2" font-family="Times,serif" font-size="14.00">mv(3),mv(2)</text>
</g>
<!-- X10dc08fa9403900e_3 -->
<g id="node29" class="node">
<title>X10dc08fa9403900e_3</title>
<polygon fill="none" stroke="black" points="2786.5,-666 2732.25,-666 2732.25,-630 2786.5,-630 2786.5,-666"/>
<text xml:space="preserve" text-anchor="start" x="2740.25" y="-642.95" font-family="Times,serif" font-size="14.00">Drop 1</text>
</g>
<!-- X10dc08fa9403900e_0&#45;&gt;X10dc08fa9403900e_3 -->
<g id="edge16" class="edge">
<title>X10dc08fa9403900e_0&#45;&gt;X10dc08fa9403900e_3</title>
<path fill="none" stroke="black" d="M2764.71,-833.85C2764.31,-821.63 2763.8,-805.66 2763.38,-791.5 2762.18,-751.89 2760.92,-706.08 2760.14,-677.32"/>
<polygon fill="black" stroke="black" points="2763.64,-677.52 2759.87,-667.62 2756.65,-677.71 2763.64,-677.52"/>
<text xml:space="preserve" text-anchor="middle" x="2785.88" y="-778.2" font-family="Times,serif" font-size="14.00">Cleanup</text>
</g>
<!-- X10dc08fa9403900e_1 -->
<g id="node30" class="node">
<title>X10dc08fa9403900e_1</title>
<polygon fill="none" stroke="black" points="2859.5,-666 2805.25,-666 2805.25,-630 2859.5,-630 2859.5,-666"/>
<text xml:space="preserve" text-anchor="start" x="2813.25" y="-642.95" font-family="Times,serif" font-size="14.00">Drop 1</text>
</g>
<!-- X10dc08fa9403900e_0&#45;&gt;X10dc08fa9403900e_1 -->
<g id="edge17" class="edge">
<title>X10dc08fa9403900e_0&#45;&gt;X10dc08fa9403900e_1</title>
<path fill="none" stroke="black" d="M2782.56,-833.76C2791.64,-822.15 2802.15,-806.83 2808.38,-791.5 2823.64,-753.91 2829.19,-706.94 2831.22,-677.45"/>
<polygon fill="black" stroke="black" points="2834.69,-678.02 2831.78,-667.84 2827.7,-677.62 2834.69,-678.02"/>
<text xml:space="preserve" text-anchor="middle" x="2817.09" y="-778.2" font-family="Times,serif" font-size="14.00">0</text>
</g>
<!-- node_13 -->
<g id="node28" class="node">
<title>node_13</title>
<polygon fill="#7ccd7c" stroke="#7ccd7c" points="3255.62,-900 2827.12,-900 2827.12,-809.5 3255.62,-809.5 3255.62,-900"/>
<text xml:space="preserve" text-anchor="start" x="2835.12" y="-882.7" font-family="Times,serif" font-size="14.00">LOCALS</text>
<text xml:space="preserve" text-anchor="start" x="2835.12" y="-866.2" font-family="Times,serif" font-size="14.00">0 = Int(I32)</text>
<text xml:space="preserve" text-anchor="start" x="2835.12" y="-849.7" font-family="Times,serif" font-size="14.00">1 = {closure@std::rt::lang_start&lt;()&gt;::{closure#0}}</text>
<text xml:space="preserve" text-anchor="start" x="2835.12" y="-833.2" font-family="Times,serif" font-size="14.00">2 = () (0 bytes, align 1)</text>
<text xml:space="preserve" text-anchor="start" x="2835.12" y="-816.7" font-family="Times,serif" font-size="14.00">3 = &amp;mut {closure@std::rt::lang_start&lt;()&gt;::{closure#0}} (8 bytes, align 8)</text>
</g>
<!-- X10dc08fa9403900e_4 -->
<g id="node32" class="node">
<title>X10dc08fa9403900e_4</title>
<polygon fill="none" stroke="black" points="2788.5,-434.5 2728.25,-434.5 2728.25,-398.5 2788.5,-398.5 2788.5,-434.5"/>
<text xml:space="preserve" text-anchor="start" x="2736.25" y="-411.45" font-family="Times,serif" font-size="14.00">Resume</text>
</g>
<!-- X10dc08fa9403900e_3&#45;&gt;X10dc08fa9403900e_4 -->
<g id="edge19" class="edge">
<title>X10dc08fa9403900e_3&#45;&gt;X10dc08fa9403900e_4</title>
<path fill="none" stroke="black" d="M2759.3,-629.75C2759.13,-590.62 2758.71,-494.8 2758.5,-446.43"/>
<polygon fill="black" stroke="black" points="2762,-446.45 2758.46,-436.46 2755,-446.48 2762,-446.45"/>
</g>
<!-- X10dc08fa9403900e_2 -->
<g id="node31" class="node">
<title>X10dc08fa9403900e_2</title>
<polygon fill="none" stroke="black" points="2860.38,-434.5 2806.38,-434.5 2806.38,-398.5 2860.38,-398.5 2860.38,-434.5"/>
<text xml:space="preserve" text-anchor="start" x="2814.38" y="-411.45" font-family="Times,serif" font-size="14.00">Return</text>
</g>
<!-- X10dc08fa9403900e_1&#45;&gt;X10dc08fa9403900e_2 -->
<g id="edge18" class="edge">
<title>X10dc08fa9403900e_1&#45;&gt;X10dc08fa9403900e_2</title>
<path fill="none" stroke="black" d="M2832.45,-629.75C2832.62,-590.62 2833.04,-494.8 2833.25,-446.43"/>
<polygon fill="black" stroke="black" points="2836.75,-446.48 2833.29,-436.46 2829.75,-446.45 2836.75,-446.48"/>
</g>
<!-- node_15 -->
<g id="node33" class="node">
<title>node_15</title>
<polygon fill="#7ccd7c" stroke="#7ccd7c" points="4999.5,-255 4855.25,-255 4855.25,-181 4999.5,-181 4999.5,-255"/>
<text xml:space="preserve" text-anchor="start" x="4863.25" y="-237.7" font-family="Times,serif" font-size="14.00">LOCALS</text>
<text xml:space="preserve" text-anchor="start" x="4863.25" y="-221.2" font-family="Times,serif" font-size="14.00">0 = () (0 bytes, align 1)</text>
<text xml:space="preserve" text-anchor="start" x="4863.25" y="-204.7" font-family="Times,serif" font-size="14.00">1 = fn()</text>
<text xml:space="preserve" text-anchor="start" x="4863.25" y="-188.2" font-family="Times,serif" font-size="14.00">2 = () (0 bytes, align 1)</text>
</g>
<!-- node_17 -->
<g id="node35" class="node">
<title>node_17</title>
<polygon fill="#7ccd7c" stroke="#7ccd7c" points="4036.38,-1156.25 3612.38,-1156.25 3612.38,-1098.75 4036.38,-1098.75 4036.38,-1156.25"/>
<text xml:space="preserve" text-anchor="start" x="3620.38" y="-1138.95" font-family="Times,serif" font-size="14.00">LOCALS</text>
<text xml:space="preserve" text-anchor="start" x="3620.38" y="-1122.45" font-family="Times,serif" font-size="14.00">0 = () (0 bytes, align 1)</text>
<text xml:space="preserve" text-anchor="start" x="3620.38" y="-1105.95" font-family="Times,serif" font-size="14.00">1 = *mut {closure@std::rt::lang_start&lt;()&gt;::{closure#0}} (8 bytes, align 8)</text>
</g>
<!-- Xdd5ba90dedd6c6e1_0 -->
<g id="node36" class="node">
<title>Xdd5ba90dedd6c6e1_0</title>
<polygon fill="none" stroke="black" points="4108.38,-1145.5 4054.38,-1145.5 4054.38,-1109.5 4108.38,-1109.5 4108.38,-1145.5"/>
<text xml:space="preserve" text-anchor="start" x="4062.38" y="-1122.45" font-family="Times,serif" font-size="14.00">Return</text>
</g>
<!-- node_19 -->
<g id="node37" class="node">
<title>node_19</title>
<polygon fill="#7ccd7c" stroke="#7ccd7c" points="4418.12,-246.75 4160.62,-246.75 4160.62,-189.25 4418.12,-189.25 4418.12,-246.75"/>
<text xml:space="preserve" text-anchor="start" x="4168.62" y="-229.45" font-family="Times,serif" font-size="14.00">LOCALS</text>
<text xml:space="preserve" text-anchor="start" x="4168.62" y="-212.95" font-family="Times,serif" font-size="14.00">0 = std::process::ExitCode (1 bytes, align 1)</text>
<text xml:space="preserve" text-anchor="start" x="4168.62" y="-196.45" font-family="Times,serif" font-size="14.00">1 = () (0 bytes, align 1)</text>
</g>
</g>
</svg>
